<svg width="336" height="313" viewBox="0 0 336 313" fill="none" xmlns="http://www.w3.org/2000/svg">
<g clip-path="url(#clip0_13137_59563)">
<g filter="url(#filter0_d_13137_59563)">
<path d="M298.667 26.6562H34.2856C30.0777 26.6562 26.6665 30.0659 26.6665 34.2718V275.685C26.6665 279.891 30.0777 283.301 34.2856 283.301H298.667C302.874 283.301 306.286 279.891 306.286 275.685V34.2718C306.286 30.0659 302.874 26.6562 298.667 26.6562Z" fill="white"/>
</g>
<path d="M122.667 208.668H54.0952C51.9912 208.668 50.2856 210.373 50.2856 212.476V232.276C50.2856 234.379 51.9912 236.084 54.0952 236.084H122.667C124.771 236.084 126.476 234.379 126.476 232.276V212.476C126.476 210.373 124.771 208.668 122.667 208.668Z" fill="#171717"/>
<mask id="mask0_13137_59563" style="mask-type:luminance" maskUnits="userSpaceOnUse" x="105" y="217" width="13" height="12">
<path d="M117.333 217.043H105.905V228.466H117.333V217.043Z" fill="white"/>
</mask>
<g mask="url(#mask0_13137_59563)">
<path d="M107.36 223.232H108.319C108.435 224.024 108.832 224.749 109.438 225.273C110.044 225.796 110.818 226.084 111.619 226.084C112.42 226.084 113.195 225.796 113.801 225.273C114.406 224.749 114.803 224.024 114.918 223.232H115.878C115.761 224.279 115.262 225.246 114.476 225.948C113.69 226.65 112.673 227.039 111.619 227.039C110.565 227.039 109.548 226.65 108.762 225.948C107.977 225.246 107.477 224.279 107.359 223.232H107.36ZM107.36 222.28C107.477 221.233 107.977 220.265 108.763 219.563C109.548 218.861 110.565 218.473 111.619 218.473C112.674 218.473 113.691 218.861 114.476 219.563C115.263 220.265 115.762 221.233 115.879 222.28H114.92C114.804 221.488 114.407 220.763 113.801 220.239C113.196 219.716 112.421 219.427 111.62 219.427C110.819 219.427 110.044 219.716 109.439 220.239C108.833 220.763 108.436 221.488 108.32 222.28H107.36Z" fill="white"/>
</g>
<path d="M63.674 227.041C62.9131 227.041 62.2625 226.884 61.722 226.571C61.1816 226.258 60.7656 225.814 60.474 225.239C60.1896 224.656 60.0474 223.97 60.0474 223.181C60.0474 222.591 60.1291 222.061 60.2927 221.592C60.4563 221.116 60.6909 220.711 60.9967 220.377C61.3096 220.036 61.69 219.776 62.138 219.599C62.5931 219.421 63.1051 219.332 63.674 219.332C64.0936 219.332 64.4954 219.389 64.8794 219.503C65.2705 219.616 65.6083 219.78 65.8927 219.993C66.0136 220.072 66.0918 220.167 66.1274 220.281C66.17 220.388 66.1771 220.49 66.1487 220.59C66.1274 220.69 66.0811 220.775 66.01 220.846C65.9389 220.91 65.8465 220.946 65.7327 220.953C65.626 220.959 65.5087 220.921 65.3807 220.835C65.146 220.658 64.8865 220.526 64.602 220.441C64.3176 220.356 64.0189 220.313 63.706 220.313C63.1656 220.313 62.7105 220.426 62.3407 220.654C61.9709 220.874 61.69 221.198 61.498 221.624C61.306 222.051 61.21 222.569 61.21 223.181C61.21 223.792 61.306 224.315 61.498 224.748C61.69 225.175 61.9709 225.501 62.3407 225.729C62.7105 225.949 63.1656 226.06 63.706 226.06C64.0189 226.06 64.3176 226.017 64.602 225.932C64.8936 225.84 65.1674 225.704 65.4234 225.527C65.5514 225.448 65.6651 225.413 65.7647 225.42C65.8714 225.427 65.9603 225.463 66.0314 225.527C66.1025 225.591 66.1487 225.672 66.17 225.772C66.1985 225.864 66.1949 225.964 66.1594 226.07C66.1309 226.17 66.0634 226.255 65.9567 226.326C65.6651 226.561 65.3203 226.738 64.922 226.859C64.5238 226.98 64.1078 227.041 63.674 227.041ZM67.9277 227.019C67.757 227.019 67.6255 226.973 67.533 226.881C67.4406 226.781 67.3943 226.646 67.3943 226.475V219.897C67.3943 219.72 67.4406 219.584 67.533 219.492C67.6255 219.4 67.757 219.353 67.9277 219.353C68.0983 219.353 68.2299 219.4 68.3223 219.492C68.4219 219.584 68.4717 219.72 68.4717 219.897V222.85H68.3223C68.4788 222.452 68.7242 222.154 69.0583 221.955C69.3926 221.748 69.7766 221.646 70.2103 221.646C70.6228 221.646 70.9642 221.724 71.2343 221.88C71.5117 222.029 71.7179 222.26 71.853 222.573C71.9882 222.879 72.0557 223.266 72.0557 223.735V226.475C72.0557 226.646 72.0095 226.781 71.917 226.881C71.8246 226.973 71.693 227.019 71.5223 227.019C71.3446 227.019 71.2095 226.973 71.117 226.881C71.0246 226.781 70.9783 226.646 70.9783 226.475V223.799C70.9783 223.352 70.8895 223.025 70.7117 222.818C70.541 222.612 70.2708 222.509 69.901 222.509C69.4673 222.509 69.1188 222.644 68.8557 222.914C68.5997 223.185 68.4717 223.547 68.4717 224.002V226.475C68.4717 226.838 68.2903 227.019 67.9277 227.019ZM75.9828 227.041C75.414 227.041 74.9233 226.934 74.5108 226.721C74.1055 226.501 73.7891 226.191 73.5615 225.793C73.3411 225.388 73.2308 224.908 73.2308 224.354C73.2308 223.814 73.3411 223.341 73.5615 222.936C73.782 222.531 74.0842 222.215 74.4682 221.987C74.8522 221.759 75.2895 221.646 75.7802 221.646C76.1428 221.646 76.4664 221.706 76.7506 221.827C77.0356 221.94 77.2771 222.111 77.4759 222.339C77.6824 222.559 77.8356 222.829 77.9346 223.149C78.0413 223.469 78.0946 223.827 78.0946 224.226C78.0946 224.347 78.0596 224.439 77.9879 224.503C77.9171 224.56 77.8104 224.588 77.6679 224.588H74.0842V223.927H77.3693L77.1879 224.077C77.1879 223.721 77.1346 223.419 77.0279 223.17C76.9289 222.921 76.7757 222.733 76.5693 222.605C76.3704 222.47 76.1215 222.403 75.8228 222.403C75.4887 222.403 75.2042 222.481 74.9695 222.637C74.742 222.793 74.5677 223.01 74.4468 223.288C74.326 223.565 74.2655 223.888 74.2655 224.258V224.322C74.2655 224.947 74.4113 225.42 74.7028 225.74C75.0015 226.053 75.4317 226.209 75.9935 226.209C76.2066 226.209 76.4306 226.181 76.6653 226.124C76.9076 226.066 77.1346 225.971 77.3479 225.836C77.4691 225.765 77.5757 225.733 77.6679 225.74C77.7677 225.747 77.8462 225.779 77.9026 225.836C77.9666 225.893 78.0062 225.964 78.0199 226.049C78.0344 226.134 78.0199 226.223 77.9773 226.316C77.9346 226.401 77.8599 226.479 77.7533 226.55C77.5117 226.714 77.2306 226.838 76.9106 226.923C76.5906 227.002 76.2813 227.041 75.9828 227.041ZM81.5628 227.041C81.0295 227.041 80.567 226.93 80.1761 226.71C79.7921 226.482 79.4935 226.166 79.2801 225.761C79.0668 225.349 78.9601 224.866 78.9601 224.311C78.9601 223.899 79.0203 223.529 79.1415 223.202C79.2626 222.868 79.4333 222.588 79.6535 222.36C79.8813 222.132 80.1548 221.959 80.4748 221.838C80.8017 221.71 81.1643 221.646 81.5628 221.646C81.8119 221.646 82.071 221.684 82.3415 221.763C82.6188 221.834 82.8748 221.955 83.1095 222.125C83.2017 222.183 83.2588 222.253 83.2801 222.339C83.3083 222.417 83.3121 222.499 83.2908 222.584C83.2763 222.669 83.2375 222.744 83.1735 222.808C83.1163 222.865 83.0455 222.9 82.9601 222.914C82.8748 222.921 82.7826 222.897 82.6828 222.84C82.5121 222.719 82.3377 222.633 82.1601 222.584C81.9826 222.527 81.8119 222.499 81.6481 222.499C81.3921 222.499 81.1643 222.541 80.9655 222.627C80.7735 222.705 80.6097 222.822 80.4748 222.978C80.3399 223.128 80.2363 223.316 80.1655 223.543C80.1015 223.771 80.0695 224.03 80.0695 224.322C80.0695 224.904 80.2043 225.363 80.4748 225.697C80.7521 226.024 81.143 226.188 81.6481 226.188C81.8119 226.188 81.9826 226.162 82.1601 226.113C82.3377 226.063 82.5121 225.978 82.6828 225.857C82.7826 225.8 82.8748 225.779 82.9601 225.793C83.0455 225.808 83.1133 225.846 83.1628 225.91C83.2199 225.967 83.255 226.038 83.2695 226.124C83.2908 226.202 83.287 226.284 83.2588 226.369C83.2306 226.454 83.1697 226.525 83.0775 226.582C82.8497 226.746 82.6013 226.863 82.3308 226.934C82.0679 227.005 81.8119 227.041 81.5628 227.041ZM84.7818 227.019C84.6112 227.019 84.4794 226.973 84.3872 226.881C84.295 226.781 84.2485 226.646 84.2485 226.475V219.897C84.2485 219.72 84.295 219.584 84.3872 219.492C84.4794 219.4 84.6112 219.353 84.7818 219.353C84.9525 219.353 85.0843 219.4 85.1765 219.492C85.2763 219.584 85.3258 219.72 85.3258 219.897V224.013H85.3472L87.3418 222.029C87.4554 221.916 87.559 221.827 87.6512 221.763C87.7434 221.699 87.8645 221.667 88.0138 221.667C88.1632 221.667 88.2767 221.706 88.3552 221.784C88.4337 221.863 88.4725 221.959 88.4725 222.072C88.4725 222.179 88.4192 222.289 88.3125 222.403L86.2005 224.492V223.991L88.5045 226.284C88.618 226.397 88.6714 226.511 88.6645 226.625C88.6577 226.738 88.6112 226.834 88.5258 226.913C88.4405 226.983 88.3338 227.019 88.2058 227.019C88.042 227.019 87.911 226.987 87.8112 226.923C87.719 226.859 87.6085 226.763 87.4805 226.635L85.3472 224.567H85.3258V226.475C85.3258 226.838 85.1445 227.019 84.7818 227.019ZM93.0942 227.009C92.9236 227.009 92.7925 226.959 92.6996 226.859C92.6074 226.753 92.5609 226.607 92.5609 226.422V222.264C92.5609 222.079 92.6074 221.937 92.6996 221.838C92.7925 221.738 92.9236 221.688 93.0942 221.688C93.2649 221.688 93.3967 221.738 93.4889 221.838C93.5887 221.937 93.6382 222.079 93.6382 222.264V226.422C93.6382 226.607 93.5925 226.753 93.4996 226.859C93.4074 226.959 93.2725 227.009 93.0942 227.009ZM93.0942 220.579C92.8809 220.579 92.714 220.526 92.5929 220.42C92.4794 220.313 92.4222 220.164 92.4222 219.972C92.4222 219.773 92.4794 219.624 92.5929 219.524C92.714 219.417 92.8809 219.364 93.0942 219.364C93.3076 219.364 93.4714 219.417 93.5849 219.524C93.706 219.624 93.7662 219.773 93.7662 219.972C93.7662 220.164 93.706 220.313 93.5849 220.42C93.4714 220.526 93.3076 220.579 93.0942 220.579ZM95.6877 227.019C95.5171 227.019 95.386 226.973 95.2931 226.881C95.2009 226.781 95.1544 226.646 95.1544 226.475V222.211C95.1544 222.033 95.2009 221.898 95.2931 221.806C95.386 221.713 95.514 221.667 95.6771 221.667C95.8477 221.667 95.9757 221.713 96.0611 221.806C96.154 221.898 96.1997 222.033 96.1997 222.211V223.042L96.0824 222.85C96.2394 222.452 96.4847 222.154 96.8184 221.955C97.1529 221.748 97.5369 221.646 97.9704 221.646C98.3834 221.646 98.7247 221.724 98.9944 221.88C99.2717 222.029 99.4782 222.26 99.6131 222.573C99.7487 222.879 99.8157 223.266 99.8157 223.735V226.475C99.8157 226.646 99.77 226.781 99.6771 226.881C99.5849 226.973 99.4531 227.019 99.2824 227.019C99.1049 227.019 98.97 226.973 98.8771 226.881C98.7849 226.781 98.7384 226.646 98.7384 226.475V223.799C98.7384 223.352 98.65 223.025 98.4717 222.818C98.3011 222.612 98.0314 222.509 97.6611 222.509C97.2276 222.509 96.8794 222.644 96.6157 222.914C96.3597 223.185 96.2317 223.547 96.2317 224.002V226.475C96.2317 226.838 96.0504 227.019 95.6877 227.019Z" fill="white"/>
<path d="M204.952 209.047H137.905C136.011 209.047 134.476 210.581 134.476 212.474V232.274C134.476 234.167 136.011 235.701 137.905 235.701H204.952C206.846 235.701 208.381 234.167 208.381 232.274V212.474C208.381 210.581 206.846 209.047 204.952 209.047Z" fill="#F9F9F9" stroke="#F6F6F6"/>
<mask id="mask1_13137_59563" style="mask-type:luminance" maskUnits="userSpaceOnUse" x="185" y="217" width="12" height="13">
<path d="M196.572 217.805H185.143V229.228H196.572V217.805Z" fill="white"/>
</mask>
<g mask="url(#mask1_13137_59563)">
<path d="M190.857 228.277C188.227 228.277 186.095 226.146 186.095 223.518C186.095 220.889 188.227 218.758 190.857 218.758C193.487 218.758 195.619 220.889 195.619 223.518C195.619 226.146 193.487 228.277 190.857 228.277ZM190.857 227.325C191.867 227.325 192.837 226.924 193.551 226.21C194.265 225.496 194.667 224.527 194.667 223.518C194.667 222.508 194.265 221.539 193.551 220.825C192.837 220.111 191.867 219.71 190.857 219.71C189.847 219.71 188.878 220.111 188.163 220.825C187.449 221.539 187.048 222.508 187.048 223.518C187.048 224.527 187.449 225.496 188.163 226.21C188.878 226.924 189.847 227.325 190.857 227.325ZM188.476 223.042H193.238V223.994H188.476V223.042Z" fill="#686868"/>
</g>
<path d="M151.368 226.288C150.585 226.288 149.913 226.132 149.352 225.819C148.797 225.499 148.37 225.052 148.072 224.476C147.773 223.893 147.624 223.207 147.624 222.418C147.624 221.828 147.709 221.299 147.88 220.83C148.05 220.354 148.296 219.948 148.616 219.614C148.936 219.273 149.326 219.013 149.789 218.836C150.258 218.651 150.785 218.559 151.368 218.559C151.758 218.559 152.142 218.608 152.52 218.708C152.897 218.808 153.227 218.949 153.512 219.134C153.661 219.226 153.761 219.341 153.81 219.476C153.86 219.603 153.87 219.731 153.842 219.859C153.814 219.98 153.753 220.083 153.661 220.169C153.576 220.254 153.465 220.303 153.33 220.318C153.202 220.325 153.06 220.279 152.904 220.179C152.683 220.037 152.445 219.934 152.189 219.87C151.933 219.806 151.673 219.774 151.41 219.774C150.905 219.774 150.478 219.877 150.13 220.083C149.782 220.29 149.518 220.588 149.341 220.979C149.163 221.37 149.074 221.849 149.074 222.418C149.074 222.979 149.163 223.459 149.341 223.858C149.518 224.256 149.782 224.557 150.13 224.764C150.478 224.97 150.905 225.073 151.41 225.073C151.681 225.073 151.947 225.041 152.21 224.977C152.473 224.906 152.722 224.8 152.957 224.657C153.113 224.565 153.252 224.525 153.373 224.54C153.501 224.547 153.608 224.589 153.693 224.668C153.778 224.746 153.835 224.845 153.864 224.966C153.892 225.08 153.885 225.201 153.842 225.329C153.8 225.45 153.714 225.557 153.586 225.649C153.302 225.855 152.961 226.015 152.562 226.128C152.171 226.235 151.773 226.288 151.368 226.288ZM156.521 226.288C156.144 226.288 155.806 226.218 155.508 226.075C155.216 225.926 154.985 225.727 154.814 225.478C154.651 225.229 154.569 224.949 154.569 224.636C154.569 224.252 154.668 223.95 154.868 223.73C155.067 223.502 155.39 223.339 155.838 223.239C156.286 223.139 156.887 223.09 157.641 223.09H158.174V223.858H157.652C157.211 223.858 156.859 223.879 156.596 223.921C156.332 223.964 156.144 224.039 156.03 224.145C155.924 224.245 155.87 224.387 155.87 224.572C155.87 224.806 155.952 224.998 156.116 225.148C156.279 225.297 156.507 225.371 156.798 225.371C157.033 225.371 157.239 225.318 157.417 225.212C157.601 225.098 157.748 224.945 157.854 224.753C157.961 224.561 158.014 224.341 158.014 224.092V222.866C158.014 222.51 157.936 222.254 157.78 222.098C157.623 221.942 157.36 221.864 156.99 221.864C156.784 221.864 156.56 221.889 156.318 221.938C156.084 221.988 155.835 222.073 155.572 222.194C155.436 222.258 155.316 222.276 155.209 222.248C155.109 222.219 155.031 222.162 154.974 222.077C154.917 221.985 154.889 221.885 154.889 221.778C154.889 221.672 154.917 221.569 154.974 221.469C155.031 221.363 155.127 221.284 155.262 221.235C155.589 221.1 155.902 221.004 156.201 220.947C156.507 220.89 156.784 220.862 157.033 220.862C157.545 220.862 157.964 220.94 158.292 221.096C158.625 221.252 158.875 221.491 159.038 221.81C159.201 222.123 159.284 222.529 159.284 223.026V225.585C159.284 225.805 159.23 225.975 159.124 226.096C159.017 226.21 158.864 226.267 158.665 226.267C158.465 226.267 158.309 226.21 158.196 226.096C158.089 225.975 158.036 225.805 158.036 225.585V225.073H158.121C158.071 225.322 157.972 225.538 157.822 225.723C157.68 225.901 157.499 226.039 157.278 226.139C157.057 226.239 156.805 226.288 156.521 226.288ZM161.298 226.267C161.085 226.267 160.921 226.21 160.808 226.096C160.693 225.975 160.637 225.805 160.637 225.585V221.555C160.637 221.334 160.693 221.167 160.808 221.053C160.921 220.94 161.081 220.883 161.288 220.883C161.493 220.883 161.653 220.94 161.768 221.053C161.881 221.167 161.938 221.334 161.938 221.555V222.28L161.821 222.013C161.977 221.636 162.219 221.352 162.546 221.16C162.88 220.961 163.257 220.862 163.677 220.862C164.096 220.862 164.441 220.94 164.712 221.096C164.981 221.252 165.184 221.491 165.32 221.81C165.454 222.123 165.522 222.521 165.522 223.005V225.585C165.522 225.805 165.465 225.975 165.352 226.096C165.237 226.21 165.074 226.267 164.861 226.267C164.648 226.267 164.48 226.21 164.36 226.096C164.245 225.975 164.189 225.805 164.189 225.585V223.069C164.189 222.663 164.11 222.369 163.954 222.184C163.805 221.999 163.57 221.906 163.25 221.906C162.859 221.906 162.546 222.031 162.312 222.28C162.084 222.521 161.97 222.845 161.97 223.25V225.585C161.97 226.039 161.746 226.267 161.298 226.267ZM169.287 226.288C168.74 226.288 168.263 226.178 167.857 225.958C167.452 225.73 167.14 225.41 166.919 224.998C166.699 224.586 166.588 224.103 166.588 223.548C166.588 223.129 166.649 222.756 166.769 222.429C166.897 222.095 167.079 221.814 167.313 221.587C167.548 221.352 167.833 221.175 168.167 221.053C168.501 220.926 168.875 220.862 169.287 220.862C169.521 220.862 169.774 220.894 170.044 220.958C170.321 221.021 170.581 221.128 170.823 221.277C170.937 221.348 171.012 221.433 171.047 221.533C171.083 221.633 171.089 221.736 171.068 221.842C171.047 221.942 171.001 222.031 170.929 222.109C170.865 222.18 170.784 222.226 170.684 222.248C170.585 222.262 170.475 222.237 170.353 222.173C170.197 222.081 170.037 222.013 169.873 221.97C169.71 221.921 169.553 221.896 169.404 221.896C169.169 221.896 168.964 221.935 168.785 222.013C168.608 222.084 168.455 222.19 168.327 222.333C168.206 222.468 168.113 222.638 168.049 222.845C167.985 223.051 167.953 223.289 167.953 223.559C167.953 224.085 168.078 224.501 168.327 224.806C168.583 225.105 168.942 225.254 169.404 225.254C169.553 225.254 169.707 225.233 169.863 225.19C170.027 225.148 170.19 225.08 170.353 224.988C170.475 224.924 170.581 224.902 170.673 224.924C170.773 224.945 170.855 224.995 170.919 225.073C170.983 225.144 171.022 225.233 171.036 225.34C171.051 225.439 171.036 225.538 170.993 225.638C170.958 225.738 170.887 225.819 170.78 225.883C170.545 226.026 170.297 226.128 170.033 226.192C169.771 226.256 169.521 226.288 169.287 226.288ZM174.374 226.288C173.784 226.288 173.275 226.178 172.849 225.958C172.422 225.738 172.091 225.425 171.857 225.02C171.629 224.615 171.515 224.135 171.515 223.58C171.515 223.04 171.626 222.567 171.846 222.162C172.074 221.757 172.383 221.441 172.774 221.213C173.172 220.979 173.624 220.862 174.129 220.862C174.498 220.862 174.829 220.922 175.121 221.043C175.419 221.164 175.672 221.338 175.878 221.565C176.091 221.793 176.251 222.07 176.358 222.397C176.472 222.717 176.529 223.079 176.529 223.484C176.529 223.612 176.482 223.712 176.39 223.783C176.305 223.847 176.18 223.879 176.017 223.879H172.593V223.111H175.59L175.419 223.271C175.419 222.944 175.37 222.67 175.27 222.45C175.178 222.23 175.039 222.063 174.854 221.949C174.676 221.828 174.452 221.768 174.182 221.768C173.883 221.768 173.627 221.839 173.414 221.981C173.208 222.116 173.048 222.312 172.934 222.567C172.827 222.816 172.774 223.115 172.774 223.463V223.538C172.774 224.12 172.909 224.557 173.179 224.849C173.457 225.133 173.862 225.276 174.395 225.276C174.58 225.276 174.786 225.254 175.014 225.212C175.249 225.162 175.469 225.08 175.675 224.966C175.825 224.881 175.956 224.845 176.07 224.86C176.184 224.867 176.273 224.906 176.337 224.977C176.408 225.048 176.45 225.137 176.465 225.244C176.479 225.343 176.458 225.446 176.401 225.553C176.351 225.659 176.262 225.752 176.134 225.83C175.885 225.986 175.597 226.103 175.27 226.182C174.95 226.253 174.651 226.288 174.374 226.288ZM179.366 226.288C178.776 226.288 178.331 226.122 178.033 225.787C177.734 225.446 177.585 224.949 177.585 224.295V219.252C177.585 219.032 177.642 218.864 177.755 218.751C177.869 218.637 178.033 218.58 178.246 218.58C178.459 218.58 178.623 218.637 178.737 218.751C178.858 218.864 178.918 219.032 178.918 219.252V224.231C178.918 224.557 178.986 224.8 179.121 224.956C179.263 225.112 179.462 225.19 179.718 225.19C179.775 225.19 179.828 225.19 179.878 225.19C179.928 225.183 179.978 225.176 180.027 225.169C180.127 225.154 180.194 225.183 180.23 225.254C180.266 225.318 180.283 225.453 180.283 225.659C180.283 225.837 180.248 225.975 180.177 226.075C180.106 226.175 179.988 226.235 179.825 226.256C179.754 226.263 179.679 226.271 179.601 226.278C179.522 226.285 179.444 226.288 179.366 226.288Z" fill="#686868"/>
<path d="M53.1628 260.533C52.5106 260.533 51.9529 260.399 51.4896 260.131C51.0264 259.863 50.6698 259.482 50.4199 258.989C50.1761 258.489 50.0542 257.901 50.0542 257.225C50.0542 256.719 50.1243 256.265 50.2645 255.863C50.4047 255.455 50.6058 255.108 50.8679 254.821C51.1361 254.529 51.4622 254.307 51.8462 254.154C52.2363 254.002 52.6752 253.926 53.1628 253.926C53.5224 253.926 53.8668 253.975 54.1959 254.072C54.5312 254.169 54.8207 254.31 55.0645 254.492C55.1681 254.559 55.2352 254.642 55.2656 254.739C55.3022 254.831 55.3083 254.919 55.2839 255.004C55.2656 255.089 55.226 255.163 55.1651 255.223C55.1041 255.278 55.0249 255.309 54.9273 255.315C54.8359 255.321 54.7353 255.287 54.6256 255.214C54.4245 255.062 54.202 254.949 53.9582 254.876C53.7144 254.803 53.4584 254.767 53.1902 254.767C52.727 254.767 52.3369 254.864 52.0199 255.059C51.703 255.248 51.4622 255.525 51.2976 255.891C51.1331 256.256 51.0508 256.701 51.0508 257.225C51.0508 257.749 51.1331 258.197 51.2976 258.568C51.4622 258.934 51.703 259.214 52.0199 259.409C52.3369 259.598 52.727 259.692 53.1902 259.692C53.4584 259.692 53.7144 259.656 53.9582 259.583C54.2081 259.503 54.4428 259.388 54.6622 259.235C54.7719 259.168 54.8694 259.138 54.9548 259.144C55.0462 259.15 55.1224 259.181 55.1833 259.235C55.2443 259.29 55.2839 259.36 55.3022 259.446C55.3266 259.525 55.3235 259.61 55.2931 259.701C55.2687 259.787 55.2108 259.86 55.1193 259.921C54.8694 260.122 54.5738 260.274 54.2325 260.378C53.8912 260.481 53.5346 260.533 53.1628 260.533ZM56.8179 260.515C56.6656 260.515 56.5497 260.475 56.4705 260.396C56.3913 260.311 56.3516 260.195 56.3516 260.049V256.393C56.3516 256.241 56.3913 256.125 56.4705 256.046C56.5497 255.967 56.6595 255.927 56.7996 255.927C56.9459 255.927 57.0556 255.967 57.1288 256.046C57.208 256.125 57.2476 256.241 57.2476 256.393V257.06H57.1562C57.2537 256.695 57.4336 256.418 57.6956 256.229C57.9577 256.04 58.293 255.93 58.7014 255.9C58.8111 255.894 58.8964 255.921 58.9574 255.982C59.0244 256.043 59.061 256.137 59.0671 256.265C59.0793 256.393 59.0518 256.497 58.9848 256.576C58.9177 256.649 58.8141 256.692 58.6739 256.704L58.5002 256.722C58.104 256.759 57.8023 256.884 57.5951 257.097C57.3878 257.31 57.2842 257.603 57.2842 257.974V260.049C57.2842 260.195 57.2446 260.311 57.1654 260.396C57.0922 260.475 56.9764 260.515 56.8179 260.515ZM61.7936 260.533C61.3059 260.533 60.8854 260.442 60.5318 260.259C60.1844 260.07 59.9132 259.805 59.7181 259.464C59.5292 259.117 59.4347 258.705 59.4347 258.23C59.4347 257.767 59.5292 257.362 59.7181 257.015C59.9071 256.667 60.1661 256.396 60.4953 256.201C60.8244 256.006 61.1993 255.909 61.6198 255.909C61.9307 255.909 62.208 255.961 62.4518 256.064C62.6957 256.162 62.9029 256.308 63.0736 256.503C63.2503 256.692 63.3814 256.923 63.4667 257.197C63.5581 257.472 63.6038 257.779 63.6038 258.12C63.6038 258.224 63.5734 258.303 63.5124 258.358C63.4515 258.407 63.36 258.431 63.2381 258.431H60.1661V257.865H62.9821L62.8267 257.992C62.8267 257.688 62.781 257.429 62.6896 257.216C62.6042 257.002 62.4732 256.841 62.2964 256.731C62.1257 256.616 61.9124 256.558 61.6564 256.558C61.3699 256.558 61.1261 256.625 60.925 256.759C60.7299 256.893 60.5806 257.079 60.477 257.316C60.3734 257.554 60.3216 257.831 60.3216 258.148V258.203C60.3216 258.739 60.4465 259.144 60.6964 259.418C60.9524 259.686 61.3212 259.82 61.8027 259.82C61.9856 259.82 62.1776 259.796 62.3787 259.747C62.5859 259.698 62.781 259.616 62.9638 259.5C63.0675 259.439 63.1589 259.412 63.2381 259.418C63.3235 259.424 63.3905 259.452 63.4393 259.5C63.4941 259.549 63.5276 259.61 63.5398 259.683C63.552 259.756 63.5398 259.832 63.5033 259.912C63.4667 259.985 63.4027 260.052 63.3113 260.113C63.104 260.253 62.8633 260.359 62.589 260.433C62.3147 260.5 62.0496 260.533 61.7936 260.533ZM66.0368 260.533C65.726 260.533 65.4456 260.472 65.1957 260.35C64.9519 260.228 64.7599 260.064 64.6197 259.857C64.4795 259.65 64.4094 259.415 64.4094 259.153C64.4094 258.824 64.4917 258.565 64.6563 258.376C64.8269 258.181 65.1043 258.044 65.4883 257.965C65.8784 257.88 66.4025 257.837 67.0608 257.837H67.4905V258.404H67.07C66.6311 258.404 66.2837 258.425 66.0277 258.468C65.7717 258.51 65.5888 258.583 65.4791 258.687C65.3755 258.785 65.3237 258.922 65.3237 259.098C65.3237 259.33 65.4029 259.519 65.5614 259.665C65.7199 259.805 65.9393 259.875 66.2197 259.875C66.4452 259.875 66.6433 259.823 66.814 259.72C66.9846 259.61 67.1187 259.464 67.2163 259.281C67.3199 259.098 67.3717 258.888 67.3717 258.65V257.6C67.3717 257.252 67.2985 257.002 67.1523 256.85C67.006 256.698 66.7652 256.622 66.43 256.622C66.2349 256.622 66.0307 256.646 65.8174 256.695C65.6102 256.744 65.3938 256.826 65.1683 256.942C65.0646 256.99 64.9763 257.006 64.9031 256.987C64.83 256.969 64.7721 256.929 64.7294 256.868C64.6867 256.801 64.6624 256.731 64.6563 256.658C64.6563 256.579 64.6745 256.503 64.7111 256.43C64.7538 256.357 64.8239 256.302 64.9214 256.265C65.1896 256.137 65.4547 256.046 65.7168 255.991C65.9789 255.936 66.2258 255.909 66.4574 255.909C66.8658 255.909 67.201 255.973 67.4631 256.101C67.7313 256.229 67.9294 256.424 68.0574 256.686C68.1854 256.948 68.2494 257.286 68.2494 257.7V260.049C68.2494 260.195 68.2128 260.311 68.1397 260.396C68.0665 260.475 67.9599 260.515 67.8197 260.515C67.6856 260.515 67.5789 260.475 67.4997 260.396C67.4204 260.311 67.3808 260.195 67.3808 260.049V259.455H67.4631C67.4144 259.68 67.3229 259.875 67.1888 260.04C67.0608 260.198 66.8993 260.32 66.7043 260.405C66.5092 260.49 66.2867 260.533 66.0368 260.533ZM71.423 260.533C71.0572 260.533 70.7494 260.469 70.4995 260.341C70.2496 260.213 70.0637 260.024 69.9418 259.775C69.8199 259.525 69.759 259.22 69.759 258.861V256.704H69.2104C69.0885 256.704 68.994 256.673 68.927 256.613C68.8599 256.546 68.8264 256.457 68.8264 256.348C68.8264 256.232 68.8599 256.143 68.927 256.083C68.994 256.022 69.0885 255.991 69.2104 255.991H69.759V255.05C69.759 254.898 69.7986 254.782 69.8778 254.703C69.9632 254.623 70.079 254.584 70.2252 254.584C70.3715 254.584 70.4843 254.623 70.5635 254.703C70.6428 254.782 70.6824 254.898 70.6824 255.05V255.991H71.7521C71.874 255.991 71.9685 256.022 72.0355 256.083C72.1026 256.143 72.1361 256.232 72.1361 256.348C72.1361 256.457 72.1026 256.546 72.0355 256.613C71.9685 256.673 71.874 256.704 71.7521 256.704H70.6824V258.788C70.6824 259.11 70.7494 259.354 70.8835 259.519C71.0237 259.683 71.2492 259.765 71.5601 259.765C71.6698 259.765 71.7643 259.756 71.8435 259.738C71.9289 259.714 71.999 259.698 72.0538 259.692C72.1209 259.692 72.1757 259.717 72.2184 259.765C72.2611 259.808 72.2824 259.893 72.2824 260.021C72.2824 260.113 72.2641 260.198 72.2275 260.277C72.1971 260.356 72.1392 260.408 72.0538 260.433C71.9807 260.457 71.8801 260.478 71.7521 260.496C71.6302 260.521 71.5205 260.533 71.423 260.533ZM74.9097 260.533C74.422 260.533 74.0015 260.442 73.648 260.259C73.3005 260.07 73.0293 259.805 72.8342 259.464C72.6453 259.117 72.5508 258.705 72.5508 258.23C72.5508 257.767 72.6453 257.362 72.8342 257.015C73.0232 256.667 73.2822 256.396 73.6114 256.201C73.9405 256.006 74.3154 255.909 74.736 255.909C75.0468 255.909 75.3241 255.961 75.568 256.064C75.8118 256.162 76.019 256.308 76.1897 256.503C76.3666 256.692 76.4976 256.923 76.583 257.197C76.6744 257.472 76.7201 257.779 76.7201 258.12C76.7201 258.224 76.6896 258.303 76.6287 258.358C76.5677 258.407 76.4763 258.431 76.3544 258.431H73.2822V257.865H76.0982L75.9428 257.992C75.9428 257.688 75.8971 257.429 75.8057 257.216C75.7203 257.002 75.5893 256.841 75.4125 256.731C75.2419 256.616 75.0285 256.558 74.7725 256.558C74.486 256.558 74.2422 256.625 74.0411 256.759C73.8461 256.893 73.6967 257.079 73.5931 257.316C73.4895 257.554 73.4377 257.831 73.4377 258.148V258.203C73.4377 258.739 73.5626 259.144 73.8125 259.418C74.0685 259.686 74.4373 259.82 74.9188 259.82C75.1017 259.82 75.2937 259.796 75.4948 259.747C75.702 259.698 75.8971 259.616 76.08 259.5C76.1836 259.439 76.2752 259.412 76.3544 259.418C76.4397 259.424 76.5068 259.452 76.5555 259.5C76.6104 259.549 76.6439 259.61 76.6561 259.683C76.6683 259.756 76.6561 259.832 76.6195 259.912C76.583 259.985 76.519 260.052 76.4275 260.113C76.2203 260.253 75.9794 260.359 75.7051 260.433C75.4308 260.5 75.1657 260.533 74.9097 260.533ZM79.4272 260.533C79.0371 260.533 78.6927 260.442 78.394 260.259C78.1014 260.07 77.8729 259.802 77.7083 259.455C77.5437 259.101 77.4614 258.69 77.4614 258.221C77.4614 257.74 77.5437 257.328 77.7083 256.987C77.8729 256.646 78.1014 256.381 78.394 256.192C78.6927 256.003 79.0371 255.909 79.4272 255.909C79.8172 255.909 80.1525 256.006 80.4329 256.201C80.7193 256.39 80.9113 256.646 81.0089 256.969H80.9083V254.41C80.9083 254.258 80.9479 254.142 81.0272 254.063C81.1064 253.984 81.2192 253.944 81.3654 253.944C81.5117 253.944 81.6245 253.984 81.7037 254.063C81.7891 254.142 81.8317 254.258 81.8317 254.41V260.049C81.8317 260.195 81.7921 260.311 81.7129 260.396C81.6336 260.475 81.5209 260.515 81.3746 260.515C81.2283 260.515 81.1155 260.475 81.0363 260.396C80.9571 260.311 80.9174 260.195 80.9174 260.049V259.244L81.018 259.446C80.9205 259.775 80.7285 260.04 80.442 260.241C80.1616 260.436 79.8233 260.533 79.4272 260.533ZM79.6649 259.82C79.9148 259.82 80.1342 259.759 80.3232 259.637C80.5121 259.516 80.6584 259.336 80.762 259.098C80.8717 258.861 80.9266 258.568 80.9266 258.221C80.9266 257.697 80.8108 257.301 80.5792 257.033C80.3475 256.765 80.0428 256.631 79.6649 256.631C79.4089 256.631 79.1864 256.692 78.9974 256.814C78.8085 256.929 78.6592 257.106 78.5494 257.344C78.4458 257.581 78.394 257.874 78.394 258.221C78.394 258.739 78.5098 259.135 78.7414 259.409C78.9731 259.683 79.2809 259.82 79.6649 259.82ZM86.1517 260.451C85.9872 260.451 85.8592 260.408 85.7677 260.323C85.6824 260.231 85.6397 260.104 85.6397 259.939V254.52C85.6397 254.355 85.6824 254.23 85.7677 254.145C85.8592 254.054 85.9872 254.008 86.1517 254.008H88.3277C88.7727 254.008 89.1506 254.075 89.4614 254.209C89.7784 254.343 90.0191 254.535 90.1837 254.785C90.3544 255.035 90.4397 255.336 90.4397 255.69C90.4397 256.079 90.3239 256.408 90.0923 256.677C89.8607 256.945 89.5468 257.124 89.1506 257.216V257.079C89.6016 257.14 89.9552 257.31 90.2112 257.59C90.4672 257.865 90.5951 258.224 90.5951 258.669C90.5951 259.241 90.4062 259.683 90.0283 259.994C89.6504 260.298 89.1201 260.451 88.4374 260.451H86.1517ZM86.554 259.72H88.3277C88.7849 259.72 89.1232 259.631 89.3426 259.455C89.562 259.272 89.6717 258.998 89.6717 258.632C89.6717 258.267 89.562 257.996 89.3426 257.819C89.1232 257.642 88.7849 257.554 88.3277 257.554H86.554V259.72ZM86.554 256.823H88.1814C88.6203 256.823 88.9525 256.734 89.178 256.558C89.4035 256.381 89.5163 256.122 89.5163 255.781C89.5163 255.44 89.4035 255.181 89.178 255.004C88.9525 254.827 88.6203 254.739 88.1814 254.739H86.554V256.823ZM92.823 262.16C92.7132 262.16 92.6218 262.129 92.5487 262.068C92.4816 262.014 92.442 261.937 92.4298 261.84C92.4237 261.748 92.442 261.648 92.4847 261.538L93.1064 260.14V260.533L91.3967 256.558C91.354 256.448 91.3388 256.344 91.351 256.247C91.3632 256.15 91.4089 256.073 91.4881 256.019C91.5673 255.958 91.674 255.927 91.8081 255.927C91.9239 255.927 92.0153 255.955 92.0824 256.009C92.1494 256.064 92.2104 256.159 92.2652 256.293L93.6458 259.701H93.3898L94.7887 256.293C94.8435 256.153 94.9075 256.058 94.9807 256.009C95.0538 255.955 95.1544 255.927 95.2824 255.927C95.3921 255.927 95.4774 255.958 95.5384 256.019C95.6054 256.073 95.6451 256.15 95.6572 256.247C95.6755 256.338 95.6603 256.439 95.6115 256.549L93.3258 261.803C93.2649 261.943 93.1948 262.038 93.1155 262.087C93.0424 262.135 92.9449 262.16 92.823 262.16ZM99.4805 260.515C99.3403 260.515 99.2306 260.475 99.1513 260.396C99.0721 260.317 99.0325 260.204 99.0325 260.058V254.419C99.0325 254.267 99.0691 254.151 99.1422 254.072C99.2214 253.987 99.3251 253.944 99.4531 253.944C99.5628 253.944 99.6451 253.965 99.6999 254.008C99.7609 254.045 99.831 254.115 99.9102 254.218L103.677 259.181H103.448V254.392C103.448 254.252 103.485 254.142 103.558 254.063C103.637 253.984 103.747 253.944 103.887 253.944C104.034 253.944 104.143 253.984 104.216 254.063C104.29 254.142 104.326 254.252 104.326 254.392V260.067C104.326 260.207 104.29 260.317 104.216 260.396C104.149 260.475 104.058 260.515 103.942 260.515C103.832 260.515 103.741 260.493 103.668 260.451C103.601 260.408 103.528 260.335 103.448 260.231L99.6999 255.278H99.9102V260.058C99.9102 260.204 99.8736 260.317 99.8005 260.396C99.7273 260.475 99.6207 260.515 99.4805 260.515ZM107.317 260.533C106.958 260.533 106.656 260.466 106.412 260.332C106.175 260.198 105.995 260 105.873 259.738C105.757 259.47 105.699 259.135 105.699 258.733V256.393C105.699 256.235 105.739 256.119 105.818 256.046C105.897 255.967 106.01 255.927 106.156 255.927C106.303 255.927 106.415 255.967 106.495 256.046C106.58 256.119 106.623 256.235 106.623 256.393V258.742C106.623 259.101 106.696 259.366 106.842 259.537C106.988 259.708 107.22 259.793 107.537 259.793C107.884 259.793 108.165 259.677 108.378 259.446C108.597 259.208 108.707 258.897 108.707 258.513V256.393C108.707 256.235 108.747 256.119 108.826 256.046C108.905 255.967 109.021 255.927 109.173 255.927C109.32 255.927 109.432 255.967 109.512 256.046C109.591 256.119 109.631 256.235 109.631 256.393V260.049C109.631 260.359 109.481 260.515 109.183 260.515C109.042 260.515 108.933 260.475 108.853 260.396C108.774 260.311 108.735 260.195 108.735 260.049V259.272L108.853 259.473C108.732 259.814 108.536 260.076 108.268 260.259C108 260.442 107.683 260.533 107.317 260.533ZM111.398 260.515C111.246 260.515 111.13 260.475 111.051 260.396C110.972 260.311 110.932 260.195 110.932 260.049V256.393C110.932 256.241 110.972 256.125 111.051 256.046C111.13 255.967 111.24 255.927 111.38 255.927C111.526 255.927 111.636 255.967 111.709 256.046C111.788 256.125 111.828 256.241 111.828 256.393V257.06H111.736C111.834 256.695 112.014 256.418 112.276 256.229C112.538 256.04 112.873 255.93 113.282 255.9C113.391 255.894 113.477 255.921 113.538 255.982C113.605 256.043 113.641 256.137 113.647 256.265C113.66 256.393 113.632 256.497 113.565 256.576C113.498 256.649 113.394 256.692 113.254 256.704L113.08 256.722C112.684 256.759 112.383 256.884 112.175 257.097C111.968 257.31 111.864 257.603 111.864 257.974V260.049C111.864 260.195 111.825 260.311 111.746 260.396C111.672 260.475 111.557 260.515 111.398 260.515ZM115.861 260.533C115.593 260.533 115.316 260.503 115.029 260.442C114.749 260.381 114.49 260.277 114.252 260.131C114.173 260.076 114.118 260.015 114.088 259.948C114.057 259.881 114.045 259.814 114.051 259.747C114.063 259.674 114.091 259.613 114.133 259.564C114.182 259.51 114.24 259.476 114.307 259.464C114.38 259.452 114.456 259.467 114.536 259.51C114.773 259.644 115.002 259.738 115.221 259.793C115.441 259.842 115.657 259.866 115.871 259.866C116.194 259.866 116.437 259.808 116.602 259.692C116.767 259.577 116.849 259.421 116.849 259.226C116.849 259.068 116.794 258.946 116.684 258.861C116.575 258.769 116.41 258.699 116.191 258.65L115.322 258.477C114.944 258.398 114.658 258.258 114.463 258.056C114.268 257.855 114.17 257.6 114.17 257.289C114.17 257.009 114.246 256.765 114.399 256.558C114.551 256.351 114.764 256.192 115.039 256.083C115.313 255.967 115.63 255.909 115.989 255.909C116.258 255.909 116.511 255.942 116.748 256.009C116.986 256.076 117.205 256.177 117.407 256.311C117.486 256.354 117.538 256.411 117.562 256.485C117.586 256.552 117.589 256.619 117.571 256.686C117.559 256.753 117.528 256.814 117.48 256.868C117.431 256.917 117.37 256.948 117.297 256.96C117.23 256.966 117.154 256.948 117.068 256.905C116.885 256.789 116.703 256.707 116.52 256.658C116.343 256.609 116.166 256.585 115.989 256.585C115.666 256.585 115.423 256.646 115.258 256.768C115.1 256.884 115.02 257.042 115.02 257.243C115.02 257.395 115.069 257.52 115.167 257.618C115.264 257.715 115.416 257.785 115.624 257.828L116.492 258.002C116.888 258.081 117.187 258.215 117.388 258.404C117.596 258.593 117.699 258.848 117.699 259.171C117.699 259.592 117.532 259.924 117.196 260.167C116.861 260.411 116.416 260.533 115.861 260.533ZM120.821 260.533C120.333 260.533 119.912 260.442 119.559 260.259C119.212 260.07 118.94 259.805 118.745 259.464C118.556 259.117 118.462 258.705 118.462 258.23C118.462 257.767 118.556 257.362 118.745 257.015C118.934 256.667 119.193 256.396 119.522 256.201C119.852 256.006 120.226 255.909 120.647 255.909C120.958 255.909 121.235 255.961 121.479 256.064C121.723 256.162 121.93 256.308 122.101 256.503C122.277 256.692 122.408 256.923 122.494 257.197C122.585 257.472 122.631 257.779 122.631 258.12C122.631 258.224 122.6 258.303 122.54 258.358C122.479 258.407 122.387 258.431 122.265 258.431H119.193V257.865H122.009L121.854 257.992C121.854 257.688 121.808 257.429 121.717 257.216C121.631 257.002 121.5 256.841 121.324 256.731C121.153 256.616 120.94 256.558 120.684 256.558C120.397 256.558 120.153 256.625 119.952 256.759C119.757 256.893 119.608 257.079 119.504 257.316C119.4 257.554 119.349 257.831 119.349 258.148V258.203C119.349 258.739 119.474 259.144 119.724 259.418C119.98 259.686 120.348 259.82 120.83 259.82C121.013 259.82 121.205 259.796 121.406 259.747C121.613 259.698 121.808 259.616 121.991 259.5C122.095 259.439 122.186 259.412 122.265 259.418C122.351 259.424 122.418 259.452 122.466 259.5C122.521 259.549 122.555 259.61 122.567 259.683C122.579 259.756 122.567 259.832 122.53 259.912C122.494 259.985 122.43 260.052 122.338 260.113C122.131 260.253 121.89 260.359 121.616 260.433C121.342 260.5 121.077 260.533 120.821 260.533ZM128.297 260.533C128.017 260.533 127.743 260.512 127.474 260.469C127.206 260.426 126.953 260.362 126.716 260.277C126.478 260.186 126.264 260.076 126.076 259.948C125.984 259.881 125.92 259.805 125.884 259.72C125.853 259.634 125.844 259.552 125.856 259.473C125.874 259.388 125.911 259.315 125.966 259.254C126.021 259.193 126.088 259.156 126.167 259.144C126.246 259.126 126.335 259.15 126.432 259.217C126.706 259.394 126.996 259.525 127.301 259.61C127.605 259.689 127.938 259.729 128.297 259.729C128.815 259.729 129.196 259.637 129.44 259.455C129.69 259.266 129.815 259.022 129.815 258.724C129.815 258.48 129.727 258.288 129.55 258.148C129.373 258.002 129.077 257.886 128.663 257.801L127.685 257.6C127.106 257.478 126.673 257.277 126.386 256.996C126.106 256.716 125.966 256.338 125.966 255.863C125.966 255.577 126.024 255.315 126.14 255.077C126.261 254.84 126.429 254.636 126.642 254.465C126.856 254.288 127.112 254.154 127.41 254.063C127.709 253.971 128.035 253.926 128.389 253.926C128.767 253.926 129.12 253.975 129.449 254.072C129.784 254.169 130.083 254.319 130.345 254.52C130.424 254.575 130.476 254.645 130.501 254.73C130.531 254.809 130.537 254.888 130.519 254.968C130.507 255.047 130.473 255.114 130.418 255.169C130.364 255.223 130.293 255.257 130.208 255.269C130.123 255.275 130.028 255.245 129.925 255.178C129.687 255.019 129.443 254.907 129.193 254.84C128.949 254.767 128.678 254.73 128.38 254.73C128.081 254.73 127.819 254.776 127.593 254.867C127.374 254.958 127.203 255.086 127.081 255.251C126.965 255.415 126.908 255.61 126.908 255.836C126.908 256.092 126.99 256.296 127.154 256.448C127.319 256.6 127.593 256.716 127.977 256.795L128.946 256.996C129.556 257.124 130.01 257.322 130.309 257.59C130.607 257.858 130.757 258.215 130.757 258.66C130.757 258.946 130.699 259.205 130.583 259.436C130.467 259.662 130.303 259.857 130.089 260.021C129.876 260.186 129.617 260.314 129.312 260.405C129.013 260.49 128.675 260.533 128.297 260.533ZM133.674 260.533C133.223 260.533 132.833 260.439 132.504 260.25C132.181 260.061 131.928 259.793 131.745 259.446C131.562 259.098 131.471 258.69 131.471 258.221C131.471 257.861 131.522 257.542 131.626 257.261C131.73 256.981 131.876 256.741 132.065 256.539C132.26 256.332 132.492 256.177 132.76 256.073C133.034 255.964 133.339 255.909 133.674 255.909C134.119 255.909 134.503 256.003 134.826 256.192C135.155 256.381 135.411 256.649 135.594 256.996C135.777 257.338 135.868 257.746 135.868 258.221C135.868 258.574 135.816 258.894 135.713 259.181C135.609 259.467 135.46 259.711 135.265 259.912C135.076 260.113 134.844 260.268 134.57 260.378C134.302 260.481 134.003 260.533 133.674 260.533ZM133.674 259.82C133.924 259.82 134.143 259.759 134.332 259.637C134.521 259.516 134.668 259.336 134.771 259.098C134.881 258.861 134.936 258.568 134.936 258.221C134.936 257.697 134.82 257.301 134.588 257.033C134.357 256.765 134.052 256.631 133.674 256.631C133.418 256.631 133.196 256.692 133.007 256.814C132.818 256.929 132.668 257.106 132.559 257.344C132.455 257.581 132.403 257.874 132.403 258.221C132.403 258.739 132.519 259.135 132.751 259.409C132.982 259.683 133.29 259.82 133.674 259.82ZM137.381 260.515C137.234 260.515 137.122 260.475 137.042 260.396C136.963 260.311 136.924 260.195 136.924 260.049V256.393C136.924 256.241 136.963 256.125 137.042 256.046C137.122 255.967 137.231 255.927 137.372 255.927C137.518 255.927 137.628 255.967 137.701 256.046C137.78 256.125 137.82 256.241 137.82 256.393V257.143L137.719 256.942C137.841 256.619 138.03 256.366 138.286 256.183C138.542 256 138.85 255.909 139.209 255.909C139.581 255.909 139.883 255.997 140.114 256.174C140.346 256.351 140.504 256.622 140.59 256.987H140.462C140.578 256.652 140.776 256.39 141.056 256.201C141.336 256.006 141.663 255.909 142.034 255.909C142.376 255.909 142.656 255.976 142.876 256.11C143.095 256.238 143.26 256.436 143.369 256.704C143.479 256.966 143.534 257.298 143.534 257.7V260.049C143.534 260.195 143.491 260.311 143.406 260.396C143.327 260.475 143.214 260.515 143.068 260.515C142.921 260.515 142.808 260.475 142.729 260.396C142.65 260.311 142.61 260.195 142.61 260.049V257.746C142.61 257.368 142.543 257.091 142.409 256.914C142.281 256.737 142.068 256.649 141.769 256.649C141.434 256.649 141.169 256.765 140.974 256.996C140.779 257.228 140.681 257.548 140.681 257.956V260.049C140.681 260.195 140.642 260.311 140.562 260.396C140.483 260.475 140.37 260.515 140.224 260.515C140.078 260.515 139.962 260.475 139.877 260.396C139.797 260.311 139.758 260.195 139.758 260.049V257.746C139.758 257.368 139.694 257.091 139.566 256.914C139.438 256.737 139.224 256.649 138.926 256.649C138.591 256.649 138.325 256.765 138.13 256.996C137.941 257.228 137.847 257.548 137.847 257.956V260.049C137.847 260.359 137.692 260.515 137.381 260.515ZM146.79 260.533C146.333 260.533 145.937 260.439 145.602 260.25C145.272 260.055 145.016 259.784 144.834 259.436C144.651 259.083 144.559 258.669 144.559 258.194C144.559 257.84 144.611 257.523 144.715 257.243C144.818 256.957 144.965 256.716 145.154 256.521C145.349 256.326 145.583 256.177 145.858 256.073C146.138 255.964 146.449 255.909 146.79 255.909C147.004 255.909 147.226 255.942 147.458 256.009C147.695 256.07 147.915 256.174 148.116 256.32C148.195 256.369 148.244 256.43 148.262 256.503C148.287 256.57 148.29 256.64 148.271 256.713C148.259 256.786 148.226 256.85 148.171 256.905C148.122 256.954 148.061 256.984 147.988 256.996C147.915 257.002 147.836 256.981 147.75 256.932C147.604 256.829 147.455 256.756 147.302 256.713C147.15 256.664 147.004 256.64 146.863 256.64C146.644 256.64 146.449 256.677 146.278 256.75C146.114 256.817 145.973 256.917 145.858 257.051C145.742 257.179 145.653 257.341 145.592 257.536C145.538 257.731 145.51 257.953 145.51 258.203C145.51 258.702 145.626 259.095 145.858 259.382C146.095 259.662 146.431 259.802 146.863 259.802C147.004 259.802 147.15 259.781 147.302 259.738C147.455 259.695 147.604 259.622 147.75 259.519C147.836 259.47 147.915 259.452 147.988 259.464C148.061 259.476 148.119 259.51 148.162 259.564C148.21 259.613 148.241 259.674 148.253 259.747C148.271 259.814 148.268 259.884 148.244 259.957C148.22 260.03 148.168 260.091 148.088 260.14C147.893 260.28 147.68 260.381 147.448 260.442C147.223 260.503 147.004 260.533 146.79 260.533ZM149.55 260.515C149.404 260.515 149.291 260.475 149.212 260.396C149.132 260.311 149.093 260.195 149.093 260.049V254.41C149.093 254.258 149.132 254.142 149.212 254.063C149.291 253.984 149.404 253.944 149.55 253.944C149.696 253.944 149.809 253.984 149.888 254.063C149.973 254.142 150.016 254.258 150.016 254.41V256.942H149.888C150.022 256.6 150.232 256.344 150.519 256.174C150.805 255.997 151.135 255.909 151.506 255.909C151.86 255.909 152.152 255.976 152.384 256.11C152.622 256.238 152.799 256.436 152.914 256.704C153.03 256.966 153.088 257.298 153.088 257.7V260.049C153.088 260.195 153.048 260.311 152.969 260.396C152.89 260.475 152.777 260.515 152.631 260.515C152.479 260.515 152.363 260.475 152.284 260.396C152.204 260.311 152.165 260.195 152.165 260.049V257.755C152.165 257.371 152.088 257.091 151.936 256.914C151.79 256.737 151.558 256.649 151.241 256.649C150.869 256.649 150.571 256.765 150.345 256.996C150.126 257.228 150.016 257.539 150.016 257.929V260.049C150.016 260.359 149.861 260.515 149.55 260.515ZM154.818 260.506C154.671 260.506 154.559 260.463 154.479 260.378C154.4 260.286 154.36 260.161 154.36 260.003V256.439C154.36 256.281 154.4 256.159 154.479 256.073C154.559 255.988 154.671 255.945 154.818 255.945C154.964 255.945 155.077 255.988 155.156 256.073C155.241 256.159 155.284 256.281 155.284 256.439V260.003C155.284 260.161 155.244 260.286 155.165 260.378C155.086 260.463 154.97 260.506 154.818 260.506ZM154.818 254.995C154.635 254.995 154.492 254.949 154.388 254.858C154.29 254.767 154.242 254.639 154.242 254.474C154.242 254.304 154.29 254.176 154.388 254.09C154.492 253.999 154.635 253.953 154.818 253.953C155 253.953 155.141 253.999 155.238 254.09C155.342 254.176 155.394 254.304 155.394 254.474C155.394 254.639 155.342 254.767 155.238 254.858C155.141 254.949 155 254.995 154.818 254.995ZM161.984 260.533C161.332 260.533 160.774 260.399 160.311 260.131C159.848 259.863 159.491 259.482 159.241 258.989C158.997 258.489 158.876 257.901 158.876 257.225C158.876 256.719 158.946 256.265 159.086 255.863C159.226 255.455 159.427 255.108 159.689 254.821C159.957 254.529 160.284 254.307 160.668 254.154C161.058 254.002 161.496 253.926 161.984 253.926C162.344 253.926 162.688 253.975 163.017 254.072C163.352 254.169 163.642 254.31 163.886 254.492C163.989 254.559 164.056 254.642 164.087 254.739C164.124 254.831 164.13 254.919 164.105 255.004C164.087 255.089 164.047 255.163 163.986 255.223C163.925 255.278 163.846 255.309 163.749 255.315C163.657 255.321 163.557 255.287 163.447 255.214C163.246 255.062 163.023 254.949 162.78 254.876C162.536 254.803 162.28 254.767 162.012 254.767C161.548 254.767 161.158 254.864 160.841 255.059C160.524 255.248 160.284 255.525 160.119 255.891C159.954 256.256 159.872 256.701 159.872 257.225C159.872 257.749 159.954 258.197 160.119 258.568C160.284 258.934 160.524 259.214 160.841 259.409C161.158 259.598 161.548 259.692 162.012 259.692C162.28 259.692 162.536 259.656 162.78 259.583C163.029 259.503 163.264 259.388 163.484 259.235C163.593 259.168 163.691 259.138 163.776 259.144C163.868 259.15 163.944 259.181 164.005 259.235C164.066 259.29 164.105 259.36 164.124 259.446C164.148 259.525 164.145 259.61 164.114 259.701C164.09 259.787 164.032 259.86 163.941 259.921C163.691 260.122 163.395 260.274 163.054 260.378C162.712 260.481 162.356 260.533 161.984 260.533ZM165.631 260.515C165.484 260.515 165.372 260.475 165.292 260.396C165.213 260.311 165.173 260.195 165.173 260.049V254.41C165.173 254.258 165.213 254.142 165.292 254.063C165.372 253.984 165.484 253.944 165.631 253.944C165.777 253.944 165.89 253.984 165.969 254.063C166.054 254.142 166.097 254.258 166.097 254.41V256.942H165.969C166.103 256.6 166.313 256.344 166.6 256.174C166.886 255.997 167.215 255.909 167.587 255.909C167.941 255.909 168.233 255.976 168.465 256.11C168.703 256.238 168.879 256.436 168.995 256.704C169.111 256.966 169.169 257.298 169.169 257.7V260.049C169.169 260.195 169.129 260.311 169.05 260.396C168.971 260.475 168.858 260.515 168.712 260.515C168.559 260.515 168.444 260.475 168.364 260.396C168.285 260.311 168.245 260.195 168.245 260.049V257.755C168.245 257.371 168.169 257.091 168.017 256.914C167.871 256.737 167.639 256.649 167.322 256.649C166.95 256.649 166.652 256.765 166.426 256.996C166.207 257.228 166.097 257.539 166.097 257.929V260.049C166.097 260.359 165.941 260.515 165.631 260.515ZM172.032 260.533C171.672 260.533 171.371 260.466 171.127 260.332C170.889 260.198 170.709 260 170.588 259.738C170.472 259.47 170.414 259.135 170.414 258.733V256.393C170.414 256.235 170.453 256.119 170.533 256.046C170.612 255.967 170.725 255.927 170.871 255.927C171.017 255.927 171.13 255.967 171.209 256.046C171.295 256.119 171.337 256.235 171.337 256.393V258.742C171.337 259.101 171.41 259.366 171.557 259.537C171.703 259.708 171.935 259.793 172.252 259.793C172.599 259.793 172.879 259.677 173.093 259.446C173.312 259.208 173.422 258.897 173.422 258.513V256.393C173.422 256.235 173.461 256.119 173.541 256.046C173.62 255.967 173.736 255.927 173.888 255.927C174.034 255.927 174.147 255.967 174.226 256.046C174.306 256.119 174.345 256.235 174.345 256.393V260.049C174.345 260.359 174.196 260.515 173.897 260.515C173.757 260.515 173.647 260.475 173.568 260.396C173.489 260.311 173.449 260.195 173.449 260.049V259.272L173.568 259.473C173.446 259.814 173.251 260.076 172.983 260.259C172.715 260.442 172.398 260.533 172.032 260.533ZM176.104 260.515C175.957 260.515 175.845 260.475 175.765 260.396C175.686 260.311 175.647 260.195 175.647 260.049V254.41C175.647 254.258 175.686 254.142 175.765 254.063C175.845 253.984 175.957 253.944 176.104 253.944C176.25 253.944 176.363 253.984 176.442 254.063C176.527 254.142 176.57 254.258 176.57 254.41V257.938H176.588L178.298 256.238C178.396 256.14 178.484 256.064 178.563 256.009C178.642 255.955 178.746 255.927 178.874 255.927C179.002 255.927 179.1 255.961 179.167 256.028C179.234 256.095 179.267 256.177 179.267 256.274C179.267 256.366 179.221 256.46 179.13 256.558L177.32 258.349V257.919L179.295 259.884C179.392 259.982 179.438 260.079 179.432 260.177C179.426 260.274 179.386 260.356 179.313 260.423C179.24 260.484 179.148 260.515 179.039 260.515C178.898 260.515 178.786 260.487 178.7 260.433C178.621 260.378 178.527 260.295 178.417 260.186L176.588 258.413H176.57V260.049C176.57 260.359 176.415 260.515 176.104 260.515ZM181.836 260.515C181.708 260.515 181.596 260.484 181.498 260.423C181.407 260.356 181.333 260.253 181.279 260.113L179.935 256.558C179.886 256.436 179.871 256.329 179.889 256.238C179.907 256.14 179.953 256.064 180.026 256.009C180.105 255.955 180.206 255.927 180.328 255.927C180.437 255.927 180.526 255.955 180.593 256.009C180.666 256.058 180.727 256.156 180.776 256.302L181.973 259.674H181.754L182.997 256.265C183.04 256.15 183.098 256.064 183.171 256.009C183.244 255.955 183.339 255.927 183.455 255.927C183.57 255.927 183.665 255.955 183.738 256.009C183.817 256.064 183.875 256.15 183.912 256.265L185.128 259.674H184.927L186.143 256.284C186.191 256.143 186.252 256.049 186.325 256C186.405 255.952 186.493 255.927 186.591 255.927C186.712 255.927 186.804 255.958 186.865 256.019C186.932 256.079 186.968 256.159 186.975 256.256C186.987 256.348 186.972 256.448 186.929 256.558L185.585 260.113C185.53 260.247 185.454 260.347 185.356 260.414C185.265 260.481 185.158 260.515 185.036 260.515C184.908 260.515 184.796 260.481 184.698 260.414C184.607 260.347 184.533 260.247 184.479 260.113L183.199 256.649H183.656L182.385 260.113C182.336 260.247 182.263 260.347 182.165 260.414C182.074 260.481 181.964 260.515 181.836 260.515ZM189.532 260.533C189.172 260.533 188.87 260.466 188.626 260.332C188.389 260.198 188.209 260 188.087 259.738C187.971 259.47 187.913 259.135 187.913 258.733V256.393C187.913 256.235 187.953 256.119 188.032 256.046C188.111 255.967 188.224 255.927 188.37 255.927C188.517 255.927 188.629 255.967 188.709 256.046C188.794 256.119 188.837 256.235 188.837 256.393V258.742C188.837 259.101 188.91 259.366 189.056 259.537C189.202 259.708 189.434 259.793 189.751 259.793C190.098 259.793 190.379 259.677 190.592 259.446C190.812 259.208 190.921 258.897 190.921 258.513V256.393C190.921 256.235 190.961 256.119 191.04 256.046C191.119 255.967 191.235 255.927 191.388 255.927C191.534 255.927 191.647 255.967 191.726 256.046C191.805 256.119 191.845 256.235 191.845 256.393V260.049C191.845 260.359 191.695 260.515 191.397 260.515C191.256 260.515 191.147 260.475 191.068 260.396C190.988 260.311 190.949 260.195 190.949 260.049V259.272L191.068 259.473C190.946 259.814 190.751 260.076 190.482 260.259C190.214 260.442 189.897 260.533 189.532 260.533Z" fill="#9B9B9B"/>
<path d="M26.6665 190.273H306.286" stroke="#CCCCCC" stroke-width="0.3"/>
<path d="M269.714 129.465H73.9049C72.6425 129.465 71.6191 130.488 71.6191 131.75C71.6191 133.011 72.6425 134.034 73.9049 134.034H269.714C270.977 134.034 272 133.011 272 131.75C272 130.488 270.977 129.465 269.714 129.465Z" fill="#D5D5D5"/>
<path d="M63.1169 130.53C62.8731 129.799 62.1416 129.312 61.4101 129.312C60.3739 129.312 59.5815 130.104 59.5815 131.139C59.5815 131.931 60.0692 132.602 60.8006 132.845V133.881C60.8006 135.404 59.5815 136.623 58.0577 136.623C56.5338 136.623 55.3147 135.404 55.3147 133.881V133.516C57.0824 133.211 58.3624 131.688 58.3624 129.921V126.265C58.3624 125.9 58.1186 125.656 57.7528 125.656H56.5338C56.1681 125.656 55.9243 125.9 55.9243 126.265C55.9243 126.631 56.1681 126.875 56.5338 126.875H57.1433V129.921C57.1433 131.261 56.0462 132.358 54.7051 132.358C53.3641 132.358 52.267 131.261 52.267 129.921V126.875H52.8765C53.2422 126.875 53.486 126.631 53.486 126.265C53.486 125.9 53.2422 125.656 52.8765 125.656H51.6574C51.2917 125.656 51.0479 125.9 51.0479 126.265V129.921C51.0479 131.688 52.3279 133.211 54.0956 133.516V133.881C54.0956 136.074 55.8633 137.841 58.0577 137.841C60.252 137.841 62.0197 136.074 62.0197 133.881V132.845C62.995 132.541 63.4826 131.505 63.1169 130.53Z" fill="#FBA18B"/>
<path d="M208.762 158.402H75.4288C74.1664 158.402 73.1431 159.425 73.1431 160.687C73.1431 161.949 74.1664 162.972 75.4288 162.972H208.762C210.024 162.972 211.048 161.949 211.048 160.687C211.048 159.425 210.024 158.402 208.762 158.402Z" fill="#D5D5D5"/>
<path d="M283.809 160.014C283.658 160.014 283.512 160.074 283.406 160.182C283.298 160.288 283.238 160.434 283.238 160.585V164.686C283.238 164.838 283.178 164.983 283.07 165.09C282.964 165.197 282.818 165.258 282.667 165.258H276.381C276.229 165.258 276.084 165.197 275.977 165.09C275.87 164.983 275.809 164.838 275.809 164.686V158.404C275.809 158.252 275.87 158.107 275.977 158C276.084 157.893 276.229 157.832 276.381 157.832H280.484C280.635 157.832 280.781 157.772 280.887 157.665C280.995 157.558 281.055 157.413 281.055 157.261C281.055 157.11 280.995 156.964 280.887 156.858C280.781 156.75 280.635 156.69 280.484 156.69H276.381C275.926 156.69 275.49 156.871 275.169 157.192C274.847 157.513 274.667 157.949 274.667 158.404V164.686C274.667 165.141 274.847 165.577 275.169 165.898C275.49 166.219 275.926 166.4 276.381 166.4H282.667C283.121 166.4 283.557 166.219 283.879 165.898C284.2 165.577 284.381 165.141 284.381 164.686V160.585C284.381 160.434 284.321 160.288 284.213 160.182C284.107 160.074 283.961 160.014 283.809 160.014ZM286.049 155.331C285.991 155.191 285.88 155.08 285.741 155.022C285.672 154.993 285.598 154.977 285.524 154.977H282.095C281.943 154.977 281.798 155.037 281.691 155.144C281.584 155.251 281.524 155.396 281.524 155.548C281.524 155.699 281.584 155.845 281.691 155.951C281.798 156.059 281.943 156.119 282.095 156.119H284.147L278.26 161.996C278.207 162.049 278.164 162.112 278.135 162.182C278.107 162.252 278.092 162.326 278.092 162.402C278.092 162.477 278.107 162.552 278.135 162.621C278.164 162.691 278.207 162.754 278.26 162.808C278.314 162.861 278.377 162.904 278.447 162.933C278.516 162.961 278.591 162.976 278.667 162.976C278.742 162.976 278.817 162.961 278.886 162.933C278.956 162.904 279.019 162.861 279.073 162.808L284.952 156.924V158.975C284.952 159.126 285.012 159.272 285.12 159.378C285.227 159.486 285.372 159.546 285.524 159.546C285.675 159.546 285.821 159.486 285.927 159.378C286.035 159.272 286.095 159.126 286.095 158.975V155.548C286.094 155.473 286.078 155.399 286.049 155.331Z" fill="#686868"/>
<path d="M59.4981 161.141C60.1206 160.651 60.5749 159.979 60.798 159.22C61.021 158.46 61.0016 157.65 60.7424 156.902C60.4833 156.154 59.9973 155.505 59.3521 155.046C58.7069 154.587 57.9346 154.34 57.1426 154.34C56.3505 154.34 55.5782 154.587 54.933 155.046C54.2878 155.505 53.8018 156.154 53.5427 156.902C53.2836 157.65 53.2641 158.46 53.4872 159.22C53.7102 159.979 54.1645 160.651 54.787 161.141C53.7204 161.568 52.7898 162.276 52.0942 163.19C51.3988 164.105 50.9645 165.19 50.8378 166.331C50.8286 166.415 50.836 166.5 50.8594 166.58C50.8829 166.66 50.9219 166.736 50.9744 166.8C51.0803 166.933 51.2345 167.017 51.4029 167.036C51.5712 167.055 51.7402 167.005 51.8723 166.899C52.0045 166.794 52.0891 166.64 52.1076 166.471C52.2471 165.231 52.8389 164.085 53.77 163.253C54.7012 162.421 55.9063 161.961 57.1552 161.961C58.4042 161.961 59.6094 162.421 60.5405 163.253C61.4717 164.085 62.0634 165.231 62.2029 166.471C62.2202 166.627 62.2946 166.772 62.4119 166.876C62.5291 166.98 62.6808 167.037 62.8378 167.036H62.9076C63.0741 167.017 63.2262 166.933 63.3309 166.802C63.4356 166.671 63.4842 166.504 63.4664 166.338C63.3391 165.194 62.9024 164.105 62.2034 163.189C61.5043 162.274 60.5692 161.565 59.4981 161.141ZM57.1426 160.69C56.6403 160.69 56.1492 160.541 55.7316 160.262C55.314 159.983 54.9884 159.586 54.7962 159.122C54.604 158.659 54.5537 158.148 54.6517 157.656C54.7497 157.164 54.9916 156.711 55.3467 156.356C55.7019 156.001 56.1544 155.759 56.6471 155.661C57.1398 155.564 57.6504 155.614 58.1145 155.806C58.5786 155.998 58.9751 156.324 59.2542 156.741C59.5333 157.158 59.6823 157.649 59.6823 158.151C59.6823 158.825 59.4147 159.47 58.9384 159.946C58.4621 160.422 57.8161 160.69 57.1426 160.69Z" fill="#FBA18B"/>
<path d="M269.714 100.527H73.9049C72.6425 100.527 71.6191 101.55 71.6191 102.812C71.6191 104.074 72.6425 105.097 73.9049 105.097H269.714C270.977 105.097 272 104.074 272 102.812C272 101.55 270.977 100.527 269.714 100.527Z" fill="#D5D5D5"/>
<path d="M55.7457 96.4648C54.49 96.4648 53.2624 96.8373 52.2183 97.5341C51.1742 98.2317 50.3604 99.2232 49.8798 100.382C49.3992 101.542 49.2735 102.819 49.5185 104.049C49.7635 105.281 50.3682 106.411 51.2561 107.299C52.1441 108.186 53.2754 108.791 54.507 109.036C55.7387 109.28 57.0153 109.155 58.1755 108.674C59.3356 108.194 60.3272 107.381 61.0249 106.337C61.7225 105.294 62.0949 104.067 62.0949 102.811C62.0949 101.978 61.9307 101.152 61.6116 100.382C61.2926 99.6124 60.8248 98.9132 60.2353 98.3238C59.6457 97.7344 58.9457 97.2668 58.1755 96.9477C57.4051 96.6293 56.5795 96.4648 55.7457 96.4648ZM55.7457 107.888C54.7411 107.888 53.7591 107.59 52.9237 107.032C52.0884 106.475 51.4374 105.682 51.0529 104.754C50.6686 103.826 50.5679 102.806 50.764 101.821C50.9599 100.836 51.4436 99.9315 52.154 99.2209C52.8644 98.5112 53.7694 98.0276 54.7547 97.8318C55.74 97.6361 56.7614 97.7366 57.6895 98.1205C58.6176 98.5051 59.4109 99.1554 59.9691 99.9909C60.5272 100.826 60.8251 101.807 60.8251 102.811C60.8251 104.157 60.2899 105.449 59.3374 106.401C58.3848 107.354 57.0929 107.888 55.7457 107.888ZM55.7457 99.0031C55.5773 99.0031 55.4158 99.0701 55.2968 99.1889C55.1777 99.3085 55.1108 99.4699 55.1108 99.6382V102.767L54.2409 104.271C54.1567 104.417 54.1342 104.591 54.1783 104.754C54.2223 104.917 54.3294 105.056 54.4759 105.141C54.6224 105.224 54.7963 105.247 54.9595 105.203C55.1226 105.159 55.2615 105.052 55.3457 104.905L56.298 103.256C56.3591 103.141 56.3835 103.01 56.3679 102.881L56.3806 102.811V99.6382C56.3806 99.4699 56.3137 99.3085 56.1947 99.1889C56.0756 99.0701 55.9141 99.0031 55.7457 99.0031Z" fill="#FBA18B"/>
<path d="M53.2574 69.3004C52.9221 69.3004 52.6631 69.2141 52.4802 69.0415C52.3075 68.8587 52.2212 68.5998 52.2212 68.2647V59.5982C52.2212 59.2631 52.3075 59.0093 52.4802 58.8366C52.6631 58.6539 52.9221 58.5625 53.2574 58.5625H56.2136C58.0117 58.5625 59.3983 59.0245 60.3736 59.9485C61.3589 60.8725 61.8517 62.1976 61.8517 63.9238C61.8517 64.7869 61.7247 65.5536 61.4707 66.2237C61.2269 66.8838 60.8612 67.4422 60.3736 67.8992C59.8961 68.3561 59.3069 68.7064 58.606 68.9501C57.9151 69.1837 57.1177 69.3004 56.2136 69.3004H53.2574ZM54.1717 67.6859H56.0917C56.7215 67.6859 57.265 67.6098 57.7221 67.4575C58.1894 67.295 58.5755 67.0615 58.8802 66.7568C59.1951 66.4421 59.4288 66.0511 59.5812 65.584C59.7336 65.1068 59.8098 64.5534 59.8098 63.9238C59.8098 62.6648 59.4999 61.7254 58.8802 61.1061C58.2606 60.4867 57.3311 60.177 56.0917 60.177H54.1717V67.6859ZM67.3179 69.4527C66.4747 69.4527 65.7484 69.2953 65.1388 68.9806C64.5293 68.6658 64.0569 68.219 63.7217 67.6402C63.3966 67.0614 63.2341 66.376 63.2341 65.584C63.2341 64.8123 63.3915 64.1371 63.7065 63.5583C64.0315 62.9795 64.4734 62.5277 65.0322 62.2027C65.601 61.8676 66.2461 61.7001 66.9674 61.7001C67.4956 61.7001 67.968 61.7864 68.3845 61.959C68.8112 62.1317 69.1718 62.3804 69.4664 62.7053C69.7712 63.0303 69.9998 63.4263 70.1522 63.8934C70.3147 64.3503 70.396 64.8682 70.396 65.4469C70.396 65.6297 70.3299 65.7719 70.1979 65.8734C70.076 65.9648 69.8981 66.0105 69.6645 66.0105H64.7731V64.9139H69.055L68.8112 65.1423C68.8112 64.6753 68.74 64.2843 68.5979 63.9695C68.4658 63.6548 68.2677 63.4161 68.0036 63.2537C67.7496 63.081 67.4296 62.9947 67.0436 62.9947C66.6169 62.9947 66.2512 63.0963 65.9464 63.2994C65.6518 63.4923 65.4233 63.7715 65.2607 64.1371C65.1084 64.4925 65.0322 64.919 65.0322 65.4165V65.5231C65.0322 66.3557 65.2252 66.9802 65.6112 67.3965C66.0074 67.8027 66.5864 68.0058 67.3484 68.0058C67.6124 68.0058 67.9071 67.9753 68.2322 67.9144C68.5674 67.8433 68.8823 67.7265 69.1769 67.5641C69.3903 67.4422 69.5781 67.3914 69.7407 67.4118C69.9032 67.4219 70.0303 67.4778 70.1217 67.5793C70.2232 67.6808 70.2842 67.8078 70.3045 67.9601C70.3248 68.1023 70.2943 68.2495 70.2131 68.4018C70.142 68.5541 70.015 68.6861 69.8322 68.7978C69.4766 69.0212 69.0652 69.1887 68.5979 69.3004C68.1407 69.4019 67.7141 69.4527 67.3179 69.4527ZM72.8491 69.4223C72.5444 69.4223 72.3108 69.341 72.1482 69.1786C71.9857 69.0059 71.9044 68.7622 71.9044 68.4475V62.6901C71.9044 62.3754 71.9857 62.1367 72.1482 61.9742C72.3108 61.8118 72.5394 61.7305 72.8339 61.7305C73.1285 61.7305 73.3571 61.8118 73.5196 61.9742C73.6822 62.1367 73.7634 62.3754 73.7634 62.6901V63.7258L73.5958 63.345C73.8194 62.8069 74.1647 62.4007 74.632 62.1266C75.1095 61.8423 75.6479 61.7001 76.2471 61.7001C76.8467 61.7001 77.3397 61.8118 77.7252 62.0352C78.1115 62.2585 78.401 62.5987 78.5938 63.0557C78.7873 63.5025 78.8833 64.071 78.8833 64.7615V68.4475C78.8833 68.7622 78.8025 69.0059 78.6395 69.1786C78.4772 69.341 78.2433 69.4223 77.9385 69.4223C77.6338 69.4223 77.3953 69.341 77.2223 69.1786C77.06 69.0059 76.9785 68.7622 76.9785 68.4475V64.8529C76.9785 64.2742 76.8673 63.8528 76.6433 63.5887C76.43 63.3247 76.0949 63.1927 75.6377 63.1927C75.079 63.1927 74.632 63.3704 74.2968 63.7258C73.9717 64.071 73.8092 64.5331 73.8092 65.1119V68.4475C73.8092 69.0973 73.4892 69.4223 72.8491 69.4223ZM84.2311 69.4527C83.5713 69.4527 83.0174 69.341 82.5701 69.1177C82.1336 68.8943 81.8082 68.5693 81.5949 68.1429C81.3816 67.7063 81.2749 67.1681 81.2749 66.5284V63.2841H80.4825C80.2387 63.2841 80.0513 63.2232 79.9187 63.1014C79.7869 62.9694 79.7206 62.7916 79.7206 62.5683C79.7206 62.3347 79.7869 62.157 79.9187 62.0352C80.0513 61.9133 80.2387 61.8524 80.4825 61.8524H81.2749V60.4664C81.2749 60.1516 81.3564 59.9129 81.5187 59.7505C81.6917 59.5881 81.9301 59.5068 82.2349 59.5068C82.5397 59.5068 82.7736 59.5881 82.9359 59.7505C83.0989 59.9129 83.1797 60.1516 83.1797 60.4664V61.8524H84.7949C85.0387 61.8524 85.2269 61.9133 85.3587 62.0352C85.4913 62.157 85.5568 62.3347 85.5568 62.5683C85.5568 62.7916 85.4913 62.9694 85.3587 63.1014C85.2269 63.2232 85.0387 63.2841 84.7949 63.2841H83.1797V66.4217C83.1797 66.9091 83.2863 67.2747 83.4997 67.5184C83.713 67.7621 84.0589 67.8839 84.5359 67.8839C84.7088 67.8839 84.8612 67.8687 84.993 67.8382C85.1256 67.8078 85.2421 67.7874 85.3435 67.7773C85.4654 67.7672 85.5675 67.8078 85.6482 67.8992C85.7298 67.9804 85.7701 68.153 85.7701 68.417C85.7701 68.6201 85.7351 68.8029 85.6635 68.9653C85.6025 69.1177 85.486 69.2243 85.313 69.2852C85.1812 69.3258 85.0082 69.3614 84.7949 69.3918C84.5816 69.4324 84.3941 69.4527 84.2311 69.4527ZM89.1195 69.4527C88.5816 69.4527 88.0985 69.3512 87.6719 69.1481C87.2559 68.9349 86.9252 68.6506 86.6814 68.2952C86.4482 67.9398 86.3309 67.5387 86.3309 67.0919C86.3309 66.5436 86.4734 66.112 86.7576 65.7973C87.0425 65.4723 87.5042 65.2388 88.1442 65.0966C88.7842 64.9545 89.6429 64.8834 90.7195 64.8834H91.4814V65.98H90.7347C90.1054 65.98 89.6025 66.0105 89.2261 66.0714C88.8505 66.1324 88.5816 66.239 88.4185 66.3913C88.2661 66.5335 88.19 66.7365 88.19 67.0005C88.19 67.3356 88.3073 67.6098 88.5404 67.823C88.7743 68.0362 89.0997 68.1429 89.5157 68.1429C89.8509 68.1429 90.1458 68.0667 90.3995 67.9144C90.6639 67.752 90.8719 67.5336 91.0242 67.2595C91.1766 66.9853 91.2528 66.6705 91.2528 66.3151V64.5635C91.2528 64.0558 91.1416 63.6903 90.9176 63.4669C90.6943 63.2435 90.3187 63.1318 89.79 63.1318C89.4959 63.1318 89.1759 63.1674 88.83 63.2384C88.4947 63.3095 88.1397 63.4313 87.7633 63.604C87.5705 63.6954 87.3976 63.7207 87.2452 63.6801C87.1035 63.6395 86.9915 63.5583 86.91 63.4364C86.8292 63.3045 86.788 63.1623 86.788 63.01C86.788 62.8577 86.8292 62.7104 86.91 62.5683C86.9915 62.416 87.1286 62.3042 87.3214 62.2332C87.7892 62.0403 88.2357 61.9032 88.6623 61.8219C89.0997 61.7407 89.4959 61.7001 89.8509 61.7001C90.5823 61.7001 91.182 61.8118 91.649 62.0352C92.1267 62.2585 92.4825 62.5987 92.7157 63.0557C92.9496 63.5025 93.0661 64.0812 93.0661 64.792V68.4475C93.0661 68.7622 92.99 69.0059 92.8376 69.1786C92.6852 69.341 92.4673 69.4223 92.1823 69.4223C91.8981 69.4223 91.6749 69.341 91.5119 69.1786C91.3595 69.0059 91.2833 68.7622 91.2833 68.4475V67.7164H91.4052C91.3343 68.0718 91.1919 68.3815 90.9785 68.6455C90.7759 68.8993 90.5168 69.0973 90.2014 69.2395C89.8867 69.3817 89.5263 69.4527 89.1195 69.4527ZM97.5446 69.4527C96.7012 69.4527 96.0665 69.2141 95.6399 68.7369C95.2132 68.2495 94.9999 67.5387 94.9999 66.6045V59.4002C94.9999 59.0854 95.0806 58.8468 95.2437 58.6843C95.406 58.5219 95.6399 58.4406 95.9446 58.4406C96.2494 58.4406 96.4825 58.5219 96.6456 58.6843C96.8178 58.8468 96.9046 59.0854 96.9046 59.4002V66.5131C96.9046 66.9802 97.0006 67.3255 97.1941 67.5488C97.3968 67.7722 97.6818 67.8839 98.0475 67.8839C98.1282 67.8839 98.2044 67.8839 98.276 67.8839C98.3469 67.8738 98.4178 67.8636 98.4894 67.8535C98.6311 67.8331 98.7279 67.8738 98.7789 67.9753C98.8292 68.0667 98.8551 68.2596 98.8551 68.5541C98.8551 68.8079 98.804 69.0059 98.7027 69.1481C98.6006 69.2903 98.433 69.3766 98.1999 69.407C98.0978 69.4172 97.9911 69.4274 97.8799 69.4375C97.7679 69.4476 97.6559 69.4527 97.5446 69.4527ZM109.183 69.4527C108.066 69.4527 107.106 69.2294 106.303 68.7826C105.511 68.3256 104.902 67.6859 104.475 66.8634C104.048 66.0308 103.835 65.0509 103.835 63.9238C103.835 63.081 103.957 62.3246 104.201 61.6544C104.444 60.9741 104.795 60.3953 105.252 59.918C105.709 59.4306 106.268 59.06 106.928 58.8062C107.599 58.5421 108.351 58.4102 109.183 58.4102C109.742 58.4102 110.291 58.4812 110.829 58.6234C111.368 58.7656 111.84 58.9686 112.246 59.2326C112.46 59.3646 112.602 59.5271 112.673 59.72C112.744 59.9028 112.759 60.0856 112.719 60.2684C112.678 60.441 112.591 60.5882 112.46 60.7101C112.338 60.8319 112.18 60.903 111.987 60.9233C111.804 60.9334 111.601 60.8675 111.378 60.7253C111.063 60.5222 110.723 60.375 110.357 60.2836C109.991 60.1922 109.62 60.1465 109.244 60.1465C108.523 60.1465 107.913 60.2937 107.416 60.5882C106.918 60.8827 106.542 61.3092 106.288 61.8676C106.035 62.4261 105.907 63.1115 105.907 63.9238C105.907 64.726 106.035 65.4114 106.288 65.98C106.542 66.5487 106.918 66.9802 107.416 67.2747C107.913 67.5692 108.523 67.7164 109.244 67.7164C109.631 67.7164 110.012 67.6707 110.387 67.5793C110.763 67.4778 111.119 67.3255 111.454 67.1224C111.677 66.9904 111.875 66.9345 112.048 66.9548C112.231 66.965 112.383 67.0259 112.505 67.1376C112.627 67.2493 112.709 67.3914 112.749 67.5641C112.79 67.7265 112.78 67.8992 112.719 68.0819C112.658 68.2546 112.536 68.4069 112.353 68.5389C111.947 68.8334 111.459 69.0618 110.89 69.2243C110.332 69.3766 109.763 69.4527 109.183 69.4527ZM115.305 69.4223C115 69.4223 114.766 69.341 114.604 69.1786C114.441 69.0059 114.36 68.7622 114.36 68.4475V59.4002C114.36 59.0854 114.441 58.8468 114.604 58.6843C114.766 58.5219 115 58.4406 115.305 58.4406C115.609 58.4406 115.843 58.5219 116.006 58.6843C116.179 58.8468 116.265 59.0854 116.265 59.4002V63.345H116.051C116.275 62.8069 116.62 62.4007 117.087 62.1266C117.565 61.8423 118.103 61.7001 118.703 61.7001C119.302 61.7001 119.795 61.8118 120.181 62.0352C120.567 62.2585 120.857 62.5987 121.049 63.0557C121.242 63.5025 121.339 64.071 121.339 64.7615V68.4475C121.339 68.7622 121.257 69.0059 121.095 69.1786C120.933 69.341 120.699 69.4223 120.394 69.4223C120.089 69.4223 119.851 69.341 119.678 69.1786C119.516 69.0059 119.434 68.7622 119.434 68.4475V64.8529C119.434 64.2742 119.322 63.8528 119.099 63.5887C118.886 63.3247 118.55 63.1927 118.093 63.1927C117.535 63.1927 117.087 63.3704 116.752 63.7258C116.427 64.071 116.265 64.5331 116.265 65.1119V68.4475C116.265 69.0973 115.945 69.4223 115.305 69.4223ZM126.946 69.4527C126.102 69.4527 125.376 69.2953 124.767 68.9806C124.157 68.6658 123.685 68.219 123.35 67.6402C123.024 67.0614 122.862 66.376 122.862 65.584C122.862 64.8123 123.02 64.1371 123.334 63.5583C123.66 62.9795 124.102 62.5277 124.66 62.2027C125.229 61.8676 125.874 61.7001 126.595 61.7001C127.123 61.7001 127.596 61.7864 128.012 61.959C128.439 62.1317 128.799 62.3804 129.094 62.7053C129.399 63.0303 129.628 63.4263 129.78 63.8934C129.942 64.3503 130.024 64.8682 130.024 65.4469C130.024 65.6297 129.958 65.7719 129.826 65.8734C129.704 65.9648 129.526 66.0105 129.292 66.0105H124.401V64.9139H128.683L128.439 65.1423C128.439 64.6753 128.368 64.2843 128.226 63.9695C128.094 63.6548 127.896 63.4161 127.631 63.2537C127.378 63.081 127.058 62.9947 126.671 62.9947C126.245 62.9947 125.879 63.0963 125.574 63.2994C125.279 63.4923 125.051 63.7715 124.889 64.1371C124.736 64.4925 124.66 64.919 124.66 65.4165V65.5231C124.66 66.3557 124.853 66.9802 125.239 67.3965C125.635 67.8027 126.214 68.0058 126.976 68.0058C127.241 68.0058 127.535 67.9753 127.86 67.9144C128.195 67.8433 128.51 67.7265 128.805 67.5641C129.018 67.4422 129.206 67.3914 129.369 67.4118C129.531 67.4219 129.658 67.4778 129.75 67.5793C129.851 67.6808 129.912 67.8078 129.932 67.9601C129.953 68.1023 129.923 68.2495 129.841 68.4018C129.77 68.5541 129.643 68.6861 129.46 68.7978C129.104 69.0212 128.693 69.1887 128.226 69.3004C127.769 69.4019 127.342 69.4527 126.946 69.4527ZM134.976 69.4527C134.194 69.4527 133.513 69.2953 132.934 68.9806C132.355 68.6556 131.908 68.1987 131.593 67.6098C131.279 67.0209 131.121 66.3304 131.121 65.5383C131.121 64.9392 131.207 64.4061 131.38 63.9391C131.563 63.4618 131.822 63.0608 132.157 62.7358C132.492 62.4007 132.899 62.1469 133.376 61.9742C133.854 61.7915 134.387 61.7001 134.976 61.7001C135.311 61.7001 135.672 61.7458 136.058 61.8372C136.454 61.9286 136.825 62.0809 137.171 62.2941C137.333 62.3956 137.439 62.5175 137.491 62.6596C137.542 62.8018 137.551 62.949 137.521 63.1014C137.491 63.2435 137.424 63.3704 137.323 63.4821C137.231 63.5836 137.115 63.6497 136.972 63.6801C136.83 63.7005 136.673 63.6649 136.5 63.5735C136.277 63.4415 136.048 63.345 135.814 63.2841C135.58 63.2131 135.357 63.1775 135.144 63.1775C134.809 63.1775 134.514 63.2333 134.26 63.345C134.006 63.4466 133.788 63.5989 133.605 63.802C133.432 63.9949 133.3 64.2386 133.209 64.5331C133.117 64.8276 133.071 65.1677 133.071 65.5536C133.071 66.305 133.249 66.899 133.605 67.3356C133.971 67.7621 134.483 67.9753 135.144 67.9753C135.357 67.9753 135.576 67.9449 135.799 67.8839C136.033 67.823 136.266 67.7265 136.5 67.5945C136.673 67.5032 136.825 67.4727 136.957 67.5032C137.1 67.5336 137.216 67.6047 137.308 67.7164C137.399 67.8179 137.455 67.9449 137.475 68.0972C137.496 68.2393 137.475 68.3815 137.414 68.5236C137.363 68.6658 137.262 68.7826 137.11 68.874C136.774 69.0771 136.419 69.2243 136.043 69.3157C135.667 69.407 135.311 69.4527 134.976 69.4527ZM139.665 69.4223C139.36 69.4223 139.126 69.341 138.964 69.1786C138.801 69.0059 138.72 68.7622 138.72 68.4475V59.4002C138.72 59.0854 138.801 58.8468 138.964 58.6843C139.126 58.5219 139.36 58.4406 139.665 58.4406C139.97 58.4406 140.203 58.5219 140.366 58.6843C140.538 58.8468 140.625 59.0854 140.625 59.4002V65.0205H140.655L143.17 62.3703C143.372 62.1672 143.551 62.0098 143.703 61.8981C143.855 61.7864 144.063 61.7305 144.328 61.7305C144.591 61.7305 144.79 61.8016 144.922 61.9438C145.064 62.0758 145.135 62.2383 145.135 62.4312C145.135 62.6241 145.044 62.8171 144.861 63.01L142.21 65.8125V65.0205L145.12 68.1581C145.303 68.351 145.384 68.549 145.364 68.7521C145.353 68.945 145.273 69.1075 145.12 69.2395C144.968 69.3614 144.774 69.4223 144.541 69.4223C144.256 69.4223 144.028 69.3665 143.855 69.2547C143.692 69.143 143.51 68.9755 143.307 68.7521L140.655 65.98H140.625V68.4475C140.625 69.0973 140.305 69.4223 139.665 69.4223ZM149.587 69.4527C148.967 69.4527 148.454 69.341 148.047 69.1177C147.641 68.8841 147.337 68.5389 147.133 68.0819C146.94 67.625 146.844 67.0563 146.844 66.376V62.6901C146.844 62.3652 146.925 62.1266 147.087 61.9742C147.251 61.8118 147.484 61.7305 147.788 61.7305C148.093 61.7305 148.327 61.8118 148.489 61.9742C148.662 62.1266 148.748 62.3652 148.748 62.6901V66.4065C148.748 66.9345 148.855 67.3255 149.068 67.5793C149.282 67.8331 149.622 67.9601 150.089 67.9601C150.598 67.9601 151.014 67.7874 151.339 67.4422C151.664 67.0868 151.827 66.6197 151.827 66.041V62.6901C151.827 62.3652 151.908 62.1266 152.07 61.9742C152.233 61.8118 152.467 61.7305 152.771 61.7305C153.076 61.7305 153.31 61.8118 153.472 61.9742C153.645 62.1266 153.731 62.3652 153.731 62.6901V68.4475C153.731 69.0973 153.422 69.4223 152.802 69.4223C152.508 69.4223 152.279 69.341 152.116 69.1786C151.954 69.0059 151.872 68.7622 151.872 68.4475V67.2899L152.086 67.7468C151.872 68.2952 151.548 68.7165 151.11 69.011C150.684 69.3055 150.176 69.4527 149.587 69.4527ZM156.659 72.1639C156.354 72.1639 156.121 72.0826 155.958 71.9202C155.795 71.7577 155.714 71.5191 155.714 71.2043V62.6901C155.714 62.3754 155.795 62.1367 155.958 61.9742C156.121 61.8118 156.349 61.7305 156.643 61.7305C156.948 61.7305 157.182 61.8118 157.344 61.9742C157.507 62.1367 157.588 62.3754 157.588 62.6901V63.8781L157.42 63.4212C157.573 62.9033 157.883 62.487 158.35 62.1723C158.828 61.8575 159.382 61.7001 160.011 61.7001C160.662 61.7001 161.23 61.8575 161.718 62.1723C162.216 62.487 162.601 62.9338 162.876 63.5126C163.15 64.0812 163.287 64.7666 163.287 65.5688C163.287 66.3608 163.15 67.0513 162.876 67.6402C162.601 68.219 162.22 68.6658 161.733 68.9806C161.245 69.2953 160.671 69.4527 160.011 69.4527C159.391 69.4527 158.848 69.3004 158.38 68.9958C157.913 68.6811 157.599 68.2748 157.436 67.7773H157.619V71.2043C157.619 71.5191 157.532 71.7577 157.359 71.9202C157.197 72.0826 156.963 72.1639 156.659 72.1639ZM159.478 68.0058C159.854 68.0058 160.184 67.9144 160.468 67.7316C160.753 67.5488 160.971 67.2798 161.123 66.9244C161.286 66.5588 161.367 66.107 161.367 65.5688C161.367 64.7564 161.195 64.1523 160.849 63.7563C160.504 63.3502 160.047 63.147 159.478 63.147C159.102 63.147 158.772 63.2384 158.487 63.4212C158.203 63.5938 157.98 63.8629 157.817 64.2285C157.664 64.5839 157.588 65.0306 157.588 65.5688C157.588 66.3709 157.761 66.9802 158.106 67.3965C158.452 67.8027 158.909 68.0058 159.478 68.0058Z" fill="#171717"/>
</g>
<defs>
<filter id="filter0_d_13137_59563" x="-7.3335" y="-7.34375" width="351.619" height="328.645" filterUnits="userSpaceOnUse" color-interpolation-filters="sRGB">
<feFlood flood-opacity="0" result="BackgroundImageFix"/>
<feColorMatrix in="SourceAlpha" type="matrix" values="0 0 0 0 0 0 0 0 0 0 0 0 0 0 0 0 0 0 127 0" result="hardAlpha"/>
<feOffset dx="2" dy="2"/>
<feGaussianBlur stdDeviation="18"/>
<feComposite in2="hardAlpha" operator="out"/>
<feColorMatrix type="matrix" values="0 0 0 0 0.108333 0 0 0 0 0.107449 0 0 0 0 0.105174 0 0 0 0.11 0"/>
<feBlend mode="normal" in2="BackgroundImageFix" result="effect1_dropShadow_13137_59563"/>
<feBlend mode="normal" in="SourceGraphic" in2="effect1_dropShadow_13137_59563" result="shape"/>
</filter>
<clipPath id="clip0_13137_59563">
<rect width="336" height="313" fill="white"/>
</clipPath>
</defs>
</svg>
