<svg id="icon" viewBox="0 0 30 32" fill="none" xmlns="http://www.w3.org/2000/svg">
<path d="M0.596784 4.61249C0.604457 2.34567 2.44829 0.51428 4.7151 0.521953C6.98192 0.529626 8.81331 2.37346 8.80564 4.64027C8.79796 6.90709 6.95413 8.73848 4.68732 8.73081C2.4205 8.72313 0.58911 6.8793 0.596784 4.61249Z" stroke="#282828" stroke-width="0.5"/>
<path d="M1.83077 4.61669C1.83614 3.03137 3.12564 1.75057 4.71096 1.75593C6.29628 1.7613 7.57709 3.05081 7.57172 4.63613C7.56636 6.22145 6.27685 7.50225 4.69153 7.49688C3.10621 7.49152 1.8254 6.20201 1.83077 4.61669Z" stroke="#282828" stroke-width="0.5"/>
<path d="M24.5204 12.3782C24.5253 10.9456 25.6906 9.78817 27.1232 9.79302C28.5558 9.79787 29.7133 10.9632 29.7084 12.3958C29.7036 13.8284 28.5383 14.9859 27.1056 14.981C25.673 14.9762 24.5156 13.8109 24.5204 12.3782Z" stroke="#282828" stroke-width="0.5"/>
<path fill-rule="evenodd" clip-rule="evenodd" d="M9.86207 27.1155C9.85698 27.1959 9.85426 27.2769 9.85399 27.3585C9.84651 29.566 11.63 31.3615 13.8375 31.369C16.0449 31.3765 17.8405 29.593 17.848 27.3855C17.8483 27.3029 17.846 27.2209 17.8414 27.1395C23.08 25.5813 27.022 21.0022 27.6395 15.4162C27.4656 15.4462 27.2866 15.4615 27.104 15.4609C26.9435 15.4603 26.7858 15.4475 26.632 15.4233C26.0213 20.5156 22.43 24.687 17.6578 26.1501C17.143 24.5452 15.6411 23.381 13.8645 23.375C12.0869 23.369 10.5764 24.5243 10.0516 26.1272C4.82441 24.4902 1.0397 19.6005 1.05921 13.8358C1.06564 11.9378 1.48379 10.1374 2.22881 8.519C1.93789 8.33384 1.66916 8.11697 1.42746 7.87328C0.557204 9.6761 0.0664451 11.6969 0.0592163 13.8324C0.038045 20.0866 4.17087 25.3854 9.86207 27.1155ZM8.61046 2.1804C10.2339 1.44636 12.037 1.0404 13.935 1.04682C19.4815 1.0656 24.1941 4.6004 25.9695 9.53343C26.2764 9.41018 26.6077 9.33502 26.9541 9.31724C25.0747 3.93592 19.9629 0.0672234 13.9384 0.0468299C11.8029 0.039601 9.77884 0.516669 7.97017 1.37471C8.21222 1.61805 8.42727 1.88824 8.61046 2.1804Z" fill="#282828"/>
</svg>
