<svg width="433" height="289" viewBox="0 0 433 289" fill="none" xmlns="http://www.w3.org/2000/svg">
<g filter="url(#filter0_d_14719_58393)">
<mask id="mask0_14719_58393" style="mask-type:luminance" maskUnits="userSpaceOnUse" x="15" y="15" width="401" height="257">
<path d="M400.656 15H30.8443C22.508 15 15.75 22.2493 15.75 31.1918V255.448C15.75 264.391 22.508 271.64 30.8443 271.64H400.656C408.992 271.64 415.75 264.391 415.75 255.448V31.1918C415.75 22.2493 408.992 15 400.656 15Z" fill="white"/>
</mask>
<g mask="url(#mask0_14719_58393)">
<path d="M400.656 15H30.8443C22.508 15 15.75 22.2493 15.75 31.1918V255.448C15.75 264.391 22.508 271.64 30.8443 271.64H400.656C408.992 271.64 415.75 264.391 415.75 255.448V31.1918C415.75 22.2493 408.992 15 400.656 15Z" fill="#FDFDFD"/>
<path d="M215.75 56.5588C214.638 56.5588 213.737 57.5254 213.737 58.7178C213.737 59.9101 214.638 60.8767 215.75 60.8767C216.862 60.8767 217.763 59.9101 217.763 58.7178C217.763 57.5254 216.862 56.5588 215.75 56.5588ZM215.75 147.233C214.638 147.233 213.737 148.199 213.737 149.392C213.737 150.584 214.638 151.551 215.75 151.551C216.862 151.551 217.763 150.584 217.763 149.392C217.763 148.199 216.862 147.233 215.75 147.233ZM215.373 58.7178V59.5274H216.127V58.7178H215.373ZM215.373 61.1465V62.7657H216.127V61.1465H215.373ZM215.373 64.3849V66.0041H216.127V64.3849H215.373ZM215.373 67.6233V69.2424H216.127V67.6233H215.373ZM215.373 70.8616V72.4808H216.127V70.8616H215.373ZM215.373 74.1V75.7192H216.127V74.1H215.373ZM215.373 77.3383V78.9575H216.127V77.3383H215.373ZM215.373 80.5767V82.1959H216.127V80.5767H215.373ZM215.373 83.8151V85.4342H216.127V83.8151H215.373ZM215.373 87.0534V88.6726H216.127V87.0534H215.373ZM215.373 90.2918V91.911H216.127V90.2918H215.373ZM215.373 93.5301V95.1493H216.127V93.5301H215.373ZM215.373 96.7685V98.3877H216.127V96.7685H215.373ZM215.373 100.007V101.626H216.127V100.007H215.373ZM215.373 103.245V104.864H216.127V103.245H215.373ZM215.373 106.484V108.103H216.127V106.484H215.373ZM215.373 109.722V111.341H216.127V109.722H215.373ZM215.373 112.96V114.579H216.127V112.96H215.373ZM215.373 116.199V117.818H216.127V116.199H215.373ZM215.373 119.437V121.056H216.127V119.437H215.373ZM215.373 122.675V124.295H216.127V122.675H215.373ZM215.373 125.914V127.533H216.127V125.914H215.373ZM215.373 129.152V130.771H216.127V129.152H215.373ZM215.373 132.39V134.01H216.127V132.39H215.373ZM215.373 135.629V137.248H216.127V135.629H215.373ZM215.373 138.867V140.486H216.127V138.867H215.373ZM215.373 142.106V143.725H216.127V142.106H215.373ZM215.373 145.344V146.963H216.127V145.344H215.373ZM215.373 148.582V149.392H216.127V148.582H215.373Z" fill="#686868"/>
<path d="M241.787 31.5966H189.712C183.668 31.5966 178.769 36.8523 178.769 43.3356V46.574C178.769 53.0573 183.668 58.313 189.712 58.313H241.787C247.831 58.313 252.731 53.0573 252.731 46.574V43.3356C252.731 36.8523 247.831 31.5966 241.787 31.5966Z" fill="white"/>
<path d="M202.919 39.7668H197.026C196.192 39.7668 195.392 40.1222 194.802 40.7549C194.213 41.3875 193.881 42.2455 193.881 43.1401V47.8627L192.045 45.8658C191.986 45.8026 191.917 45.7524 191.84 45.7181C191.763 45.6838 191.681 45.6662 191.598 45.6662C191.515 45.6662 191.433 45.6838 191.357 45.7181C191.28 45.7524 191.21 45.8026 191.151 45.8658C191.034 45.9922 190.969 46.1632 190.969 46.3414C190.969 46.5196 191.034 46.6906 191.151 46.8171L194.064 49.9407C194.123 50.0046 194.194 50.055 194.271 50.0891C194.346 50.1248 194.428 50.1433 194.51 50.1433C194.592 50.1433 194.674 50.1248 194.749 50.0891C194.825 50.0524 194.896 50.0023 194.957 49.9407L197.887 46.8171C197.991 46.6879 198.044 46.522 198.038 46.3521C198.032 46.1823 197.966 46.0213 197.855 45.9012C197.742 45.7809 197.592 45.7106 197.434 45.704C197.276 45.6975 197.121 45.7552 197 45.8658L195.139 47.8358V43.1132C195.139 42.5763 195.338 42.0615 195.692 41.682C196.046 41.3025 196.526 41.0892 197.026 41.0892H202.919C203.086 41.0892 203.246 41.0181 203.363 40.8916C203.482 40.7651 203.548 40.5934 203.548 40.4145C203.548 40.2356 203.482 40.064 203.363 39.9375C203.246 39.811 203.086 39.7399 202.919 39.7399V39.7668Z" fill="#848484"/>
<path d="M210.007 48.1933C209.838 48.1933 209.707 48.1441 209.616 48.0459C209.525 47.9477 209.479 47.8079 209.479 47.6266V40.7693C209.479 40.588 209.525 40.4482 209.616 40.35C209.707 40.2518 209.838 40.2026 210.007 40.2026H212.511C213.025 40.2026 213.462 40.2858 213.821 40.452C214.187 40.6182 214.466 40.8562 214.656 41.166C214.846 41.4759 214.941 41.8499 214.941 42.2881C214.941 42.7793 214.808 43.1911 214.54 43.5236C214.272 43.8561 213.906 44.0789 213.441 44.1923V44.0223C213.962 44.0903 214.371 44.2981 214.666 44.6456C214.969 44.9857 215.121 45.4315 215.121 45.9831C215.121 46.6933 214.903 47.2412 214.466 47.6266C214.036 48.0044 213.426 48.1933 212.638 48.1933H210.007ZM210.429 47.3659H212.532C213.082 47.3659 213.49 47.2525 213.758 47.0258C214.026 46.7916 214.159 46.4365 214.159 45.9604C214.159 45.4844 214.026 45.133 213.758 44.9063C213.49 44.6797 213.082 44.5663 212.532 44.5663H210.429V47.3659ZM210.429 43.7276H212.363C212.898 43.7276 213.3 43.6142 213.568 43.3875C213.842 43.1533 213.98 42.817 213.98 42.3788C213.98 41.9406 213.842 41.6081 213.568 41.3814C213.3 41.1472 212.898 41.03 212.363 41.03H210.429V43.7276ZM218.9 48.2953C218.344 48.2953 217.865 48.1819 217.463 47.9553C217.069 47.721 216.762 47.3923 216.544 46.9692C216.326 46.5385 216.217 46.0322 216.217 45.4504C216.217 44.8761 216.322 44.3736 216.534 43.9429C216.752 43.5122 217.048 43.176 217.421 42.9342C217.802 42.6924 218.235 42.5715 218.721 42.5715C219.066 42.5715 219.376 42.6357 219.651 42.7642C219.932 42.885 220.172 43.0627 220.369 43.2969C220.566 43.5311 220.714 43.8182 220.813 44.1583C220.919 44.4908 220.971 44.8685 220.971 45.2917C220.971 45.4126 220.936 45.5071 220.866 45.5751C220.802 45.6355 220.707 45.6657 220.58 45.6657H216.967V45.0083H220.337L220.158 45.167C220.158 44.7741 220.101 44.4416 219.989 44.1696C219.883 43.8901 219.725 43.6784 219.513 43.5349C219.309 43.3913 219.052 43.3195 218.742 43.3195C218.404 43.3195 218.115 43.4064 217.876 43.5802C217.636 43.7464 217.453 43.9845 217.326 44.2943C217.199 44.5965 217.136 44.9479 217.136 45.3484V45.4164C217.136 46.0964 217.288 46.6103 217.59 46.9578C217.893 47.3054 218.33 47.4792 218.9 47.4792C219.126 47.4792 219.355 47.449 219.587 47.3885C219.826 47.3281 220.056 47.2185 220.274 47.0598C220.38 46.9918 220.475 46.9616 220.559 46.9692C220.651 46.9692 220.725 46.9994 220.781 47.0598C220.838 47.1127 220.872 47.1807 220.887 47.2639C220.901 47.3394 220.891 47.4225 220.855 47.5132C220.82 47.6039 220.753 47.6832 220.654 47.7512C220.422 47.9251 220.143 48.0611 219.82 48.1593C219.503 48.2499 219.196 48.2953 218.9 48.2953ZM224.481 50.3354C224.1 50.3354 223.731 50.2901 223.371 50.1994C223.02 50.1088 222.699 49.9689 222.41 49.7801C222.319 49.7196 222.255 49.6479 222.22 49.5647C222.192 49.4892 222.185 49.4098 222.199 49.3267C222.22 49.2436 222.255 49.168 222.304 49.1C222.361 49.0395 222.424 48.998 222.494 48.9753C222.572 48.9602 222.65 48.9791 222.727 49.032C223.037 49.2209 223.333 49.3494 223.614 49.4174C223.897 49.4854 224.164 49.5194 224.417 49.5194C224.918 49.5194 225.291 49.3796 225.537 49.1C225.791 48.828 225.918 48.4275 225.918 47.8986V46.6745H226.013C225.915 47.0977 225.693 47.4339 225.347 47.6832C225.009 47.9326 224.615 48.0573 224.164 48.0573C223.699 48.0573 223.294 47.9439 222.949 47.7172C222.604 47.483 222.336 47.1619 222.146 46.7538C221.955 46.3383 221.86 45.8584 221.86 45.3144C221.86 44.8988 221.913 44.5248 222.019 44.1923C222.132 43.8522 222.287 43.5651 222.484 43.3309C222.688 43.089 222.931 42.904 223.213 42.7755C223.495 42.6395 223.812 42.5715 224.164 42.5715C224.622 42.5715 225.02 42.6962 225.358 42.9455C225.696 43.1949 225.915 43.5311 226.013 43.9543L225.897 44.1129V43.1155C225.897 42.9417 225.939 42.8133 226.023 42.7302C226.108 42.6395 226.228 42.5941 226.383 42.5941C226.531 42.5941 226.647 42.6395 226.731 42.7302C226.816 42.8133 226.858 42.9417 226.858 43.1155V47.7626C226.858 48.6164 226.654 49.2587 226.245 49.6894C225.844 50.1201 225.256 50.3354 224.481 50.3354ZM224.375 47.2412C224.692 47.2412 224.964 47.1657 225.189 47.0145C225.421 46.8558 225.598 46.6329 225.717 46.3458C225.844 46.0511 225.907 45.7073 225.907 45.3144C225.907 44.7175 225.77 44.2489 225.495 43.9089C225.22 43.5614 224.848 43.3875 224.375 43.3875C224.058 43.3875 223.783 43.4669 223.551 43.6256C223.326 43.7767 223.149 43.9958 223.023 44.283C222.896 44.5701 222.832 44.9139 222.832 45.3144C222.832 45.9038 222.97 46.3723 223.245 46.7198C223.527 47.0674 223.903 47.2412 224.375 47.2412ZM228.875 48.2499C228.727 48.2499 228.611 48.2008 228.526 48.1026C228.442 48.0044 228.399 47.8684 228.399 47.6946V43.1722C228.399 42.9908 228.442 42.8548 228.526 42.7642C228.611 42.666 228.727 42.6168 228.875 42.6168C229.03 42.6168 229.149 42.666 229.234 42.7642C229.319 42.8548 229.361 42.9908 229.361 43.1722V47.6946C229.361 47.8684 229.319 48.0044 229.234 48.1026C229.157 48.2008 229.037 48.2499 228.875 48.2499ZM228.875 41.3927C228.685 41.3927 228.534 41.3398 228.42 41.234C228.315 41.1207 228.262 40.9733 228.262 40.792C228.262 40.5955 228.315 40.4482 228.42 40.35C228.534 40.2442 228.685 40.1913 228.875 40.1913C229.079 40.1913 229.231 40.2442 229.329 40.35C229.435 40.4482 229.488 40.5955 229.488 40.792C229.488 40.9733 229.435 41.1207 229.329 41.234C229.231 41.3398 229.079 41.3927 228.875 41.3927ZM231.383 48.2726C231.235 48.2726 231.119 48.2273 231.034 48.1366C230.949 48.0459 230.907 47.9137 230.907 47.7399V43.1155C230.907 42.9417 230.949 42.8133 231.034 42.7302C231.119 42.6395 231.235 42.5941 231.383 42.5941C231.531 42.5941 231.643 42.6395 231.721 42.7302C231.805 42.8133 231.848 42.9417 231.848 43.1155V44.0449L231.731 43.8749C231.879 43.4442 232.119 43.1193 232.45 42.9002C232.788 42.681 233.171 42.5715 233.602 42.5715C234.017 42.5715 234.359 42.6508 234.626 42.8095C234.894 42.9682 235.094 43.21 235.229 43.5349C235.362 43.8598 235.429 44.2716 235.429 44.7703V47.7399C235.429 47.9137 235.387 48.0459 235.303 48.1366C235.225 48.2273 235.109 48.2726 234.954 48.2726C234.799 48.2726 234.679 48.2273 234.595 48.1366C234.51 48.0459 234.468 47.9137 234.468 47.7399V44.827C234.468 44.3358 234.38 43.9769 234.204 43.7502C234.027 43.5236 233.746 43.4102 233.359 43.4102C232.907 43.4102 232.545 43.5614 232.27 43.8636C232.002 44.1583 231.869 44.5588 231.869 45.065V47.7399C231.869 48.0951 231.706 48.2726 231.383 48.2726ZM238.728 48.2953C238.411 48.2953 238.091 48.2575 237.767 48.1819C237.45 48.0988 237.151 47.9591 236.869 47.7626C236.792 47.7097 236.735 47.6454 236.7 47.5699C236.672 47.4867 236.661 47.4074 236.668 47.3319C236.682 47.2487 236.714 47.177 236.763 47.1165C236.813 47.056 236.872 47.022 236.943 47.0145C237.02 46.9994 237.101 47.0183 237.186 47.0712C237.46 47.2374 237.725 47.3545 237.978 47.4225C238.239 47.4905 238.496 47.5245 238.749 47.5245C239.137 47.5245 239.429 47.449 239.626 47.2979C239.824 47.1467 239.922 46.9465 239.922 46.6971C239.922 46.4856 239.856 46.3231 239.722 46.2098C239.595 46.0889 239.394 45.9982 239.119 45.9378L238.137 45.7224C237.7 45.6166 237.369 45.4429 237.143 45.201C236.925 44.9517 236.816 44.6343 236.816 44.2489C236.816 43.9089 236.9 43.6142 237.069 43.3649C237.246 43.108 237.489 42.9115 237.799 42.7755C238.109 42.6395 238.464 42.5715 238.866 42.5715C239.176 42.5715 239.468 42.6168 239.743 42.7075C240.025 42.7906 240.279 42.919 240.503 43.0929C240.588 43.1457 240.641 43.2137 240.662 43.2969C240.691 43.3724 240.694 43.4517 240.672 43.5349C240.659 43.6104 240.627 43.6747 240.577 43.7276C240.528 43.7804 240.465 43.8144 240.387 43.8296C240.31 43.8371 240.226 43.8144 240.134 43.7616C239.93 43.6104 239.719 43.5047 239.5 43.4442C239.288 43.3762 239.077 43.3422 238.866 43.3422C238.485 43.3422 238.197 43.4215 237.999 43.5802C237.809 43.7389 237.714 43.9467 237.714 44.2036C237.714 44.4001 237.771 44.5625 237.883 44.691C238.003 44.8195 238.189 44.9139 238.443 44.9743L239.426 45.1897C239.884 45.2955 240.229 45.4655 240.461 45.6997C240.694 45.9264 240.81 46.2363 240.81 46.6291C240.81 47.143 240.62 47.551 240.239 47.8532C239.866 48.1479 239.362 48.2953 238.728 48.2953Z" fill="#171717"/>
<path d="M241.787 31.5966H189.712C183.668 31.5966 178.769 36.8523 178.769 43.3356V46.574C178.769 53.0573 183.668 58.313 189.712 58.313H241.787C247.831 58.313 252.731 53.0573 252.731 46.574V43.3356C252.731 36.8523 247.831 31.5966 241.787 31.5966Z" stroke="#EDE9E5"/>
<path d="M241.787 31.5966H189.712C183.668 31.5966 178.769 36.8523 178.769 43.3356V46.574C178.769 53.0573 183.668 58.313 189.712 58.313H241.787C247.831 58.313 252.731 53.0573 252.731 46.574V43.3356C252.731 36.8523 247.831 31.5966 241.787 31.5966Z" stroke="black" stroke-opacity="0.2"/>
<g filter="url(#filter1_d_14719_58393)">
<path d="M385.561 78.9575H45.9386C38.8527 78.9575 33.1084 85.1194 33.1084 92.7205V115.389C33.1084 122.99 38.8527 129.152 45.9386 129.152H385.561C392.647 129.152 398.391 122.99 398.391 115.389V92.7205C398.391 85.1194 392.647 78.9575 385.561 78.9575Z" fill="white"/>
<path d="M68.9578 104.055C68.9578 98.4658 64.734 93.9349 59.5238 93.9349C54.3136 93.9349 50.0898 98.4658 50.0898 104.055C50.0898 109.644 54.3136 114.175 59.5238 114.175C64.734 114.175 68.9578 109.644 68.9578 104.055Z" fill="white"/>
<path d="M54.7432 103.278L59.2715 106.085C59.348 106.133 59.4348 106.157 59.5231 106.157C59.6114 106.157 59.6982 106.133 59.7746 106.085L64.3029 103.278C64.3792 103.231 64.4425 103.163 64.4865 103.081C64.5305 102.999 64.5536 102.906 64.5536 102.812C64.5536 102.717 64.5305 102.624 64.4865 102.543C64.4425 102.461 64.3792 102.393 64.3029 102.345L59.7746 99.5381C59.6982 99.4912 59.6114 99.4661 59.5231 99.4661C59.4348 99.4661 59.348 99.4912 59.2715 99.5381L54.7432 102.345C54.6669 102.393 54.6037 102.461 54.5597 102.543C54.5157 102.624 54.4925 102.717 54.4925 102.812C54.4925 102.906 54.5157 102.999 54.5597 103.081C54.6037 103.163 54.6669 103.231 54.7432 103.278ZM59.5231 100.629L63.0451 102.788L59.5231 104.974L56.001 102.809L59.5231 100.629ZM63.7998 104.833L59.5231 107.483L55.2463 104.833C55.1892 104.797 55.126 104.774 55.0604 104.764C54.9949 104.754 54.9281 104.758 54.8641 104.777C54.8001 104.795 54.74 104.826 54.6873 104.869C54.6346 104.912 54.5903 104.966 54.557 105.027C54.5238 105.089 54.5022 105.157 54.4936 105.228C54.4849 105.298 54.4893 105.37 54.5066 105.438C54.524 105.507 54.5538 105.572 54.5944 105.628C54.6349 105.685 54.6856 105.731 54.7432 105.767L59.2715 108.573C59.348 108.621 59.4348 108.646 59.5231 108.646C59.6114 108.646 59.6982 108.621 59.7746 108.573L64.3029 105.767C64.3606 105.731 64.4112 105.685 64.4518 105.628C64.4924 105.572 64.5222 105.507 64.5395 105.438C64.5568 105.37 64.5613 105.298 64.5526 105.228C64.544 105.157 64.5224 105.089 64.4891 105.027C64.4558 104.966 64.4115 104.912 64.3589 104.869C64.3062 104.826 64.2461 104.795 64.182 104.777C64.118 104.758 64.0513 104.754 63.9857 104.764C63.9201 104.774 63.8569 104.797 63.7998 104.833Z" fill="#848484"/>
<path d="M68.9578 104.055C68.9578 98.4658 64.734 93.9349 59.5238 93.9349C54.3136 93.9349 50.0898 98.4658 50.0898 104.055C50.0898 109.644 54.3136 114.175 59.5238 114.175C64.734 114.175 68.9578 109.644 68.9578 104.055Z" stroke="#EDE9E5"/>
<path d="M68.9578 104.055C68.9578 98.4658 64.734 93.9349 59.5238 93.9349C54.3136 93.9349 50.0898 98.4658 50.0898 104.055C50.0898 109.644 54.3136 114.175 59.5238 114.175C64.734 114.175 68.9578 109.644 68.9578 104.055Z" stroke="black" stroke-opacity="0.2"/>
<path d="M77.8777 108.219C77.0324 108.219 76.3079 108.029 75.7041 107.649C75.1003 107.27 74.6334 106.73 74.3033 106.03C73.9813 105.322 73.8203 104.489 73.8203 103.53C73.8203 102.814 73.9129 102.17 74.098 101.6C74.2832 101.021 74.5488 100.529 74.895 100.123C75.2412 99.7089 75.6639 99.394 76.163 99.1778C76.6701 98.9617 77.2417 98.854 77.8777 98.854C78.3607 98.854 78.8236 98.9277 79.2664 99.0742C79.7171 99.2208 80.1036 99.428 80.4256 99.696C80.5544 99.7907 80.639 99.8992 80.6792 100.02C80.7194 100.14 80.7235 100.257 80.6913 100.37C80.6671 100.473 80.6148 100.564 80.5343 100.642C80.4618 100.71 80.3692 100.749 80.2565 100.758C80.1439 100.758 80.0231 100.71 79.8943 100.616C79.6125 100.383 79.3026 100.214 78.9645 100.11C78.6344 99.998 78.2802 99.9421 77.9018 99.9421C77.282 99.9421 76.7546 100.085 76.3199 100.37C75.8933 100.646 75.5673 101.052 75.3418 101.587C75.1245 102.114 75.0158 102.762 75.0158 103.53C75.0158 104.29 75.1245 104.942 75.3418 105.486C75.5673 106.021 75.8933 106.432 76.3199 106.717C76.7546 106.993 77.282 107.131 77.9018 107.131C78.2802 107.131 78.6384 107.075 78.9765 106.963C79.3227 106.85 79.6407 106.678 79.9305 106.445C80.0593 106.35 80.176 106.306 80.2807 106.315C80.3934 106.324 80.486 106.363 80.5584 106.432C80.6309 106.492 80.6792 106.578 80.7033 106.691C80.7356 106.794 80.7356 106.902 80.7033 107.015C80.6711 107.127 80.5987 107.226 80.486 107.313C80.1559 107.615 79.7614 107.844 79.3026 107.999C78.8518 108.146 78.3768 108.219 77.8777 108.219ZM82.6814 108.193C82.5123 108.193 82.3795 108.142 82.2829 108.038C82.1863 107.934 82.138 107.783 82.138 107.585V99.4758C82.138 99.2774 82.1863 99.1301 82.2829 99.0354C82.3795 98.9317 82.5123 98.8799 82.6814 98.8799C82.8584 98.8799 82.9953 98.9317 83.0919 99.0354C83.1885 99.1301 83.2368 99.2774 83.2368 99.4758V103.168H83.0799C83.2489 102.675 83.5226 102.304 83.901 102.054C84.2874 101.803 84.7261 101.678 85.2172 101.678C85.6922 101.678 86.0826 101.773 86.3885 101.963C86.6944 102.144 86.9239 102.42 87.0768 102.792C87.2297 103.163 87.3063 103.63 87.3063 104.191V107.585C87.3063 107.783 87.258 107.934 87.1614 108.038C87.0728 108.142 86.9399 108.193 86.7629 108.193C86.5857 108.193 86.4489 108.142 86.3523 108.038C86.2557 107.934 86.2074 107.783 86.2074 107.585V104.256C86.2074 103.695 86.1067 103.284 85.9055 103.025C85.7042 102.766 85.3822 102.636 84.9395 102.636C84.4242 102.636 84.0097 102.809 83.6957 103.155C83.3897 103.491 83.2368 103.949 83.2368 104.528V107.585C83.2368 107.99 83.0516 108.193 82.6814 108.193ZM91.7652 108.219C91.1294 108.219 90.5819 108.09 90.123 107.831C89.6722 107.563 89.322 107.187 89.0725 106.704C88.823 106.212 88.6981 105.633 88.6981 104.968C88.6981 104.311 88.8189 103.737 89.0604 103.245C89.31 102.753 89.6481 102.368 90.0747 102.092C90.5094 101.816 91.0045 101.678 91.5599 101.678C91.9547 101.678 92.3086 101.752 92.6226 101.898C92.9448 102.037 93.218 102.239 93.4437 102.507C93.6694 102.775 93.8384 103.103 93.9509 103.491C94.0716 103.871 94.132 104.303 94.132 104.787C94.132 104.925 94.092 105.033 94.0113 105.111C93.9388 105.179 93.8301 105.214 93.6852 105.214H89.5555V104.463H93.4075L93.2022 104.644C93.2022 104.195 93.1381 103.815 93.009 103.504C92.8882 103.185 92.7071 102.943 92.4656 102.779C92.2324 102.615 91.9381 102.533 91.5841 102.533C91.1977 102.533 90.8677 102.632 90.594 102.831C90.3203 103.021 90.111 103.293 89.966 103.647C89.8211 103.992 89.7487 104.394 89.7487 104.851V104.929C89.7487 105.706 89.9218 106.293 90.2679 106.691C90.6141 107.088 91.1132 107.287 91.7652 107.287C92.0226 107.287 92.2845 107.252 92.5501 107.183C92.8241 107.114 93.0852 106.989 93.335 106.807C93.4558 106.73 93.5645 106.695 93.6611 106.704C93.766 106.704 93.8505 106.739 93.9147 106.807C93.9788 106.868 94.0196 106.946 94.0354 107.041C94.0513 107.127 94.0392 107.222 93.9992 107.326C93.9592 107.429 93.8822 107.52 93.7697 107.598C93.5041 107.796 93.1863 107.951 92.8158 108.064C92.4535 108.168 92.1033 108.219 91.7652 108.219ZM98.0467 108.219C97.4513 108.219 96.9358 108.086 96.5011 107.818C96.0664 107.542 95.732 107.157 95.4988 106.665C95.2656 106.164 95.1486 105.577 95.1486 104.903C95.1486 104.402 95.2128 103.954 95.3418 103.556C95.4784 103.159 95.6716 102.822 95.9214 102.546C96.1713 102.261 96.4731 102.045 96.8271 101.898C97.1894 101.752 97.5962 101.678 98.0467 101.678C98.3282 101.678 98.6263 101.726 98.9403 101.82C99.2543 101.915 99.5441 102.071 99.8097 102.287C99.898 102.355 99.9546 102.438 99.9788 102.533C100.003 102.619 100.003 102.71 99.9788 102.805C99.963 102.9 99.9222 102.982 99.858 103.051C99.8014 103.112 99.7252 103.146 99.6286 103.155C99.5403 103.163 99.4437 103.133 99.3388 103.064C99.1456 102.908 98.9403 102.796 98.723 102.727C98.5139 102.658 98.3124 102.623 98.1192 102.623C97.8211 102.623 97.5554 102.675 97.3222 102.779C97.0965 102.883 96.9033 103.034 96.7426 103.232C96.5894 103.423 96.4731 103.66 96.3924 103.945C96.3116 104.221 96.2716 104.545 96.2716 104.916C96.2716 105.651 96.4324 106.229 96.7547 106.652C97.0769 107.066 97.5313 107.274 98.1192 107.274C98.3124 107.274 98.5139 107.244 98.723 107.183C98.932 107.114 99.1373 107.002 99.3388 106.846C99.4437 106.777 99.5403 106.752 99.6286 106.769C99.7169 106.777 99.7894 106.816 99.846 106.885C99.9101 106.946 99.9509 107.024 99.9667 107.118C99.9826 107.205 99.975 107.296 99.9426 107.39C99.9184 107.485 99.8618 107.563 99.7735 107.623C99.5162 107.831 99.2339 107.982 98.9282 108.077C98.6226 108.172 98.3282 108.219 98.0467 108.219ZM101.656 108.193C101.487 108.193 101.354 108.142 101.257 108.038C101.161 107.934 101.112 107.783 101.112 107.585V99.4758C101.112 99.2774 101.161 99.1301 101.257 99.0354C101.354 98.9317 101.487 98.8799 101.656 98.8799C101.832 98.8799 101.97 98.9317 102.066 99.0354C102.163 99.1301 102.211 99.2774 102.211 99.4758V104.579H102.235L104.602 102.105C104.723 101.976 104.832 101.876 104.928 101.807C105.025 101.739 105.149 101.704 105.303 101.704C105.455 101.704 105.572 101.747 105.653 101.833C105.733 101.911 105.774 102.015 105.774 102.144C105.774 102.265 105.717 102.386 105.604 102.507L103.093 105.123V104.541L105.834 107.377C105.946 107.498 105.998 107.623 105.991 107.753C105.991 107.883 105.946 107.99 105.858 108.077C105.777 108.155 105.669 108.193 105.532 108.193C105.371 108.193 105.238 108.159 105.134 108.09C105.037 108.021 104.924 107.913 104.795 107.766L102.235 105.175H102.211V107.585C102.211 107.99 102.026 108.193 101.656 108.193ZM111.093 108.193C110.916 108.193 110.779 108.142 110.682 108.038C110.586 107.925 110.537 107.77 110.537 107.572V99.5017C110.537 99.2944 110.586 99.139 110.682 99.0354C110.779 98.9317 110.916 98.8799 111.093 98.8799C111.278 98.8799 111.419 98.9317 111.515 99.0354C111.612 99.139 111.66 99.2944 111.66 99.5017V107.572C111.66 107.77 111.612 107.925 111.515 108.038C111.427 108.142 111.286 108.193 111.093 108.193ZM114.097 108.193C113.927 108.193 113.795 108.142 113.698 108.038C113.601 107.934 113.553 107.783 113.553 107.585V102.3C113.553 102.101 113.601 101.954 113.698 101.859C113.795 101.756 113.927 101.704 114.097 101.704C114.266 101.704 114.395 101.756 114.483 101.859C114.58 101.954 114.628 102.101 114.628 102.3V103.362L114.495 103.168C114.664 102.675 114.938 102.304 115.316 102.054C115.703 101.803 116.141 101.678 116.632 101.678C117.107 101.678 117.498 101.769 117.804 101.95C118.109 102.131 118.339 102.407 118.492 102.779C118.645 103.151 118.721 103.621 118.721 104.191V107.585C118.721 107.783 118.673 107.934 118.577 108.038C118.488 108.142 118.355 108.193 118.178 108.193C118.001 108.193 117.864 108.142 117.767 108.038C117.671 107.934 117.623 107.783 117.623 107.585V104.256C117.623 103.695 117.522 103.284 117.321 103.025C117.119 102.766 116.798 102.636 116.355 102.636C115.839 102.636 115.425 102.809 115.111 103.155C114.805 103.491 114.652 103.949 114.652 104.528V107.585C114.652 107.99 114.467 108.193 114.097 108.193Z" fill="#171717"/>
<path d="M162.165 93.1254H138.014C132.387 93.1254 127.825 98.0187 127.825 104.055C127.825 110.091 132.387 114.984 138.014 114.984H162.165C167.792 114.984 172.353 110.091 172.353 104.055C172.353 98.0187 167.792 93.1254 162.165 93.1254Z" fill="#F1FFF5"/>
<path d="M140.019 107.293C139.856 107.293 139.729 107.248 139.639 107.157C139.554 107.06 139.512 106.924 139.512 106.749V100.988C139.512 100.813 139.554 100.68 139.639 100.59C139.729 100.493 139.856 100.444 140.019 100.444H141.767C142.817 100.444 143.626 100.739 144.194 101.328C144.768 101.911 145.054 102.756 145.054 103.864C145.054 104.414 144.982 104.903 144.837 105.331C144.692 105.758 144.478 106.118 144.194 106.409C143.916 106.694 143.575 106.914 143.171 107.07C142.766 107.219 142.298 107.293 141.767 107.293H140.019ZM140.454 106.448H141.712C142.111 106.448 142.455 106.396 142.745 106.293C143.041 106.182 143.288 106.021 143.488 105.807C143.687 105.593 143.835 105.324 143.931 105C144.028 104.677 144.076 104.298 144.076 103.864C144.076 103.002 143.877 102.358 143.479 101.93C143.086 101.503 142.497 101.289 141.712 101.289H140.454V106.448ZM148.134 107.381C147.687 107.381 147.3 107.28 146.974 107.079C146.654 106.879 146.404 106.594 146.223 106.225C146.042 105.855 145.951 105.421 145.951 104.923C145.951 104.541 146.002 104.201 146.105 103.903C146.208 103.605 146.352 103.349 146.54 103.135C146.733 102.915 146.962 102.75 147.228 102.64C147.5 102.523 147.802 102.465 148.134 102.465C148.574 102.465 148.955 102.565 149.275 102.766C149.601 102.967 149.854 103.252 150.035 103.621C150.217 103.984 150.307 104.418 150.307 104.923C150.307 105.298 150.256 105.638 150.153 105.943C150.051 106.247 149.903 106.506 149.709 106.72C149.522 106.934 149.293 107.099 149.021 107.216C148.755 107.326 148.46 107.381 148.134 107.381ZM148.134 106.623C148.381 106.623 148.599 106.558 148.786 106.429C148.973 106.299 149.118 106.108 149.22 105.855C149.329 105.603 149.383 105.292 149.383 104.923C149.383 104.366 149.269 103.945 149.039 103.66C148.81 103.375 148.508 103.232 148.134 103.232C147.88 103.232 147.66 103.297 147.472 103.427C147.285 103.55 147.137 103.738 147.029 103.99C146.926 104.243 146.875 104.554 146.875 104.923C146.875 105.473 146.989 105.894 147.219 106.186C147.448 106.477 147.753 106.623 148.134 106.623ZM151.787 107.361C151.642 107.361 151.531 107.319 151.452 107.235C151.374 107.144 151.334 107.021 151.334 106.866V102.98C151.334 102.818 151.374 102.695 151.452 102.611C151.531 102.526 151.639 102.484 151.778 102.484C151.923 102.484 152.032 102.526 152.104 102.611C152.183 102.695 152.222 102.818 152.222 102.98V103.738L152.122 103.563C152.255 103.2 152.463 102.928 152.747 102.747C153.031 102.559 153.357 102.465 153.725 102.465C154.075 102.465 154.365 102.536 154.595 102.679C154.83 102.815 155.005 103.025 155.12 103.31C155.235 103.589 155.292 103.942 155.292 104.369V106.866C155.292 107.021 155.253 107.144 155.174 107.235C155.096 107.319 154.984 107.361 154.839 107.361C154.688 107.361 154.574 107.319 154.495 107.235C154.417 107.144 154.377 107.021 154.377 106.866V104.427C154.377 104.019 154.302 103.721 154.151 103.533C154.006 103.346 153.777 103.252 153.463 103.252C153.094 103.252 152.799 103.375 152.575 103.621C152.358 103.867 152.249 104.197 152.249 104.612V106.866C152.249 107.196 152.095 107.361 151.787 107.361ZM158.626 107.381C158.143 107.381 157.727 107.284 157.377 107.089C157.032 106.888 156.764 106.607 156.571 106.244C156.383 105.875 156.29 105.438 156.29 104.932C156.29 104.44 156.383 104.01 156.571 103.64C156.758 103.271 157.014 102.983 157.34 102.776C157.666 102.568 158.038 102.465 158.454 102.465C158.762 102.465 159.037 102.52 159.279 102.63C159.52 102.734 159.725 102.889 159.894 103.096C160.069 103.297 160.199 103.543 160.284 103.835C160.374 104.126 160.42 104.453 160.42 104.816C160.42 104.926 160.389 105.01 160.329 105.068C160.269 105.12 160.178 105.146 160.057 105.146H157.014V104.544H159.804L159.65 104.68C159.65 104.356 159.605 104.081 159.514 103.854C159.429 103.627 159.3 103.456 159.125 103.339C158.955 103.216 158.744 103.155 158.491 103.155C158.207 103.155 157.965 103.226 157.766 103.368C157.573 103.511 157.425 103.708 157.322 103.961C157.22 104.214 157.168 104.508 157.168 104.845V104.903C157.168 105.473 157.292 105.904 157.54 106.195C157.793 106.48 158.159 106.623 158.635 106.623C158.817 106.623 159.007 106.597 159.206 106.545C159.411 106.493 159.605 106.406 159.786 106.283C159.888 106.218 159.979 106.189 160.057 106.195C160.142 106.202 160.208 106.231 160.257 106.283C160.311 106.335 160.344 106.399 160.356 106.477C160.368 106.555 160.356 106.636 160.32 106.72C160.284 106.798 160.22 106.869 160.13 106.934C159.925 107.083 159.686 107.196 159.414 107.274C159.143 107.345 158.88 107.381 158.626 107.381Z" fill="#01A539"/>
<path d="M162.165 93.1254H138.014C132.387 93.1254 127.825 98.0187 127.825 104.055C127.825 110.091 132.387 114.984 138.014 114.984H162.165C167.792 114.984 172.353 110.091 172.353 104.055C172.353 98.0187 167.792 93.1254 162.165 93.1254Z" stroke="#ACE6BE"/>
<path d="M321.04 105.911C321.098 105.974 321.167 106.025 321.244 106.059C321.321 106.093 321.403 106.11 321.486 106.11C321.569 106.11 321.651 106.093 321.728 106.059C321.804 106.025 321.874 105.974 321.933 105.911L324.499 103.159C324.617 103.032 324.684 102.859 324.684 102.679C324.684 102.5 324.617 102.328 324.499 102.201C324.38 102.074 324.219 102.003 324.052 102.003C323.884 102.003 323.724 102.074 323.606 102.201L321.486 104.481L320.725 103.658C320.607 103.531 320.446 103.46 320.278 103.46C320.111 103.46 319.951 103.531 319.832 103.658C319.714 103.785 319.647 103.957 319.647 104.137C319.647 104.316 319.714 104.489 319.832 104.616L321.04 105.911ZM327.825 97.3093H316.505C316.338 97.3093 316.178 97.3806 316.06 97.5069C315.942 97.6332 315.876 97.8048 315.876 97.9837V110.128C315.876 110.306 315.942 110.478 316.06 110.605C316.178 110.732 316.338 110.803 316.505 110.803H327.825C327.992 110.803 328.152 110.732 328.271 110.605C328.388 110.478 328.455 110.306 328.455 110.128V97.9837C328.455 97.8048 328.388 97.6332 328.271 97.5069C328.152 97.3806 327.992 97.3093 327.825 97.3093ZM327.197 109.453H317.134V98.6589H327.197V109.453Z" fill="#FDC8BB"/>
<path d="M336.38 107.293C336.189 107.293 336.052 107.248 335.968 107.157C335.883 107.059 335.841 106.926 335.841 106.76C335.841 106.654 335.866 106.552 335.915 106.454C335.964 106.356 336.035 106.254 336.126 106.148L338.377 103.564C338.722 103.172 338.968 102.812 339.116 102.487C339.271 102.155 339.349 101.823 339.349 101.49C339.349 101.067 339.229 100.746 338.989 100.527C338.75 100.307 338.398 100.198 337.933 100.198C337.651 100.198 337.38 100.243 337.119 100.334C336.859 100.425 336.598 100.572 336.337 100.776C336.232 100.851 336.133 100.885 336.042 100.878C335.95 100.871 335.869 100.833 335.798 100.765C335.735 100.697 335.693 100.613 335.672 100.515C335.651 100.417 335.654 100.315 335.682 100.209C335.71 100.103 335.777 100.013 335.883 99.9372C336.172 99.7032 336.506 99.5219 336.887 99.3932C337.267 99.2644 337.654 99.2005 338.049 99.2005C338.563 99.2005 338.996 99.2871 339.349 99.4612C339.708 99.6271 339.979 99.8733 340.162 100.198C340.346 100.523 340.437 100.919 340.437 101.388C340.437 101.705 340.388 102.015 340.289 102.317C340.198 102.619 340.053 102.929 339.856 103.247C339.666 103.557 339.416 103.886 339.106 104.233L336.971 106.636V106.307H340.331C340.486 106.307 340.606 106.348 340.691 106.432C340.775 106.515 340.817 106.636 340.817 106.794C340.817 106.953 340.775 107.078 340.691 107.168C340.606 107.252 340.486 107.293 340.331 107.293H336.38ZM344.857 107.656C344.821 107.776 344.765 107.864 344.688 107.917C344.61 107.969 344.525 107.996 344.434 107.996C344.343 107.996 344.258 107.969 344.18 107.917C344.11 107.871 344.06 107.803 344.032 107.713C343.997 107.622 343.997 107.513 344.032 107.384L346.515 99.1325C346.551 99.0119 346.607 98.9244 346.685 98.8718C346.762 98.8111 346.843 98.7852 346.928 98.7925C347.019 98.7925 347.1 98.8192 347.171 98.8718C347.248 98.9171 347.301 98.9851 347.329 99.0758C347.365 99.1592 347.368 99.2644 347.34 99.3932L344.857 107.656ZM351.424 107.293C351.234 107.293 351.097 107.248 351.012 107.157C350.928 107.059 350.885 106.926 350.885 106.76C350.885 106.654 350.909 106.552 350.959 106.454C351.008 106.356 351.079 106.254 351.171 106.148L353.421 103.564C353.766 103.172 354.013 102.812 354.161 102.487C354.315 102.155 354.393 101.823 354.393 101.49C354.393 101.067 354.273 100.746 354.034 100.527C353.794 100.307 353.442 100.198 352.977 100.198C352.695 100.198 352.424 100.243 352.164 100.334C351.903 100.425 351.642 100.572 351.382 100.776C351.276 100.851 351.177 100.885 351.086 100.878C350.994 100.871 350.913 100.833 350.843 100.765C350.78 100.697 350.737 100.613 350.716 100.515C350.695 100.417 350.698 100.315 350.727 100.209C350.755 100.103 350.822 100.013 350.928 99.9372C351.216 99.7032 351.551 99.5219 351.931 99.3932C352.312 99.2644 352.699 99.2005 353.094 99.2005C353.608 99.2005 354.041 99.2871 354.393 99.4612C354.752 99.6271 355.023 99.8733 355.207 100.198C355.389 100.523 355.482 100.919 355.482 101.388C355.482 101.705 355.432 102.015 355.334 102.317C355.242 102.619 355.097 102.929 354.9 103.247C354.71 103.557 354.46 103.886 354.15 104.233L352.016 106.636V106.307H355.376C355.531 106.307 355.651 106.348 355.735 106.432C355.82 106.515 355.862 106.636 355.862 106.794C355.862 106.953 355.82 107.078 355.735 107.168C355.651 107.252 355.531 107.293 355.376 107.293H351.424Z" fill="#171717"/>
<path d="M382.542 92.7206H370.467C367.966 92.7206 365.938 94.8954 365.938 97.5781V110.532C365.938 113.214 367.966 115.389 370.467 115.389H382.542C385.043 115.389 387.071 113.214 387.071 110.532V97.5781C387.071 94.8954 385.043 92.7206 382.542 92.7206Z" fill="#F9F9F9"/>
<path d="M375.372 107.698C375.523 107.698 375.667 107.634 375.772 107.52C375.879 107.407 375.938 107.252 375.938 107.091V103.448C375.938 103.287 375.879 103.132 375.772 103.019C375.667 102.904 375.523 102.84 375.372 102.84C375.222 102.84 375.078 102.904 374.972 103.019C374.866 103.132 374.806 103.287 374.806 103.448V107.091C374.806 107.252 374.866 107.407 374.972 107.52C375.078 107.634 375.222 107.698 375.372 107.698ZM381.033 100.412H378.769V99.8045C378.769 99.3212 378.59 98.8581 378.271 98.5164C377.953 98.1748 377.521 97.9829 377.071 97.9829H375.938C375.488 97.9829 375.056 98.1748 374.738 98.5164C374.419 98.8581 374.24 99.3212 374.24 99.8045V100.412H371.976C371.826 100.412 371.682 100.476 371.576 100.59C371.47 100.703 371.41 100.858 371.41 101.019C371.41 101.18 371.47 101.335 371.576 101.448C371.682 101.562 371.826 101.626 371.976 101.626H372.542V108.305C372.542 108.789 372.721 109.252 373.04 109.593C373.358 109.935 373.79 110.127 374.24 110.127H378.769C379.219 110.127 379.651 109.935 379.969 109.593C380.288 109.252 380.467 108.789 380.467 108.305V101.626H381.033C381.183 101.626 381.327 101.562 381.433 101.448C381.539 101.335 381.599 101.18 381.599 101.019C381.599 100.858 381.539 100.703 381.433 100.59C381.327 100.476 381.183 100.412 381.033 100.412ZM375.372 99.8045C375.372 99.6434 375.432 99.4887 375.538 99.3754C375.644 99.2613 375.788 99.1973 375.938 99.1973H377.071C377.221 99.1973 377.365 99.2613 377.471 99.3754C377.577 99.4887 377.637 99.6434 377.637 99.8045V100.412H375.372V99.8045ZM379.335 108.305C379.335 108.466 379.275 108.621 379.169 108.734C379.063 108.848 378.919 108.912 378.769 108.912H374.24C374.09 108.912 373.946 108.848 373.84 108.734C373.734 108.621 373.674 108.466 373.674 108.305V101.626H379.335V108.305ZM377.637 107.698C377.787 107.698 377.931 107.634 378.037 107.52C378.143 107.407 378.203 107.252 378.203 107.091V103.448C378.203 103.287 378.143 103.132 378.037 103.019C377.931 102.904 377.787 102.84 377.637 102.84C377.486 102.84 377.342 102.904 377.237 103.019C377.13 103.132 377.071 103.287 377.071 103.448V107.091C377.071 107.252 377.13 107.407 377.237 107.52C377.342 107.634 377.486 107.698 377.637 107.698Z" fill="#848484"/>
</g>
<g filter="url(#filter2_d_14719_58393)">
<path d="M385.561 149.392H45.9386C38.8527 149.392 33.1084 155.554 33.1084 163.155V185.824C33.1084 193.425 38.8527 199.587 45.9386 199.587H385.561C392.647 199.587 398.391 193.425 398.391 185.824V163.155C398.391 155.554 392.647 149.392 385.561 149.392Z" fill="white"/>
<path d="M68.9578 174.489C68.9578 168.9 64.734 164.369 59.5238 164.369C54.3136 164.369 50.0898 168.9 50.0898 174.489C50.0898 180.078 54.3136 184.609 59.5238 184.609C64.734 184.609 68.9578 180.078 68.9578 174.489Z" fill="white"/>
<path d="M54.7432 173.711L59.2715 176.518C59.348 176.566 59.4348 176.59 59.5231 176.59C59.6114 176.59 59.6982 176.566 59.7746 176.518L64.3029 173.711C64.3792 173.664 64.4425 173.596 64.4865 173.514C64.5305 173.432 64.5536 173.34 64.5536 173.245C64.5536 173.15 64.5305 173.057 64.4865 172.975C64.4425 172.894 64.3792 172.826 64.3029 172.778L59.7746 169.971C59.6982 169.924 59.6114 169.899 59.5231 169.899C59.4348 169.899 59.348 169.924 59.2715 169.971L54.7432 172.778C54.6669 172.826 54.6037 172.894 54.5597 172.975C54.5157 173.057 54.4925 173.15 54.4925 173.245C54.4925 173.34 54.5157 173.432 54.5597 173.514C54.6037 173.596 54.6669 173.664 54.7432 173.711ZM59.5231 171.062L63.0451 173.221L59.5231 175.407L56.001 173.242L59.5231 171.062ZM63.7998 175.266L59.5231 177.916L55.2463 175.266C55.1892 175.23 55.126 175.207 55.0604 175.197C54.9949 175.187 54.9281 175.192 54.8641 175.21C54.8001 175.228 54.74 175.259 54.6873 175.302C54.6346 175.345 54.5903 175.399 54.557 175.46C54.5238 175.522 54.5022 175.59 54.4936 175.661C54.4849 175.731 54.4893 175.803 54.5066 175.871C54.524 175.94 54.5538 176.005 54.5944 176.061C54.6349 176.117 54.6856 176.164 54.7432 176.2L59.2715 179.006C59.348 179.054 59.4348 179.079 59.5231 179.079C59.6114 179.079 59.6982 179.054 59.7746 179.006L64.3029 176.2C64.3606 176.164 64.4112 176.117 64.4518 176.061C64.4924 176.005 64.5222 175.94 64.5395 175.871C64.5568 175.803 64.5613 175.731 64.5526 175.661C64.544 175.59 64.5224 175.522 64.4891 175.46C64.4558 175.399 64.4115 175.345 64.3589 175.302C64.3062 175.259 64.2461 175.228 64.182 175.21C64.118 175.192 64.0513 175.187 63.9857 175.197C63.9201 175.207 63.8569 175.23 63.7998 175.266Z" fill="#848484"/>
<path d="M68.9578 174.489C68.9578 168.9 64.734 164.369 59.5238 164.369C54.3136 164.369 50.0898 168.9 50.0898 174.489C50.0898 180.078 54.3136 184.609 59.5238 184.609C64.734 184.609 68.9578 180.078 68.9578 174.489Z" stroke="#EDE9E5"/>
<path d="M68.9578 174.489C68.9578 168.9 64.734 164.369 59.5238 164.369C54.3136 164.369 50.0898 168.9 50.0898 174.489C50.0898 180.078 54.3136 184.609 59.5238 184.609C64.734 184.609 68.9578 180.078 68.9578 174.489Z" stroke="black" stroke-opacity="0.2"/>
<path d="M74.0146 178.628C73.8697 178.628 73.7529 178.593 73.6644 178.524C73.5838 178.455 73.5355 178.36 73.5195 178.239C73.5034 178.119 73.5275 177.984 73.5919 177.838L76.8885 169.832C76.961 169.651 77.0536 169.522 77.1663 169.444C77.2789 169.357 77.4038 169.314 77.5406 169.314C77.6774 169.314 77.7982 169.357 77.9029 169.444C78.0155 169.522 78.1121 169.651 78.1927 169.832L81.4893 177.838C81.5537 177.984 81.5778 178.123 81.5617 178.252C81.5537 178.373 81.5094 178.468 81.4289 178.537C81.3484 178.598 81.2357 178.628 81.0908 178.628C80.9298 178.628 80.801 178.585 80.7044 178.498C80.6078 178.404 80.5232 178.269 80.4508 178.097L79.5934 175.946L80.1127 176.257H74.9444L75.4636 175.946L74.6063 178.097C74.5338 178.287 74.4533 178.425 74.3648 178.511C74.2762 178.589 74.1595 178.628 74.0146 178.628ZM77.5164 170.765L75.6327 175.545L75.3429 175.273H79.7142L79.4365 175.545L77.5406 170.765H77.5164ZM85.0337 178.654C84.5184 178.654 84.0635 178.524 83.6691 178.265C83.2827 177.997 82.9808 177.617 82.7635 177.125C82.5461 176.624 82.4374 176.041 82.4374 175.377C82.4374 174.703 82.542 174.124 82.7514 173.641C82.9687 173.149 83.2706 172.773 83.6571 172.514C84.0515 172.246 84.5103 172.112 85.0337 172.112C85.5569 172.112 86.0077 172.255 86.3861 172.54C86.7644 172.816 87.018 173.187 87.1469 173.654H87.014V169.91C87.014 169.712 87.0583 169.564 87.1469 169.47C87.2435 169.366 87.3803 169.314 87.5574 169.314C87.7345 169.314 87.8714 169.366 87.968 169.47C88.0646 169.564 88.1128 169.712 88.1128 169.91V178.019C88.1128 178.217 88.0646 178.369 87.968 178.472C87.8714 178.576 87.7345 178.628 87.5574 178.628C87.3884 178.628 87.2555 178.576 87.1589 178.472C87.0623 178.369 87.014 178.217 87.014 178.019V176.84L87.1469 177.073C87.0261 177.557 86.7725 177.941 86.3861 178.226C86.0077 178.511 85.5569 178.654 85.0337 178.654ZM85.2872 177.721C85.6414 177.721 85.9473 177.63 86.205 177.449C86.4706 177.268 86.6718 177.005 86.8087 176.659C86.9537 176.313 87.0261 175.886 87.0261 175.377C87.0261 174.616 86.8691 174.038 86.5552 173.641C86.2412 173.243 85.8186 173.045 85.2872 173.045C84.9411 173.045 84.6352 173.136 84.3695 173.317C84.1118 173.489 83.9106 173.748 83.7657 174.094C83.6208 174.44 83.5484 174.867 83.5484 175.377C83.5484 176.137 83.7054 176.72 84.0193 177.125C84.3413 177.523 84.7639 177.721 85.2872 177.721ZM90.4424 178.628C90.2734 178.628 90.1405 178.576 90.0439 178.472C89.9473 178.369 89.899 178.217 89.899 178.019V172.734C89.899 172.536 89.9473 172.388 90.0439 172.294C90.1405 172.19 90.2734 172.138 90.4424 172.138C90.6115 172.138 90.7402 172.19 90.8288 172.294C90.9254 172.388 90.9737 172.536 90.9737 172.734V173.835L90.8409 173.602C90.9938 173.127 91.2395 172.76 91.5776 172.501C91.924 172.242 92.3346 172.112 92.8093 172.112C93.3081 172.112 93.7112 172.242 94.0168 172.501C94.3225 172.751 94.5278 173.136 94.6327 173.654H94.4636C94.6085 173.179 94.8659 172.803 95.2364 172.527C95.6146 172.251 96.0538 172.112 96.5527 172.112C96.9957 172.112 97.358 172.207 97.6395 172.397C97.9293 172.579 98.1466 172.855 98.2915 173.226C98.4364 173.589 98.5089 174.055 98.5089 174.625V178.019C98.5089 178.217 98.4606 178.369 98.364 178.472C98.2674 178.576 98.1346 178.628 97.9655 178.628C97.7881 178.628 97.6515 178.576 97.5549 178.472C97.4583 178.369 97.41 178.217 97.41 178.019V174.677C97.41 174.124 97.3217 173.718 97.1444 173.459C96.967 173.2 96.6697 173.071 96.2508 173.071C95.7919 173.071 95.4259 173.243 95.1519 173.589C94.8863 173.926 94.7534 174.392 94.7534 174.988V178.019C94.7534 178.217 94.7051 178.369 94.6085 178.472C94.5202 178.576 94.3874 178.628 94.21 178.628C94.0327 178.628 93.8961 178.576 93.7995 178.472C93.7029 178.369 93.6546 178.217 93.6546 178.019V174.677C93.6546 174.124 93.5663 173.718 93.3889 173.459C93.2115 173.2 92.9142 173.071 92.4953 173.071C92.0364 173.071 91.6704 173.243 91.3965 173.589C91.1307 173.926 90.9979 174.392 90.9979 174.988V178.019C90.9979 178.425 90.8127 178.628 90.4424 178.628ZM100.819 178.602C100.65 178.602 100.517 178.546 100.421 178.434C100.324 178.321 100.276 178.166 100.276 177.967V172.799C100.276 172.592 100.324 172.436 100.421 172.332C100.517 172.22 100.65 172.164 100.819 172.164C100.996 172.164 101.133 172.22 101.23 172.332C101.326 172.436 101.375 172.592 101.375 172.799V177.967C101.375 178.166 101.326 178.321 101.23 178.434C101.141 178.546 101.004 178.602 100.819 178.602ZM100.819 170.765C100.602 170.765 100.429 170.704 100.3 170.584C100.179 170.454 100.119 170.286 100.119 170.079C100.119 169.854 100.179 169.686 100.3 169.573C100.429 169.453 100.602 169.392 100.819 169.392C101.052 169.392 101.226 169.453 101.338 169.573C101.459 169.686 101.519 169.854 101.519 170.079C101.519 170.286 101.459 170.454 101.338 170.584C101.226 170.704 101.052 170.765 100.819 170.765ZM105.17 178.654C104.808 178.654 104.442 178.611 104.071 178.524C103.709 178.429 103.367 178.269 103.045 178.045C102.956 177.984 102.892 177.911 102.852 177.825C102.819 177.73 102.807 177.639 102.815 177.553C102.831 177.458 102.867 177.375 102.924 177.307C102.981 177.238 103.049 177.199 103.129 177.19C103.218 177.173 103.31 177.194 103.407 177.255C103.721 177.445 104.023 177.579 104.313 177.656C104.611 177.734 104.904 177.773 105.194 177.773C105.637 177.773 105.971 177.686 106.196 177.514C106.422 177.341 106.535 177.112 106.535 176.827C106.535 176.585 106.458 176.4 106.305 176.27C106.16 176.132 105.931 176.028 105.617 175.959L104.494 175.713C103.995 175.593 103.616 175.394 103.359 175.117C103.109 174.832 102.984 174.47 102.984 174.029C102.984 173.641 103.081 173.304 103.274 173.019C103.476 172.725 103.753 172.501 104.107 172.345C104.461 172.19 104.868 172.112 105.327 172.112C105.681 172.112 106.015 172.164 106.329 172.268C106.652 172.362 106.941 172.51 107.199 172.708C107.295 172.769 107.356 172.847 107.38 172.941C107.412 173.028 107.416 173.119 107.392 173.213C107.376 173.3 107.34 173.373 107.283 173.434C107.227 173.494 107.154 173.533 107.066 173.55C106.978 173.559 106.881 173.533 106.776 173.472C106.543 173.3 106.301 173.179 106.052 173.11C105.81 173.032 105.569 172.993 105.327 172.993C104.892 172.993 104.562 173.084 104.337 173.265C104.119 173.446 104.011 173.684 104.011 173.978C104.011 174.202 104.075 174.388 104.204 174.535C104.341 174.681 104.554 174.79 104.844 174.858L105.967 175.105C106.49 175.225 106.885 175.419 107.15 175.687C107.416 175.946 107.549 176.3 107.549 176.75C107.549 177.337 107.332 177.803 106.897 178.149C106.47 178.485 105.895 178.654 105.17 178.654ZM111.007 178.654C110.645 178.654 110.279 178.611 109.908 178.524C109.546 178.429 109.204 178.269 108.882 178.045C108.793 177.984 108.729 177.911 108.689 177.825C108.657 177.73 108.645 177.639 108.652 177.553C108.669 177.458 108.705 177.375 108.761 177.307C108.818 177.238 108.886 177.199 108.966 177.19C109.055 177.173 109.147 177.194 109.244 177.255C109.558 177.445 109.86 177.579 110.15 177.656C110.448 177.734 110.741 177.773 111.031 177.773C111.474 177.773 111.809 177.686 112.033 177.514C112.259 177.341 112.372 177.112 112.372 176.827C112.372 176.585 112.295 176.4 112.142 176.27C111.997 176.132 111.768 176.028 111.454 175.959L110.331 175.713C109.832 175.593 109.454 175.394 109.196 175.117C108.947 174.832 108.821 174.47 108.821 174.029C108.821 173.641 108.918 173.304 109.111 173.019C109.313 172.725 109.59 172.501 109.944 172.345C110.299 172.19 110.705 172.112 111.164 172.112C111.519 172.112 111.852 172.164 112.166 172.268C112.489 172.362 112.778 172.51 113.036 172.708C113.132 172.769 113.193 172.847 113.217 172.941C113.249 173.028 113.253 173.119 113.229 173.213C113.213 173.3 113.177 173.373 113.12 173.434C113.064 173.494 112.992 173.533 112.903 173.55C112.815 173.559 112.718 173.533 112.613 173.472C112.38 173.3 112.138 173.179 111.889 173.11C111.647 173.032 111.406 172.993 111.164 172.993C110.729 172.993 110.399 173.084 110.174 173.265C109.956 173.446 109.848 173.684 109.848 173.978C109.848 174.202 109.913 174.388 110.041 174.535C110.178 174.681 110.391 174.79 110.681 174.858L111.804 175.105C112.328 175.225 112.722 175.419 112.987 175.687C113.253 175.946 113.386 176.3 113.386 176.75C113.386 177.337 113.169 177.803 112.734 178.149C112.307 178.485 111.732 178.654 111.007 178.654ZM115.359 178.602C115.19 178.602 115.058 178.546 114.961 178.434C114.864 178.321 114.816 178.166 114.816 177.967V172.799C114.816 172.592 114.864 172.436 114.961 172.332C115.058 172.22 115.19 172.164 115.359 172.164C115.536 172.164 115.673 172.22 115.77 172.332C115.867 172.436 115.915 172.592 115.915 172.799V177.967C115.915 178.166 115.867 178.321 115.77 178.434C115.681 178.546 115.544 178.602 115.359 178.602ZM115.359 170.765C115.142 170.765 114.969 170.704 114.84 170.584C114.719 170.454 114.659 170.286 114.659 170.079C114.659 169.854 114.719 169.686 114.84 169.573C114.969 169.453 115.142 169.392 115.359 169.392C115.593 169.392 115.766 169.453 115.879 169.573C115.999 169.686 116.06 169.854 116.06 170.079C116.06 170.286 115.999 170.454 115.879 170.584C115.766 170.704 115.593 170.765 115.359 170.765ZM120.181 178.654C119.602 178.654 119.098 178.52 118.672 178.252C118.245 177.984 117.915 177.605 117.682 177.112C117.448 176.62 117.332 176.041 117.332 175.377C117.332 174.875 117.396 174.427 117.525 174.029C117.661 173.624 117.855 173.278 118.104 172.993C118.353 172.708 118.652 172.492 118.998 172.345C119.352 172.19 119.747 172.112 120.181 172.112C120.761 172.112 121.264 172.246 121.691 172.514C122.117 172.782 122.447 173.162 122.681 173.654C122.914 174.137 123.031 174.712 123.031 175.377C123.031 175.878 122.962 176.331 122.826 176.737C122.697 177.142 122.507 177.488 122.258 177.773C122.009 178.058 121.707 178.278 121.353 178.434C121.006 178.58 120.616 178.654 120.181 178.654ZM120.181 177.721C120.535 177.721 120.841 177.63 121.099 177.449C121.365 177.268 121.565 177.005 121.703 176.659C121.848 176.313 121.92 175.886 121.92 175.377C121.92 174.616 121.763 174.038 121.449 173.641C121.135 173.243 120.713 173.045 120.181 173.045C119.835 173.045 119.529 173.136 119.264 173.317C119.006 173.489 118.805 173.748 118.66 174.094C118.515 174.44 118.442 174.867 118.442 175.377C118.442 176.137 118.599 176.72 118.913 177.125C119.235 177.523 119.658 177.721 120.181 177.721ZM124.982 178.628C124.813 178.628 124.68 178.576 124.584 178.472C124.487 178.369 124.439 178.217 124.439 178.019V172.734C124.439 172.536 124.487 172.388 124.584 172.294C124.68 172.19 124.813 172.138 124.982 172.138C125.151 172.138 125.279 172.19 125.369 172.294C125.465 172.388 125.513 172.536 125.513 172.734V173.796L125.381 173.602C125.55 173.11 125.823 172.738 126.202 172.488C126.588 172.238 127.027 172.112 127.518 172.112C127.993 172.112 128.383 172.203 128.689 172.384C128.995 172.566 129.224 172.842 129.378 173.213C129.53 173.585 129.607 174.055 129.607 174.625V178.019C129.607 178.217 129.559 178.369 129.462 178.472C129.373 178.576 129.24 178.628 129.064 178.628C128.886 178.628 128.75 178.576 128.653 178.472C128.556 178.369 128.508 178.217 128.508 178.019V174.69C128.508 174.129 128.407 173.718 128.206 173.459C128.005 173.2 127.682 173.071 127.24 173.071C126.725 173.071 126.31 173.243 125.996 173.589C125.69 173.926 125.538 174.383 125.538 174.962V178.019C125.538 178.425 125.352 178.628 124.982 178.628Z" fill="#171717"/>
<path d="M186.316 163.56H148.58C142.953 163.56 138.392 168.453 138.392 174.489C138.392 180.525 142.953 185.419 148.58 185.419H186.316C191.943 185.419 196.505 180.525 196.505 174.489C196.505 168.453 191.943 163.56 186.316 163.56Z" fill="#FFF9F4"/>
<path d="M152.848 177.815C152.244 177.815 151.716 177.673 151.263 177.388C150.816 177.096 150.469 176.688 150.222 176.164C149.98 175.632 149.859 175.011 149.859 174.298C149.859 173.761 149.929 173.278 150.068 172.851C150.207 172.417 150.406 172.048 150.665 171.743C150.925 171.432 151.239 171.196 151.607 171.034C151.976 170.872 152.389 170.791 152.848 170.791C153.458 170.791 153.986 170.934 154.433 171.219C154.88 171.504 155.224 171.908 155.465 172.433C155.713 172.958 155.837 173.576 155.837 174.289C155.837 174.826 155.767 175.312 155.628 175.746C155.49 176.18 155.287 176.552 155.022 176.863C154.762 177.174 154.448 177.41 154.08 177.572C153.711 177.734 153.301 177.815 152.848 177.815ZM152.848 176.941C153.271 176.941 153.63 176.837 153.926 176.63C154.228 176.423 154.457 176.121 154.614 175.726C154.777 175.331 154.859 174.855 154.859 174.298C154.859 173.463 154.684 172.815 154.333 172.355C153.983 171.895 153.488 171.665 152.848 171.665C152.425 171.665 152.063 171.769 151.761 171.976C151.465 172.177 151.236 172.475 151.073 172.87C150.916 173.265 150.837 173.741 150.837 174.298C150.837 175.127 151.013 175.775 151.363 176.241C151.719 176.708 152.214 176.941 152.848 176.941ZM157.453 177.796C157.308 177.796 157.196 177.754 157.117 177.669C157.039 177.579 157 177.456 157 177.3V173.414C157 173.252 157.039 173.129 157.117 173.045C157.196 172.961 157.305 172.919 157.444 172.919C157.588 172.919 157.697 172.961 157.77 173.045C157.848 173.129 157.887 173.252 157.887 173.414V174.172L157.788 173.997C157.921 173.634 158.129 173.362 158.413 173.181C158.696 172.993 159.022 172.899 159.391 172.899C159.741 172.899 160.031 172.971 160.26 173.113C160.496 173.249 160.671 173.46 160.785 173.745C160.9 174.023 160.957 174.376 160.957 174.803V177.3C160.957 177.456 160.918 177.579 160.84 177.669C160.761 177.754 160.65 177.796 160.505 177.796C160.354 177.796 160.239 177.754 160.161 177.669C160.082 177.579 160.043 177.456 160.043 177.3V174.862C160.043 174.454 159.967 174.156 159.816 173.968C159.671 173.78 159.442 173.686 159.128 173.686C158.76 173.686 158.464 173.809 158.241 174.055C158.023 174.302 157.914 174.632 157.914 175.046V177.3C157.914 177.631 157.761 177.796 157.453 177.796ZM164.219 179.564C163.893 179.564 163.576 179.528 163.268 179.457C162.967 179.386 162.692 179.269 162.444 179.107C162.354 179.055 162.293 178.991 162.263 178.913C162.233 178.842 162.224 178.767 162.236 178.689C162.254 178.612 162.287 178.544 162.336 178.485C162.384 178.427 162.441 178.388 162.508 178.369C162.58 178.349 162.656 178.362 162.734 178.408C163 178.563 163.25 178.667 163.486 178.719C163.727 178.777 163.951 178.806 164.156 178.806C164.579 178.806 164.896 178.689 165.107 178.456C165.318 178.23 165.424 177.893 165.424 177.446V176.455H165.505C165.415 176.811 165.225 177.093 164.935 177.3C164.645 177.507 164.31 177.611 163.93 177.611C163.531 177.611 163.184 177.514 162.888 177.32C162.592 177.119 162.363 176.844 162.2 176.494C162.037 176.138 161.955 175.723 161.955 175.25C161.955 174.894 162.001 174.574 162.091 174.289C162.188 174.004 162.321 173.757 162.49 173.55C162.665 173.343 162.873 173.184 163.114 173.074C163.362 172.958 163.634 172.899 163.93 172.899C164.316 172.899 164.651 173.003 164.935 173.21C165.225 173.417 165.412 173.699 165.496 174.055L165.406 174.221V173.414C165.406 173.252 165.445 173.129 165.524 173.045C165.608 172.961 165.72 172.919 165.859 172.919C166.004 172.919 166.115 172.961 166.194 173.045C166.272 173.129 166.311 173.252 166.311 173.414V177.329C166.311 178.068 166.133 178.625 165.777 179C165.421 179.376 164.902 179.564 164.219 179.564ZM164.147 176.844C164.413 176.844 164.639 176.779 164.826 176.649C165.013 176.52 165.158 176.335 165.261 176.096C165.364 175.856 165.415 175.574 165.415 175.25C165.415 174.765 165.3 174.379 165.071 174.094C164.847 173.809 164.539 173.667 164.147 173.667C163.887 173.667 163.664 173.732 163.477 173.861C163.29 173.991 163.142 174.175 163.033 174.415C162.93 174.648 162.879 174.927 162.879 175.25C162.879 175.743 162.994 176.131 163.223 176.416C163.453 176.701 163.761 176.844 164.147 176.844ZM169.515 177.815C169.068 177.815 168.682 177.715 168.356 177.514C168.036 177.313 167.785 177.028 167.604 176.659C167.423 176.29 167.333 175.856 167.333 175.357C167.333 174.975 167.384 174.635 167.487 174.337C167.589 174.039 167.734 173.783 167.921 173.57C168.114 173.349 168.344 173.184 168.61 173.074C168.881 172.958 169.183 172.899 169.515 172.899C169.956 172.899 170.336 173 170.656 173.2C170.982 173.401 171.236 173.686 171.417 174.055C171.598 174.418 171.689 174.852 171.689 175.357C171.689 175.733 171.637 176.073 171.535 176.377C171.432 176.682 171.284 176.941 171.091 177.155C170.904 177.368 170.674 177.533 170.403 177.65C170.137 177.76 169.841 177.815 169.515 177.815ZM169.515 177.057C169.763 177.057 169.98 176.993 170.167 176.863C170.354 176.734 170.499 176.542 170.602 176.29C170.711 176.037 170.765 175.726 170.765 175.357C170.765 174.8 170.65 174.379 170.421 174.094C170.191 173.809 169.89 173.667 169.515 173.667C169.262 173.667 169.041 173.732 168.854 173.861C168.667 173.984 168.519 174.172 168.41 174.425C168.308 174.677 168.256 174.988 168.256 175.357C168.256 175.908 168.371 176.329 168.601 176.62C168.83 176.912 169.135 177.057 169.515 177.057ZM173.169 177.786C173.024 177.786 172.912 177.741 172.834 177.65C172.755 177.553 172.716 177.42 172.716 177.252V173.463C172.716 173.294 172.755 173.165 172.834 173.074C172.912 172.984 173.024 172.938 173.169 172.938C173.314 172.938 173.425 172.984 173.504 173.074C173.588 173.165 173.631 173.294 173.631 173.463V177.252C173.631 177.42 173.591 177.553 173.513 177.65C173.434 177.741 173.32 177.786 173.169 177.786ZM173.169 171.928C172.988 171.928 172.846 171.879 172.743 171.782C172.647 171.685 172.598 171.549 172.598 171.374C172.598 171.193 172.647 171.057 172.743 170.966C172.846 170.869 172.988 170.82 173.169 170.82C173.35 170.82 173.489 170.869 173.585 170.966C173.688 171.057 173.739 171.193 173.739 171.374C173.739 171.549 173.688 171.685 173.585 171.782C173.489 171.879 173.35 171.928 173.169 171.928ZM175.371 177.796C175.226 177.796 175.114 177.754 175.036 177.669C174.957 177.579 174.918 177.456 174.918 177.3V173.414C174.918 173.252 174.957 173.129 175.036 173.045C175.114 172.961 175.223 172.919 175.362 172.919C175.507 172.919 175.616 172.961 175.688 173.045C175.767 173.129 175.806 173.252 175.806 173.414V174.172L175.706 173.997C175.839 173.634 176.047 173.362 176.331 173.181C176.615 172.993 176.941 172.899 177.309 172.899C177.659 172.899 177.949 172.971 178.179 173.113C178.414 173.249 178.589 173.46 178.704 173.745C178.819 174.023 178.876 174.376 178.876 174.803V177.3C178.876 177.456 178.837 177.579 178.758 177.669C178.68 177.754 178.568 177.796 178.423 177.796C178.272 177.796 178.157 177.754 178.079 177.669C178.001 177.579 177.961 177.456 177.961 177.3V174.862C177.961 174.454 177.886 174.156 177.735 173.968C177.59 173.78 177.361 173.686 177.047 173.686C176.678 173.686 176.382 173.809 176.159 174.055C175.942 174.302 175.833 174.632 175.833 175.046V177.3C175.833 177.631 175.679 177.796 175.371 177.796ZM182.138 179.564C181.812 179.564 181.495 179.528 181.187 179.457C180.885 179.386 180.61 179.269 180.363 179.107C180.272 179.055 180.212 178.991 180.182 178.913C180.151 178.842 180.142 178.767 180.154 178.689C180.173 178.612 180.206 178.544 180.254 178.485C180.302 178.427 180.36 178.388 180.426 178.369C180.499 178.349 180.574 178.362 180.653 178.408C180.918 178.563 181.169 178.667 181.404 178.719C181.646 178.777 181.869 178.806 182.074 178.806C182.497 178.806 182.814 178.689 183.025 178.456C183.237 178.23 183.342 177.893 183.342 177.446V176.455H183.424C183.333 176.811 183.143 177.093 182.853 177.3C182.564 177.507 182.228 177.611 181.848 177.611C181.45 177.611 181.102 177.514 180.807 177.32C180.511 177.119 180.281 176.844 180.118 176.494C179.955 176.138 179.874 175.723 179.874 175.25C179.874 174.894 179.919 174.574 180.01 174.289C180.106 174.004 180.239 173.757 180.408 173.55C180.583 173.343 180.791 173.184 181.033 173.074C181.281 172.958 181.552 172.899 181.848 172.899C182.234 172.899 182.57 173.003 182.853 173.21C183.143 173.417 183.33 173.699 183.415 174.055L183.324 174.221V173.414C183.324 173.252 183.364 173.129 183.442 173.045C183.527 172.961 183.638 172.919 183.777 172.919C183.922 172.919 184.034 172.961 184.112 173.045C184.191 173.129 184.23 173.252 184.23 173.414V177.329C184.23 178.068 184.052 178.625 183.696 179C183.339 179.376 182.82 179.564 182.138 179.564ZM182.065 176.844C182.331 176.844 182.557 176.779 182.745 176.649C182.932 176.52 183.077 176.335 183.179 176.096C183.282 175.856 183.333 175.574 183.333 175.25C183.333 174.765 183.219 174.379 182.989 174.094C182.766 173.809 182.458 173.667 182.065 173.667C181.806 173.667 181.582 173.732 181.395 173.861C181.208 173.991 181.06 174.175 180.951 174.415C180.849 174.648 180.797 174.927 180.797 175.25C180.797 175.743 180.912 176.131 181.142 176.416C181.371 176.701 181.679 176.844 182.065 176.844Z" fill="#FFB341"/>
<path d="M186.316 163.56H148.58C142.953 163.56 138.392 168.453 138.392 174.489C138.392 180.525 142.953 185.419 148.58 185.419H186.316C191.943 185.419 196.505 180.525 196.505 174.489C196.505 168.453 191.943 163.56 186.316 163.56Z" stroke="#FFE2B8"/>
<path d="M321.04 176.344C321.098 176.407 321.167 176.457 321.244 176.491C321.321 176.526 321.403 176.544 321.486 176.544C321.569 176.544 321.651 176.526 321.728 176.491C321.804 176.457 321.874 176.407 321.933 176.344L324.499 173.591C324.617 173.464 324.684 173.292 324.684 173.112C324.684 172.932 324.617 172.761 324.499 172.633C324.38 172.506 324.219 172.435 324.052 172.435C323.884 172.435 323.724 172.506 323.606 172.633L321.486 174.913L320.725 174.091C320.607 173.964 320.446 173.892 320.278 173.892C320.111 173.892 319.951 173.964 319.832 174.091C319.714 174.218 319.647 174.389 319.647 174.569C319.647 174.749 319.714 174.921 319.832 175.048L321.04 176.344ZM327.825 167.742H316.505C316.338 167.742 316.178 167.813 316.06 167.939C315.942 168.066 315.876 168.237 315.876 168.416V180.56C315.876 180.739 315.942 180.911 316.06 181.038C316.178 181.164 316.338 181.235 316.505 181.235H327.825C327.992 181.235 328.152 181.164 328.271 181.038C328.388 180.911 328.455 180.739 328.455 180.56V168.416C328.455 168.237 328.388 168.066 328.271 167.939C328.152 167.813 327.992 167.742 327.825 167.742ZM327.197 179.886H317.134V169.092H327.197V179.886Z" fill="#FDC8BB"/>
<path d="M338.165 177.829C337.298 177.829 336.636 177.478 336.178 176.775C335.728 176.065 335.502 175.049 335.502 173.726C335.502 172.827 335.604 172.076 335.808 171.471C336.013 170.866 336.312 170.41 336.706 170.1C337.101 169.789 337.587 169.635 338.165 169.635C339.038 169.635 339.7 169.982 340.151 170.678C340.602 171.365 340.827 172.378 340.827 173.715C340.827 174.599 340.725 175.347 340.521 175.959C340.316 176.571 340.017 177.036 339.623 177.353C339.228 177.671 338.742 177.829 338.165 177.829ZM338.165 176.855C338.707 176.855 339.105 176.601 339.359 176.095C339.619 175.581 339.749 174.788 339.749 173.715C339.749 172.634 339.619 171.849 339.359 171.358C339.105 170.859 338.707 170.61 338.165 170.61C337.63 170.61 337.231 170.859 336.971 171.358C336.71 171.849 336.58 172.634 336.58 173.715C336.58 174.788 336.71 175.581 336.971 176.095C337.231 176.601 337.63 176.855 338.165 176.855ZM344.856 178.09C344.82 178.211 344.765 178.298 344.687 178.351C344.609 178.403 344.525 178.43 344.433 178.43C344.342 178.43 344.257 178.403 344.18 178.351C344.11 178.306 344.06 178.238 344.032 178.147C343.996 178.056 343.996 177.947 344.032 177.818L346.515 169.567C346.55 169.446 346.606 169.359 346.684 169.306C346.762 169.245 346.842 169.219 346.927 169.227C347.018 169.227 347.1 169.254 347.17 169.306C347.248 169.351 347.3 169.419 347.328 169.51C347.364 169.594 347.367 169.699 347.339 169.828L344.856 178.09ZM351.423 177.727C351.233 177.727 351.096 177.682 351.011 177.591C350.927 177.494 350.885 177.361 350.885 177.195C350.885 177.089 350.909 176.987 350.959 176.889C351.008 176.791 351.078 176.689 351.17 176.583L353.42 173.999C353.765 173.606 354.012 173.246 354.16 172.922C354.315 172.589 354.393 172.257 354.393 171.924C354.393 171.501 354.273 171.18 354.033 170.961C353.793 170.742 353.442 170.632 352.977 170.632C352.694 170.632 352.423 170.678 352.163 170.768C351.902 170.859 351.642 171.006 351.381 171.21C351.276 171.286 351.177 171.32 351.085 171.312C350.993 171.305 350.913 171.267 350.842 171.199C350.779 171.131 350.737 171.048 350.716 170.95C350.694 170.852 350.697 170.75 350.726 170.644C350.754 170.538 350.821 170.447 350.927 170.372C351.215 170.138 351.55 169.956 351.931 169.828C352.311 169.699 352.698 169.635 353.093 169.635C353.607 169.635 354.04 169.721 354.393 169.896C354.752 170.061 355.023 170.308 355.206 170.632C355.389 170.957 355.481 171.354 355.481 171.822C355.481 172.14 355.431 172.45 355.333 172.752C355.241 173.054 355.097 173.364 354.9 173.681C354.709 173.991 354.459 174.32 354.15 174.667L352.015 177.07V176.741H355.375C355.53 176.741 355.65 176.783 355.734 176.866C355.819 176.949 355.861 177.07 355.861 177.229C355.861 177.387 355.819 177.512 355.734 177.603C355.65 177.686 355.53 177.727 355.375 177.727H351.423Z" fill="#171717"/>
<path d="M382.542 163.155H370.467C367.966 163.155 365.938 165.33 365.938 168.012V180.966C365.938 183.649 367.966 185.823 370.467 185.823H382.542C385.043 185.823 387.071 183.649 387.071 180.966V168.012C387.071 165.33 385.043 163.155 382.542 163.155Z" fill="#F9F9F9"/>
<path d="M375.372 178.132C375.523 178.132 375.667 178.068 375.772 177.954C375.879 177.841 375.938 177.686 375.938 177.525V173.882C375.938 173.721 375.879 173.566 375.772 173.453C375.667 173.339 375.523 173.275 375.372 173.275C375.222 173.275 375.078 173.339 374.972 173.453C374.866 173.566 374.806 173.721 374.806 173.882V177.525C374.806 177.686 374.866 177.841 374.972 177.954C375.078 178.068 375.222 178.132 375.372 178.132ZM381.033 170.846H378.769V170.239C378.769 169.756 378.59 169.293 378.271 168.951C377.953 168.609 377.521 168.417 377.071 168.417H375.938C375.488 168.417 375.056 168.609 374.738 168.951C374.419 169.293 374.24 169.756 374.24 170.239V170.846H371.976C371.826 170.846 371.682 170.91 371.576 171.024C371.47 171.138 371.41 171.292 371.41 171.453C371.41 171.614 371.47 171.769 371.576 171.882C371.682 171.997 371.826 172.061 371.976 172.061H372.542V178.74C372.542 179.223 372.721 179.686 373.04 180.028C373.358 180.369 373.79 180.561 374.24 180.561H378.769C379.219 180.561 379.651 180.369 379.969 180.028C380.288 179.686 380.467 179.223 380.467 178.74V172.061H381.033C381.183 172.061 381.327 171.997 381.433 171.882C381.539 171.769 381.599 171.614 381.599 171.453C381.599 171.292 381.539 171.138 381.433 171.024C381.327 170.91 381.183 170.846 381.033 170.846ZM375.372 170.239C375.372 170.078 375.432 169.923 375.538 169.81C375.644 169.696 375.788 169.632 375.938 169.632H377.071C377.221 169.632 377.365 169.696 377.471 169.81C377.577 169.923 377.637 170.078 377.637 170.239V170.846H375.372V170.239ZM379.335 178.74C379.335 178.901 379.275 179.055 379.169 179.169C379.063 179.283 378.919 179.347 378.769 179.347H374.24C374.09 179.347 373.946 179.283 373.84 179.169C373.734 179.055 373.674 178.901 373.674 178.74V172.061H379.335V178.74ZM377.637 178.132C377.787 178.132 377.931 178.068 378.037 177.954C378.143 177.841 378.203 177.686 378.203 177.525V173.882C378.203 173.721 378.143 173.566 378.037 173.453C377.931 173.339 377.787 173.275 377.637 173.275C377.486 173.275 377.342 173.339 377.237 173.453C377.13 173.566 377.071 173.721 377.071 173.882V177.525C377.071 177.686 377.13 177.841 377.237 177.954C377.342 178.068 377.486 178.132 377.637 178.132Z" fill="#848484"/>
</g>
<g filter="url(#filter3_d_14719_58393)">
<path d="M248.958 219.826H182.542C176.29 219.826 171.222 225.263 171.222 231.97V238.447C171.222 245.154 176.29 250.591 182.542 250.591H248.958C255.21 250.591 260.278 245.154 260.278 238.447V231.97C260.278 225.263 255.21 219.826 248.958 219.826Z" fill="white"/>
<path d="M181.103 239.336C180.962 239.336 180.849 239.302 180.765 239.234C180.68 239.166 180.631 239.075 180.617 238.962C180.602 238.848 180.623 238.72 180.68 238.576L183.543 231.685C183.614 231.504 183.702 231.375 183.808 231.3C183.92 231.225 184.044 231.186 184.177 231.186C184.304 231.186 184.42 231.225 184.526 231.3C184.639 231.375 184.731 231.504 184.801 231.685L187.664 238.576C187.728 238.72 187.753 238.852 187.738 238.973C187.724 239.086 187.679 239.177 187.601 239.245C187.523 239.306 187.414 239.336 187.273 239.336C187.119 239.336 186.995 239.295 186.903 239.211C186.812 239.128 186.731 239 186.66 238.826L185.921 236.99L186.417 237.307H181.916L182.402 236.99L181.673 238.826C181.603 239.007 181.525 239.139 181.441 239.222C181.356 239.298 181.244 239.336 181.103 239.336ZM184.156 232.569L182.561 236.627L182.297 236.355H186.026L185.783 236.627L184.177 232.569H184.156ZM190.722 239.358C190.272 239.358 189.874 239.245 189.528 239.018C189.19 238.784 188.926 238.452 188.736 238.021C188.546 237.583 188.451 237.073 188.451 236.491C188.451 235.894 188.546 235.384 188.736 234.961C188.926 234.537 189.19 234.209 189.528 233.975C189.874 233.741 190.272 233.623 190.722 233.623C191.174 233.623 191.561 233.744 191.885 233.986C192.216 234.22 192.438 234.537 192.55 234.938H192.434V231.765C192.434 231.576 192.48 231.432 192.571 231.334C192.663 231.236 192.793 231.186 192.962 231.186C193.131 231.186 193.262 231.236 193.353 231.334C193.452 231.432 193.501 231.576 193.501 231.765V238.758C193.501 238.939 193.456 239.082 193.364 239.188C193.273 239.286 193.142 239.336 192.973 239.336C192.804 239.336 192.674 239.286 192.582 239.188C192.491 239.082 192.445 238.939 192.445 238.758V237.76L192.561 238.01C192.448 238.418 192.226 238.746 191.895 238.996C191.571 239.238 191.18 239.358 190.722 239.358ZM190.997 238.474C191.286 238.474 191.54 238.399 191.758 238.248C191.977 238.096 192.146 237.874 192.265 237.579C192.392 237.284 192.455 236.922 192.455 236.491C192.455 235.841 192.322 235.35 192.054 235.017C191.786 234.685 191.434 234.519 190.997 234.519C190.701 234.519 190.445 234.594 190.226 234.745C190.008 234.889 189.835 235.108 189.708 235.403C189.589 235.698 189.528 236.06 189.528 236.491C189.528 237.133 189.663 237.624 189.93 237.964C190.198 238.304 190.553 238.474 190.997 238.474ZM196.965 239.358C196.514 239.358 196.116 239.245 195.771 239.018C195.433 238.784 195.169 238.452 194.979 238.021C194.789 237.583 194.694 237.073 194.694 236.491C194.694 235.894 194.789 235.384 194.979 234.961C195.169 234.537 195.433 234.209 195.771 233.975C196.116 233.741 196.514 233.623 196.965 233.623C197.416 233.623 197.803 233.744 198.128 233.986C198.458 234.22 198.68 234.537 198.793 234.938H198.677V231.765C198.677 231.576 198.722 231.432 198.814 231.334C198.906 231.236 199.036 231.186 199.205 231.186C199.374 231.186 199.504 231.236 199.596 231.334C199.694 231.432 199.744 231.576 199.744 231.765V238.758C199.744 238.939 199.698 239.082 199.607 239.188C199.515 239.286 199.385 239.336 199.216 239.336C199.047 239.336 198.916 239.286 198.825 239.188C198.733 239.082 198.688 238.939 198.688 238.758V237.76L198.804 238.01C198.691 238.418 198.469 238.746 198.138 238.996C197.814 239.238 197.423 239.358 196.965 239.358ZM197.24 238.474C197.528 238.474 197.782 238.399 198.001 238.248C198.219 238.096 198.388 237.874 198.508 237.579C198.635 237.284 198.698 236.922 198.698 236.491C198.698 235.841 198.564 235.35 198.297 235.017C198.029 234.685 197.676 234.519 197.24 234.519C196.944 234.519 196.687 234.594 196.469 234.745C196.25 234.889 196.078 235.108 195.951 235.403C195.831 235.698 195.771 236.06 195.771 236.491C195.771 237.133 195.905 237.624 196.173 237.964C196.44 238.304 196.796 238.474 197.24 238.474ZM204.663 239.336C204.5 239.336 204.374 239.286 204.282 239.188C204.19 239.091 204.145 238.95 204.145 238.769V231.776C204.145 231.587 204.187 231.443 204.272 231.345C204.363 231.239 204.483 231.186 204.631 231.186C204.758 231.186 204.853 231.213 204.916 231.266C204.986 231.311 205.067 231.398 205.159 231.527L209.512 237.681H209.248V231.742C209.248 231.568 209.291 231.432 209.375 231.334C209.466 231.236 209.593 231.186 209.756 231.186C209.925 231.186 210.051 231.236 210.136 231.334C210.22 231.432 210.263 231.568 210.263 231.742V238.78C210.263 238.954 210.22 239.091 210.136 239.188C210.058 239.286 209.952 239.336 209.819 239.336C209.692 239.336 209.586 239.309 209.502 239.256C209.424 239.204 209.34 239.113 209.248 238.984L204.916 232.841H205.159V238.769C205.159 238.95 205.117 239.091 205.033 239.188C204.948 239.286 204.824 239.336 204.663 239.336ZM214.3 239.358C213.737 239.358 213.251 239.245 212.842 239.018C212.441 238.784 212.128 238.456 211.902 238.032C211.684 237.602 211.574 237.092 211.574 236.502C211.574 235.928 211.684 235.425 211.902 234.995C212.12 234.564 212.42 234.228 212.8 233.986C213.18 233.744 213.614 233.623 214.1 233.623C214.459 233.623 214.78 233.687 215.061 233.816C215.343 233.937 215.583 234.118 215.78 234.36C215.984 234.594 216.135 234.881 216.234 235.221C216.34 235.562 216.393 235.943 216.393 236.366C216.393 236.495 216.357 236.593 216.287 236.661C216.217 236.722 216.111 236.752 215.97 236.752H212.42V236.049H215.674L215.494 236.208C215.494 235.829 215.442 235.509 215.336 235.244C215.237 234.979 215.086 234.779 214.882 234.643C214.685 234.5 214.438 234.428 214.142 234.428C213.811 234.428 213.529 234.511 213.297 234.677C213.071 234.843 212.899 235.074 212.779 235.369C212.659 235.664 212.599 236.008 212.599 236.4V236.468C212.599 237.133 212.743 237.636 213.032 237.976C213.328 238.308 213.755 238.474 214.311 238.474C214.522 238.474 214.744 238.444 214.977 238.384C215.216 238.323 215.442 238.221 215.653 238.078C215.773 238.002 215.879 237.968 215.97 237.976C216.069 237.983 216.146 238.017 216.202 238.078C216.266 238.138 216.304 238.214 216.319 238.304C216.333 238.395 216.319 238.49 216.276 238.588C216.234 238.678 216.16 238.762 216.054 238.837C215.815 239.011 215.537 239.143 215.22 239.234C214.903 239.317 214.596 239.358 214.3 239.358ZM219.365 239.336C219.217 239.336 219.086 239.298 218.974 239.222C218.868 239.139 218.783 239.011 218.72 238.837L217.167 234.428C217.11 234.277 217.093 234.145 217.114 234.031C217.135 233.911 217.188 233.816 217.273 233.748C217.364 233.68 217.48 233.646 217.621 233.646C217.748 233.646 217.85 233.68 217.928 233.748C218.012 233.809 218.082 233.929 218.139 234.111L219.523 238.293H219.269L220.706 234.065C220.756 233.922 220.823 233.816 220.907 233.748C220.992 233.68 221.1 233.646 221.235 233.646C221.368 233.646 221.478 233.68 221.562 233.748C221.654 233.816 221.721 233.922 221.763 234.065L223.168 238.293H222.936L224.341 234.088C224.397 233.914 224.468 233.797 224.553 233.737C224.644 233.676 224.746 233.646 224.859 233.646C224.999 233.646 225.105 233.684 225.176 233.759C225.253 233.835 225.295 233.933 225.303 234.054C225.316 234.167 225.299 234.292 225.25 234.428L223.697 238.837C223.633 239.003 223.545 239.128 223.432 239.211C223.327 239.295 223.203 239.336 223.063 239.336C222.915 239.336 222.784 239.295 222.672 239.211C222.566 239.128 222.482 239.003 222.418 238.837L220.939 234.541H221.467L219.999 238.837C219.942 239.003 219.857 239.128 219.745 239.211C219.639 239.295 219.513 239.336 219.365 239.336ZM231.805 239.358C231.481 239.358 231.164 239.332 230.854 239.279C230.543 239.227 230.251 239.147 229.977 239.041C229.702 238.928 229.455 238.792 229.237 238.633C229.131 238.55 229.057 238.456 229.015 238.35C228.98 238.244 228.969 238.142 228.983 238.044C229.005 237.938 229.047 237.847 229.11 237.772C229.174 237.696 229.251 237.651 229.343 237.636C229.434 237.613 229.537 237.643 229.649 237.726C229.966 237.946 230.3 238.108 230.653 238.214C231.005 238.312 231.389 238.361 231.805 238.361C232.403 238.361 232.844 238.248 233.125 238.021C233.414 237.787 233.559 237.484 233.559 237.114C233.559 236.812 233.457 236.574 233.252 236.4C233.048 236.219 232.706 236.076 232.227 235.97L231.097 235.72C230.427 235.569 229.928 235.319 229.596 234.972C229.273 234.625 229.11 234.156 229.11 233.567C229.11 233.211 229.177 232.887 229.311 232.592C229.452 232.297 229.645 232.044 229.892 231.833C230.139 231.613 230.435 231.447 230.78 231.334C231.125 231.22 231.502 231.164 231.91 231.164C232.347 231.164 232.756 231.225 233.136 231.345C233.523 231.466 233.869 231.651 234.171 231.901C234.263 231.969 234.323 232.055 234.351 232.161C234.386 232.259 234.393 232.358 234.372 232.456C234.358 232.554 234.319 232.637 234.256 232.705C234.193 232.773 234.112 232.815 234.013 232.83C233.914 232.837 233.805 232.8 233.685 232.717C233.411 232.52 233.129 232.381 232.84 232.297C232.559 232.207 232.245 232.161 231.9 232.161C231.555 232.161 231.251 232.218 230.991 232.331C230.737 232.445 230.54 232.603 230.399 232.807C230.266 233.011 230.199 233.253 230.199 233.533C230.199 233.85 230.294 234.103 230.484 234.292C230.674 234.481 230.991 234.625 231.435 234.723L232.555 234.972C233.259 235.131 233.784 235.376 234.129 235.709C234.474 236.042 234.647 236.484 234.647 237.035C234.647 237.39 234.58 237.711 234.446 237.998C234.313 238.278 234.122 238.52 233.876 238.724C233.629 238.928 233.33 239.086 232.977 239.2C232.632 239.306 232.242 239.358 231.805 239.358ZM237.945 239.358C237.522 239.358 237.167 239.279 236.878 239.12C236.589 238.962 236.374 238.728 236.233 238.418C236.092 238.108 236.022 237.73 236.022 237.284V234.609H235.388C235.247 234.609 235.138 234.571 235.06 234.496C234.983 234.413 234.944 234.303 234.944 234.167C234.944 234.024 234.983 233.914 235.06 233.839C235.138 233.763 235.247 233.725 235.388 233.725H236.022V232.558C236.022 232.369 236.068 232.225 236.159 232.127C236.258 232.029 236.392 231.98 236.561 231.98C236.73 231.98 236.86 232.029 236.952 232.127C237.043 232.225 237.089 232.369 237.089 232.558V233.725H238.325C238.466 233.725 238.575 233.763 238.653 233.839C238.731 233.914 238.769 234.024 238.769 234.167C238.769 234.303 238.731 234.413 238.653 234.496C238.575 234.571 238.466 234.609 238.325 234.609H237.089V237.194C237.089 237.594 237.167 237.896 237.322 238.1C237.484 238.304 237.744 238.406 238.103 238.406C238.23 238.406 238.34 238.395 238.431 238.372C238.53 238.342 238.611 238.323 238.674 238.316C238.752 238.316 238.815 238.346 238.864 238.406C238.913 238.459 238.938 238.565 238.938 238.724C238.938 238.837 238.917 238.943 238.875 239.041C238.839 239.139 238.773 239.204 238.674 239.234C238.589 239.264 238.473 239.29 238.325 239.313C238.184 239.343 238.057 239.358 237.945 239.358ZM241.974 239.358C241.411 239.358 240.925 239.245 240.516 239.018C240.115 238.784 239.802 238.456 239.576 238.032C239.358 237.602 239.248 237.092 239.248 236.502C239.248 235.928 239.358 235.425 239.576 234.995C239.794 234.564 240.094 234.228 240.474 233.986C240.854 233.744 241.288 233.623 241.774 233.623C242.133 233.623 242.454 233.687 242.735 233.816C243.017 233.937 243.257 234.118 243.454 234.36C243.658 234.594 243.809 234.881 243.908 235.221C244.014 235.562 244.066 235.943 244.066 236.366C244.066 236.495 244.031 236.593 243.961 236.661C243.891 236.722 243.785 236.752 243.644 236.752H240.094V236.049H243.348L243.168 236.208C243.168 235.829 243.116 235.509 243.01 235.244C242.911 234.979 242.76 234.779 242.556 234.643C242.359 234.5 242.112 234.428 241.816 234.428C241.485 234.428 241.203 234.511 240.971 234.677C240.745 234.843 240.573 235.074 240.453 235.369C240.333 235.664 240.273 236.008 240.273 236.4V236.468C240.273 237.133 240.417 237.636 240.706 237.976C241.002 238.308 241.429 238.474 241.985 238.474C242.196 238.474 242.418 238.444 242.651 238.384C242.89 238.323 243.116 238.221 243.327 238.078C243.447 238.002 243.553 237.968 243.644 237.976C243.743 237.983 243.82 238.017 243.876 238.078C243.94 238.138 243.978 238.214 243.993 238.304C244.007 238.395 243.993 238.49 243.95 238.588C243.908 238.678 243.834 238.762 243.728 238.837C243.489 239.011 243.211 239.143 242.894 239.234C242.577 239.317 242.27 239.358 241.974 239.358ZM245.758 241.376C245.589 241.376 245.459 241.327 245.367 241.229C245.276 241.131 245.229 240.987 245.229 240.798V234.224C245.229 234.035 245.276 233.891 245.367 233.793C245.459 233.695 245.586 233.646 245.747 233.646C245.916 233.646 246.047 233.695 246.138 233.793C246.23 233.891 246.276 234.035 246.276 234.224V235.21L246.159 234.972C246.272 234.564 246.494 234.239 246.825 233.997C247.156 233.748 247.547 233.623 247.998 233.623C248.456 233.623 248.854 233.741 249.192 233.975C249.537 234.209 249.802 234.537 249.984 234.961C250.174 235.384 250.269 235.894 250.269 236.491C250.269 237.073 250.174 237.583 249.984 238.021C249.802 238.452 249.54 238.784 249.202 239.018C248.864 239.245 248.463 239.358 247.998 239.358C247.554 239.358 247.167 239.238 246.836 238.996C246.505 238.754 246.283 238.433 246.17 238.032H246.297V240.798C246.297 240.987 246.248 241.131 246.149 241.229C246.057 241.327 245.927 241.376 245.758 241.376ZM247.734 238.474C248.029 238.474 248.287 238.399 248.505 238.248C248.724 238.096 248.893 237.874 249.012 237.579C249.132 237.284 249.192 236.922 249.192 236.491C249.192 235.841 249.058 235.35 248.79 235.017C248.53 234.685 248.177 234.519 247.734 234.519C247.445 234.519 247.188 234.594 246.962 234.745C246.744 234.889 246.575 235.108 246.455 235.403C246.336 235.698 246.276 236.06 246.276 236.491C246.276 237.133 246.41 237.624 246.677 237.964C246.945 238.304 247.297 238.474 247.734 238.474Z" fill="#171717"/>
<path d="M248.958 220.231H182.543C176.499 220.231 171.6 225.487 171.6 231.97V238.447C171.6 244.93 176.499 250.186 182.543 250.186H248.958C255.002 250.186 259.901 244.93 259.901 238.447V231.97C259.901 225.487 255.002 220.231 248.958 220.231Z" stroke="#D5D5D5"/>
</g>
</g>
</g>
<defs>
<filter id="filter0_d_14719_58393" x="0.75" y="0" width="432" height="288.64" filterUnits="userSpaceOnUse" color-interpolation-filters="sRGB">
<feFlood flood-opacity="0" result="BackgroundImageFix"/>
<feColorMatrix in="SourceAlpha" type="matrix" values="0 0 0 0 0 0 0 0 0 0 0 0 0 0 0 0 0 0 127 0" result="hardAlpha"/>
<feOffset dx="1" dy="1"/>
<feGaussianBlur stdDeviation="8"/>
<feComposite in2="hardAlpha" operator="out"/>
<feColorMatrix type="matrix" values="0 0 0 0 0 0 0 0 0 0 0 0 0 0 0 0 0 0 0.09 0"/>
<feBlend mode="normal" in2="BackgroundImageFix" result="effect1_dropShadow_14719_58393"/>
<feBlend mode="normal" in="SourceGraphic" in2="effect1_dropShadow_14719_58393" result="shape"/>
</filter>
<filter id="filter1_d_14719_58393" x="6.1084" y="56.9575" width="425.283" height="110.195" filterUnits="userSpaceOnUse" color-interpolation-filters="sRGB">
<feFlood flood-opacity="0" result="BackgroundImageFix"/>
<feColorMatrix in="SourceAlpha" type="matrix" values="0 0 0 0 0 0 0 0 0 0 0 0 0 0 0 0 0 0 127 0" result="hardAlpha"/>
<feOffset dx="3" dy="8"/>
<feGaussianBlur stdDeviation="15"/>
<feComposite in2="hardAlpha" operator="out"/>
<feColorMatrix type="matrix" values="0 0 0 0 0 0 0 0 0 0 0 0 0 0 0 0 0 0 0.04 0"/>
<feBlend mode="normal" in2="BackgroundImageFix" result="effect1_dropShadow_14719_58393"/>
<feBlend mode="normal" in="SourceGraphic" in2="effect1_dropShadow_14719_58393" result="shape"/>
</filter>
<filter id="filter2_d_14719_58393" x="6.1084" y="127.392" width="425.283" height="110.195" filterUnits="userSpaceOnUse" color-interpolation-filters="sRGB">
<feFlood flood-opacity="0" result="BackgroundImageFix"/>
<feColorMatrix in="SourceAlpha" type="matrix" values="0 0 0 0 0 0 0 0 0 0 0 0 0 0 0 0 0 0 127 0" result="hardAlpha"/>
<feOffset dx="3" dy="8"/>
<feGaussianBlur stdDeviation="15"/>
<feComposite in2="hardAlpha" operator="out"/>
<feColorMatrix type="matrix" values="0 0 0 0 0 0 0 0 0 0 0 0 0 0 0 0 0 0 0.04 0"/>
<feBlend mode="normal" in2="BackgroundImageFix" result="effect1_dropShadow_14719_58393"/>
<feBlend mode="normal" in="SourceGraphic" in2="effect1_dropShadow_14719_58393" result="shape"/>
</filter>
<filter id="filter3_d_14719_58393" x="151.1" y="200.731" width="129.302" height="70.9548" filterUnits="userSpaceOnUse" color-interpolation-filters="sRGB">
<feFlood flood-opacity="0" result="BackgroundImageFix"/>
<feColorMatrix in="SourceAlpha" type="matrix" values="0 0 0 0 0 0 0 0 0 0 0 0 0 0 0 0 0 0 127 0" result="hardAlpha"/>
<feOffset dy="1"/>
<feGaussianBlur stdDeviation="10"/>
<feComposite in2="hardAlpha" operator="out"/>
<feColorMatrix type="matrix" values="0 0 0 0 0 0 0 0 0 0 0 0 0 0 0 0 0 0 0.02 0"/>
<feBlend mode="normal" in2="BackgroundImageFix" result="effect1_dropShadow_14719_58393"/>
<feBlend mode="normal" in="SourceGraphic" in2="effect1_dropShadow_14719_58393" result="shape"/>
</filter>
</defs>
</svg>
