<svg width="386" height="230" viewBox="0 0 386 230" fill="none" xmlns="http://www.w3.org/2000/svg">
  <mask id="mask0_12898_59949" style="mask-type:luminance" maskUnits="userSpaceOnUse" x="0" y="0" width="386" height="230">
  <path d="M370.972 0H15.0283C7.00454 0 0.5 6.49681 0.5 14.511V215.489C0.5 223.503 7.00454 230 15.0283 230H370.972C378.995 230 385.5 223.503 385.5 215.489V14.511C385.5 6.49681 378.995 0 370.972 0Z" fill="white"/>
  </mask>
  <g mask="url(#mask0_12898_59949)">
  <path d="M370.972 0H15.0283C7.00454 0 0.5 6.49681 0.5 14.511V215.489C0.5 223.503 7.00454 230 15.0283 230H370.972C378.995 230 385.5 223.503 385.5 215.489V14.511C385.5 6.49681 378.995 0 370.972 0Z" fill="#FDFDFD"/>
  <path d="M193 37.2461C191.93 37.2461 191.062 38.1123 191.062 39.1809C191.062 40.2495 191.93 41.1158 193 41.1158C194.07 41.1158 194.937 40.2495 194.937 39.1809C194.937 38.1123 194.07 37.2461 193 37.2461ZM193 118.508C191.93 118.508 191.062 119.374 191.062 120.443C191.062 121.511 191.93 122.378 193 122.378C194.07 122.378 194.937 121.511 194.937 120.443C194.937 119.374 194.07 118.508 193 118.508ZM192.637 39.1809V39.9065H193.363V39.1809H192.637ZM192.637 41.3576V42.8087H193.363V41.3576H192.637ZM192.637 44.2598V45.7109H193.363V44.2598H192.637ZM192.637 47.162V48.6131H193.363V47.162H192.637ZM192.637 50.0642V51.5153H193.363V50.0642H192.637ZM192.637 52.9664V54.4175H193.363V52.9664H192.637ZM192.637 55.8686V57.3197H193.363V55.8686H192.637ZM192.637 58.7708V60.2219H193.363V58.7708H192.637ZM192.637 61.673V63.1241H193.363V61.673H192.637ZM192.637 64.5752V66.0263H193.363V64.5752H192.637ZM192.637 67.4775V68.9286H193.363V67.4775H192.637ZM192.637 70.3797V71.8308H193.363V70.3797H192.637ZM192.637 73.2819V74.733H193.363V73.2819H192.637ZM192.637 76.1841V77.6352H193.363V76.1841H192.637ZM192.637 79.0863V80.5374H193.363V79.0863H192.637ZM192.637 81.9885V83.4396H193.363V81.9885H192.637ZM192.637 84.8907V86.3418H193.363V84.8907H192.637ZM192.637 87.7929V89.244H193.363V87.7929H192.637ZM192.637 90.6951V92.1462H193.363V90.6951H192.637ZM192.637 93.5973V95.0484H193.363V93.5973H192.637ZM192.637 96.4995V97.9506H193.363V96.4995H192.637ZM192.637 99.4017V100.853H193.363V99.4017H192.637ZM192.637 102.304V103.755H193.363V102.304H192.637ZM192.637 105.206V106.657H193.363V105.206H192.637ZM192.637 108.108V109.559H193.363V108.108H192.637ZM192.637 111.011V112.462H193.363V111.011H192.637ZM192.637 113.913V115.364H193.363V113.913H192.637ZM192.637 116.815V118.266H193.363V116.815H192.637ZM192.637 119.717V120.443H193.363V119.717H192.637Z" fill="#686868"/>
  <path d="M218.061 14.875H167.939C162.122 14.875 157.406 19.5852 157.406 25.3955V28.2977C157.406 34.108 162.122 38.8182 167.939 38.8182H218.061C223.879 38.8182 228.594 34.108 228.594 28.2977V25.3955C228.594 19.5852 223.879 14.875 218.061 14.875Z" fill="white"/>
  <path d="M180.651 22.196H174.979C174.176 22.196 173.406 22.5146 172.838 23.0815C172.271 23.6484 171.952 24.4174 171.952 25.2192V29.4516L170.185 27.6619C170.128 27.6052 170.061 27.5603 169.987 27.5296C169.914 27.4988 169.835 27.4831 169.755 27.4831C169.675 27.4831 169.596 27.4988 169.522 27.5296C169.448 27.5603 169.381 27.6052 169.325 27.6619C169.212 27.7752 169.149 27.9284 169.149 28.0882C169.149 28.2479 169.212 28.4011 169.325 28.5144L172.128 31.3138C172.185 31.3711 172.253 31.4163 172.328 31.4468C172.4 31.4788 172.478 31.4954 172.557 31.4954C172.636 31.4954 172.715 31.4788 172.788 31.4468C172.861 31.414 172.928 31.369 172.987 31.3138L175.808 28.5144C175.907 28.3987 175.959 28.25 175.953 28.0978C175.947 27.9456 175.884 27.8013 175.777 27.6936C175.668 27.5859 175.524 27.5228 175.372 27.5169C175.22 27.5111 175.071 27.5628 174.954 27.6619L173.163 29.4274V25.195C173.163 24.7139 173.354 24.2525 173.695 23.9124C174.036 23.5723 174.498 23.3812 174.979 23.3812H180.651C180.812 23.3812 180.966 23.3174 181.079 23.204C181.193 23.0906 181.256 22.9368 181.256 22.7765C181.256 22.6161 181.193 22.4624 181.079 22.349C180.966 22.2356 180.812 22.1719 180.651 22.1719V22.196Z" fill="#848484"/>
  <path d="M187.472 29.7495C187.309 29.7495 187.183 29.7054 187.096 29.6174C187.008 29.5294 186.963 29.4041 186.963 29.2416V23.0962C186.963 22.9336 187.008 22.8083 187.096 22.7203C187.183 22.6323 187.309 22.5883 187.472 22.5883H189.882C190.377 22.5883 190.797 22.6628 191.143 22.8118C191.495 22.9607 191.764 23.174 191.947 23.4517C192.13 23.7294 192.221 24.0646 192.221 24.4573C192.221 24.8975 192.093 25.2665 191.835 25.5645C191.577 25.8625 191.225 26.0622 190.777 26.1638V26.0114C191.279 26.0724 191.672 26.2586 191.957 26.5701C192.248 26.8748 192.394 27.2744 192.394 27.7687C192.394 28.4053 192.184 28.8962 191.764 29.2416C191.35 29.5802 190.763 29.7495 190.004 29.7495H187.472ZM187.879 29.008H189.902C190.431 29.008 190.824 28.9064 191.082 28.7032C191.34 28.4933 191.469 28.175 191.469 27.7484C191.469 27.3218 191.34 27.0069 191.082 26.8037C190.824 26.6006 190.431 26.499 189.902 26.499H187.879V29.008ZM187.879 25.7473H189.74C190.255 25.7473 190.641 25.6458 190.899 25.4426C191.164 25.2327 191.296 24.9313 191.296 24.5386C191.296 24.1458 191.164 23.8478 190.899 23.6447C190.641 23.4348 190.255 23.3298 189.74 23.3298H187.879V25.7473ZM196.032 29.8409C195.497 29.8409 195.035 29.7393 194.649 29.5362C194.269 29.3263 193.974 29.0317 193.764 28.6524C193.554 28.2665 193.449 27.8128 193.449 27.2913C193.449 26.7767 193.551 26.3263 193.754 25.9403C193.964 25.5543 194.249 25.253 194.608 25.0363C194.974 24.8196 195.391 24.7112 195.859 24.7112C196.191 24.7112 196.49 24.7688 196.754 24.8839C197.025 24.9923 197.256 25.1514 197.446 25.3613C197.635 25.5712 197.778 25.8286 197.873 26.1333C197.974 26.4313 198.025 26.7699 198.025 27.1491C198.025 27.2574 197.991 27.3421 197.924 27.403C197.863 27.4572 197.771 27.4843 197.649 27.4843H194.171V26.8952H197.415L197.242 27.0374C197.242 26.6853 197.188 26.3873 197.079 26.1435C196.978 25.893 196.825 25.7033 196.622 25.5747C196.425 25.446 196.178 25.3817 195.879 25.3817C195.554 25.3817 195.276 25.4595 195.045 25.6153C194.815 25.7642 194.639 25.9776 194.517 26.2552C194.395 26.5261 194.334 26.841 194.334 27.1999V27.2608C194.334 27.8703 194.48 28.3308 194.771 28.6423C195.062 28.9538 195.483 29.1095 196.032 29.1095C196.249 29.1095 196.469 29.0825 196.693 29.0283C196.923 28.9741 197.144 28.8759 197.354 28.7337C197.456 28.6728 197.547 28.6457 197.629 28.6524C197.717 28.6524 197.788 28.6795 197.842 28.7337C197.897 28.7811 197.93 28.842 197.944 28.9165C197.958 28.9842 197.948 29.0588 197.913 29.14C197.879 29.2213 197.815 29.2924 197.72 29.3533C197.496 29.5091 197.228 29.631 196.917 29.719C196.612 29.8003 196.317 29.8409 196.032 29.8409ZM201.403 31.6693C201.037 31.6693 200.681 31.6287 200.335 31.5474C199.997 31.4661 199.688 31.3408 199.41 31.1716C199.322 31.1174 199.261 31.0531 199.227 30.9786C199.2 30.9109 199.193 30.8398 199.206 30.7653C199.227 30.6907 199.261 30.623 199.308 30.5621C199.363 30.5079 199.424 30.4707 199.491 30.4504C199.566 30.4368 199.641 30.4538 199.715 30.5012C200.013 30.6704 200.298 30.7856 200.569 30.8465C200.841 30.9075 201.098 30.9379 201.342 30.9379C201.824 30.9379 202.183 30.8126 202.42 30.5621C202.664 30.3183 202.786 29.9594 202.786 29.4854V28.3883H202.878C202.783 28.7676 202.57 29.0689 202.237 29.2924C201.912 29.5159 201.532 29.6276 201.098 29.6276C200.65 29.6276 200.261 29.526 199.928 29.3229C199.596 29.113 199.339 28.8251 199.156 28.4595C198.972 28.087 198.881 27.657 198.881 27.1694C198.881 26.797 198.932 26.4618 199.033 26.1638C199.142 25.8591 199.291 25.6017 199.481 25.3918C199.678 25.1751 199.912 25.0092 200.183 24.8941C200.454 24.7722 200.759 24.7112 201.098 24.7112C201.539 24.7112 201.922 24.823 202.247 25.0465C202.573 25.2699 202.783 25.5712 202.878 25.9505L202.766 26.0927V25.1988C202.766 25.043 202.806 24.928 202.888 24.8535C202.969 24.7722 203.085 24.7316 203.234 24.7316C203.376 24.7316 203.488 24.7722 203.569 24.8535C203.651 24.928 203.691 25.043 203.691 25.1988V29.3635C203.691 30.1287 203.495 30.7043 203.101 31.0903C202.715 31.4763 202.149 31.6693 201.403 31.6693ZM201.301 28.8962C201.606 28.8962 201.868 28.8285 202.084 28.6931C202.308 28.5509 202.478 28.3511 202.593 28.0938C202.715 27.8297 202.776 27.5215 202.776 27.1694C202.776 26.6345 202.644 26.2146 202.379 25.9099C202.115 25.5984 201.756 25.4426 201.301 25.4426C200.996 25.4426 200.732 25.5137 200.508 25.6559C200.292 25.7914 200.122 25.9877 200 26.2451C199.878 26.5024 199.817 26.8105 199.817 27.1694C199.817 27.6976 199.949 28.1175 200.213 28.429C200.485 28.7405 200.847 28.8962 201.301 28.8962ZM205.632 29.8003C205.49 29.8003 205.378 29.7562 205.297 29.6682C205.215 29.5802 205.175 29.4583 205.175 29.3025V25.2496C205.175 25.0871 205.215 24.9652 205.297 24.8839C205.378 24.7959 205.49 24.7519 205.632 24.7519C205.782 24.7519 205.897 24.7959 205.978 24.8839C206.059 24.9652 206.1 25.0871 206.1 25.2496V29.3025C206.1 29.4583 206.059 29.5802 205.978 29.6682C205.904 29.7562 205.788 29.8003 205.632 29.8003ZM205.632 23.6548C205.449 23.6548 205.304 23.6075 205.195 23.5126C205.093 23.4111 205.042 23.279 205.042 23.1165C205.042 22.9404 205.093 22.8083 205.195 22.7203C205.304 22.6255 205.449 22.5781 205.632 22.5781C205.829 22.5781 205.975 22.6255 206.07 22.7203C206.171 22.8083 206.222 22.9404 206.222 23.1165C206.222 23.279 206.171 23.4111 206.07 23.5126C205.975 23.6075 205.829 23.6548 205.632 23.6548ZM208.046 29.8206C207.904 29.8206 207.792 29.78 207.711 29.6987C207.629 29.6174 207.588 29.4989 207.588 29.3432V25.1988C207.588 25.043 207.629 24.928 207.711 24.8535C207.792 24.7722 207.904 24.7316 208.046 24.7316C208.189 24.7316 208.297 24.7722 208.372 24.8535C208.453 24.928 208.494 25.043 208.494 25.1988V26.0318L208.382 25.8794C208.524 25.4934 208.754 25.2022 209.073 25.0058C209.399 24.8094 209.768 24.7112 210.182 24.7112C210.581 24.7112 210.91 24.7824 211.168 24.9246C211.425 25.0668 211.619 25.2835 211.748 25.5747C211.877 25.8658 211.941 26.2349 211.941 26.6818V29.3432C211.941 29.4989 211.9 29.6174 211.819 29.6987C211.744 29.78 211.632 29.8206 211.484 29.8206C211.334 29.8206 211.219 29.78 211.138 29.6987C211.056 29.6174 211.016 29.4989 211.016 29.3432V26.7326C211.016 26.2924 210.931 25.9708 210.761 25.7677C210.591 25.5645 210.321 25.4629 209.948 25.4629C209.513 25.4629 209.165 25.5984 208.9 25.8692C208.643 26.1333 208.514 26.4923 208.514 26.946V29.3432C208.514 29.6615 208.358 29.8206 208.046 29.8206ZM215.116 29.8409C214.811 29.8409 214.503 29.807 214.191 29.7393C213.886 29.6648 213.598 29.5396 213.326 29.3635C213.252 29.3161 213.198 29.2585 213.164 29.1908C213.137 29.1163 213.127 29.0452 213.133 28.9775C213.147 28.903 213.178 28.8387 213.225 28.7845C213.273 28.7303 213.33 28.6998 213.398 28.6931C213.472 28.6795 213.55 28.6965 213.632 28.7439C213.896 28.8928 214.15 28.9978 214.394 29.0588C214.646 29.1197 214.893 29.1502 215.137 29.1502C215.51 29.1502 215.791 29.0825 215.981 28.947C216.171 28.8116 216.266 28.6321 216.266 28.4087C216.266 28.2191 216.202 28.0735 216.072 27.9719C215.95 27.8636 215.757 27.7823 215.493 27.7281L214.547 27.5351C214.127 27.4403 213.808 27.2846 213.591 27.0678C213.381 26.8444 213.276 26.56 213.276 26.2146C213.276 25.9099 213.357 25.6458 213.52 25.4223C213.69 25.1921 213.924 25.016 214.221 24.8941C214.52 24.7722 214.862 24.7112 215.249 24.7112C215.547 24.7112 215.828 24.7519 216.093 24.8331C216.364 24.9077 216.608 25.0227 216.825 25.1785C216.906 25.2259 216.957 25.2868 216.977 25.3613C217.005 25.429 217.008 25.5001 216.988 25.5747C216.974 25.6423 216.944 25.7 216.896 25.7473C216.849 25.7947 216.788 25.8252 216.713 25.8388C216.639 25.8455 216.558 25.8252 216.469 25.7778C216.273 25.6424 216.069 25.5476 215.859 25.4934C215.655 25.4324 215.452 25.402 215.249 25.402C214.882 25.402 214.605 25.4731 214.415 25.6153C214.232 25.7575 214.14 25.9437 214.14 26.174C214.14 26.3501 214.194 26.4956 214.303 26.6107C214.418 26.7259 214.598 26.8105 214.842 26.8647L215.788 27.0577C216.228 27.1525 216.56 27.3049 216.784 27.5148C217.008 27.7179 217.12 27.9956 217.12 28.3477C217.12 28.8082 216.937 29.1739 216.571 29.4448C216.212 29.7089 215.727 29.8409 215.116 29.8409Z" fill="#171717"/>
  <path d="M218.061 14.875H167.939C162.122 14.875 157.406 19.5852 157.406 25.3955V28.2977C157.406 34.108 162.122 38.8182 167.939 38.8182H218.061C223.879 38.8182 228.594 34.108 228.594 28.2977V25.3955C228.594 19.5852 223.879 14.875 218.061 14.875Z" stroke="#EDE9E5"/>
  <path d="M218.061 14.875H167.939C162.122 14.875 157.406 19.5852 157.406 25.3955V28.2977C157.406 34.108 162.122 38.8182 167.939 38.8182H218.061C223.879 38.8182 228.594 34.108 228.594 28.2977V25.3955C228.594 19.5852 223.879 14.875 218.061 14.875Z" stroke="black" stroke-opacity="0.2"/>
  <g filter="url(#filter0_d_12898_59949)">
  <path d="M356.443 57.3203H29.5566C22.7364 57.3203 17.2075 62.8426 17.2075 69.6547V89.9702C17.2075 96.7822 22.7364 102.305 29.5566 102.305H356.443C363.264 102.305 368.792 96.7822 368.792 89.9702V69.6547C368.792 62.8426 363.264 57.3203 356.443 57.3203Z" fill="white"/>
  <path d="M51.7121 79.8116C51.7121 74.8027 47.6468 70.7422 42.6319 70.7422C37.6171 70.7422 33.5518 74.8027 33.5518 79.8116C33.5518 84.8205 37.6171 88.881 42.6319 88.881C47.6468 88.881 51.7121 84.8205 51.7121 79.8116Z" fill="white"/>
  <path d="M38.0316 79.1158L42.39 81.6313C42.4636 81.6741 42.5472 81.6959 42.6322 81.6959C42.7172 81.6959 42.8007 81.6741 42.8743 81.6313L47.2328 79.1158C47.3061 79.0738 47.3671 79.0128 47.4094 78.9388C47.4518 78.8655 47.4741 78.7821 47.4741 78.6979C47.4741 78.613 47.4518 78.5296 47.4094 78.4563C47.3671 78.383 47.3061 78.3221 47.2328 78.2793L42.8743 75.7638C42.8007 75.7217 42.7172 75.6992 42.6322 75.6992C42.5472 75.6992 42.4636 75.7217 42.39 75.7638L38.0316 78.2793C37.9581 78.3221 37.8972 78.383 37.8549 78.4563C37.8125 78.5296 37.7902 78.613 37.7902 78.6979C37.7902 78.7821 37.8125 78.8655 37.8549 78.9388C37.8972 79.0128 37.9581 79.0738 38.0316 79.1158ZM42.6322 76.7411L46.0221 78.6762L42.6322 80.6352L39.2422 78.695L42.6322 76.7411ZM46.7485 80.5089L42.6322 82.8844L38.5158 80.5089C38.4608 80.477 38.4 80.4559 38.3369 80.4472C38.2737 80.4385 38.2095 80.4422 38.1479 80.4588C38.0863 80.4748 38.0284 80.5031 37.9777 80.5416C37.927 80.58 37.8844 80.6286 37.8524 80.683C37.8203 80.7382 37.7995 80.7991 37.7913 80.863C37.7829 80.9261 37.7872 80.9899 37.8038 81.0516C37.8205 81.1133 37.8492 81.1713 37.8883 81.2214C37.9273 81.2722 37.9761 81.3143 38.0316 81.3462L42.39 83.861C42.4636 83.9038 42.5472 83.9263 42.6322 83.9263C42.7172 83.9263 42.8007 83.9038 42.8743 83.861L47.2328 81.3462C47.2883 81.3143 47.3369 81.2722 47.376 81.2214C47.4151 81.1713 47.4438 81.1133 47.4604 81.0516C47.4771 80.9899 47.4814 80.9261 47.4731 80.863C47.4648 80.7991 47.444 80.7382 47.412 80.683C47.3799 80.6286 47.3373 80.58 47.2866 80.5416C47.2359 80.5031 47.1781 80.4748 47.1164 80.4588C47.0548 80.4422 46.9906 80.4385 46.9275 80.4472C46.8643 80.4559 46.8035 80.477 46.7485 80.5089Z" fill="#848484"/>
  <path d="M51.7121 79.8116C51.7121 74.8027 47.6468 70.7422 42.6319 70.7422C37.6171 70.7422 33.5518 74.8027 33.5518 79.8116C33.5518 84.8205 37.6171 88.881 42.6319 88.881C47.6468 88.881 51.7121 84.8205 51.7121 79.8116Z" stroke="#EDE9E5"/>
  <path d="M51.7121 79.8116C51.7121 74.8027 47.6468 70.7422 42.6319 70.7422C37.6171 70.7422 33.5518 74.8027 33.5518 79.8116C33.5518 84.8205 37.6171 88.881 42.6319 88.881C47.6468 88.881 51.7121 84.8205 51.7121 79.8116Z" stroke="black" stroke-opacity="0.2"/>
  <path d="M60.2983 83.5455C59.4847 83.5455 58.7873 83.375 58.2062 83.0347C57.6251 82.6945 57.1756 82.2105 56.858 81.5836C56.548 80.9488 56.3931 80.2022 56.3931 79.3431C56.3931 78.701 56.4822 78.1242 56.6604 77.6134C56.8386 77.0947 57.0943 76.6535 57.4275 76.29C57.7607 75.9185 58.1675 75.6363 58.6479 75.4426C59.136 75.2488 59.6861 75.1523 60.2983 75.1523C60.7632 75.1523 61.2087 75.2184 61.6349 75.3497C62.0688 75.481 62.4407 75.6668 62.7507 75.9069C62.8746 75.9918 62.956 76.089 62.9947 76.1971C63.0334 76.3052 63.0374 76.4097 63.0063 76.5106C62.9831 76.6034 62.9328 76.6847 62.8553 76.7544C62.7855 76.816 62.6964 76.8509 62.5879 76.8588C62.4795 76.8588 62.3633 76.816 62.2393 76.7311C61.9681 76.5222 61.6697 76.3713 61.3443 76.2784C61.0267 76.1776 60.6857 76.1275 60.3215 76.1275C59.7249 76.1275 59.2174 76.2552 58.799 76.5106C58.3883 76.758 58.0745 77.1222 57.8575 77.6018C57.6483 78.0741 57.5437 78.6546 57.5437 79.3431C57.5437 80.0244 57.6483 80.6085 57.8575 81.0961C58.0745 81.5757 58.3883 81.9435 58.799 82.1989C59.2174 82.4463 59.7249 82.5704 60.3215 82.5704C60.6857 82.5704 61.0305 82.5203 61.3559 82.4195C61.6891 82.3186 61.9952 82.1641 62.2741 81.9551C62.3981 81.8702 62.5104 81.8311 62.6112 81.839C62.7196 81.847 62.8088 81.8818 62.8785 81.9435C62.9482 81.9979 62.9947 82.0748 63.018 82.1757C63.049 82.2686 63.049 82.3651 63.018 82.4659C62.987 82.5668 62.9172 82.6553 62.8088 82.7329C62.4911 83.0035 62.1114 83.2089 61.6697 83.3482C61.2359 83.4795 60.7787 83.5455 60.2983 83.5455ZM64.9218 83.5223C64.7591 83.5223 64.6313 83.4759 64.5383 83.383C64.4453 83.2901 64.3988 83.1545 64.3988 82.9767V75.7096C64.3988 75.5318 64.4453 75.3998 64.5383 75.3149C64.6313 75.222 64.7591 75.1756 64.9218 75.1756C65.0922 75.1756 65.224 75.222 65.317 75.3149C65.41 75.3998 65.4565 75.5318 65.4565 75.7096V79.0181H65.3054C65.4681 78.577 65.7315 78.2439 66.0957 78.0197C66.4676 77.7955 66.8899 77.6831 67.3626 77.6831C67.8197 77.6831 68.1955 77.768 68.49 77.9385C68.7844 78.101 69.0052 78.3484 69.1525 78.6814C69.2996 79.0145 69.3733 79.4324 69.3733 79.9352V82.9767C69.3733 83.1545 69.3268 83.2901 69.2338 83.383C69.1486 83.4759 69.0207 83.5223 68.8503 83.5223C68.6798 83.5223 68.5481 83.4759 68.4551 83.383C68.3621 83.2901 68.3156 83.1545 68.3156 82.9767V79.9932C68.3156 79.4904 68.2187 79.1226 68.0251 78.8904C67.8313 78.6582 67.5214 78.5421 67.0953 78.5421C66.5993 78.5421 66.2003 78.6967 65.8981 79.0065C65.6036 79.3083 65.4565 79.7182 65.4565 80.237V82.9767C65.4565 83.3402 65.2782 83.5223 64.9218 83.5223ZM73.665 83.5455C73.053 83.5455 72.5261 83.4294 72.0844 83.1973C71.6505 82.9571 71.3135 82.6205 71.0733 82.1873C70.8331 81.7462 70.713 81.2274 70.713 80.6317C70.713 80.0433 70.8292 79.5289 71.0616 79.0877C71.3019 78.6466 71.6273 78.302 72.0379 78.0546C72.4564 77.8071 72.9329 77.6831 73.4675 77.6831C73.8474 77.6831 74.1881 77.7491 74.4902 77.8804C74.8004 78.0045 75.0634 78.1859 75.2806 78.426C75.4978 78.6662 75.6605 78.96 75.7687 79.3083C75.885 79.6486 75.9431 80.036 75.9431 80.4692C75.9431 80.5933 75.9046 80.6898 75.8268 80.7594C75.7571 80.8211 75.6525 80.8523 75.513 80.8523H71.5382V80.179H75.2457L75.0481 80.3415C75.0481 79.9388 74.9864 79.5985 74.8622 79.3199C74.7459 79.0333 74.5716 78.8171 74.3392 78.6698C74.1147 78.5225 73.8314 78.4493 73.4907 78.4493C73.1188 78.4493 72.8012 78.5385 72.5377 78.7163C72.2743 78.8868 72.0728 79.1305 71.9333 79.4476C71.7939 79.7574 71.7241 80.1173 71.7241 80.5272V80.5969C71.7241 81.2934 71.8908 81.8194 72.2239 82.1757C72.5571 82.5319 73.0375 82.7097 73.665 82.7097C73.9127 82.7097 74.1648 82.6785 74.4205 82.6168C74.6842 82.5552 74.9355 82.4427 75.176 82.2802C75.2922 82.2105 75.3968 82.1793 75.4898 82.1873C75.5908 82.1873 75.6721 82.2185 75.7339 82.2802C75.7956 82.3346 75.8348 82.4042 75.8501 82.4891C75.8653 82.5668 75.8537 82.6517 75.8152 82.7445C75.7767 82.8374 75.7026 82.9187 75.5944 82.9883C75.3387 83.1661 75.0329 83.3054 74.6762 83.4062C74.3275 83.4991 73.9905 83.5455 73.665 83.5455ZM79.711 83.5455C79.1378 83.5455 78.6417 83.4258 78.2233 83.1857C77.8049 82.9382 77.4831 82.5936 77.2586 82.1525C77.0342 81.7034 76.9216 81.1773 76.9216 80.5737C76.9216 80.1246 76.9833 79.7226 77.1075 79.3664C77.239 79.0101 77.425 78.7083 77.6654 78.4609C77.9058 78.2055 78.1964 78.0117 78.5371 77.8804C78.8858 77.7491 79.2773 77.6831 79.711 77.6831C79.9819 77.6831 80.2689 77.7259 80.5711 77.8108C80.8733 77.8957 81.1522 78.035 81.4079 78.2287C81.4929 78.2904 81.5474 78.3644 81.5706 78.4493C81.5939 78.5269 81.5939 78.6082 81.5706 78.693C81.5554 78.7779 81.5161 78.8519 81.4544 78.9136C81.3999 78.968 81.3265 78.9985 81.2336 79.0065C81.1486 79.0145 81.0556 78.9869 80.9546 78.9252C80.7686 78.7859 80.5711 78.6851 80.3619 78.6234C80.1606 78.5617 79.9667 78.5305 79.7807 78.5305C79.4938 78.5305 79.2381 78.577 79.0136 78.6698C78.7964 78.7627 78.6105 78.8984 78.4557 79.0761C78.3083 79.2466 78.1964 79.4592 78.1187 79.7146C78.041 79.962 78.0025 80.2523 78.0025 80.5853C78.0025 81.2434 78.1572 81.7614 78.4674 82.1409C78.7775 82.5123 79.2148 82.6981 79.7807 82.6981C79.9667 82.6981 80.1606 82.6712 80.3619 82.6168C80.5631 82.5552 80.7607 82.4543 80.9546 82.315C81.0556 82.2533 81.1486 82.2301 81.2336 82.2453C81.3185 82.2533 81.3883 82.2882 81.4428 82.3498C81.5045 82.4042 81.5437 82.4739 81.559 82.5588C81.5742 82.6364 81.567 82.7177 81.5357 82.8026C81.5125 82.8875 81.458 82.9571 81.373 83.0115C81.1253 83.1973 80.8536 83.3329 80.5594 83.4178C80.2652 83.5027 79.9819 83.5455 79.711 83.5455ZM83.1847 83.5223C83.022 83.5223 82.8941 83.4759 82.8012 83.383C82.7082 83.2901 82.6617 83.1545 82.6617 82.9767V75.7096C82.6617 75.5318 82.7082 75.3998 82.8012 75.3149C82.8941 75.222 83.022 75.1756 83.1847 75.1756C83.3547 75.1756 83.4869 75.222 83.5799 75.3149C83.6729 75.3998 83.7193 75.5318 83.7193 75.7096V80.2835H83.7426L86.0206 78.0662C86.1369 77.9501 86.2415 77.8608 86.3344 77.7992C86.4274 77.7375 86.5473 77.7063 86.6947 77.7063C86.8415 77.7063 86.9541 77.7447 87.0318 77.8224C87.1088 77.892 87.148 77.9849 87.148 78.101C87.148 78.2091 87.0935 78.3179 86.9853 78.426L84.5678 80.771V80.2486L87.2061 82.791C87.3144 82.8991 87.3645 83.0115 87.3572 83.1276C87.3572 83.2437 87.3144 83.3402 87.2294 83.4178C87.1517 83.4875 87.0471 83.5223 86.9156 83.5223C86.7601 83.5223 86.6323 83.4911 86.532 83.4294C86.439 83.3678 86.3301 83.2705 86.2066 83.1392L83.7426 80.8175H83.7193V82.9767C83.7193 83.3402 83.5406 83.5223 83.1847 83.5223ZM92.2678 83.5223C92.0978 83.5223 91.9656 83.4759 91.8726 83.383C91.7797 83.2822 91.7332 83.1429 91.7332 82.9651V75.7328C91.7332 75.547 91.7797 75.4077 91.8726 75.3149C91.9656 75.222 92.0978 75.1756 92.2678 75.1756C92.4465 75.1756 92.5816 75.222 92.6746 75.3149C92.7676 75.4077 92.8141 75.547 92.8141 75.7328V82.9651C92.8141 83.1429 92.7676 83.2822 92.6746 83.383C92.5896 83.4759 92.4538 83.5223 92.2678 83.5223ZM95.1589 83.5223C94.9962 83.5223 94.8684 83.4759 94.7754 83.383C94.6824 83.2901 94.6359 83.1545 94.6359 82.9767V78.2403C94.6359 78.0625 94.6824 77.9305 94.7754 77.8456C94.8684 77.7527 94.9962 77.7063 95.1589 77.7063C95.3216 77.7063 95.4459 77.7527 95.5309 77.8456C95.6238 77.9305 95.6703 78.0625 95.6703 78.2403V79.1922L95.5425 79.0181C95.7052 78.577 95.9689 78.2439 96.3328 78.0197C96.7047 77.7955 97.1268 77.6831 97.5997 77.6831C98.0566 77.6831 98.4329 77.7643 98.7271 77.9269C99.0213 78.0894 99.2421 78.3368 99.3896 78.6698C99.537 79.0029 99.6104 79.4244 99.6104 79.9352V82.9767C99.6104 83.1545 99.5639 83.2901 99.4709 83.383C99.3859 83.4759 99.2581 83.5223 99.0874 83.5223C98.9167 83.5223 98.7852 83.4759 98.6922 83.383C98.5992 83.2901 98.5527 83.1545 98.5527 82.9767V79.9932C98.5527 79.4904 98.4561 79.1226 98.2622 78.8904C98.0682 78.6582 97.7588 78.5421 97.3324 78.5421C96.8362 78.5421 96.4374 78.6967 96.1352 79.0065C95.841 79.3083 95.6936 79.7182 95.6936 80.237V82.9767C95.6936 83.3402 95.5156 83.5223 95.1589 83.5223Z" fill="#171717"/>
  <path d="M141.424 70.0156H118.179C112.763 70.0156 108.373 74.401 108.373 79.8106C108.373 85.2202 112.763 89.6055 118.179 89.6055H141.424C146.84 89.6055 151.231 85.2202 151.231 79.8106C151.231 74.401 146.84 70.0156 141.424 70.0156Z" fill="#F1FFF5"/>
  <path d="M120.109 82.7163C119.952 82.7163 119.83 82.6757 119.743 82.5944C119.661 82.5073 119.621 82.3854 119.621 82.2287V77.0657C119.621 76.909 119.661 76.79 119.743 76.7087C119.83 76.6217 119.952 76.5781 120.109 76.5781H121.791C122.802 76.5781 123.581 76.8422 124.127 77.3704C124.679 77.8928 124.955 78.6503 124.955 79.6429C124.955 80.1362 124.886 80.5745 124.746 80.9576C124.607 81.3406 124.4 81.6628 124.127 81.924C123.86 82.1794 123.532 82.3767 123.142 82.516C122.753 82.6495 122.303 82.7163 121.791 82.7163H120.109ZM120.527 81.9588H121.739C122.122 81.9588 122.454 81.9124 122.733 81.8195C123.017 81.7208 123.256 81.5757 123.447 81.3842C123.639 81.1926 123.782 80.9518 123.874 80.6615C123.967 80.3713 124.014 80.0318 124.014 79.6429C124.014 78.8709 123.822 78.2933 123.439 77.9102C123.061 77.5271 122.494 77.3356 121.739 77.3356H120.527V81.9588ZM127.919 82.7947C127.489 82.7947 127.117 82.7047 126.803 82.5247C126.495 82.3448 126.254 82.0894 126.08 81.7586C125.906 81.4277 125.818 81.0388 125.818 80.5919C125.818 80.2494 125.868 79.9447 125.967 79.6777C126.065 79.4107 126.205 79.1814 126.385 78.9899C126.571 78.7925 126.792 78.6445 127.047 78.5458C127.309 78.4413 127.6 78.3891 127.919 78.3891C128.343 78.3891 128.71 78.4791 129.018 78.659C129.331 78.8389 129.575 79.0943 129.75 79.4252C129.924 79.7502 130.011 80.1391 130.011 80.5919C130.011 80.9285 129.962 81.2333 129.863 81.5061C129.764 81.7789 129.622 82.0111 129.436 82.2026C129.256 82.3941 129.035 82.5422 128.773 82.6466C128.518 82.7453 128.233 82.7947 127.919 82.7947ZM127.919 82.1155C128.157 82.1155 128.367 82.0575 128.547 81.9414C128.727 81.8253 128.866 81.6541 128.965 81.4277C129.07 81.2013 129.122 80.9227 129.122 80.5919C129.122 80.0927 129.012 79.7154 128.791 79.46C128.57 79.2046 128.279 79.0769 127.919 79.0769C127.675 79.0769 127.463 79.135 127.283 79.2511C127.103 79.3613 126.96 79.5297 126.856 79.756C126.757 79.9824 126.708 80.261 126.708 80.5919C126.708 81.0853 126.818 81.4625 127.039 81.7237C127.26 81.9849 127.553 82.1155 127.919 82.1155ZM131.436 82.7772C131.296 82.7772 131.189 82.7395 131.113 82.6641C131.038 82.5828 131 82.4725 131 82.3332V78.8506C131 78.7054 131.038 78.5952 131.113 78.5197C131.189 78.4442 131.293 78.4065 131.427 78.4065C131.567 78.4065 131.671 78.4442 131.741 78.5197C131.816 78.5952 131.854 78.7054 131.854 78.8506V79.5297L131.758 79.3729C131.886 79.0479 132.087 78.8041 132.36 78.6416C132.633 78.4733 132.947 78.3891 133.301 78.3891C133.638 78.3891 133.917 78.453 134.138 78.5807C134.365 78.7025 134.533 78.8912 134.644 79.1466C134.754 79.3962 134.809 79.7125 134.809 80.0956V82.3332C134.809 82.4725 134.771 82.5828 134.696 82.6641C134.62 82.7395 134.513 82.7772 134.373 82.7772C134.228 82.7772 134.118 82.7395 134.042 82.6641C133.967 82.5828 133.929 82.4725 133.929 82.3332V80.1478C133.929 79.7822 133.856 79.5152 133.711 79.3468C133.571 79.1785 133.351 79.0943 133.048 79.0943C132.694 79.0943 132.409 79.2046 132.194 79.4252C131.985 79.6458 131.88 79.9418 131.88 80.3133V82.3332C131.88 82.6292 131.732 82.7772 131.436 82.7772ZM138.019 82.7947C137.554 82.7947 137.153 82.7076 136.816 82.5335C136.484 82.3535 136.226 82.101 136.04 81.776C135.86 81.4451 135.77 81.0533 135.77 80.6006C135.77 80.1594 135.86 79.7735 136.04 79.4426C136.22 79.1118 136.467 78.8535 136.781 78.6677C137.095 78.482 137.452 78.3891 137.853 78.3891C138.149 78.3891 138.414 78.4384 138.646 78.5371C138.879 78.63 139.076 78.7693 139.239 78.955C139.407 79.135 139.532 79.3555 139.614 79.6167C139.701 79.8779 139.744 80.1711 139.744 80.4961C139.744 80.5948 139.715 80.6702 139.657 80.7225C139.599 80.7689 139.512 80.7921 139.396 80.7921H136.467V80.2523H139.152L139.004 80.3742C139.004 80.084 138.96 79.8373 138.873 79.6341C138.791 79.431 138.666 79.2772 138.498 79.1727C138.335 79.0624 138.132 79.0073 137.888 79.0073C137.615 79.0073 137.382 79.0711 137.19 79.1988C137.004 79.3265 136.862 79.5036 136.763 79.7299C136.664 79.9563 136.615 80.2204 136.615 80.5222V80.5745C136.615 81.0853 136.734 81.4712 136.972 81.7324C137.217 81.9878 137.568 82.1155 138.027 82.1155C138.202 82.1155 138.385 82.0923 138.576 82.0459C138.774 81.9994 138.96 81.9211 139.134 81.8108C139.233 81.7528 139.32 81.7266 139.396 81.7324C139.477 81.7382 139.541 81.7644 139.588 81.8108C139.64 81.8572 139.672 81.9153 139.683 81.9849C139.695 82.0546 139.683 82.1271 139.649 82.2026C139.614 82.2723 139.553 82.3361 139.466 82.3941C139.268 82.5277 139.038 82.6292 138.777 82.6989C138.515 82.7627 138.263 82.7947 138.019 82.7947Z" fill="#01A539"/>
  <path d="M141.424 70.0156H118.179C112.763 70.0156 108.373 74.401 108.373 79.8106C108.373 85.2202 112.763 89.6055 118.179 89.6055H141.424C146.84 89.6055 151.231 85.2202 151.231 79.8106C151.231 74.401 146.84 70.0156 141.424 70.0156Z" stroke="#ACE6BE"/>
  <path d="M294.341 81.4746C294.397 81.5312 294.464 81.5762 294.538 81.6067C294.611 81.6379 294.691 81.6531 294.771 81.6531C294.85 81.6531 294.93 81.6379 295.004 81.6067C295.077 81.5762 295.145 81.5312 295.201 81.4746L297.67 79.0077C297.784 78.8938 297.848 78.7393 297.848 78.5782C297.848 78.4171 297.784 78.2633 297.67 78.1494C297.556 78.0355 297.402 77.9716 297.24 77.9716C297.079 77.9716 296.925 78.0355 296.811 78.1494L294.771 80.1926L294.038 79.4554C293.924 79.3415 293.77 79.2776 293.608 79.2776C293.447 79.2776 293.293 79.3415 293.179 79.4554C293.065 79.5693 293.001 79.7231 293.001 79.8842C293.001 80.0453 293.065 80.1998 293.179 80.3137L294.341 81.4746ZM300.872 73.7656H289.976C289.816 73.7656 289.662 73.8295 289.548 73.9427C289.435 74.0558 289.371 74.2097 289.371 74.37V85.2533C289.371 85.4136 289.435 85.5675 289.548 85.6814C289.662 85.7946 289.816 85.8584 289.976 85.8584H300.872C301.033 85.8584 301.187 85.7946 301.301 85.6814C301.414 85.5675 301.478 85.4136 301.478 85.2533V74.37C301.478 74.2097 301.414 74.0558 301.301 73.9427C301.187 73.8295 301.033 73.7656 300.872 73.7656ZM300.267 84.6489H290.582V74.9751H300.267V84.6489Z" fill="#FDC8BB"/>
  <path d="M309.106 82.7131C308.923 82.7131 308.791 82.6725 308.709 82.5912C308.628 82.5034 308.587 82.3844 308.587 82.2357C308.587 82.1407 308.611 82.0492 308.659 81.9614C308.706 81.8737 308.774 81.7822 308.862 81.6872L311.028 79.3712C311.36 79.0193 311.598 78.6972 311.74 78.4062C311.889 78.108 311.964 77.8106 311.964 77.5124C311.964 77.1329 311.848 76.8456 311.618 76.649C311.388 76.4523 311.048 76.3544 310.601 76.3544C310.33 76.3544 310.068 76.395 309.818 76.4763C309.567 76.5575 309.316 76.6896 309.065 76.8724C308.964 76.9399 308.868 76.9704 308.781 76.9638C308.693 76.9573 308.614 76.9232 308.547 76.8623C308.486 76.8013 308.445 76.7266 308.425 76.6388C308.404 76.551 308.408 76.4596 308.435 76.3645C308.462 76.2695 308.526 76.1882 308.628 76.1208C308.906 75.9111 309.228 75.7485 309.594 75.6332C309.96 75.5178 310.333 75.4605 310.713 75.4605C311.208 75.4605 311.624 75.5381 311.964 75.6941C312.309 75.8429 312.57 76.0634 312.747 76.3544C312.923 76.6453 313.011 77.0008 313.011 77.4209C313.011 77.7054 312.964 77.9832 312.869 78.2539C312.781 78.5245 312.641 78.8024 312.452 79.0868C312.269 79.3647 312.028 79.6593 311.73 79.9705L309.676 82.124V81.8294H312.91C313.058 81.8294 313.174 81.8664 313.255 81.9411C313.337 82.0159 313.377 82.124 313.377 82.2662C313.377 82.4084 313.337 82.5201 313.255 82.6014C313.174 82.6761 313.058 82.7131 312.91 82.7131H309.106ZM317.265 83.0382C317.231 83.1463 317.177 83.2246 317.102 83.2718C317.028 83.319 316.946 83.3429 316.858 83.3429C316.77 83.3429 316.689 83.319 316.614 83.2718C316.547 83.2312 316.499 83.1702 316.472 83.089C316.438 83.0077 316.438 82.9097 316.472 82.7944L318.862 75.3996C318.896 75.2914 318.95 75.2131 319.024 75.1659C319.099 75.1115 319.177 75.0883 319.258 75.0948C319.346 75.0948 319.425 75.1188 319.492 75.1659C319.567 75.2066 319.618 75.2675 319.645 75.3488C319.679 75.4235 319.682 75.5178 319.655 75.6332L317.265 83.0382ZM323.586 82.7131C323.403 82.7131 323.271 82.6725 323.19 82.5912C323.108 82.5034 323.068 82.3844 323.068 82.2357C323.068 82.1407 323.091 82.0492 323.139 81.9614C323.186 81.8737 323.254 81.7822 323.342 81.6872L325.508 79.3712C325.84 79.0193 326.078 78.6972 326.22 78.4062C326.369 78.108 326.444 77.8106 326.444 77.5124C326.444 77.1329 326.329 76.8456 326.098 76.649C325.867 76.4523 325.529 76.3544 325.081 76.3544C324.81 76.3544 324.549 76.395 324.298 76.4763C324.047 76.5575 323.796 76.6896 323.546 76.8724C323.444 76.9399 323.349 76.9704 323.261 76.9638C323.172 76.9573 323.095 76.9232 323.027 76.8623C322.966 76.8013 322.925 76.7266 322.905 76.6388C322.885 76.551 322.888 76.4596 322.915 76.3645C322.942 76.2695 323.007 76.1882 323.108 76.1208C323.386 75.9111 323.708 75.7485 324.075 75.6332C324.441 75.5178 324.813 75.4605 325.193 75.4605C325.688 75.4605 326.105 75.5381 326.444 75.6941C326.79 75.8429 327.051 76.0634 327.227 76.3544C327.403 76.6453 327.492 77.0008 327.492 77.4209C327.492 77.7054 327.444 77.9832 327.349 78.2539C327.261 78.5245 327.122 78.8024 326.932 79.0868C326.749 79.3647 326.508 79.6593 326.21 79.9705L324.156 82.124V81.8294H327.39C327.539 81.8294 327.654 81.8664 327.736 81.9411C327.817 82.0159 327.858 82.124 327.858 82.2662C327.858 82.4084 327.817 82.5201 327.736 82.6014C327.654 82.6761 327.539 82.7131 327.39 82.7131H323.586Z" fill="#171717"/>
  <path d="M353.538 69.6562H341.915C339.508 69.6562 337.557 71.6053 337.557 74.0096V85.6184C337.557 88.0227 339.508 89.9717 341.915 89.9717H353.538C355.945 89.9717 357.896 88.0227 357.896 85.6184V74.0096C357.896 71.6053 355.945 69.6562 353.538 69.6562Z" fill="#F9F9F9"/>
  <path d="M346.637 83.0777C346.781 83.0777 346.92 83.0204 347.022 82.9181C347.124 82.8165 347.182 82.6779 347.182 82.5336V79.2686C347.182 79.1242 347.124 78.9856 347.022 78.884C346.92 78.7817 346.781 78.7244 346.637 78.7244C346.492 78.7244 346.354 78.7817 346.252 78.884C346.149 78.9856 346.092 79.1242 346.092 79.2686V82.5336C346.092 82.6779 346.149 82.8165 346.252 82.9181C346.354 83.0204 346.492 83.0777 346.637 83.0777ZM352.085 76.5477H349.906V76.0036C349.906 75.5704 349.734 75.1554 349.427 74.8492C349.121 74.543 348.705 74.3711 348.271 74.3711H347.182C346.748 74.3711 346.333 74.543 346.026 74.8492C345.719 75.1554 345.547 75.5704 345.547 76.0036V76.5477H343.368C343.223 76.5477 343.085 76.6051 342.983 76.7074C342.881 76.8089 342.823 76.9475 342.823 77.0919C342.823 77.2363 342.881 77.3749 342.983 77.4765C343.085 77.5788 343.223 77.6361 343.368 77.6361H343.913V83.6219C343.913 84.055 344.085 84.4701 344.392 84.7762C344.698 85.0824 345.114 85.2544 345.547 85.2544H349.906C350.339 85.2544 350.755 85.0824 351.062 84.7762C351.368 84.4701 351.54 84.055 351.54 83.6219V77.6361H352.085C352.23 77.6361 352.368 77.5788 352.47 77.4765C352.572 77.3749 352.63 77.2363 352.63 77.0919C352.63 76.9475 352.572 76.8089 352.47 76.7074C352.368 76.6051 352.23 76.5477 352.085 76.5477ZM346.637 76.0036C346.637 75.8592 346.694 75.7206 346.797 75.619C346.898 75.5167 347.037 75.4594 347.182 75.4594H348.271C348.416 75.4594 348.555 75.5167 348.656 75.619C348.759 75.7206 348.816 75.8592 348.816 76.0036V76.5477H346.637V76.0036ZM350.451 83.6219C350.451 83.7663 350.393 83.9048 350.291 84.0064C350.189 84.1087 350.05 84.166 349.906 84.166H345.547C345.403 84.166 345.264 84.1087 345.162 84.0064C345.06 83.9048 345.002 83.7663 345.002 83.6219V77.6361H350.451V83.6219ZM348.816 83.0777C348.961 83.0777 349.099 83.0204 349.201 82.9181C349.304 82.8165 349.361 82.6779 349.361 82.5336V79.2686C349.361 79.1242 349.304 78.9856 349.201 78.884C349.099 78.7817 348.961 78.7244 348.816 78.7244C348.672 78.7244 348.533 78.7817 348.431 78.884C348.329 78.9856 348.271 79.1242 348.271 79.2686V82.5336C348.271 82.6779 348.329 82.8165 348.431 82.9181C348.533 83.0204 348.672 83.0777 348.816 83.0777Z" fill="#848484"/>
  </g>
  <g filter="url(#filter1_d_12898_59949)">
  <path d="M356.443 120.441H29.5566C22.7364 120.441 17.2075 125.964 17.2075 132.776V153.091C17.2075 159.903 22.7364 165.426 29.5566 165.426H356.443C363.264 165.426 368.792 159.903 368.792 153.091V132.776C368.792 125.964 363.264 120.441 356.443 120.441Z" fill="white"/>
  <path d="M51.7121 142.933C51.7121 137.924 47.6468 133.863 42.6319 133.863C37.6171 133.863 33.5518 137.924 33.5518 142.933C33.5518 147.942 37.6171 152.002 42.6319 152.002C47.6468 152.002 51.7121 147.942 51.7121 142.933Z" fill="white"/>
  <path d="M38.0316 142.237L42.39 144.752C42.4636 144.795 42.5472 144.817 42.6322 144.817C42.7172 144.817 42.8007 144.795 42.8743 144.752L47.2328 142.237C47.3061 142.195 47.3671 142.134 47.4094 142.06C47.4518 141.987 47.4741 141.904 47.4741 141.819C47.4741 141.734 47.4518 141.651 47.4094 141.577C47.3671 141.504 47.3061 141.443 47.2328 141.4L42.8743 138.885C42.8007 138.843 42.7172 138.82 42.6322 138.82C42.5472 138.82 42.4636 138.843 42.39 138.885L38.0316 141.4C37.9581 141.443 37.8972 141.504 37.8549 141.577C37.8125 141.651 37.7902 141.734 37.7902 141.819C37.7902 141.904 37.8125 141.987 37.8549 142.06C37.8972 142.134 37.9581 142.195 38.0316 142.237ZM42.6322 139.862L46.0221 141.797L42.6322 143.756L39.2422 141.816L42.6322 139.862ZM46.7485 143.63L42.6322 146.005L38.5158 143.63C38.4608 143.598 38.4 143.577 38.3369 143.568C38.2737 143.56 38.2095 143.564 38.1479 143.58C38.0863 143.596 38.0284 143.624 37.9777 143.663C37.927 143.701 37.8844 143.75 37.8524 143.804C37.8203 143.859 37.7995 143.921 37.7913 143.984C37.7829 144.047 37.7872 144.112 37.8038 144.173C37.8205 144.234 37.8492 144.292 37.8883 144.342C37.9273 144.393 37.9761 144.435 38.0316 144.467L42.39 146.982C42.4636 147.025 42.5472 147.047 42.6322 147.047C42.7172 147.047 42.8007 147.025 42.8743 146.982L47.2328 144.467C47.2883 144.435 47.3369 144.393 47.376 144.342C47.4151 144.292 47.4438 144.234 47.4604 144.173C47.4771 144.112 47.4814 144.047 47.4731 143.984C47.4648 143.921 47.444 143.859 47.412 143.804C47.3799 143.75 47.3373 143.701 47.2866 143.663C47.2359 143.624 47.1781 143.596 47.1164 143.58C47.0548 143.564 46.9906 143.56 46.9275 143.568C46.8643 143.577 46.8035 143.598 46.7485 143.63Z" fill="#848484"/>
  <path d="M51.7121 142.933C51.7121 137.924 47.6468 133.863 42.6319 133.863C37.6171 133.863 33.5518 137.924 33.5518 142.933C33.5518 147.942 37.6171 152.002 42.6319 152.002C47.6468 152.002 51.7121 147.942 51.7121 142.933Z" stroke="#EDE9E5"/>
  <path d="M51.7121 142.933C51.7121 137.924 47.6468 133.863 42.6319 133.863C37.6171 133.863 33.5518 137.924 33.5518 142.933C33.5518 147.942 37.6171 152.002 42.6319 152.002C47.6468 152.002 51.7121 147.942 51.7121 142.933Z" stroke="black" stroke-opacity="0.2"/>
  <path d="M56.5793 146.644C56.4398 146.644 56.3275 146.612 56.2423 146.551C56.1647 146.489 56.1183 146.403 56.1028 146.295C56.0873 146.187 56.1106 146.067 56.1725 145.935L59.3455 138.761C59.4152 138.599 59.5044 138.483 59.6128 138.413C59.7213 138.335 59.8414 138.297 59.9731 138.297C60.1048 138.297 60.221 138.335 60.3218 138.413C60.4303 138.483 60.5232 138.599 60.6007 138.761L63.7737 145.935C63.8357 146.067 63.8589 146.191 63.8435 146.307C63.8357 146.415 63.7931 146.501 63.7156 146.562C63.6381 146.617 63.5296 146.644 63.3902 146.644C63.2352 146.644 63.1112 146.605 63.0183 146.528C62.9253 146.443 62.8439 146.322 62.7742 146.168L61.949 144.241L62.4487 144.519H57.4743L57.974 144.241L57.1488 146.168C57.0791 146.338 57.0016 146.462 56.9164 146.539C56.8312 146.609 56.7188 146.644 56.5793 146.644ZM59.9499 139.597L58.1367 143.881L57.8578 143.637H62.0652L61.7979 143.881L59.9731 139.597H59.9499ZM67.1852 146.667C66.6893 146.667 66.2515 146.551 65.8718 146.319C65.4999 146.078 65.2093 145.738 65.0001 145.297C64.7909 144.848 64.6863 144.325 64.6863 143.73C64.6863 143.126 64.787 142.607 64.9885 142.174C65.1977 141.733 65.4883 141.396 65.8602 141.164C66.2398 140.924 66.6815 140.804 67.1852 140.804C67.6888 140.804 68.1227 140.932 68.4869 141.187C68.8511 141.435 69.0952 141.768 69.2192 142.186H69.0913V138.831C69.0913 138.653 69.1339 138.521 69.2192 138.436C69.3121 138.343 69.4438 138.297 69.6143 138.297C69.7847 138.297 69.9165 138.343 70.0095 138.436C70.1025 138.521 70.1489 138.653 70.1489 138.831V146.098C70.1489 146.276 70.1025 146.411 70.0095 146.504C69.9165 146.597 69.7847 146.644 69.6143 146.644C69.4516 146.644 69.3238 146.597 69.2308 146.504C69.1378 146.411 69.0913 146.276 69.0913 146.098V145.042L69.2192 145.251C69.1029 145.684 68.8589 146.028 68.4869 146.284C68.1227 146.539 67.6888 146.667 67.1852 146.667ZM67.4293 145.831C67.7702 145.831 68.0646 145.75 68.3126 145.587C68.5683 145.425 68.7619 145.189 68.8937 144.879C69.0332 144.569 69.1029 144.186 69.1029 143.73C69.1029 143.049 68.9518 142.53 68.6496 142.174C68.3475 141.818 67.9407 141.64 67.4293 141.64C67.0961 141.64 66.8016 141.721 66.5459 141.884C66.2979 142.039 66.1043 142.271 65.9648 142.581C65.8253 142.89 65.7556 143.273 65.7556 143.73C65.7556 144.411 65.9067 144.933 66.2089 145.297C66.5188 145.653 66.9256 145.831 67.4293 145.831ZM72.3911 146.644C72.2284 146.644 72.1006 146.597 72.0076 146.504C71.9146 146.411 71.8681 146.276 71.8681 146.098V141.362C71.8681 141.184 71.9146 141.052 72.0076 140.967C72.1006 140.874 72.2284 140.828 72.3911 140.828C72.5538 140.828 72.6778 140.874 72.763 140.967C72.856 141.052 72.9025 141.184 72.9025 141.362V142.348L72.7747 142.139C72.9218 141.714 73.1583 141.385 73.4837 141.153C73.8171 140.92 74.2123 140.804 74.6692 140.804C75.1494 140.804 75.5373 140.92 75.8315 141.153C76.1257 141.377 76.3233 141.721 76.4242 142.186H76.2615C76.401 141.76 76.6487 141.423 77.0054 141.176C77.3693 140.928 77.7921 140.804 78.2722 140.804C78.6987 140.804 79.0473 140.889 79.3183 141.06C79.5972 141.222 79.8064 141.47 79.9459 141.803C80.0854 142.128 80.1551 142.546 80.1551 143.056V146.098C80.1551 146.276 80.1086 146.411 80.0156 146.504C79.9227 146.597 79.7948 146.644 79.6321 146.644C79.4614 146.644 79.3299 146.597 79.2369 146.504C79.1439 146.411 79.0975 146.276 79.0975 146.098V143.103C79.0975 142.607 79.0125 142.244 78.8418 142.012C78.671 141.78 78.3848 141.663 77.9817 141.663C77.54 141.663 77.1877 141.818 76.924 142.128C76.6683 142.43 76.5405 142.848 76.5405 143.382V146.098C76.5405 146.276 76.494 146.411 76.401 146.504C76.316 146.597 76.1882 146.644 76.0175 146.644C75.8467 146.644 75.7153 146.597 75.6223 146.504C75.5293 146.411 75.4828 146.276 75.4828 146.098V143.103C75.4828 142.607 75.3978 142.244 75.2271 142.012C75.0564 141.78 74.7702 141.663 74.367 141.663C73.9254 141.663 73.5731 141.818 73.3094 142.128C73.0536 142.43 72.9258 142.848 72.9258 143.382V146.098C72.9258 146.462 72.7475 146.644 72.3911 146.644ZM82.3787 146.62C82.216 146.62 82.0881 146.57 81.9951 146.469C81.9021 146.369 81.8557 146.229 81.8557 146.052V141.42C81.8557 141.234 81.9021 141.095 81.9951 141.002C82.0881 140.901 82.216 140.851 82.3787 140.851C82.5494 140.851 82.6809 140.901 82.7738 141.002C82.8668 141.095 82.9133 141.234 82.9133 141.42V146.052C82.9133 146.229 82.8668 146.369 82.7738 146.469C82.6889 146.57 82.5566 146.62 82.3787 146.62ZM82.3787 139.597C82.1695 139.597 82.0031 139.543 81.8789 139.435C81.7627 139.318 81.7046 139.168 81.7046 138.982C81.7046 138.781 81.7627 138.63 81.8789 138.529C82.0031 138.421 82.1695 138.367 82.3787 138.367C82.6031 138.367 82.7702 138.421 82.8784 138.529C82.9947 138.63 83.0528 138.781 83.0528 138.982C83.0528 139.168 82.9947 139.318 82.8784 139.435C82.7702 139.543 82.6031 139.597 82.3787 139.597ZM86.5665 146.667C86.2178 146.667 85.8655 146.628 85.5088 146.551C85.1601 146.466 84.831 146.322 84.5209 146.121C84.4359 146.067 84.3734 146.002 84.3349 145.924C84.3037 145.839 84.292 145.758 84.3 145.68C84.3153 145.595 84.3502 145.521 84.4046 145.46C84.4591 145.398 84.5245 145.363 84.6022 145.355C84.6872 145.34 84.7766 145.359 84.8695 145.413C85.1717 145.584 85.4623 145.703 85.7412 145.773C86.0282 145.843 86.3108 145.877 86.5897 145.877C87.0161 145.877 87.3372 145.8 87.5544 145.645C87.7716 145.491 87.8798 145.285 87.8798 145.03C87.8798 144.813 87.8064 144.647 87.659 144.531C87.5195 144.407 87.2987 144.314 86.9965 144.252L85.9156 144.032C85.4354 143.924 85.0708 143.745 84.8231 143.498C84.5826 143.242 84.4628 142.917 84.4628 142.522C84.4628 142.174 84.5557 141.872 84.7417 141.617C84.9357 141.354 85.203 141.153 85.5437 141.013C85.8843 140.874 86.2759 140.804 86.7176 140.804C87.0582 140.804 87.38 140.851 87.6822 140.944C87.9924 141.029 88.2714 141.161 88.5191 141.338C88.612 141.393 88.6702 141.462 88.6934 141.547C88.7246 141.625 88.7283 141.706 88.705 141.791C88.6898 141.869 88.6549 141.934 88.6004 141.988C88.5459 142.043 88.4762 142.078 88.3912 142.093C88.3062 142.101 88.2132 142.078 88.1123 142.023C87.8878 141.869 87.6554 141.76 87.4149 141.698C87.1825 141.629 86.95 141.594 86.7176 141.594C86.2991 141.594 85.9817 141.675 85.7645 141.838C85.5553 142 85.4507 142.213 85.4507 142.476C85.4507 142.677 85.5124 142.844 85.6366 142.975C85.7681 143.107 85.9737 143.204 86.2526 143.265L87.3335 143.486C87.837 143.594 88.2169 143.768 88.4726 144.008C88.7283 144.241 88.8561 144.558 88.8561 144.96C88.8561 145.486 88.6469 145.904 88.2285 146.214C87.8181 146.516 87.2638 146.667 86.5665 146.667ZM92.1845 146.667C91.8359 146.667 91.4836 146.628 91.1269 146.551C90.7782 146.466 90.4491 146.322 90.139 146.121C90.054 146.067 89.9922 146.002 89.953 145.924C89.9225 145.839 89.9109 145.758 89.9181 145.68C89.9341 145.595 89.969 145.521 90.0227 145.46C90.0772 145.398 90.1433 145.363 90.2203 145.355C90.306 145.34 90.3947 145.359 90.4876 145.413C90.7898 145.584 91.0804 145.703 91.3593 145.773C91.6463 145.843 91.9289 145.877 92.2078 145.877C92.6342 145.877 92.956 145.8 93.1725 145.645C93.3897 145.491 93.4979 145.285 93.4979 145.03C93.4979 144.813 93.4245 144.647 93.2771 144.531C93.1376 144.407 92.9168 144.314 92.6146 144.252L91.5337 144.032C91.0535 143.924 90.6896 143.745 90.4412 143.498C90.2014 143.242 90.0808 142.917 90.0808 142.522C90.0808 142.174 90.1738 141.872 90.3598 141.617C90.5537 141.354 90.8211 141.153 91.1618 141.013C91.5032 140.874 91.894 140.804 92.3356 140.804C92.6771 140.804 92.9981 140.851 93.3003 140.944C93.6105 141.029 93.8894 141.161 94.1372 141.338C94.2301 141.393 94.2882 141.462 94.3115 141.547C94.3427 141.625 94.3464 141.706 94.3231 141.791C94.3079 141.869 94.273 141.934 94.2185 141.988C94.1648 142.043 94.095 142.078 94.0093 142.093C93.9243 142.101 93.8313 142.078 93.7304 142.023C93.5059 141.869 93.2734 141.76 93.033 141.698C92.8006 141.629 92.5681 141.594 92.3356 141.594C91.9172 141.594 91.5998 141.675 91.3826 141.838C91.1734 142 91.0688 142.213 91.0688 142.476C91.0688 142.677 91.1312 142.844 91.2547 142.975C91.3869 143.107 91.5918 143.204 91.8707 143.265L92.9516 143.486C93.4558 143.594 93.835 143.768 94.0907 144.008C94.3464 144.241 94.4742 144.558 94.4742 144.96C94.4742 145.486 94.265 145.904 93.8466 146.214C93.4362 146.516 92.8819 146.667 92.1845 146.667ZM96.3738 146.62C96.2111 146.62 96.0832 146.57 95.9902 146.469C95.8973 146.369 95.8508 146.229 95.8508 146.052V141.42C95.8508 141.234 95.8973 141.095 95.9902 141.002C96.0832 140.901 96.2111 140.851 96.3738 140.851C96.5438 140.851 96.676 140.901 96.769 141.002C96.8619 141.095 96.9084 141.234 96.9084 141.42V146.052C96.9084 146.229 96.8619 146.369 96.769 146.469C96.6832 146.57 96.5518 146.62 96.3738 146.62ZM96.3738 139.597C96.1646 139.597 95.9975 139.543 95.874 139.435C95.7578 139.318 95.6997 139.168 95.6997 138.982C95.6997 138.781 95.7578 138.63 95.874 138.529C95.9975 138.421 96.1646 138.367 96.3738 138.367C96.5982 138.367 96.7646 138.421 96.8736 138.529C96.9898 138.63 97.0479 138.781 97.0479 138.982C97.0479 139.168 96.9898 139.318 96.8736 139.435C96.7646 139.543 96.5982 139.597 96.3738 139.597ZM101.015 146.667C100.457 146.667 99.9724 146.547 99.562 146.307C99.1509 146.067 98.8334 145.727 98.609 145.285C98.3838 144.844 98.2719 144.325 98.2719 143.73C98.2719 143.281 98.3337 142.879 98.4579 142.522C98.5893 142.159 98.7753 141.849 99.0158 141.594C99.2555 141.338 99.5424 141.145 99.8758 141.013C100.217 140.874 100.596 140.804 101.015 140.804C101.573 140.804 102.057 140.924 102.468 141.164C102.878 141.404 103.196 141.745 103.421 142.186C103.645 142.619 103.758 143.134 103.758 143.73C103.758 144.179 103.692 144.585 103.56 144.949C103.436 145.312 103.254 145.622 103.014 145.877C102.774 146.133 102.483 146.33 102.142 146.469C101.809 146.601 101.433 146.667 101.015 146.667ZM101.015 145.831C101.356 145.831 101.65 145.75 101.898 145.587C102.154 145.425 102.347 145.189 102.479 144.879C102.619 144.569 102.689 144.186 102.689 143.73C102.689 143.049 102.537 142.53 102.235 142.174C101.933 141.818 101.526 141.64 101.015 141.64C100.681 141.64 100.387 141.721 100.132 141.884C99.8831 142.039 99.6899 142.271 99.5504 142.581C99.4109 142.89 99.3412 143.273 99.3412 143.73C99.3412 144.411 99.4923 144.933 99.7945 145.297C100.104 145.653 100.511 145.831 101.015 145.831ZM105.636 146.644C105.473 146.644 105.345 146.597 105.252 146.504C105.159 146.411 105.113 146.276 105.113 146.098V141.362C105.113 141.184 105.159 141.052 105.252 140.967C105.345 140.874 105.473 140.828 105.636 140.828C105.798 140.828 105.922 140.874 106.008 140.967C106.1 141.052 106.147 141.184 106.147 141.362V142.314L106.019 142.139C106.182 141.698 106.445 141.365 106.809 141.141C107.181 140.917 107.603 140.804 108.076 140.804C108.533 140.804 108.909 140.886 109.204 141.048C109.498 141.211 109.719 141.458 109.866 141.791C110.013 142.124 110.087 142.546 110.087 143.056V146.098C110.087 146.276 110.041 146.411 109.948 146.504C109.862 146.597 109.734 146.644 109.564 146.644C109.393 146.644 109.262 146.597 109.169 146.504C109.076 146.411 109.029 146.276 109.029 146.098V143.115C109.029 142.612 108.932 142.244 108.739 142.012C108.545 141.78 108.235 141.663 107.809 141.663C107.313 141.663 106.914 141.818 106.612 142.128C106.317 142.43 106.17 142.84 106.17 143.358V146.098C106.17 146.462 105.992 146.644 105.636 146.644Z" fill="#171717"/>
  <path d="M164.67 133.137H128.349C122.933 133.137 118.542 137.522 118.542 142.932C118.542 148.341 122.933 152.727 128.349 152.727H164.67C170.086 152.727 174.476 148.341 174.476 142.932C174.476 137.522 170.086 133.137 164.67 133.137Z" fill="#FFF9F4"/>
  <path d="M132.458 145.916C131.877 145.916 131.368 145.788 130.932 145.533C130.502 145.272 130.168 144.906 129.93 144.436C129.697 143.96 129.581 143.403 129.581 142.764C129.581 142.282 129.648 141.85 129.782 141.467C129.915 141.078 130.107 140.747 130.357 140.474C130.607 140.196 130.909 139.984 131.263 139.839C131.618 139.694 132.016 139.621 132.458 139.621C133.045 139.621 133.553 139.749 133.983 140.004C134.413 140.26 134.744 140.622 134.977 141.093C135.215 141.563 135.334 142.117 135.334 142.755C135.334 143.237 135.267 143.673 135.134 144.061C135 144.45 134.805 144.784 134.55 145.063C134.3 145.341 133.998 145.553 133.643 145.698C133.289 145.843 132.894 145.916 132.458 145.916ZM132.458 145.132C132.864 145.132 133.21 145.04 133.495 144.854C133.786 144.668 134.006 144.398 134.157 144.044C134.314 143.69 134.393 143.263 134.393 142.764C134.393 142.015 134.224 141.435 133.887 141.023C133.55 140.611 133.074 140.405 132.458 140.405C132.051 140.405 131.702 140.498 131.412 140.683C131.127 140.863 130.906 141.13 130.749 141.484C130.598 141.838 130.522 142.265 130.522 142.764C130.522 143.507 130.691 144.088 131.028 144.506C131.371 144.923 131.847 145.132 132.458 145.132ZM136.89 145.899C136.75 145.899 136.643 145.861 136.567 145.785C136.491 145.704 136.454 145.594 136.454 145.455V141.972C136.454 141.827 136.491 141.716 136.567 141.641C136.643 141.566 136.747 141.528 136.881 141.528C137.02 141.528 137.125 141.566 137.195 141.641C137.27 141.716 137.308 141.827 137.308 141.972V142.651L137.212 142.494C137.34 142.169 137.54 141.925 137.814 141.763C138.087 141.595 138.4 141.51 138.755 141.51C139.092 141.51 139.371 141.574 139.592 141.702C139.818 141.824 139.987 142.013 140.097 142.268C140.208 142.517 140.263 142.834 140.263 143.217V145.455C140.263 145.594 140.225 145.704 140.15 145.785C140.074 145.861 139.967 145.899 139.827 145.899C139.682 145.899 139.571 145.861 139.496 145.785C139.42 145.704 139.383 145.594 139.383 145.455V143.269C139.383 142.903 139.31 142.636 139.165 142.468C139.025 142.3 138.804 142.216 138.502 142.216C138.148 142.216 137.863 142.326 137.648 142.547C137.439 142.767 137.334 143.063 137.334 143.435V145.455C137.334 145.751 137.186 145.899 136.89 145.899ZM143.403 147.483C143.089 147.483 142.784 147.451 142.487 147.387C142.197 147.324 141.932 147.219 141.694 147.074C141.607 147.028 141.549 146.969 141.52 146.9C141.491 146.836 141.482 146.769 141.494 146.7C141.511 146.63 141.543 146.569 141.589 146.517C141.636 146.464 141.691 146.43 141.755 146.412C141.825 146.395 141.897 146.406 141.973 146.447C142.229 146.586 142.47 146.679 142.696 146.726C142.929 146.778 143.144 146.804 143.342 146.804C143.748 146.804 144.053 146.7 144.257 146.491C144.46 146.287 144.562 145.986 144.562 145.585V144.697H144.64C144.553 145.016 144.37 145.269 144.091 145.455C143.812 145.64 143.49 145.733 143.124 145.733C142.74 145.733 142.406 145.646 142.121 145.472C141.836 145.292 141.616 145.045 141.459 144.732C141.302 144.413 141.223 144.041 141.223 143.617C141.223 143.298 141.267 143.011 141.354 142.755C141.447 142.5 141.575 142.28 141.738 142.094C141.906 141.908 142.107 141.766 142.339 141.667C142.577 141.563 142.839 141.51 143.124 141.51C143.496 141.51 143.818 141.603 144.091 141.789C144.37 141.975 144.55 142.227 144.632 142.547L144.544 142.695V141.972C144.544 141.827 144.582 141.716 144.658 141.641C144.739 141.566 144.847 141.528 144.98 141.528C145.12 141.528 145.227 141.566 145.303 141.641C145.378 141.716 145.416 141.827 145.416 141.972V145.481C145.416 146.142 145.245 146.642 144.902 146.978C144.559 147.315 144.059 147.483 143.403 147.483ZM143.333 145.045C143.589 145.045 143.806 144.987 143.987 144.871C144.167 144.755 144.306 144.59 144.405 144.375C144.504 144.16 144.553 143.908 144.553 143.617C144.553 143.182 144.443 142.837 144.222 142.581C144.007 142.326 143.711 142.198 143.333 142.198C143.083 142.198 142.868 142.256 142.688 142.372C142.508 142.488 142.365 142.654 142.261 142.869C142.162 143.078 142.112 143.327 142.112 143.617C142.112 144.059 142.223 144.407 142.444 144.662C142.665 144.918 142.961 145.045 143.333 145.045ZM148.5 145.916C148.07 145.916 147.698 145.826 147.384 145.646C147.076 145.466 146.835 145.211 146.661 144.88C146.486 144.549 146.399 144.16 146.399 143.713C146.399 143.371 146.448 143.066 146.547 142.799C146.646 142.532 146.785 142.303 146.966 142.111C147.152 141.914 147.372 141.766 147.628 141.667C147.89 141.563 148.18 141.51 148.5 141.51C148.924 141.51 149.29 141.6 149.598 141.78C149.912 141.96 150.156 142.216 150.33 142.547C150.505 142.872 150.592 143.26 150.592 143.713C150.592 144.05 150.542 144.355 150.444 144.627C150.345 144.9 150.203 145.132 150.017 145.324C149.836 145.515 149.616 145.663 149.354 145.768C149.098 145.867 148.814 145.916 148.5 145.916ZM148.5 145.237C148.738 145.237 148.947 145.179 149.127 145.063C149.308 144.947 149.447 144.775 149.546 144.549C149.65 144.323 149.703 144.044 149.703 143.713C149.703 143.214 149.592 142.837 149.372 142.581C149.151 142.326 148.86 142.198 148.5 142.198C148.256 142.198 148.044 142.256 147.863 142.372C147.683 142.483 147.541 142.651 147.436 142.877C147.338 143.104 147.288 143.382 147.288 143.713C147.288 144.207 147.399 144.584 147.619 144.845C147.84 145.106 148.134 145.237 148.5 145.237ZM152.016 145.89C151.877 145.89 151.769 145.849 151.694 145.768C151.618 145.681 151.581 145.562 151.581 145.411V142.015C151.581 141.864 151.618 141.748 151.694 141.667C151.769 141.586 151.877 141.545 152.016 141.545C152.156 141.545 152.263 141.586 152.339 141.667C152.42 141.748 152.461 141.864 152.461 142.015V145.411C152.461 145.562 152.423 145.681 152.348 145.768C152.272 145.849 152.162 145.89 152.016 145.89ZM152.016 140.64C151.842 140.64 151.705 140.596 151.607 140.509C151.514 140.422 151.467 140.3 151.467 140.143C151.467 139.981 151.514 139.859 151.607 139.778C151.705 139.691 151.842 139.647 152.016 139.647C152.191 139.647 152.324 139.691 152.417 139.778C152.516 139.859 152.566 139.981 152.566 140.143C152.566 140.3 152.516 140.422 152.417 140.509C152.324 140.596 152.191 140.64 152.016 140.64ZM154.136 145.899C153.997 145.899 153.889 145.861 153.814 145.785C153.738 145.704 153.7 145.594 153.7 145.455V141.972C153.7 141.827 153.738 141.716 153.814 141.641C153.889 141.566 153.994 141.528 154.127 141.528C154.267 141.528 154.371 141.566 154.441 141.641C154.517 141.716 154.554 141.827 154.554 141.972V142.651L154.459 142.494C154.586 142.169 154.787 141.925 155.06 141.763C155.333 141.595 155.647 141.51 156.002 141.51C156.339 141.51 156.617 141.574 156.838 141.702C157.065 141.824 157.233 142.013 157.344 142.268C157.454 142.517 157.51 142.834 157.51 143.217V145.455C157.51 145.594 157.472 145.704 157.396 145.785C157.321 145.861 157.213 145.899 157.074 145.899C156.928 145.899 156.818 145.861 156.742 145.785C156.667 145.704 156.629 145.594 156.629 145.455V143.269C156.629 142.903 156.556 142.636 156.411 142.468C156.272 142.3 156.051 142.216 155.749 142.216C155.394 142.216 155.109 142.326 154.894 142.547C154.685 142.767 154.581 143.063 154.581 143.435V145.455C154.581 145.751 154.432 145.899 154.136 145.899ZM160.649 147.483C160.335 147.483 160.03 147.451 159.734 147.387C159.443 147.324 159.179 147.219 158.941 147.074C158.853 147.028 158.795 146.969 158.766 146.9C158.737 146.836 158.728 146.769 158.74 146.7C158.758 146.63 158.789 146.569 158.836 146.517C158.882 146.464 158.938 146.43 159.002 146.412C159.071 146.395 159.144 146.406 159.22 146.447C159.475 146.586 159.716 146.679 159.943 146.726C160.175 146.778 160.39 146.804 160.588 146.804C160.995 146.804 161.3 146.7 161.503 146.491C161.707 146.287 161.808 145.986 161.808 145.585V144.697H161.887C161.8 145.016 161.617 145.269 161.338 145.455C161.059 145.64 160.736 145.733 160.37 145.733C159.987 145.733 159.652 145.646 159.368 145.472C159.083 145.292 158.862 145.045 158.705 144.732C158.548 144.413 158.47 144.041 158.47 143.617C158.47 143.298 158.513 143.011 158.601 142.755C158.694 142.5 158.821 142.28 158.984 142.094C159.153 141.908 159.353 141.766 159.586 141.667C159.824 141.563 160.085 141.51 160.37 141.51C160.742 141.51 161.065 141.603 161.338 141.789C161.617 141.975 161.797 142.227 161.878 142.547L161.791 142.695V141.972C161.791 141.827 161.829 141.716 161.904 141.641C161.986 141.566 162.093 141.528 162.227 141.528C162.366 141.528 162.474 141.566 162.549 141.641C162.625 141.716 162.663 141.827 162.663 141.972V145.481C162.663 146.142 162.491 146.642 162.148 146.978C161.806 147.315 161.306 147.483 160.649 147.483ZM160.579 145.045C160.835 145.045 161.053 144.987 161.233 144.871C161.413 144.755 161.553 144.59 161.652 144.375C161.75 144.16 161.8 143.908 161.8 143.617C161.8 143.182 161.689 142.837 161.469 142.581C161.253 142.326 160.957 142.198 160.579 142.198C160.329 142.198 160.114 142.256 159.934 142.372C159.754 142.488 159.612 142.654 159.507 142.869C159.408 143.078 159.359 143.327 159.359 143.617C159.359 144.059 159.469 144.407 159.69 144.662C159.911 144.918 160.207 145.045 160.579 145.045Z" fill="#FFB341"/>
  <path d="M164.67 133.137H128.349C122.933 133.137 118.542 137.522 118.542 142.932C118.542 148.341 122.933 152.727 128.349 152.727H164.67C170.086 152.727 174.476 148.341 174.476 142.932C174.476 137.522 170.086 133.137 164.67 133.137Z" stroke="#FFE2B8"/>
  <path d="M294.341 144.596C294.397 144.652 294.464 144.697 294.538 144.728C294.611 144.759 294.691 144.775 294.771 144.775C294.85 144.775 294.93 144.759 295.004 144.728C295.077 144.697 295.145 144.652 295.201 144.596L297.67 142.129C297.784 142.015 297.848 141.86 297.848 141.699C297.848 141.538 297.784 141.384 297.67 141.27C297.556 141.157 297.402 141.093 297.24 141.093C297.079 141.093 296.925 141.157 296.811 141.27L294.771 143.314L294.038 142.576C293.924 142.463 293.77 142.399 293.608 142.399C293.447 142.399 293.293 142.463 293.179 142.576C293.065 142.69 293.001 142.844 293.001 143.005C293.001 143.166 293.065 143.321 293.179 143.435L294.341 144.596ZM300.872 136.887H289.976C289.816 136.887 289.662 136.951 289.548 137.064C289.435 137.177 289.371 137.331 289.371 137.491V148.374C289.371 148.535 289.435 148.689 289.548 148.802C289.662 148.916 289.816 148.979 289.976 148.979H300.872C301.033 148.979 301.187 148.916 301.301 148.802C301.414 148.689 301.478 148.535 301.478 148.374V137.491C301.478 137.331 301.414 137.177 301.301 137.064C301.187 136.951 301.033 136.887 300.872 136.887ZM300.267 147.77H290.582V138.096H300.267V147.77Z" fill="#FDC8BB"/>
  <path d="M310.825 145.926C309.991 145.926 309.354 145.611 308.913 144.981C308.479 144.345 308.262 143.433 308.262 142.249C308.262 141.442 308.36 140.769 308.557 140.227C308.754 139.685 309.041 139.276 309.421 138.998C309.801 138.72 310.269 138.582 310.825 138.582C311.665 138.582 312.303 138.893 312.736 139.516C313.17 140.132 313.387 141.04 313.387 142.238C313.387 143.031 313.289 143.701 313.092 144.25C312.896 144.798 312.608 145.215 312.228 145.499C311.848 145.783 311.38 145.926 310.825 145.926ZM310.825 145.052C311.347 145.052 311.73 144.825 311.974 144.371C312.224 143.911 312.35 143.2 312.35 142.238C312.35 141.27 312.224 140.566 311.974 140.126C311.73 139.679 311.347 139.455 310.825 139.455C310.309 139.455 309.926 139.679 309.675 140.126C309.425 140.566 309.299 141.27 309.299 142.238C309.299 143.2 309.425 143.911 309.675 144.371C309.926 144.825 310.309 145.052 310.825 145.052ZM317.265 146.159C317.231 146.267 317.177 146.346 317.102 146.393C317.027 146.44 316.946 146.464 316.858 146.464C316.77 146.464 316.689 146.44 316.614 146.393C316.546 146.352 316.499 146.291 316.472 146.21C316.438 146.129 316.438 146.031 316.472 145.915L318.862 138.521C318.896 138.413 318.949 138.334 319.024 138.287C319.099 138.233 319.177 138.209 319.258 138.216C319.346 138.216 319.425 138.24 319.492 138.287C319.567 138.328 319.618 138.389 319.645 138.47C319.679 138.545 319.682 138.639 319.655 138.754L317.265 146.159ZM323.586 145.834C323.403 145.834 323.271 145.794 323.19 145.712C323.108 145.625 323.068 145.506 323.068 145.357C323.068 145.262 323.091 145.17 323.139 145.083C323.186 144.995 323.253 144.903 323.342 144.808L325.508 142.492C325.84 142.14 326.078 141.818 326.22 141.527C326.369 141.229 326.444 140.932 326.444 140.633C326.444 140.254 326.328 139.967 326.098 139.77C325.867 139.573 325.529 139.475 325.081 139.475C324.809 139.475 324.549 139.516 324.298 139.597C324.047 139.679 323.796 139.811 323.545 139.994C323.444 140.061 323.349 140.091 323.261 140.085C323.172 140.078 323.094 140.044 323.027 139.983C322.966 139.922 322.925 139.848 322.905 139.76C322.884 139.672 322.887 139.581 322.915 139.486C322.942 139.391 323.006 139.309 323.108 139.242C323.386 139.032 323.708 138.87 324.074 138.754C324.44 138.639 324.813 138.582 325.193 138.582C325.688 138.582 326.105 138.659 326.444 138.815C326.79 138.964 327.05 139.185 327.227 139.475C327.403 139.766 327.491 140.122 327.491 140.542C327.491 140.826 327.443 141.104 327.349 141.375C327.26 141.646 327.122 141.923 326.932 142.208C326.749 142.486 326.508 142.78 326.21 143.092L324.156 145.245V144.95H327.39C327.539 144.95 327.654 144.987 327.735 145.062C327.817 145.137 327.858 145.245 327.858 145.387C327.858 145.529 327.817 145.641 327.735 145.722C327.654 145.797 327.539 145.834 327.39 145.834H323.586Z" fill="#171717"/>
  <path d="M353.538 132.777H341.915C339.508 132.777 337.557 134.726 337.557 137.131V148.739C337.557 151.144 339.508 153.093 341.915 153.093H353.538C355.945 153.093 357.896 151.144 357.896 148.739V137.131C357.896 134.726 355.945 132.777 353.538 132.777Z" fill="#F9F9F9"/>
  <path d="M346.637 146.199C346.781 146.199 346.92 146.141 347.022 146.039C347.124 145.938 347.182 145.799 347.182 145.655V142.39C347.182 142.245 347.124 142.107 347.022 142.005C346.92 141.903 346.781 141.845 346.637 141.845C346.492 141.845 346.354 141.903 346.252 142.005C346.149 142.107 346.092 142.245 346.092 142.39V145.655C346.092 145.799 346.149 145.938 346.252 146.039C346.354 146.141 346.492 146.199 346.637 146.199ZM352.085 139.669H349.906V139.125C349.906 138.692 349.734 138.277 349.427 137.97C349.121 137.664 348.705 137.492 348.271 137.492H347.182C346.748 137.492 346.333 137.664 346.026 137.97C345.719 138.277 345.547 138.692 345.547 139.125V139.669H343.368C343.223 139.669 343.085 139.726 342.983 139.828C342.881 139.93 342.823 140.069 342.823 140.213C342.823 140.357 342.881 140.496 342.983 140.598C343.085 140.7 343.223 140.757 343.368 140.757H343.913V146.743C343.913 147.176 344.085 147.591 344.392 147.897C344.698 148.204 345.114 148.375 345.547 148.375H349.906C350.339 148.375 350.755 148.204 351.062 147.897C351.368 147.591 351.54 147.176 351.54 146.743V140.757H352.085C352.23 140.757 352.368 140.7 352.47 140.598C352.572 140.496 352.63 140.357 352.63 140.213C352.63 140.069 352.572 139.93 352.47 139.828C352.368 139.726 352.23 139.669 352.085 139.669ZM346.637 139.125C346.637 138.98 346.694 138.842 346.797 138.74C346.898 138.638 347.037 138.581 347.182 138.581H348.271C348.416 138.581 348.555 138.638 348.656 138.74C348.759 138.842 348.816 138.98 348.816 139.125V139.669H346.637V139.125ZM350.451 146.743C350.451 146.887 350.393 147.026 350.291 147.128C350.189 147.23 350.05 147.287 349.906 147.287H345.547C345.403 147.287 345.264 147.23 345.162 147.128C345.06 147.026 345.002 146.887 345.002 146.743V140.757H350.451V146.743ZM348.816 146.199C348.961 146.199 349.099 146.141 349.201 146.039C349.304 145.938 349.361 145.799 349.361 145.655V142.39C349.361 142.245 349.304 142.107 349.201 142.005C349.099 141.903 348.961 141.845 348.816 141.845C348.672 141.845 348.533 141.903 348.431 142.005C348.329 142.107 348.271 142.245 348.271 142.39V145.655C348.271 145.799 348.329 145.938 348.431 146.039C348.533 146.141 348.672 146.199 348.816 146.199Z" fill="#848484"/>
  </g>
  <g filter="url(#filter2_d_12898_59949)">
  <path d="M224.962 183.566H161.038C155.02 183.566 150.142 188.439 150.142 194.45V200.254C150.142 206.265 155.02 211.137 161.038 211.137H224.962C230.98 211.137 235.859 206.265 235.859 200.254V194.45C235.859 188.439 230.98 183.566 224.962 183.566Z" fill="white"/>
  <path d="M159.652 201.05C159.516 201.05 159.408 201.02 159.326 200.959C159.245 200.898 159.198 200.817 159.184 200.715C159.17 200.613 159.19 200.498 159.245 200.37L162.001 194.194C162.068 194.031 162.153 193.916 162.255 193.848C162.363 193.781 162.483 193.747 162.611 193.747C162.733 193.747 162.845 193.781 162.947 193.848C163.055 193.916 163.144 194.031 163.211 194.194L165.967 200.37C166.028 200.498 166.052 200.617 166.038 200.725C166.025 200.827 165.981 200.908 165.906 200.969C165.831 201.023 165.727 201.05 165.591 201.05C165.442 201.05 165.323 201.013 165.235 200.939C165.147 200.864 165.069 200.749 165.001 200.593L164.289 198.948L164.767 199.232H160.435L160.903 198.948L160.201 200.593C160.133 200.756 160.058 200.874 159.977 200.949C159.896 201.016 159.788 201.05 159.652 201.05ZM162.591 194.986L161.055 198.623L160.801 198.379H164.391L164.157 198.623L162.611 194.986H162.591ZM168.911 201.071C168.477 201.071 168.094 200.969 167.761 200.766C167.436 200.556 167.182 200.258 166.999 199.872C166.816 199.479 166.724 199.022 166.724 198.501C166.724 197.966 166.816 197.509 166.999 197.129C167.182 196.75 167.436 196.455 167.761 196.246C168.094 196.036 168.477 195.931 168.911 195.931C169.345 195.931 169.718 196.039 170.029 196.256C170.348 196.466 170.562 196.75 170.67 197.109H170.558V194.265C170.558 194.096 170.602 193.967 170.69 193.879C170.779 193.791 170.904 193.747 171.067 193.747C171.229 193.747 171.355 193.791 171.443 193.879C171.538 193.967 171.585 194.096 171.585 194.265V200.532C171.585 200.695 171.542 200.823 171.453 200.918C171.365 201.006 171.239 201.05 171.077 201.05C170.914 201.05 170.789 201.006 170.7 200.918C170.613 200.823 170.568 200.695 170.568 200.532V199.638L170.68 199.862C170.572 200.228 170.358 200.522 170.039 200.746C169.728 200.963 169.352 201.071 168.911 201.071ZM169.175 200.278C169.453 200.278 169.697 200.211 169.907 200.075C170.118 199.939 170.281 199.74 170.395 199.476C170.517 199.212 170.578 198.887 170.578 198.501C170.578 197.918 170.45 197.478 170.192 197.18C169.935 196.882 169.596 196.733 169.175 196.733C168.89 196.733 168.643 196.801 168.433 196.936C168.223 197.065 168.056 197.261 167.934 197.526C167.819 197.79 167.761 198.115 167.761 198.501C167.761 199.076 167.891 199.516 168.148 199.821C168.406 200.126 168.748 200.278 169.175 200.278ZM174.919 201.071C174.485 201.071 174.102 200.969 173.77 200.766C173.445 200.556 173.191 200.258 173.008 199.872C172.824 199.479 172.733 199.022 172.733 198.501C172.733 197.966 172.824 197.509 173.008 197.129C173.191 196.75 173.445 196.455 173.77 196.246C174.102 196.036 174.485 195.931 174.919 195.931C175.353 195.931 175.726 196.039 176.038 196.256C176.356 196.466 176.57 196.75 176.679 197.109H176.567V194.265C176.567 194.096 176.611 193.967 176.699 193.879C176.787 193.791 176.913 193.747 177.075 193.747C177.238 193.747 177.363 193.791 177.452 193.879C177.546 193.967 177.594 194.096 177.594 194.265V200.532C177.594 200.695 177.55 200.823 177.462 200.918C177.373 201.006 177.248 201.05 177.086 201.05C176.923 201.05 176.797 201.006 176.709 200.918C176.621 200.823 176.577 200.695 176.577 200.532V199.638L176.689 199.862C176.58 200.228 176.366 200.522 176.048 200.746C175.736 200.963 175.36 201.071 174.919 201.071ZM175.184 200.278C175.461 200.278 175.705 200.211 175.916 200.075C176.126 199.939 176.289 199.74 176.404 199.476C176.526 199.212 176.587 198.887 176.587 198.501C176.587 197.918 176.458 197.478 176.201 197.18C175.943 196.882 175.604 196.733 175.184 196.733C174.899 196.733 174.651 196.801 174.441 196.936C174.231 197.065 174.065 197.261 173.943 197.526C173.828 197.79 173.77 198.115 173.77 198.501C173.77 199.076 173.899 199.516 174.157 199.821C174.414 200.126 174.757 200.278 175.184 200.278ZM182.328 201.05C182.172 201.05 182.05 201.006 181.962 200.918C181.873 200.83 181.83 200.705 181.83 200.542V194.275C181.83 194.106 181.871 193.977 181.952 193.889C182.04 193.794 182.155 193.747 182.298 193.747C182.42 193.747 182.511 193.771 182.572 193.818C182.64 193.859 182.718 193.936 182.806 194.052L186.996 199.567H186.742V194.245C186.742 194.089 186.783 193.967 186.864 193.879C186.952 193.791 187.074 193.747 187.23 193.747C187.393 193.747 187.515 193.791 187.596 193.879C187.678 193.967 187.718 194.089 187.718 194.245V200.553C187.718 200.709 187.678 200.83 187.596 200.918C187.521 201.006 187.42 201.05 187.291 201.05C187.169 201.05 187.067 201.026 186.986 200.979C186.911 200.932 186.83 200.851 186.742 200.735L182.572 195.23H182.806V200.542C182.806 200.705 182.765 200.83 182.684 200.918C182.603 201.006 182.484 201.05 182.328 201.05ZM191.605 201.071C191.062 201.071 190.594 200.969 190.201 200.766C189.815 200.556 189.513 200.262 189.296 199.882C189.086 199.496 188.981 199.039 188.981 198.511C188.981 197.996 189.086 197.546 189.296 197.16C189.506 196.774 189.794 196.473 190.16 196.256C190.527 196.039 190.943 195.931 191.411 195.931C191.757 195.931 192.066 195.988 192.337 196.103C192.608 196.212 192.839 196.374 193.028 196.591C193.225 196.801 193.37 197.058 193.466 197.363C193.567 197.668 193.618 198.009 193.618 198.389C193.618 198.504 193.584 198.592 193.516 198.653C193.449 198.707 193.347 198.734 193.211 198.734H189.794V198.105H192.927L192.754 198.247C192.754 197.908 192.703 197.621 192.601 197.383C192.506 197.146 192.361 196.967 192.164 196.845C191.974 196.717 191.737 196.652 191.452 196.652C191.133 196.652 190.862 196.727 190.638 196.875C190.421 197.024 190.256 197.231 190.14 197.495C190.025 197.759 189.967 198.068 189.967 198.419V198.48C189.967 199.076 190.106 199.527 190.384 199.831C190.669 200.13 191.079 200.278 191.615 200.278C191.818 200.278 192.032 200.251 192.255 200.197C192.486 200.143 192.703 200.051 192.906 199.923C193.022 199.855 193.123 199.825 193.211 199.831C193.306 199.838 193.381 199.868 193.435 199.923C193.496 199.977 193.533 200.045 193.547 200.126C193.561 200.207 193.547 200.292 193.506 200.38C193.466 200.461 193.394 200.536 193.293 200.603C193.062 200.759 192.794 200.878 192.489 200.959C192.184 201.034 191.889 201.071 191.605 201.071ZM196.479 201.05C196.336 201.05 196.211 201.016 196.102 200.949C196.001 200.874 195.919 200.759 195.858 200.603L194.363 196.652C194.309 196.516 194.292 196.398 194.313 196.296C194.333 196.188 194.384 196.103 194.465 196.043C194.553 195.982 194.665 195.951 194.801 195.951C194.923 195.951 195.021 195.982 195.096 196.043C195.177 196.097 195.245 196.205 195.299 196.368L196.631 200.116H196.387L197.77 196.327C197.818 196.199 197.882 196.103 197.964 196.043C198.045 195.982 198.15 195.951 198.279 195.951C198.407 195.951 198.513 195.982 198.594 196.043C198.682 196.103 198.747 196.199 198.787 196.327L200.14 200.116H199.916L201.269 196.347C201.322 196.191 201.391 196.087 201.472 196.032C201.56 195.978 201.658 195.951 201.767 195.951C201.902 195.951 202.004 195.985 202.072 196.053C202.146 196.12 202.187 196.209 202.194 196.317C202.207 196.418 202.191 196.53 202.143 196.652L200.648 200.603C200.587 200.752 200.502 200.864 200.394 200.939C200.292 201.013 200.173 201.05 200.038 201.05C199.896 201.05 199.77 201.013 199.662 200.939C199.56 200.864 199.479 200.752 199.418 200.603L197.994 196.754H198.503L197.089 200.603C197.034 200.752 196.953 200.864 196.845 200.939C196.743 201.013 196.621 201.05 196.479 201.05ZM208.452 201.071C208.141 201.071 207.836 201.047 207.537 201C207.238 200.952 206.957 200.881 206.693 200.786C206.428 200.685 206.191 200.563 205.981 200.421C205.879 200.346 205.808 200.262 205.767 200.167C205.733 200.072 205.723 199.98 205.737 199.892C205.757 199.797 205.798 199.716 205.859 199.649C205.92 199.581 205.995 199.54 206.083 199.527C206.171 199.506 206.269 199.533 206.378 199.608C206.683 199.805 207.005 199.95 207.344 200.045C207.683 200.132 208.052 200.177 208.452 200.177C209.028 200.177 209.453 200.075 209.723 199.872C210.002 199.662 210.14 199.391 210.14 199.059C210.14 198.789 210.042 198.575 209.846 198.419C209.649 198.257 209.32 198.128 208.859 198.033L207.771 197.81C207.127 197.674 206.646 197.451 206.327 197.14C206.015 196.828 205.859 196.408 205.859 195.88C205.859 195.561 205.924 195.271 206.052 195.006C206.188 194.742 206.374 194.515 206.612 194.326C206.849 194.129 207.134 193.98 207.466 193.879C207.798 193.777 208.161 193.727 208.554 193.727C208.975 193.727 209.368 193.781 209.734 193.889C210.106 193.997 210.439 194.163 210.73 194.387C210.818 194.448 210.876 194.525 210.903 194.62C210.937 194.708 210.944 194.797 210.924 194.885C210.91 194.972 210.873 195.047 210.812 195.108C210.751 195.169 210.673 195.206 210.578 195.22C210.483 195.226 210.378 195.193 210.262 195.118C209.998 194.942 209.727 194.817 209.449 194.742C209.178 194.661 208.876 194.62 208.544 194.62C208.212 194.62 207.92 194.671 207.669 194.773C207.425 194.874 207.236 195.017 207.1 195.199C206.971 195.382 206.906 195.599 206.906 195.85C206.906 196.134 206.998 196.361 207.181 196.53C207.364 196.699 207.669 196.828 208.096 196.916L209.174 197.14C209.852 197.282 210.358 197.502 210.69 197.8C211.022 198.098 211.188 198.494 211.188 198.988C211.188 199.307 211.123 199.594 210.995 199.852C210.866 200.102 210.683 200.319 210.446 200.502C210.208 200.685 209.92 200.827 209.581 200.928C209.249 201.023 208.873 201.071 208.452 201.071ZM214.362 201.071C213.956 201.071 213.613 200.999 213.335 200.857C213.057 200.715 212.851 200.505 212.715 200.228C212.579 199.95 212.511 199.612 212.511 199.212V196.815H211.901C211.765 196.815 211.661 196.78 211.586 196.713C211.511 196.638 211.474 196.54 211.474 196.418C211.474 196.29 211.511 196.191 211.586 196.124C211.661 196.056 211.765 196.022 211.901 196.022H212.511V194.976C212.511 194.807 212.556 194.678 212.644 194.59C212.739 194.502 212.867 194.458 213.03 194.458C213.193 194.458 213.319 194.502 213.406 194.59C213.494 194.678 213.539 194.807 213.539 194.976V196.022H214.728C214.864 196.022 214.969 196.056 215.044 196.124C215.119 196.191 215.156 196.29 215.156 196.418C215.156 196.54 215.119 196.638 215.044 196.713C214.969 196.78 214.864 196.815 214.728 196.815H213.539V199.13C213.539 199.49 213.613 199.76 213.762 199.943C213.919 200.126 214.169 200.217 214.515 200.217C214.637 200.217 214.742 200.207 214.83 200.187C214.925 200.16 215.003 200.143 215.064 200.136C215.139 200.136 215.2 200.163 215.247 200.217C215.294 200.265 215.318 200.36 215.318 200.502C215.318 200.603 215.298 200.698 215.257 200.786C215.223 200.874 215.159 200.932 215.064 200.959C214.983 200.986 214.871 201.01 214.728 201.03C214.593 201.057 214.471 201.071 214.362 201.071ZM218.241 201.071C217.698 201.071 217.23 200.969 216.837 200.766C216.451 200.556 216.149 200.262 215.932 199.882C215.722 199.496 215.617 199.039 215.617 198.511C215.617 197.996 215.722 197.546 215.932 197.16C216.142 196.774 216.43 196.473 216.797 196.256C217.163 196.039 217.58 195.931 218.047 195.931C218.393 195.931 218.702 195.988 218.973 196.103C219.244 196.212 219.475 196.374 219.664 196.591C219.861 196.801 220.007 197.058 220.102 197.363C220.203 197.668 220.254 198.009 220.254 198.389C220.254 198.504 220.22 198.592 220.153 198.653C220.085 198.707 219.983 198.734 219.848 198.734H216.43V198.105H219.563L219.39 198.247C219.39 197.908 219.339 197.621 219.237 197.383C219.142 197.146 218.997 196.967 218.8 196.845C218.61 196.717 218.373 196.652 218.088 196.652C217.769 196.652 217.498 196.727 217.275 196.875C217.057 197.024 216.892 197.231 216.776 197.495C216.661 197.759 216.603 198.068 216.603 198.419V198.48C216.603 199.076 216.742 199.527 217.02 199.831C217.305 200.13 217.715 200.278 218.251 200.278C218.454 200.278 218.668 200.251 218.892 200.197C219.122 200.143 219.339 200.051 219.542 199.923C219.658 199.855 219.76 199.825 219.848 199.831C219.943 199.838 220.017 199.868 220.071 199.923C220.132 199.977 220.169 200.045 220.183 200.126C220.197 200.207 220.183 200.292 220.142 200.38C220.102 200.461 220.031 200.536 219.929 200.603C219.699 200.759 219.431 200.878 219.125 200.959C218.82 201.034 218.525 201.071 218.241 201.071ZM221.882 202.879C221.72 202.879 221.595 202.834 221.506 202.747C221.418 202.659 221.374 202.53 221.374 202.361V196.469C221.374 196.3 221.418 196.171 221.506 196.083C221.595 195.995 221.717 195.951 221.872 195.951C222.035 195.951 222.16 195.995 222.248 196.083C222.337 196.171 222.381 196.3 222.381 196.469V197.353L222.269 197.14C222.378 196.774 222.591 196.483 222.909 196.266C223.228 196.043 223.605 195.931 224.038 195.931C224.479 195.931 224.862 196.036 225.187 196.246C225.52 196.455 225.774 196.75 225.95 197.129C226.133 197.509 226.225 197.966 226.225 198.501C226.225 199.022 226.133 199.479 225.95 199.872C225.774 200.258 225.523 200.556 225.198 200.766C224.872 200.969 224.486 201.071 224.038 201.071C223.611 201.071 223.238 200.963 222.92 200.746C222.601 200.529 222.388 200.241 222.279 199.882H222.401V202.361C222.401 202.53 222.354 202.659 222.259 202.747C222.171 202.834 222.045 202.879 221.882 202.879ZM223.784 200.278C224.069 200.278 224.316 200.211 224.526 200.075C224.737 199.939 224.9 199.74 225.015 199.476C225.13 199.212 225.187 198.887 225.187 198.501C225.187 197.918 225.059 197.478 224.801 197.18C224.55 196.882 224.211 196.733 223.784 196.733C223.506 196.733 223.259 196.801 223.042 196.936C222.832 197.065 222.669 197.261 222.553 197.526C222.439 197.79 222.381 198.115 222.381 198.501C222.381 199.076 222.51 199.516 222.767 199.821C223.025 200.126 223.364 200.278 223.784 200.278Z" fill="#171717"/>
  <path d="M224.962 183.93H161.038C155.221 183.93 150.505 188.64 150.505 194.45V200.255C150.505 206.065 155.221 210.775 161.038 210.775H224.962C230.78 210.775 235.495 206.065 235.495 200.255V194.45C235.495 188.64 230.78 183.93 224.962 183.93Z" stroke="#D5D5D5"/>
  </g>
  </g>
  <defs>
  <filter id="filter0_d_12898_59949" x="-9.79248" y="35.3203" width="411.585" height="104.984" filterUnits="userSpaceOnUse" color-interpolation-filters="sRGB">
  <feFlood flood-opacity="0" result="BackgroundImageFix"/>
  <feColorMatrix in="SourceAlpha" type="matrix" values="0 0 0 0 0 0 0 0 0 0 0 0 0 0 0 0 0 0 127 0" result="hardAlpha"/>
  <feOffset dx="3" dy="8"/>
  <feGaussianBlur stdDeviation="15"/>
  <feComposite in2="hardAlpha" operator="out"/>
  <feColorMatrix type="matrix" values="0 0 0 0 0 0 0 0 0 0 0 0 0 0 0 0 0 0 0.04 0"/>
  <feBlend mode="normal" in2="BackgroundImageFix" result="effect1_dropShadow_12898_59949"/>
  <feBlend mode="normal" in="SourceGraphic" in2="effect1_dropShadow_12898_59949" result="shape"/>
  </filter>
  <filter id="filter1_d_12898_59949" x="-9.79248" y="98.4414" width="411.585" height="104.984" filterUnits="userSpaceOnUse" color-interpolation-filters="sRGB">
  <feFlood flood-opacity="0" result="BackgroundImageFix"/>
  <feColorMatrix in="SourceAlpha" type="matrix" values="0 0 0 0 0 0 0 0 0 0 0 0 0 0 0 0 0 0 127 0" result="hardAlpha"/>
  <feOffset dx="3" dy="8"/>
  <feGaussianBlur stdDeviation="15"/>
  <feComposite in2="hardAlpha" operator="out"/>
  <feColorMatrix type="matrix" values="0 0 0 0 0 0 0 0 0 0 0 0 0 0 0 0 0 0 0.04 0"/>
  <feBlend mode="normal" in2="BackgroundImageFix" result="effect1_dropShadow_12898_59949"/>
  <feBlend mode="normal" in="SourceGraphic" in2="effect1_dropShadow_12898_59949" result="shape"/>
  </filter>
  <filter id="filter2_d_12898_59949" x="130.005" y="164.43" width="125.991" height="67.8438" filterUnits="userSpaceOnUse" color-interpolation-filters="sRGB">
  <feFlood flood-opacity="0" result="BackgroundImageFix"/>
  <feColorMatrix in="SourceAlpha" type="matrix" values="0 0 0 0 0 0 0 0 0 0 0 0 0 0 0 0 0 0 127 0" result="hardAlpha"/>
  <feOffset dy="1"/>
  <feGaussianBlur stdDeviation="10"/>
  <feComposite in2="hardAlpha" operator="out"/>
  <feColorMatrix type="matrix" values="0 0 0 0 0 0 0 0 0 0 0 0 0 0 0 0 0 0 0.02 0"/>
  <feBlend mode="normal" in2="BackgroundImageFix" result="effect1_dropShadow_12898_59949"/>
  <feBlend mode="normal" in="SourceGraphic" in2="effect1_dropShadow_12898_59949" result="shape"/>
  </filter>
  </defs>
</svg>