<svg width="435" height="294" viewBox="0 0 435 294" fill="none" xmlns="http://www.w3.org/2000/svg">
<g filter="url(#filter0_d_14719_58392)">
<path d="M401.065 15H30.4353C22.3248 15 15.75 22.6845 15.75 32.1638V254.476C15.75 263.956 22.3248 271.64 30.4353 271.64H401.065C409.175 271.64 415.75 263.956 415.75 254.476V32.1638C415.75 22.6845 409.175 15 401.065 15Z" fill="white"/>
<path d="M132.184 31.7551H258.337C259.711 31.7551 260.369 31.7558 260.919 31.8267C265.638 32.4356 269.363 36.7903 269.884 42.3059C269.945 42.9485 269.946 43.7177 269.946 45.3227V57.4191C269.946 59.0241 269.945 59.7934 269.884 60.436C269.363 65.9516 265.638 70.3062 260.919 70.9151C260.369 70.9861 259.711 70.9867 258.337 70.9867H132.184V31.7551Z" fill="#FFEEEA"/>
<path d="M157.23 55.8661C157.029 55.8661 156.872 55.8051 156.76 55.6831C156.656 55.5523 156.604 55.3692 156.604 55.1338V47.379C156.604 47.1436 156.656 46.9649 156.76 46.8429C156.872 46.7121 157.029 46.6467 157.23 46.6467H159.39C160.687 46.6467 161.687 47.0434 162.388 47.8367C163.097 48.6214 163.451 49.7591 163.451 51.2499C163.451 51.991 163.362 52.6491 163.183 53.2245C163.004 53.7999 162.739 54.2838 162.388 54.6761C162.045 55.0597 161.624 55.3561 161.124 55.5654C160.624 55.7659 160.046 55.8661 159.39 55.8661H157.23ZM157.767 54.7284H159.322C159.815 54.7284 160.24 54.6587 160.598 54.5192C160.964 54.371 161.269 54.153 161.515 53.8653C161.762 53.5776 161.945 53.2158 162.064 52.7799C162.183 52.344 162.243 51.834 162.243 51.2499C162.243 50.0904 161.997 49.2229 161.504 48.6475C161.02 48.0721 160.292 47.7844 159.322 47.7844H157.767V54.7284ZM167.255 55.9838C166.704 55.9838 166.226 55.8487 165.823 55.5784C165.428 55.3082 165.118 54.9246 164.894 54.4276C164.671 53.9307 164.559 53.3466 164.559 52.6753C164.559 52.161 164.622 51.7033 164.749 51.3022C164.876 50.9011 165.055 50.5568 165.286 50.2691C165.524 49.9727 165.808 49.7503 166.136 49.6022C166.472 49.4452 166.845 49.3668 167.255 49.3668C167.8 49.3668 168.27 49.5019 168.665 49.7722C169.068 50.0425 169.381 50.426 169.605 50.923C169.829 51.4111 169.941 51.9953 169.941 52.6753C169.941 53.181 169.877 53.6387 169.75 54.0484C169.624 54.4581 169.441 54.8069 169.202 55.0946C168.971 55.3823 168.687 55.6046 168.352 55.7615C168.024 55.9097 167.658 55.9838 167.255 55.9838ZM167.255 54.9638C167.561 54.9638 167.829 54.8766 168.061 54.7023C168.292 54.5279 168.471 54.2707 168.598 53.9307C168.732 53.5907 168.799 53.1722 168.799 52.6753C168.799 51.9256 168.657 51.3588 168.374 50.9753C168.091 50.5917 167.717 50.3999 167.255 50.3999C166.942 50.3999 166.67 50.4871 166.438 50.6614C166.207 50.8271 166.024 51.0799 165.89 51.4199C165.764 51.7599 165.7 52.1784 165.7 52.6753C165.7 53.4164 165.842 53.983 166.125 54.3753C166.408 54.7677 166.785 54.9638 167.255 54.9638ZM173.103 55.9577C172.946 55.9577 172.808 55.9141 172.689 55.8269C172.577 55.731 172.487 55.5828 172.42 55.3823L170.776 50.2953C170.716 50.1209 170.697 49.9683 170.72 49.8376C170.742 49.698 170.798 49.5891 170.887 49.5106C170.985 49.4322 171.108 49.3929 171.257 49.3929C171.391 49.3929 171.499 49.4322 171.581 49.5106C171.671 49.5803 171.745 49.7199 171.805 49.9291L173.271 54.7546H173.002L174.524 49.8768C174.576 49.7111 174.647 49.5891 174.736 49.5106C174.826 49.4322 174.942 49.3929 175.083 49.3929C175.225 49.3929 175.341 49.4322 175.43 49.5106C175.527 49.5891 175.598 49.7111 175.643 49.8768L177.131 54.7546H176.885L178.373 49.9029C178.433 49.7024 178.507 49.5673 178.597 49.4975C178.694 49.4278 178.802 49.3929 178.921 49.3929C179.071 49.3929 179.183 49.4365 179.257 49.5237C179.339 49.6109 179.384 49.7242 179.391 49.8637C179.406 49.9945 179.387 50.1383 179.335 50.2953L177.69 55.3823C177.623 55.5741 177.53 55.718 177.411 55.8138C177.299 55.9097 177.169 55.9577 177.019 55.9577C176.862 55.9577 176.724 55.9097 176.605 55.8138C176.493 55.718 176.404 55.5741 176.336 55.3823L174.77 50.426H175.329L173.774 55.3823C173.715 55.5741 173.625 55.718 173.506 55.8138C173.394 55.9097 173.259 55.9577 173.103 55.9577ZM181.134 55.9577C180.955 55.9577 180.816 55.901 180.72 55.7877C180.622 55.6656 180.574 55.5 180.574 55.2907V50.0599C180.574 49.8419 180.622 49.6763 180.72 49.5629C180.816 49.4496 180.95 49.3929 181.122 49.3929C181.301 49.3929 181.436 49.4496 181.525 49.5629C181.622 49.6763 181.671 49.8419 181.671 50.0599V51.0799L181.548 50.8445C181.711 50.3563 181.969 49.9901 182.32 49.746C182.67 49.4932 183.073 49.3668 183.528 49.3668C183.96 49.3668 184.318 49.4626 184.602 49.6545C184.893 49.8376 185.109 50.1209 185.251 50.5045C185.392 50.8794 185.464 51.3545 185.464 51.9299V55.2907C185.464 55.5 185.415 55.6656 185.318 55.7877C185.221 55.901 185.083 55.9577 184.904 55.9577C184.718 55.9577 184.576 55.901 184.479 55.7877C184.382 55.6656 184.334 55.5 184.334 55.2907V52.0084C184.334 51.4591 184.24 51.0581 184.054 50.8053C183.875 50.5525 183.591 50.426 183.204 50.426C182.748 50.426 182.383 50.5917 182.107 50.923C181.838 51.2542 181.704 51.6988 181.704 52.2568V55.2907C181.704 55.7354 181.514 55.9577 181.134 55.9577ZM188.777 55.9838C188.195 55.9838 187.755 55.7877 187.457 55.3954C187.166 54.9943 187.02 54.4189 187.02 53.6692V47.2221C187.02 47.0041 187.069 46.8385 187.166 46.7252C187.263 46.6118 187.401 46.5552 187.58 46.5552C187.759 46.5552 187.897 46.6118 187.994 46.7252C188.099 46.8385 188.15 47.0041 188.15 47.2221V53.5907C188.15 54.0266 188.225 54.3535 188.374 54.5715C188.531 54.7807 188.755 54.8853 189.045 54.8853C189.113 54.8853 189.173 54.8853 189.224 54.8853C189.277 54.8766 189.329 54.8679 189.381 54.8592C189.471 54.8505 189.534 54.881 189.571 54.9507C189.609 55.0118 189.627 55.1426 189.627 55.3431C189.627 55.5261 189.594 55.67 189.527 55.7746C189.459 55.8705 189.352 55.9315 189.202 55.9577C189.135 55.9664 189.064 55.9708 188.99 55.9708C188.915 55.9795 188.844 55.9838 188.777 55.9838ZM192.758 55.9838C192.206 55.9838 191.729 55.8487 191.326 55.5784C190.93 55.3082 190.621 54.9246 190.397 54.4276C190.173 53.9307 190.062 53.3466 190.062 52.6753C190.062 52.161 190.124 51.7033 190.252 51.3022C190.378 50.9011 190.557 50.5568 190.789 50.2691C191.027 49.9727 191.311 49.7503 191.639 49.6022C191.975 49.4452 192.348 49.3668 192.758 49.3668C193.302 49.3668 193.772 49.5019 194.168 49.7722C194.571 50.0425 194.884 50.426 195.108 50.923C195.331 51.4111 195.443 51.9953 195.443 52.6753C195.443 53.181 195.38 53.6387 195.253 54.0484C195.126 54.4581 194.943 54.8069 194.705 55.0946C194.473 55.3823 194.19 55.6046 193.855 55.7615C193.526 55.9097 193.161 55.9838 192.758 55.9838ZM192.758 54.9638C193.064 54.9638 193.332 54.8766 193.564 54.7023C193.794 54.5279 193.973 54.2707 194.101 53.9307C194.235 53.5907 194.302 53.1722 194.302 52.6753C194.302 51.9256 194.16 51.3588 193.877 50.9753C193.593 50.5917 193.22 50.3999 192.758 50.3999C192.445 50.3999 192.172 50.4871 191.941 50.6614C191.71 50.8271 191.527 51.0799 191.393 51.4199C191.266 51.7599 191.203 52.1784 191.203 52.6753C191.203 53.4164 191.344 53.983 191.628 54.3753C191.911 54.7677 192.288 54.9638 192.758 54.9638ZM198.458 55.9838C198.078 55.9838 197.734 55.8966 197.429 55.7223C197.13 55.548 196.895 55.3126 196.724 55.0161C196.552 54.7197 196.466 54.3841 196.466 54.0092C196.466 53.5384 196.567 53.1679 196.769 52.8976C196.977 52.6187 197.317 52.4225 197.787 52.3091C198.264 52.1871 198.906 52.1261 199.711 52.1261H200.237V52.9368H199.722C199.185 52.9368 198.76 52.9673 198.447 53.0284C198.134 53.0894 197.91 53.1941 197.776 53.3422C197.648 53.4818 197.585 53.6779 197.585 53.9307C197.585 54.262 197.682 54.5323 197.876 54.7415C198.07 54.942 198.338 55.0423 198.682 55.0423C198.957 55.0423 199.2 54.9681 199.409 54.82C199.617 54.663 199.782 54.4538 199.901 54.1923C200.028 53.9307 200.092 53.6299 200.092 53.2899V51.7861C200.092 51.2891 200.002 50.9317 199.823 50.7137C199.644 50.4957 199.349 50.3868 198.939 50.3868C198.7 50.3868 198.45 50.4217 198.19 50.4914C197.936 50.5611 197.671 50.6788 197.395 50.8445C197.268 50.9142 197.16 50.936 197.071 50.9099C196.981 50.8837 196.91 50.8271 196.858 50.7399C196.806 50.644 196.776 50.5437 196.769 50.4391C196.769 50.3257 196.791 50.2168 196.836 50.1122C196.887 50.0076 196.973 49.9291 197.093 49.8768C197.421 49.6937 197.745 49.5629 198.066 49.4845C198.387 49.406 198.689 49.3668 198.973 49.3668C199.472 49.3668 199.883 49.4583 200.204 49.6414C200.531 49.8245 200.774 50.1034 200.931 50.4783C201.087 50.8532 201.166 51.3371 201.166 51.9299V55.2907C201.166 55.5 201.121 55.6656 201.031 55.7877C200.942 55.901 200.811 55.9577 200.64 55.9577C200.476 55.9577 200.345 55.901 200.248 55.7877C200.151 55.6656 200.103 55.5 200.103 55.2907V54.4407H200.204C200.143 54.7633 200.031 55.0423 199.868 55.2777C199.711 55.5043 199.513 55.6787 199.275 55.8008C199.036 55.9228 198.764 55.9838 198.458 55.9838ZM204.803 55.9838C204.326 55.9838 203.904 55.8531 203.538 55.5915C203.18 55.3212 202.901 54.9377 202.699 54.4407C202.498 53.935 202.397 53.3466 202.397 52.6753C202.397 51.9865 202.498 51.3981 202.699 50.9099C202.901 50.4217 203.18 50.0425 203.538 49.7722C203.904 49.5019 204.326 49.3668 204.803 49.3668C205.28 49.3668 205.691 49.5063 206.034 49.7852C206.385 50.0555 206.62 50.4217 206.738 50.8837H206.615V47.2221C206.615 47.0041 206.664 46.8385 206.761 46.7252C206.858 46.6118 206.996 46.5552 207.175 46.5552C207.354 46.5552 207.492 46.6118 207.589 46.7252C207.694 46.8385 207.745 47.0041 207.745 47.2221V55.2907C207.745 55.5 207.697 55.6656 207.6 55.7877C207.504 55.901 207.365 55.9577 207.186 55.9577C207.007 55.9577 206.869 55.901 206.772 55.7877C206.676 55.6656 206.627 55.5 206.627 55.2907V54.1399L206.75 54.4276C206.631 54.8984 206.396 55.2777 206.045 55.5654C205.702 55.8443 205.288 55.9838 204.803 55.9838ZM205.094 54.9638C205.4 54.9638 205.669 54.8766 205.899 54.7023C206.131 54.5279 206.31 54.2707 206.436 53.9307C206.571 53.5907 206.638 53.1722 206.638 52.6753C206.638 51.9256 206.497 51.3588 206.213 50.9753C205.929 50.5917 205.557 50.3999 205.094 50.3999C204.78 50.3999 204.508 50.4871 204.277 50.6614C204.046 50.8271 203.863 51.0799 203.729 51.4199C203.602 51.7599 203.538 52.1784 203.538 52.6753C203.538 53.4164 203.68 53.983 203.964 54.3753C204.248 54.7677 204.624 54.9638 205.094 54.9638ZM212.987 55.9577C212.801 55.9577 212.656 55.8966 212.551 55.7746C212.455 55.6526 212.406 55.4826 212.406 55.2646V47.3398C212.406 47.1132 212.458 46.9432 212.562 46.8298C212.667 46.7078 212.813 46.6467 212.999 46.6467H215.673C216.523 46.6467 217.18 46.8821 217.642 47.3529C218.105 47.8237 218.336 48.4906 218.336 49.3537C218.336 49.9117 218.231 50.3911 218.022 50.7922C217.814 51.1932 217.508 51.4984 217.105 51.7076C216.71 51.9168 216.232 52.0214 215.673 52.0214L215.773 51.8384H216.064C216.363 51.8384 216.62 51.9256 216.836 52.0999C217.06 52.2742 217.262 52.5533 217.441 52.9368L218.403 55.0292C218.478 55.1861 218.511 55.3387 218.504 55.4869C218.504 55.6264 218.459 55.7397 218.369 55.8269C218.287 55.9141 218.168 55.9577 218.011 55.9577C217.848 55.9577 217.713 55.9184 217.608 55.84C217.512 55.7528 217.422 55.6264 217.34 55.4607L216.165 52.9238C216.008 52.5838 215.829 52.3571 215.628 52.2438C215.427 52.1217 215.162 52.0607 214.834 52.0607H213.569V55.2646C213.569 55.4826 213.521 55.6526 213.424 55.7746C213.327 55.8966 213.182 55.9577 212.987 55.9577ZM213.569 51.0407H215.483C216.05 51.0407 216.478 50.9011 216.769 50.6222C217.06 50.3432 217.206 49.9291 217.206 49.3798C217.206 48.8394 217.06 48.4295 216.769 48.1506C216.478 47.8716 216.05 47.7321 215.483 47.7321H213.569V51.0407ZM222.286 55.9838C221.69 55.9838 221.175 55.8531 220.742 55.5915C220.317 55.3212 219.985 54.942 219.746 54.4538C219.515 53.9569 219.399 53.3684 219.399 52.6884C219.399 52.0258 219.515 51.446 219.746 50.9491C219.978 50.4522 220.294 50.0642 220.697 49.7852C221.1 49.5063 221.559 49.3668 222.073 49.3668C222.454 49.3668 222.793 49.4409 223.092 49.5891C223.39 49.7286 223.643 49.9378 223.852 50.2168C224.069 50.4871 224.229 50.8183 224.334 51.2107C224.445 51.603 224.501 52.0433 224.501 52.5315C224.501 52.6796 224.464 52.793 224.39 52.8715C224.315 52.9412 224.203 52.9761 224.054 52.9761H220.294V52.1653H223.741L223.55 52.3484C223.55 51.9125 223.494 51.5419 223.383 51.2368C223.278 50.9317 223.117 50.7006 222.901 50.5437C222.692 50.378 222.431 50.2953 222.118 50.2953C221.768 50.2953 221.469 50.3911 221.223 50.583C220.985 50.7748 220.801 51.0407 220.675 51.3807C220.548 51.7207 220.485 52.1173 220.485 52.5707V52.6491C220.485 53.4164 220.638 53.9961 220.943 54.3884C221.257 54.772 221.708 54.9638 222.297 54.9638C222.521 54.9638 222.756 54.9289 223.002 54.8592C223.256 54.7895 223.494 54.6718 223.718 54.5061C223.845 54.4189 223.957 54.3797 224.054 54.3884C224.158 54.3972 224.241 54.4364 224.3 54.5061C224.367 54.5758 224.408 54.663 224.423 54.7677C224.438 54.8723 224.423 54.9812 224.378 55.0946C224.334 55.1992 224.255 55.2951 224.143 55.3823C223.89 55.5828 223.595 55.7354 223.259 55.84C222.924 55.9359 222.599 55.9838 222.286 55.9838ZM226.293 58.3116C226.114 58.3116 225.976 58.2549 225.879 58.1416C225.782 58.0282 225.734 57.8626 225.734 57.6446V50.0599C225.734 49.8419 225.782 49.6763 225.879 49.5629C225.976 49.4496 226.11 49.3929 226.282 49.3929C226.461 49.3929 226.599 49.4496 226.696 49.5629C226.792 49.6763 226.841 49.8419 226.841 50.0599V51.1976L226.718 50.923C226.837 50.4522 227.072 50.0773 227.423 49.7983C227.773 49.5106 228.187 49.3668 228.665 49.3668C229.15 49.3668 229.571 49.5019 229.929 49.7722C230.294 50.0425 230.574 50.4217 230.769 50.9099C230.97 51.3981 231.071 51.9865 231.071 52.6753C231.071 53.3466 230.97 53.935 230.769 54.4407C230.574 54.9377 230.299 55.3212 229.941 55.5915C229.583 55.8531 229.157 55.9838 228.665 55.9838C228.195 55.9838 227.785 55.8443 227.434 55.5654C227.083 55.2864 226.848 54.9158 226.729 54.4538H226.864V57.6446C226.864 57.8626 226.811 58.0282 226.707 58.1416C226.61 58.2549 226.472 58.3116 226.293 58.3116ZM228.385 54.9638C228.699 54.9638 228.971 54.8766 229.202 54.7023C229.433 54.5279 229.612 54.2707 229.739 53.9307C229.866 53.5907 229.929 53.1722 229.929 52.6753C229.929 51.9256 229.787 51.3588 229.504 50.9753C229.228 50.5917 228.855 50.3999 228.385 50.3999C228.079 50.3999 227.807 50.4871 227.569 50.6614C227.337 50.8271 227.158 51.0799 227.031 51.4199C226.904 51.7599 226.841 52.1784 226.841 52.6753C226.841 53.4164 226.983 53.983 227.266 54.3753C227.55 54.7677 227.922 54.9638 228.385 54.9638ZM234.716 55.9838C234.164 55.9838 233.687 55.8487 233.284 55.5784C232.888 55.3082 232.579 54.9246 232.355 54.4276C232.131 53.9307 232.02 53.3466 232.02 52.6753C232.02 52.161 232.083 51.7033 232.21 51.3022C232.336 50.9011 232.515 50.5568 232.747 50.2691C232.985 49.9727 233.269 49.7503 233.597 49.6022C233.933 49.4452 234.306 49.3668 234.716 49.3668C235.26 49.3668 235.73 49.5019 236.126 49.7722C236.529 50.0425 236.842 50.426 237.066 50.923C237.29 51.4111 237.401 51.9953 237.401 52.6753C237.401 53.181 237.338 53.6387 237.211 54.0484C237.084 54.4581 236.901 54.8069 236.663 55.0946C236.431 55.3823 236.148 55.6046 235.813 55.7615C235.484 55.9097 235.119 55.9838 234.716 55.9838ZM234.716 54.9638C235.022 54.9638 235.29 54.8766 235.522 54.7023C235.752 54.5279 235.931 54.2707 236.059 53.9307C236.193 53.5907 236.26 53.1722 236.26 52.6753C236.26 51.9256 236.118 51.3588 235.835 50.9753C235.551 50.5917 235.178 50.3999 234.716 50.3999C234.403 50.3999 234.13 50.4871 233.899 50.6614C233.668 50.8271 233.485 51.0799 233.351 51.4199C233.224 51.7599 233.161 52.1784 233.161 52.6753C233.161 53.4164 233.302 53.983 233.586 54.3753C233.869 54.7677 234.246 54.9638 234.716 54.9638ZM239.241 55.9577C239.055 55.9577 238.913 55.901 238.816 55.7877C238.719 55.6656 238.671 55.5 238.671 55.2907V50.0599C238.671 49.8419 238.719 49.6763 238.816 49.5629C238.913 49.4496 239.047 49.3929 239.219 49.3929C239.398 49.3929 239.532 49.4496 239.622 49.5629C239.718 49.6763 239.767 49.8419 239.767 50.0599V51.0145H239.655C239.774 50.4914 239.994 50.0948 240.315 49.8245C240.636 49.5542 241.046 49.3973 241.546 49.3537C241.68 49.345 241.785 49.3842 241.859 49.4714C241.941 49.5586 241.986 49.6937 241.994 49.8768C242.008 50.0599 241.975 50.208 241.893 50.3214C241.811 50.426 241.684 50.4871 241.513 50.5045L241.3 50.5306C240.815 50.583 240.445 50.7617 240.192 51.0668C239.938 51.3719 239.812 51.7904 239.812 52.3222V55.2907C239.812 55.5 239.763 55.6656 239.666 55.7877C239.577 55.901 239.435 55.9577 239.241 55.9577ZM245.478 55.9838C245.03 55.9838 244.653 55.8923 244.348 55.7092C244.042 55.5261 243.814 55.2558 243.665 54.8984C243.516 54.541 243.441 54.105 243.441 53.5907V50.5045H242.77C242.621 50.5045 242.505 50.4609 242.423 50.3737C242.341 50.2778 242.3 50.1514 242.3 49.9945C242.3 49.8288 242.341 49.7024 242.423 49.6152C242.505 49.528 242.621 49.4845 242.77 49.4845H243.441V48.1375C243.441 47.9195 243.49 47.7539 243.587 47.6406C243.691 47.5272 243.833 47.4706 244.012 47.4706C244.191 47.4706 244.329 47.5272 244.426 47.6406C244.523 47.7539 244.571 47.9195 244.571 48.1375V49.4845H245.88C246.029 49.4845 246.145 49.528 246.227 49.6152C246.309 49.7024 246.35 49.8288 246.35 49.9945C246.35 50.1514 246.309 50.2778 246.227 50.3737C246.145 50.4609 246.029 50.5045 245.88 50.5045H244.571V53.4861C244.571 53.9481 244.653 54.2969 244.817 54.5323C244.989 54.7677 245.265 54.8853 245.645 54.8853C245.78 54.8853 245.895 54.8723 245.992 54.8461C246.097 54.8112 246.183 54.7895 246.25 54.7807C246.331 54.7807 246.399 54.8156 246.451 54.8853C246.504 54.9464 246.529 55.0684 246.529 55.2515C246.529 55.3823 246.507 55.5043 246.462 55.6177C246.425 55.731 246.354 55.8051 246.25 55.84C246.16 55.8749 246.037 55.9054 245.88 55.9315C245.731 55.9664 245.597 55.9838 245.478 55.9838Z" fill="#171717"/>
<path d="M132.184 31.7551H258.337C259.711 31.7551 260.369 31.7558 260.919 31.8267C265.638 32.4356 269.363 36.7903 269.884 42.3059C269.945 42.9485 269.946 43.7177 269.946 45.3227V57.4191C269.946 59.0241 269.945 59.7934 269.884 60.436C269.363 65.9516 265.638 70.3062 260.919 70.9151C260.369 70.9861 259.711 70.9867 258.337 70.9867H132.184V31.7551Z" stroke="#FEDBD2"/>
<g filter="url(#filter1_d_14719_58392)">
<path d="M29.7363 45.3227C29.7363 43.7287 29.7363 42.9316 29.7997 42.261C30.3386 36.5552 34.1929 32.0504 39.0748 31.4205C39.6486 31.3464 40.3305 31.3464 41.6944 31.3464H131.065C132.429 31.3464 133.11 31.3464 133.685 31.4205C138.566 32.0504 142.421 36.5552 142.959 42.261C143.023 42.9316 143.023 43.7287 143.023 45.3227V57.4191C143.023 59.0131 143.023 59.8102 142.959 60.4808C142.421 66.1866 138.566 70.6914 133.685 71.3213C133.11 71.3954 132.429 71.3954 131.065 71.3954H41.6944C40.3305 71.3954 39.6486 71.3954 39.0748 71.3213C34.1929 70.6914 30.3386 66.1866 29.7997 60.4808C29.7363 59.8102 29.7363 59.0131 29.7363 57.4191V45.3227Z" fill="#F97B5C"/>
<path d="M48.6269 55.9839C47.769 55.9839 47.0455 55.7965 46.4562 55.4215C45.8669 55.038 45.4194 54.4931 45.1136 53.7869C44.8152 53.0807 44.666 52.2395 44.666 51.263C44.666 50.5307 44.7517 49.8768 44.9234 49.3014C45.1024 48.7173 45.3559 48.2203 45.6842 47.8106C46.0199 47.3921 46.4264 47.074 46.9038 46.856C47.3886 46.638 47.9369 46.5291 48.5485 46.5291C48.9961 46.5291 49.4362 46.5988 49.8688 46.7383C50.3014 46.8691 50.6968 47.087 51.0548 47.3921C51.1592 47.4794 51.2264 47.5796 51.2562 47.6929C51.286 47.8063 51.286 47.924 51.2562 48.046C51.2338 48.1594 51.1853 48.2596 51.1108 48.3468C51.0436 48.434 50.9578 48.4863 50.8534 48.5037C50.7564 48.5211 50.6483 48.4863 50.529 48.3991C50.238 48.1637 49.9322 47.9937 49.6115 47.8891C49.2907 47.7757 48.9364 47.7191 48.5485 47.7191C47.9667 47.7191 47.4744 47.8586 47.0716 48.1375C46.6762 48.4165 46.3779 48.8219 46.1765 49.3537C45.9751 49.8768 45.8744 50.5133 45.8744 51.263C45.8744 52.4225 46.1094 53.303 46.5793 53.9046C47.0492 54.5061 47.7466 54.8069 48.6716 54.8069C49.0073 54.8069 49.3355 54.772 49.6562 54.7023C49.9844 54.6238 50.2977 54.5149 50.5961 54.3754L50.3611 55.0554V52.0084H48.9178C48.7685 52.0084 48.6492 51.9648 48.5597 51.8776C48.4776 51.7818 48.4366 51.651 48.4366 51.4853C48.4366 51.3196 48.4776 51.1976 48.5597 51.1192C48.6492 51.0319 48.7685 50.9884 48.9178 50.9884H50.8534C51.0101 50.9884 51.1294 51.0364 51.2115 51.1322C51.2935 51.2281 51.3345 51.3676 51.3345 51.5507V54.8462C51.3345 55.0031 51.3084 55.1382 51.2562 55.2515C51.2115 55.3562 51.1331 55.4346 51.0213 55.4869C50.7005 55.6351 50.3238 55.7572 49.8912 55.8531C49.4585 55.9403 49.0371 55.9839 48.6269 55.9839ZM55.5577 55.9839C54.961 55.9839 54.4463 55.8531 54.0136 55.5916C53.5885 55.3213 53.2565 54.942 53.0178 54.4538C52.7866 53.9569 52.671 53.3684 52.671 52.6884C52.671 52.0258 52.7866 51.4461 53.0178 50.9491C53.2491 50.4522 53.5661 50.0642 53.9689 49.7853C54.3717 49.5063 54.8304 49.3668 55.3451 49.3668C55.7255 49.3668 56.0649 49.4409 56.3633 49.5891C56.6617 49.7286 56.9152 49.9379 57.1241 50.2168C57.3404 50.4871 57.5008 50.8184 57.6052 51.2107C57.7171 51.603 57.7731 52.0433 57.7731 52.5315C57.7731 52.6797 57.7358 52.793 57.6612 52.8715C57.5866 52.9412 57.4747 52.9761 57.3255 52.9761H53.5661V52.1653H57.0122L56.822 52.3484C56.822 51.9125 56.7661 51.542 56.6542 51.2368C56.5498 50.9317 56.3894 50.7007 56.1731 50.5438C55.9642 50.3781 55.7031 50.2953 55.3899 50.2953C55.0393 50.2953 54.7409 50.3912 54.4948 50.583C54.2561 50.7748 54.0733 51.0407 53.9465 51.3807C53.8197 51.7207 53.7563 52.1173 53.7563 52.5707V52.6492C53.7563 53.4164 53.9092 53.9961 54.215 54.3885C54.5283 54.772 54.9796 54.9638 55.5689 54.9638C55.7927 54.9638 56.0276 54.9289 56.2738 54.8592C56.5274 54.7895 56.7661 54.6718 56.9899 54.5061C57.1166 54.4189 57.2285 54.3797 57.3255 54.3885C57.4299 54.3972 57.512 54.4364 57.5717 54.5061C57.6388 54.5759 57.6799 54.6631 57.6948 54.7677C57.7097 54.8723 57.6948 54.9813 57.65 55.0946C57.6052 55.1992 57.5269 55.2951 57.415 55.3823C57.1614 55.5828 56.8668 55.7354 56.5311 55.84C56.1955 55.9359 55.871 55.9839 55.5577 55.9839ZM59.5645 55.9577C59.3855 55.9577 59.2475 55.9011 59.1506 55.7877C59.0536 55.6657 59.0051 55.5 59.0051 55.2908V50.0599C59.0051 49.8419 59.0536 49.6763 59.1506 49.563C59.2475 49.4496 59.3818 49.393 59.5534 49.393C59.7324 49.393 59.8666 49.4496 59.9562 49.563C60.0531 49.6763 60.1016 49.8419 60.1016 50.0599V51.0799L59.9785 50.8445C60.1426 50.3563 60.3999 49.9902 60.7506 49.746C61.1011 49.4932 61.5039 49.3668 61.959 49.3668C62.3915 49.3668 62.7496 49.4627 63.0331 49.6545C63.324 49.8376 63.5403 50.1209 63.682 50.5045C63.8237 50.8794 63.8946 51.3545 63.8946 51.9299V55.2908C63.8946 55.5 63.8461 55.6657 63.7492 55.7877C63.6522 55.9011 63.5142 55.9577 63.3352 55.9577C63.1487 55.9577 63.0069 55.9011 62.91 55.7877C62.813 55.6657 62.7645 55.5 62.7645 55.2908V52.0084C62.7645 51.4592 62.6713 51.0581 62.4848 50.8053C62.3058 50.5525 62.0223 50.4261 61.6345 50.4261C61.1794 50.4261 60.8139 50.5917 60.538 50.923C60.2694 51.2543 60.1352 51.6989 60.1352 52.2569V55.2908C60.1352 55.7354 59.945 55.9577 59.5645 55.9577ZM68.014 55.9839C67.4173 55.9839 66.9026 55.8531 66.4699 55.5916C66.0448 55.3213 65.7128 54.942 65.4741 54.4538C65.2429 53.9569 65.1273 53.3684 65.1273 52.6884C65.1273 52.0258 65.2429 51.4461 65.4741 50.9491C65.7054 50.4522 66.0224 50.0642 66.4252 49.7853C66.828 49.5063 67.2867 49.3668 67.8014 49.3668C68.1818 49.3668 68.5212 49.4409 68.8196 49.5891C69.118 49.7286 69.3715 49.9379 69.5804 50.2168C69.7967 50.4871 69.9571 50.8184 70.0615 51.2107C70.1734 51.603 70.2294 52.0433 70.2294 52.5315C70.2294 52.6797 70.1921 52.793 70.1175 52.8715C70.0429 52.9412 69.931 52.9761 69.7818 52.9761H66.0224V52.1653H69.4685L69.2783 52.3484C69.2783 51.9125 69.2224 51.542 69.1105 51.2368C69.0061 50.9317 68.8457 50.7007 68.6294 50.5438C68.4205 50.3781 68.1594 50.2953 67.8462 50.2953C67.4956 50.2953 67.1972 50.3912 66.951 50.583C66.7124 50.7748 66.5296 51.0407 66.4028 51.3807C66.276 51.7207 66.2126 52.1173 66.2126 52.5707V52.6492C66.2126 53.4164 66.3655 53.9961 66.6713 54.3885C66.9846 54.772 67.4359 54.9638 68.0252 54.9638C68.249 54.9638 68.4839 54.9289 68.7301 54.8592C68.9837 54.7895 69.2224 54.6718 69.4462 54.5061C69.5729 54.4189 69.6848 54.3797 69.7818 54.3885C69.8862 54.3972 69.9683 54.4364 70.028 54.5061C70.0951 54.5759 70.1362 54.6631 70.1511 54.7677C70.1659 54.8723 70.151 54.9813 70.1063 55.0946C70.0615 55.1992 69.9832 55.2951 69.8713 55.3823C69.6177 55.5828 69.3231 55.7354 68.9874 55.84C68.6517 55.9359 68.3273 55.9839 68.014 55.9839ZM72.032 55.9577C71.8455 55.9577 71.7038 55.9011 71.6069 55.7877C71.5099 55.6657 71.4614 55.5 71.4614 55.2908V50.0599C71.4614 49.8419 71.5099 49.6763 71.6069 49.563C71.7038 49.4496 71.838 49.393 72.0097 49.393C72.1887 49.393 72.3229 49.4496 72.4124 49.563C72.5094 49.6763 72.5579 49.8419 72.5579 50.0599V51.0145H72.446C72.5653 50.4914 72.7854 50.0948 73.1062 49.8245C73.4269 49.5542 73.8371 49.3973 74.3369 49.3537C74.4712 49.345 74.5756 49.3842 74.6502 49.4714C74.7322 49.5586 74.777 49.6937 74.7845 49.8768C74.7994 50.0599 74.7658 50.2081 74.6838 50.3214C74.6017 50.4261 74.4749 50.4871 74.3034 50.5045L74.0908 50.5307C73.6059 50.583 73.2366 50.7617 72.9831 51.0668C72.7294 51.3719 72.6027 51.7904 72.6027 52.3223V55.2908C72.6027 55.5 72.5541 55.6657 72.4572 55.7877C72.3677 55.9011 72.2259 55.9577 72.032 55.9577ZM77.3262 55.9839C76.9457 55.9839 76.6026 55.8967 76.2968 55.7223C75.9984 55.548 75.7634 55.3126 75.5919 55.0162C75.4203 54.7197 75.3345 54.3841 75.3345 54.0092C75.3345 53.5384 75.4352 53.1679 75.6366 52.8976C75.8455 52.6187 76.1849 52.4225 76.6548 52.3092C77.1322 52.1871 77.7737 52.1261 78.5793 52.1261H79.1052V52.9369H78.5905C78.0534 52.9369 77.6283 52.9674 77.315 53.0284C77.0017 53.0895 76.7779 53.1941 76.6436 53.3423C76.5168 53.4818 76.4534 53.6779 76.4534 53.9307C76.4534 54.262 76.5504 54.5323 76.7443 54.7415C76.9383 54.942 77.2068 55.0423 77.5499 55.0423C77.8259 55.0423 78.0683 54.9682 78.2772 54.82C78.486 54.6631 78.6501 54.4538 78.7695 54.1923C78.8963 53.9307 78.9597 53.63 78.9597 53.29V51.7861C78.9597 51.2892 78.8702 50.9317 78.6912 50.7138C78.5122 50.4958 78.2175 50.3868 77.8073 50.3868C77.5685 50.3868 77.3187 50.4217 77.0576 50.4914C76.804 50.5612 76.5392 50.6789 76.2632 50.8445C76.1364 50.9142 76.0283 50.9361 75.9387 50.9099C75.8492 50.8838 75.7783 50.8271 75.7262 50.7399C75.6739 50.644 75.6441 50.5438 75.6366 50.4391C75.6366 50.3258 75.659 50.2168 75.7038 50.1122C75.7559 50.0076 75.8417 49.9291 75.9611 49.8768C76.2893 49.6937 76.6138 49.563 76.9345 49.4845C77.2552 49.406 77.5573 49.3668 77.8408 49.3668C78.3406 49.3668 78.7508 49.4583 79.0716 49.6414C79.3998 49.8245 79.6422 50.1035 79.7989 50.4784C79.9555 50.8533 80.0338 51.3371 80.0338 51.9299V55.2908C80.0338 55.5 79.9891 55.6657 79.8996 55.7877C79.8101 55.9011 79.6795 55.9577 79.508 55.9577C79.3438 55.9577 79.2133 55.9011 79.1164 55.7877C79.0194 55.6657 78.9709 55.5 78.9709 55.2908V54.4408H79.0716C79.0119 54.7634 78.9 55.0423 78.7359 55.2777C78.5793 55.5043 78.3816 55.6788 78.1429 55.8008C77.9042 55.9228 77.632 55.9839 77.3262 55.9839ZM83.9175 55.9839C83.47 55.9839 83.0934 55.8923 82.7875 55.7092C82.4817 55.5262 82.2542 55.2559 82.105 54.8985C81.9558 54.541 81.8812 54.1051 81.8812 53.5907V50.5045H81.2099C81.0607 50.5045 80.9451 50.461 80.863 50.3737C80.781 50.2779 80.7399 50.1514 80.7399 49.9945C80.7399 49.8288 80.781 49.7025 80.863 49.6153C80.9451 49.5281 81.0607 49.4845 81.2099 49.4845H81.8812V48.1375C81.8812 47.9196 81.9297 47.754 82.0266 47.6406C82.1311 47.5273 82.2728 47.4706 82.4518 47.4706C82.6308 47.4706 82.7689 47.5273 82.8658 47.6406C82.9628 47.754 83.0113 47.9196 83.0113 48.1375V49.4845H84.3204C84.4696 49.4845 84.5852 49.5281 84.6672 49.6153C84.7493 49.7025 84.7903 49.8288 84.7903 49.9945C84.7903 50.1514 84.7493 50.2779 84.6672 50.3737C84.5852 50.461 84.4696 50.5045 84.3204 50.5045H83.0113V53.4861C83.0113 53.9482 83.0934 54.2969 83.2574 54.5323C83.429 54.7677 83.705 54.8854 84.0854 54.8854C84.2196 54.8854 84.3353 54.8723 84.4322 54.8462C84.5367 54.8113 84.6224 54.7895 84.6896 54.7808C84.7717 54.7808 84.8388 54.8157 84.891 54.8854C84.9432 54.9464 84.9693 55.0685 84.9693 55.2515C84.9693 55.3823 84.9469 55.5043 84.9022 55.6177C84.8649 55.7311 84.7941 55.8051 84.6896 55.84C84.6001 55.8749 84.477 55.9054 84.3204 55.9316C84.1712 55.9665 84.0369 55.9839 83.9175 55.9839ZM88.1843 55.9839C87.5878 55.9839 87.0731 55.8531 86.6402 55.5916C86.215 55.3213 85.8836 54.942 85.6446 54.4538C85.4134 53.9569 85.2978 53.3684 85.2978 52.6884C85.2978 52.0258 85.4134 51.4461 85.6446 50.9491C85.8759 50.4522 86.1927 50.0642 86.5955 49.7853C86.9982 49.5063 87.457 49.3668 87.9717 49.3668C88.3521 49.3668 88.692 49.4409 88.9899 49.5891C89.2885 49.7286 89.5423 49.9379 89.7507 50.2168C89.9675 50.4871 90.1276 50.8184 90.2318 51.2107C90.3437 51.603 90.3997 52.0433 90.3997 52.5315C90.3997 52.6797 90.3626 52.793 90.2878 52.8715C90.2136 52.9412 90.1017 52.9761 89.9521 52.9761H86.1927V52.1653H89.6388L89.4486 52.3484C89.4486 51.9125 89.3927 51.542 89.2808 51.2368C89.1766 50.9317 89.0164 50.7007 88.7996 50.5438C88.5913 50.3781 88.3297 50.2953 88.0164 50.2953C87.6661 50.2953 87.3675 50.3912 87.1213 50.583C86.8829 50.7748 86.7003 51.0407 86.5731 51.3807C86.4465 51.7207 86.3829 52.1173 86.3829 52.5707V52.6492C86.3829 53.4164 86.536 53.9961 86.8416 54.3885C87.1549 54.772 87.6066 54.9638 88.1955 54.9638C88.4192 54.9638 88.6542 54.9289 88.9004 54.8592C89.1542 54.7895 89.3927 54.6718 89.6164 54.5061C89.7437 54.4189 89.8556 54.3797 89.9521 54.3885C90.057 54.3972 90.1388 54.4364 90.1982 54.5061C90.2654 54.5759 90.3066 54.6631 90.3213 54.7677C90.3367 54.8723 90.3213 54.9813 90.2766 55.0946C90.2318 55.1992 90.1535 55.2951 90.0416 55.3823C89.7885 55.5828 89.4934 55.7354 89.1577 55.84C88.822 55.9359 88.4976 55.9839 88.1843 55.9839ZM95.2871 55.9577C95.1003 55.9577 94.9549 55.8967 94.8507 55.7746C94.7535 55.6526 94.7052 55.4826 94.7052 55.2646V47.3398C94.7052 47.1132 94.757 46.9432 94.8619 46.8298C94.9661 46.7078 95.1115 46.6467 95.2982 46.6467H97.9724C98.8227 46.6467 99.4787 46.8821 99.9416 47.3529C100.404 47.8237 100.635 48.4906 100.635 49.3537C100.635 49.9117 100.53 50.3912 100.322 50.7922C100.113 51.1933 99.8073 51.4984 99.4045 51.7076C99.0087 51.9169 98.5318 52.0215 97.9724 52.0215L98.0731 51.8384H98.364C98.6619 51.8384 98.9192 51.9256 99.136 52.0999C99.3598 52.2743 99.5612 52.5533 99.7402 52.9369L100.702 55.0292C100.777 55.1862 100.81 55.3388 100.803 55.4869C100.803 55.6265 100.758 55.7397 100.669 55.8269C100.586 55.9141 100.467 55.9577 100.311 55.9577C100.146 55.9577 100.012 55.9185 99.908 55.84C99.8108 55.7528 99.7213 55.6265 99.6395 55.4608L98.4647 52.9238C98.308 52.5838 98.129 52.3572 97.9276 52.2438C97.7262 52.1218 97.4612 52.0607 97.1332 52.0607H95.8689V55.2646C95.8689 55.4826 95.8199 55.6526 95.7234 55.7746C95.6262 55.8967 95.4808 55.9577 95.2871 55.9577ZM95.8689 51.0407H97.7822C98.3486 51.0407 98.778 50.9012 99.0689 50.6222C99.3598 50.3433 99.5052 49.9291 99.5052 49.3799C99.5052 48.8394 99.3598 48.4296 99.0689 48.1506C98.778 47.8717 98.3486 47.7322 97.7822 47.7322H95.8689V51.0407ZM104.585 55.9839C103.988 55.9839 103.474 55.8531 103.041 55.5916C102.616 55.3213 102.284 54.942 102.045 54.4538C101.814 53.9569 101.698 53.3684 101.698 52.6884C101.698 52.0258 101.814 51.4461 102.045 50.9491C102.277 50.4522 102.593 50.0642 102.996 49.7853C103.399 49.5063 103.858 49.3668 104.372 49.3668C104.753 49.3668 105.093 49.4409 105.391 49.5891C105.689 49.7286 105.943 49.9379 106.151 50.2168C106.368 50.4871 106.528 50.8184 106.633 51.2107C106.744 51.603 106.8 52.0433 106.8 52.5315C106.8 52.6797 106.763 52.793 106.688 52.8715C106.614 52.9412 106.502 52.9761 106.353 52.9761H102.593V52.1653H106.04L105.849 52.3484C105.849 51.9125 105.793 51.542 105.681 51.2368C105.577 50.9317 105.417 50.7007 105.2 50.5438C104.992 50.3781 104.73 50.2953 104.417 50.2953C104.067 50.2953 103.768 50.3912 103.522 50.583C103.284 50.7748 103.101 51.0407 102.974 51.3807C102.847 51.7207 102.784 52.1173 102.784 52.5707V52.6492C102.784 53.4164 102.937 53.9961 103.242 54.3885C103.556 54.772 104.007 54.9638 104.596 54.9638C104.82 54.9638 105.055 54.9289 105.301 54.8592C105.555 54.7895 105.793 54.6718 106.017 54.5061C106.144 54.4189 106.256 54.3797 106.353 54.3885C106.458 54.3972 106.54 54.4364 106.599 54.5061C106.666 54.5759 106.707 54.6631 106.722 54.7677C106.737 54.8723 106.722 54.9813 106.677 55.0946C106.633 55.1992 106.554 55.2951 106.442 55.3823C106.189 55.5828 105.894 55.7354 105.558 55.84C105.223 55.9359 104.898 55.9839 104.585 55.9839ZM108.592 58.3116C108.413 58.3116 108.275 58.255 108.178 58.1416C108.081 58.0282 108.033 57.8627 108.033 57.6447V50.0599C108.033 49.8419 108.081 49.6763 108.178 49.563C108.275 49.4496 108.409 49.393 108.581 49.393C108.76 49.393 108.898 49.4496 108.995 49.563C109.092 49.6763 109.14 49.8419 109.14 50.0599V51.1976L109.017 50.923C109.137 50.4522 109.372 50.0773 109.722 49.7984C110.072 49.5107 110.486 49.3668 110.964 49.3668C111.449 49.3668 111.87 49.5019 112.228 49.7722C112.594 50.0425 112.874 50.4217 113.067 50.9099C113.269 51.3981 113.37 51.9866 113.37 52.6753C113.37 53.3466 113.269 53.9351 113.067 54.4408C112.874 54.9377 112.598 55.3213 112.24 55.5916C111.881 55.8531 111.456 55.9839 110.964 55.9839C110.494 55.9839 110.084 55.8443 109.733 55.5654C109.383 55.2864 109.148 54.9159 109.028 54.4538H109.163V57.6447C109.163 57.8627 109.11 58.0282 109.006 58.1416C108.909 58.255 108.771 58.3116 108.592 58.3116ZM110.684 54.9638C110.998 54.9638 111.27 54.8766 111.501 54.7023C111.733 54.528 111.912 54.2708 112.038 53.9307C112.165 53.5907 112.228 53.1723 112.228 52.6753C112.228 51.9256 112.086 51.3589 111.803 50.9753C111.527 50.5917 111.154 50.3999 110.684 50.3999C110.379 50.3999 110.106 50.4871 109.867 50.6614C109.636 50.8271 109.457 51.0799 109.33 51.4199C109.204 51.7599 109.14 52.1784 109.14 52.6753C109.14 53.4164 109.282 53.9831 109.565 54.3754C109.849 54.7677 110.222 54.9638 110.684 54.9638ZM117.015 55.9839C116.463 55.9839 115.986 55.8488 115.583 55.5785C115.188 55.3082 114.878 54.9246 114.654 54.4277C114.43 53.9307 114.319 53.3466 114.319 52.6753C114.319 52.161 114.382 51.7033 114.509 51.3022C114.636 50.9012 114.815 50.5568 115.046 50.2691C115.285 49.9727 115.568 49.7504 115.896 49.6022C116.232 49.4453 116.605 49.3668 117.015 49.3668C117.56 49.3668 118.03 49.5019 118.425 49.7722C118.828 50.0425 119.141 50.4261 119.365 50.923C119.588 51.4112 119.7 51.9953 119.7 52.6753C119.7 53.181 119.637 53.6387 119.51 54.0484C119.384 54.4582 119.201 54.8069 118.962 55.0946C118.731 55.3823 118.447 55.6046 118.112 55.7616C117.784 55.9097 117.418 55.9839 117.015 55.9839ZM117.015 54.9638C117.321 54.9638 117.59 54.8766 117.821 54.7023C118.052 54.528 118.231 54.2708 118.358 53.9307C118.492 53.5907 118.559 53.1723 118.559 52.6753C118.559 51.9256 118.418 51.3589 118.134 50.9753C117.851 50.5917 117.478 50.3999 117.015 50.3999C116.702 50.3999 116.43 50.4871 116.198 50.6614C115.967 50.8271 115.784 51.0799 115.65 51.4199C115.523 51.7599 115.46 52.1784 115.46 52.6753C115.46 53.4164 115.602 53.9831 115.885 54.3754C116.169 54.7677 116.545 54.9638 117.015 54.9638ZM121.54 55.9577C121.353 55.9577 121.212 55.9011 121.115 55.7877C121.018 55.6657 120.97 55.5 120.97 55.2908V50.0599C120.97 49.8419 121.018 49.6763 121.115 49.563C121.212 49.4496 121.347 49.393 121.518 49.393C121.697 49.393 121.831 49.4496 121.921 49.563C122.018 49.6763 122.066 49.8419 122.066 50.0599V51.0145H121.954C122.074 50.4914 122.293 50.0948 122.614 49.8245C122.935 49.5542 123.345 49.3973 123.845 49.3537C123.979 49.345 124.084 49.3842 124.158 49.4714C124.24 49.5586 124.285 49.6937 124.293 49.8768C124.307 50.0599 124.274 50.2081 124.192 50.3214C124.11 50.4261 123.983 50.4871 123.812 50.5045L123.599 50.5307C123.114 50.583 122.745 50.7617 122.491 51.0668C122.237 51.3719 122.111 51.7904 122.111 52.3223V55.2908C122.111 55.5 122.063 55.6657 121.965 55.7877C121.876 55.9011 121.734 55.9577 121.54 55.9577ZM127.777 55.9839C127.329 55.9839 126.953 55.8923 126.646 55.7092C126.341 55.5262 126.114 55.2559 125.964 54.8985C125.815 54.541 125.74 54.1051 125.74 53.5907V50.5045H125.069C124.92 50.5045 124.805 50.461 124.722 50.3737C124.64 50.2779 124.599 50.1514 124.599 49.9945C124.599 49.8288 124.64 49.7025 124.722 49.6153C124.805 49.5281 124.92 49.4845 125.069 49.4845H125.74V48.1375C125.74 47.9196 125.789 47.754 125.886 47.6406C125.991 47.5273 126.132 47.4706 126.311 47.4706C126.49 47.4706 126.628 47.5273 126.725 47.6406C126.822 47.754 126.87 47.9196 126.87 48.1375V49.4845H128.179C128.329 49.4845 128.444 49.5281 128.526 49.6153C128.609 49.7025 128.649 49.8288 128.649 49.9945C128.649 50.1514 128.609 50.2779 128.526 50.3737C128.444 50.461 128.329 50.5045 128.179 50.5045H126.87V53.4861C126.87 53.9482 126.953 54.2969 127.116 54.5323C127.288 54.7677 127.564 54.8854 127.944 54.8854C128.079 54.8854 128.195 54.8723 128.291 54.8462C128.396 54.8113 128.481 54.7895 128.549 54.7808C128.631 54.7808 128.698 54.8157 128.75 54.8854C128.802 54.9464 128.828 55.0685 128.828 55.2515C128.828 55.3823 128.806 55.5043 128.761 55.6177C128.724 55.7311 128.653 55.8051 128.549 55.84C128.459 55.8749 128.336 55.9054 128.179 55.9316C128.03 55.9665 127.896 55.9839 127.777 55.9839Z" fill="white"/>
</g>
<path d="M401.764 79.5688H29.7363V255.294H401.764V79.5688Z" fill="#E5E5E5"/>
<g filter="url(#filter2_d_14719_58392)">
<path d="M398.268 79.5688H33.2328C31.3018 79.5688 29.7363 81.3985 29.7363 83.6555V251.207C29.7363 253.464 31.3018 255.294 33.2328 255.294H398.268C400.199 255.294 401.764 253.464 401.764 251.207V83.6555C401.764 81.3985 400.199 79.5688 398.268 79.5688Z" fill="white"/>
<path d="M178.688 95.9153H50.7157C46.8535 95.9153 43.7227 99.5746 43.7227 104.089V124.522C43.7227 129.036 46.8535 132.695 50.7157 132.695H178.688C182.55 132.695 185.681 129.036 185.681 124.522V104.089C185.681 99.5746 182.55 95.9153 178.688 95.9153Z" fill="#F9F9F9"/>
<path d="M54.7657 118.063C54.6351 118.063 54.534 118.021 54.4622 117.937C54.3969 117.846 54.3643 117.724 54.3643 117.571V110.397C54.3643 110.236 54.4001 110.118 54.472 110.042C54.5438 109.958 54.6449 109.916 54.7754 109.916H57.0957C57.8333 109.916 58.4011 110.129 58.7992 110.557C59.1973 110.976 59.3964 111.571 59.3964 112.342C59.3964 113.104 59.1973 113.699 58.7992 114.127C58.4011 114.554 57.8333 114.768 57.0957 114.768H55.1671V117.571C55.1671 117.724 55.1344 117.846 55.0692 117.937C55.0039 118.021 54.9027 118.063 54.7657 118.063ZM55.1671 113.978H56.9978C57.5265 113.978 57.9246 113.841 58.1922 113.566C58.4664 113.284 58.6034 112.876 58.6034 112.342C58.6034 111.8 58.4664 111.392 58.1922 111.118C57.9246 110.836 57.5265 110.694 56.9978 110.694H55.1671V113.978ZM61.7108 118.086C61.3845 118.086 61.0908 118.013 60.8297 117.869C60.5752 117.716 60.3728 117.51 60.2227 117.251C60.0726 116.992 59.9975 116.701 59.9975 116.381C59.9975 115.969 60.0857 115.645 60.2619 115.408C60.4446 115.172 60.7416 115.004 61.1528 114.905C61.5705 114.806 62.1383 114.756 62.8563 114.756H63.2968V115.363H62.8661C62.3374 115.363 61.9196 115.393 61.6129 115.454C61.3127 115.507 61.1006 115.603 60.9766 115.74C60.8591 115.878 60.8003 116.072 60.8003 116.324C60.8003 116.637 60.8917 116.892 61.0745 117.091C61.2637 117.289 61.5182 117.388 61.8381 117.388C62.0992 117.388 62.3276 117.315 62.5234 117.171C62.7257 117.026 62.8824 116.827 62.9934 116.576C63.1108 116.324 63.1696 116.034 63.1696 115.706V114.402C63.1696 113.928 63.088 113.589 62.9248 113.383C62.7616 113.17 62.494 113.063 62.122 113.063C61.8936 113.063 61.6651 113.097 61.4367 113.166C61.2082 113.234 60.9668 113.345 60.7122 113.498C60.6208 113.551 60.5425 113.57 60.4773 113.555C60.4119 113.532 60.3598 113.49 60.3206 113.429C60.2815 113.368 60.2586 113.299 60.2521 113.223C60.2455 113.139 60.2586 113.059 60.2913 112.983C60.3304 112.907 60.3892 112.845 60.4675 112.8C60.7546 112.632 61.0385 112.509 61.3192 112.433C61.5999 112.357 61.8675 112.319 62.122 112.319C62.5332 112.319 62.8726 112.399 63.1402 112.559C63.4078 112.712 63.6068 112.948 63.7374 113.269C63.8679 113.582 63.9332 113.986 63.9332 114.482V117.583C63.9332 117.735 63.9005 117.853 63.8353 117.937C63.7766 118.021 63.6885 118.063 63.571 118.063C63.4469 118.063 63.3523 118.021 63.2871 117.937C63.2217 117.853 63.1892 117.735 63.1892 117.583V116.69H63.2773C63.225 116.98 63.1238 117.228 62.9738 117.434C62.8301 117.64 62.6507 117.8 62.4353 117.914C62.2199 118.029 61.9784 118.086 61.7108 118.086ZM67.3135 118.086C66.9415 118.086 66.6282 118.01 66.3736 117.857C66.1256 117.697 65.9396 117.468 65.8156 117.171C65.6916 116.866 65.6296 116.496 65.6296 116.061V113.143H64.9736C64.8626 113.143 64.7778 113.113 64.7191 113.051C64.6603 112.983 64.631 112.891 64.631 112.777C64.631 112.662 64.6603 112.575 64.7191 112.513C64.7778 112.452 64.8626 112.422 64.9736 112.422H65.6296V111.106C65.6296 110.953 65.6654 110.839 65.7373 110.763C65.8091 110.679 65.907 110.637 66.031 110.637C66.155 110.637 66.2496 110.679 66.3149 110.763C66.3867 110.839 66.4226 110.953 66.4226 111.106V112.422H67.6561C67.7671 112.422 67.852 112.452 67.9107 112.513C67.9694 112.575 67.9988 112.662 67.9988 112.777C67.9988 112.891 67.9694 112.983 67.9107 113.051C67.852 113.113 67.7671 113.143 67.6561 113.143H66.4226V115.969C66.4226 116.404 66.5009 116.736 66.6575 116.965C66.8142 117.186 67.0687 117.296 67.4212 117.296C67.5452 117.296 67.6496 117.281 67.7345 117.251C67.8259 117.22 67.9009 117.205 67.9596 117.205C68.0184 117.198 68.0673 117.22 68.1065 117.274C68.1457 117.327 68.1652 117.418 68.1652 117.548C68.1652 117.64 68.1489 117.724 68.1163 117.8C68.0902 117.876 68.0413 117.93 67.9694 117.96C67.8911 117.99 67.7867 118.017 67.6561 118.04C67.5322 118.07 67.4179 118.086 67.3135 118.086ZM69.2761 118.04C69.1456 118.04 69.0477 117.999 68.9824 117.914C68.9171 117.823 68.8845 117.697 68.8845 117.537V112.857C68.8845 112.697 68.9171 112.575 68.9824 112.491C69.0477 112.406 69.1456 112.365 69.2761 112.365C69.4001 112.365 69.498 112.406 69.5699 112.491C69.6416 112.575 69.6775 112.697 69.6775 112.857V117.537C69.6775 117.697 69.6416 117.823 69.5699 117.914C69.5045 117.999 69.4066 118.04 69.2761 118.04ZM69.2761 111.083C69.1129 111.083 68.9857 111.033 68.8943 110.934C68.8029 110.827 68.7573 110.687 68.7573 110.511C68.7573 110.328 68.8029 110.191 68.8943 110.099C68.9857 110 69.1129 109.95 69.2761 109.95C69.4458 109.95 69.5731 110 69.658 110.099C69.7493 110.191 69.795 110.328 69.795 110.511C69.795 110.687 69.7493 110.827 69.658 110.934C69.5731 111.033 69.4458 111.083 69.2761 111.083ZM73.3041 118.086C72.8015 118.086 72.3674 117.972 72.002 117.743C71.6429 117.507 71.3623 117.175 71.16 116.747C70.9642 116.32 70.8663 115.809 70.8663 115.214C70.8663 114.634 70.9642 114.131 71.16 113.704C71.3558 113.269 71.6234 112.93 71.9628 112.685C72.3087 112.441 72.7068 112.319 73.1572 112.319C73.477 112.319 73.7642 112.384 74.0187 112.513C74.2733 112.635 74.4887 112.815 74.6649 113.051C74.8476 113.288 74.9847 113.574 75.0761 113.909C75.174 114.245 75.2229 114.623 75.2229 115.042C75.2229 115.164 75.1936 115.256 75.1348 115.317C75.0761 115.37 74.9912 115.397 74.8803 115.397H71.4733V114.791H74.6943L74.5376 114.939C74.5376 114.527 74.4854 114.18 74.381 113.898C74.2765 113.608 74.1231 113.387 73.9208 113.234C73.725 113.082 73.477 113.006 73.1768 113.006C72.8439 113.006 72.56 113.097 72.325 113.28C72.0966 113.456 71.9236 113.704 71.8061 114.024C71.6887 114.337 71.6299 114.703 71.6299 115.122V115.191C71.6299 115.893 71.7735 116.427 72.0607 116.793C72.3544 117.159 72.7688 117.342 73.3041 117.342C73.5259 117.342 73.7446 117.308 73.96 117.239C74.1819 117.171 74.3973 117.056 74.6061 116.896C74.6975 116.827 74.7791 116.797 74.8509 116.804C74.9292 116.804 74.9912 116.831 75.0369 116.885C75.0826 116.93 75.1119 116.992 75.125 117.068C75.1446 117.136 75.138 117.212 75.1054 117.296C75.0793 117.381 75.0238 117.453 74.939 117.514C74.7236 117.697 74.4691 117.838 74.1754 117.937C73.8817 118.036 73.5912 118.086 73.3041 118.086ZM76.7622 118.063C76.6317 118.063 76.5338 118.021 76.4685 117.937C76.4032 117.853 76.3705 117.735 76.3705 117.583V112.811C76.3705 112.658 76.4032 112.544 76.4685 112.468C76.5338 112.384 76.6284 112.342 76.7524 112.342C76.8764 112.342 76.971 112.384 77.0363 112.468C77.1081 112.544 77.144 112.658 77.144 112.811V113.795L77.0363 113.658C77.1733 113.216 77.3953 112.884 77.702 112.662C78.0153 112.433 78.3743 112.319 78.7789 112.319C79.1575 112.319 79.4708 112.399 79.7188 112.559C79.9733 112.719 80.1627 112.964 80.2866 113.292C80.4107 113.612 80.4726 114.02 80.4726 114.516V117.583C80.4726 117.735 80.4368 117.853 80.365 117.937C80.2997 118.021 80.2051 118.063 80.081 118.063C79.9505 118.063 79.8494 118.021 79.7775 117.937C79.7123 117.853 79.6796 117.735 79.6796 117.583V114.573C79.6796 114.054 79.5915 113.677 79.4153 113.44C79.2457 113.196 78.9715 113.074 78.5929 113.074C78.1557 113.074 77.8065 113.234 77.5454 113.555C77.2908 113.868 77.1636 114.287 77.1636 114.813V117.583C77.1636 117.903 77.0298 118.063 76.7622 118.063ZM83.844 118.086C83.472 118.086 83.1587 118.01 82.9042 117.857C82.6561 117.697 82.4701 117.468 82.3461 117.171C82.2221 116.866 82.1601 116.496 82.1601 116.061V113.143H81.5042C81.3932 113.143 81.3084 113.113 81.2496 113.051C81.1909 112.983 81.1615 112.891 81.1615 112.777C81.1615 112.662 81.1909 112.575 81.2496 112.513C81.3084 112.452 81.3932 112.422 81.5042 112.422H82.1601V111.106C82.1601 110.953 82.196 110.839 82.2678 110.763C82.3396 110.679 82.4375 110.637 82.5615 110.637C82.6855 110.637 82.7801 110.679 82.8454 110.763C82.9172 110.839 82.9531 110.953 82.9531 111.106V112.422H84.1867C84.2976 112.422 84.3825 112.452 84.4413 112.513C84.5 112.575 84.5294 112.662 84.5294 112.777C84.5294 112.891 84.5 112.983 84.4413 113.051C84.3825 113.113 84.2976 113.143 84.1867 113.143H82.9531V115.969C82.9531 116.404 83.0315 116.736 83.1881 116.965C83.3447 117.186 83.5993 117.296 83.9517 117.296C84.0757 117.296 84.1801 117.281 84.265 117.251C84.3564 117.22 84.4315 117.205 84.4902 117.205C84.5489 117.198 84.5979 117.22 84.6371 117.274C84.6762 117.327 84.6958 117.418 84.6958 117.548C84.6958 117.64 84.6794 117.724 84.6468 117.8C84.6207 117.876 84.5717 117.93 84.5 117.96C84.4217 117.99 84.3172 118.017 84.1867 118.04C84.0626 118.07 83.9485 118.086 83.844 118.086ZM90.5153 118.063C90.3915 118.063 90.2901 118.029 90.2118 117.96C90.1335 117.891 90.0712 117.789 90.0258 117.651L87.3335 110.454C87.288 110.324 87.2747 110.218 87.2943 110.133C87.3139 110.042 87.3566 109.969 87.4216 109.916C87.4936 109.863 87.5747 109.836 87.6664 109.836C87.7901 109.836 87.8817 109.87 87.9405 109.939C88.0055 110 88.058 110.092 88.0971 110.214L90.6817 117.228H90.3685L92.9433 110.202C92.9887 110.088 93.0447 110 93.1097 109.939C93.1747 109.87 93.2664 109.836 93.3838 109.836C93.4754 109.836 93.5503 109.863 93.609 109.916C93.674 109.969 93.7132 110.042 93.7265 110.133C93.7461 110.225 93.7328 110.332 93.6873 110.454L90.995 117.651C90.9496 117.789 90.8873 117.891 90.809 117.96C90.737 118.029 90.6391 118.063 90.5153 118.063ZM95.2524 118.04C95.1223 118.04 95.0244 117.999 94.9587 117.914C94.8936 117.823 94.8608 117.697 94.8608 117.537V112.857C94.8608 112.697 94.8936 112.575 94.9587 112.491C95.0244 112.406 95.1223 112.365 95.2524 112.365C95.3768 112.365 95.4747 112.406 95.5461 112.491C95.6181 112.575 95.6538 112.697 95.6538 112.857V117.537C95.6538 117.697 95.6181 117.823 95.5461 117.914C95.481 117.999 95.3831 118.04 95.2524 118.04ZM95.2524 111.083C95.0894 111.083 94.9622 111.033 94.8705 110.934C94.7796 110.827 94.7335 110.687 94.7335 110.511C94.7335 110.328 94.7796 110.191 94.8705 110.099C94.9622 110 95.0894 109.95 95.2524 109.95C95.4223 109.95 95.5496 110 95.6342 110.099C95.7258 110.191 95.7712 110.328 95.7712 110.511C95.7712 110.687 95.7258 110.827 95.6342 110.934C95.5496 111.033 95.4223 111.083 95.2524 111.083ZM98.7419 118.086C98.4482 118.086 98.1517 118.044 97.851 117.96C97.5573 117.876 97.2831 117.731 97.0286 117.525C96.9636 117.472 96.9181 117.411 96.8915 117.342C96.8657 117.266 96.8559 117.193 96.8622 117.125C96.8754 117.049 96.9013 116.983 96.9405 116.93C96.9866 116.877 97.0384 116.846 97.0971 116.839C97.1629 116.823 97.2342 116.839 97.3125 116.885C97.5671 117.068 97.8118 117.198 98.0468 117.274C98.2887 117.342 98.5265 117.377 98.7615 117.377C99.1335 117.377 99.4146 117.296 99.6034 117.136C99.7929 116.976 99.8873 116.759 99.8873 116.484C99.8873 116.271 99.8258 116.102 99.7013 115.981C99.5775 115.851 99.3817 115.752 99.1139 115.683L98.223 115.454C97.8118 115.355 97.5055 115.184 97.3027 114.939C97.1069 114.695 97.009 114.379 97.009 113.99C97.009 113.646 97.0845 113.353 97.2342 113.109C97.3908 112.857 97.6097 112.662 97.8901 112.525C98.1712 112.388 98.4971 112.319 98.8692 112.319C99.1566 112.319 99.4272 112.365 99.6817 112.456C99.9433 112.54 100.178 112.678 100.387 112.868C100.452 112.921 100.494 112.987 100.514 113.063C100.54 113.131 100.543 113.204 100.524 113.28C100.511 113.349 100.482 113.41 100.436 113.463C100.39 113.509 100.335 113.536 100.269 113.543C100.204 113.551 100.136 113.528 100.064 113.475C99.8678 113.322 99.6692 113.211 99.4664 113.143C99.2643 113.067 99.065 113.028 98.8692 113.028C98.5041 113.028 98.2265 113.113 98.037 113.28C97.8482 113.448 97.7531 113.669 97.7531 113.944C97.7531 114.157 97.8118 114.333 97.9293 114.47C98.0468 114.607 98.23 114.706 98.4775 114.768L99.3685 114.985C99.7929 115.092 100.11 115.264 100.318 115.5C100.533 115.729 100.641 116.042 100.641 116.438C100.641 116.942 100.468 117.342 100.122 117.64C99.7768 117.937 99.3167 118.086 98.7419 118.086ZM102.242 118.04C102.111 118.04 102.013 117.999 101.948 117.914C101.882 117.823 101.85 117.697 101.85 117.537V112.857C101.85 112.697 101.882 112.575 101.948 112.491C102.013 112.406 102.111 112.365 102.242 112.365C102.366 112.365 102.464 112.406 102.536 112.491C102.607 112.575 102.643 112.697 102.643 112.857V117.537C102.643 117.697 102.607 117.823 102.536 117.914C102.47 117.999 102.372 118.04 102.242 118.04ZM102.242 111.083C102.078 111.083 101.951 111.033 101.86 110.934C101.768 110.827 101.723 110.687 101.723 110.511C101.723 110.328 101.768 110.191 101.86 110.099C101.951 110 102.078 109.95 102.242 109.95C102.411 109.95 102.538 110 102.624 110.099C102.715 110.191 102.761 110.328 102.761 110.511C102.761 110.687 102.715 110.827 102.624 110.934C102.538 111.033 102.411 111.083 102.242 111.083ZM106.035 118.086C105.663 118.086 105.35 118.01 105.095 117.857C104.847 117.697 104.661 117.468 104.537 117.171C104.413 116.866 104.351 116.496 104.351 116.061V113.143H103.695C103.584 113.143 103.499 113.113 103.44 113.051C103.381 112.983 103.352 112.891 103.352 112.777C103.352 112.662 103.381 112.575 103.44 112.513C103.499 112.452 103.584 112.422 103.695 112.422H104.351V111.106C104.351 110.953 104.387 110.839 104.459 110.763C104.53 110.679 104.628 110.637 104.752 110.637C104.876 110.637 104.971 110.679 105.036 110.763C105.108 110.839 105.144 110.953 105.144 111.106V112.422H106.378C106.488 112.422 106.573 112.452 106.632 112.513C106.691 112.575 106.72 112.662 106.72 112.777C106.72 112.891 106.691 112.983 106.632 113.051C106.573 113.113 106.488 113.143 106.378 113.143H105.144V115.969C105.144 116.404 105.222 116.736 105.379 116.965C105.536 117.186 105.79 117.296 106.143 117.296C106.266 117.296 106.371 117.281 106.456 117.251C106.547 117.22 106.622 117.205 106.681 117.205C106.74 117.198 106.789 117.22 106.828 117.274C106.867 117.327 106.887 117.418 106.887 117.548C106.887 117.64 106.87 117.724 106.838 117.8C106.811 117.876 106.762 117.93 106.691 117.96C106.613 117.99 106.508 118.017 106.378 118.04C106.253 118.07 106.139 118.086 106.035 118.086ZM110.473 118.063C110.343 118.063 110.242 118.021 110.17 117.937C110.105 117.853 110.072 117.735 110.072 117.583V112.811C110.072 112.658 110.105 112.544 110.17 112.468C110.236 112.384 110.33 112.342 110.454 112.342C110.578 112.342 110.673 112.384 110.738 112.468C110.81 112.544 110.845 112.658 110.845 112.811V113.738H110.747C110.852 113.288 111.051 112.941 111.345 112.697C111.638 112.452 112.001 112.323 112.431 112.308C112.529 112.3 112.608 112.326 112.666 112.388C112.725 112.441 112.758 112.536 112.764 112.674C112.771 112.804 112.745 112.907 112.686 112.983C112.627 113.059 112.536 113.104 112.412 113.12L112.255 113.143C111.812 113.189 111.469 113.356 111.227 113.646C110.992 113.928 110.875 114.317 110.875 114.813V117.583C110.875 117.735 110.839 117.853 110.767 117.937C110.702 118.021 110.604 118.063 110.473 118.063ZM115.668 118.086C115.165 118.086 114.731 117.972 114.366 117.743C114.007 117.507 113.726 117.175 113.524 116.747C113.328 116.32 113.23 115.809 113.23 115.214C113.23 114.634 113.328 114.131 113.524 113.704C113.719 113.269 113.987 112.93 114.326 112.685C114.673 112.441 115.071 112.319 115.521 112.319C115.84 112.319 116.128 112.384 116.382 112.513C116.637 112.635 116.852 112.815 117.029 113.051C117.211 113.288 117.348 113.574 117.44 113.909C117.538 114.245 117.587 114.623 117.587 115.042C117.587 115.164 117.557 115.256 117.499 115.317C117.44 115.37 117.355 115.397 117.244 115.397H113.837V114.791H117.058L116.901 114.939C116.901 114.527 116.849 114.18 116.745 113.898C116.64 113.608 116.487 113.387 116.285 113.234C116.089 113.082 115.84 113.006 115.54 113.006C115.208 113.006 114.924 113.097 114.689 113.28C114.46 113.456 114.287 113.704 114.17 114.024C114.052 114.337 113.994 114.703 113.994 115.122V115.191C113.994 115.893 114.137 116.427 114.424 116.793C114.718 117.159 115.133 117.342 115.668 117.342C115.889 117.342 116.108 117.308 116.324 117.239C116.545 117.171 116.761 117.056 116.97 116.896C117.061 116.827 117.143 116.797 117.215 116.804C117.293 116.804 117.355 116.831 117.401 116.885C117.446 116.93 117.475 116.992 117.489 117.068C117.508 117.136 117.502 117.212 117.469 117.296C117.443 117.381 117.387 117.453 117.303 117.514C117.087 117.697 116.833 117.838 116.539 117.937C116.245 118.036 115.955 118.086 115.668 118.086ZM119.126 120.123C118.995 120.123 118.897 120.081 118.832 119.997C118.767 119.921 118.734 119.806 118.734 119.654V112.811C118.734 112.658 118.767 112.544 118.832 112.468C118.897 112.384 118.992 112.342 119.116 112.342C119.247 112.342 119.345 112.384 119.41 112.468C119.482 112.544 119.517 112.658 119.517 112.811V113.898L119.41 113.738C119.514 113.303 119.719 112.96 120.026 112.708C120.34 112.449 120.712 112.319 121.143 112.319C121.567 112.319 121.936 112.437 122.249 112.674C122.568 112.903 122.813 113.234 122.983 113.669C123.159 114.097 123.247 114.607 123.247 115.202C123.247 115.79 123.159 116.301 122.983 116.736C122.813 117.163 122.572 117.495 122.259 117.731C121.945 117.968 121.573 118.086 121.143 118.086C120.712 118.086 120.343 117.96 120.036 117.708C119.729 117.449 119.521 117.106 119.41 116.679H119.527V119.654C119.527 119.806 119.492 119.921 119.419 119.997C119.347 120.081 119.25 120.123 119.126 120.123ZM120.976 117.342C121.276 117.342 121.534 117.258 121.75 117.091C121.971 116.923 122.141 116.679 122.259 116.358C122.382 116.038 122.445 115.653 122.445 115.202C122.445 114.509 122.311 113.978 122.043 113.612C121.782 113.246 121.426 113.063 120.976 113.063C120.682 113.063 120.424 113.147 120.203 113.314C119.981 113.475 119.808 113.715 119.684 114.035C119.566 114.348 119.508 114.737 119.508 115.202C119.508 115.889 119.641 116.419 119.909 116.793C120.177 117.159 120.532 117.342 120.976 117.342ZM126.419 118.086C125.957 118.086 125.555 117.968 125.215 117.731C124.876 117.495 124.612 117.163 124.422 116.736C124.24 116.301 124.148 115.79 124.148 115.202C124.148 114.76 124.201 114.363 124.305 114.012C124.41 113.654 124.563 113.349 124.765 113.097C124.968 112.845 125.206 112.655 125.48 112.525C125.761 112.388 126.074 112.319 126.419 112.319C126.883 112.319 127.285 112.437 127.624 112.674C127.964 112.91 128.224 113.246 128.407 113.681C128.596 114.108 128.691 114.615 128.691 115.202C128.691 115.645 128.639 116.042 128.534 116.393C128.43 116.743 128.277 117.049 128.074 117.308C127.872 117.56 127.631 117.754 127.35 117.891C127.075 118.021 126.766 118.086 126.419 118.086ZM126.419 117.342C126.713 117.342 126.971 117.258 127.193 117.091C127.415 116.923 127.585 116.679 127.702 116.358C127.826 116.038 127.888 115.653 127.888 115.202C127.888 114.509 127.754 113.978 127.487 113.612C127.226 113.246 126.87 113.063 126.419 113.063C126.119 113.063 125.859 113.147 125.636 113.314C125.421 113.475 125.252 113.715 125.127 114.035C125.01 114.348 124.951 114.737 124.951 115.202C124.951 115.889 125.085 116.419 125.352 116.793C125.62 117.159 125.976 117.342 126.419 117.342ZM130.284 118.063C130.153 118.063 130.052 118.021 129.98 117.937C129.915 117.853 129.882 117.735 129.882 117.583V112.811C129.882 112.658 129.915 112.544 129.98 112.468C130.045 112.384 130.14 112.342 130.264 112.342C130.388 112.342 130.482 112.384 130.548 112.468C130.619 112.544 130.656 112.658 130.656 112.811V113.738H130.558C130.662 113.288 130.861 112.941 131.155 112.697C131.449 112.452 131.811 112.323 132.242 112.308C132.34 112.3 132.418 112.326 132.477 112.388C132.536 112.441 132.568 112.536 132.575 112.674C132.581 112.804 132.555 112.907 132.496 112.983C132.438 113.059 132.346 113.104 132.222 113.12L132.066 113.143C131.622 113.189 131.279 113.356 131.038 113.646C130.803 113.928 130.685 114.317 130.685 114.813V117.583C130.685 117.735 130.649 117.853 130.578 117.937C130.512 118.021 130.414 118.063 130.284 118.063ZM135.558 118.086C135.186 118.086 134.873 118.01 134.618 117.857C134.371 117.697 134.185 117.468 134.06 117.171C133.936 116.866 133.874 116.496 133.874 116.061V113.143H133.218C133.108 113.143 133.022 113.113 132.964 113.051C132.905 112.983 132.875 112.891 132.875 112.777C132.875 112.662 132.905 112.575 132.964 112.513C133.022 112.452 133.108 112.422 133.218 112.422H133.874V111.106C133.874 110.953 133.91 110.839 133.982 110.763C134.054 110.679 134.152 110.637 134.275 110.637C134.4 110.637 134.494 110.679 134.559 110.763C134.631 110.839 134.667 110.953 134.667 111.106V112.422H135.901C136.012 112.422 136.096 112.452 136.155 112.513C136.214 112.575 136.243 112.662 136.243 112.777C136.243 112.891 136.214 112.983 136.155 113.051C136.096 113.113 136.012 113.143 135.901 113.143H134.667V115.969C134.667 116.404 134.745 116.736 134.902 116.965C135.059 117.186 135.313 117.296 135.666 117.296C135.79 117.296 135.894 117.281 135.979 117.251C136.071 117.22 136.145 117.205 136.204 117.205C136.263 117.198 136.312 117.22 136.351 117.274C136.39 117.327 136.41 117.418 136.41 117.548C136.41 117.64 136.394 117.724 136.361 117.8C136.335 117.876 136.286 117.93 136.214 117.96C136.136 117.99 136.031 118.017 135.901 118.04C135.777 118.07 135.663 118.086 135.558 118.086Z" fill="#171717"/>
<mask id="mask0_14719_58392" style="mask-type:luminance" maskUnits="userSpaceOnUse" x="164" y="107" width="12" height="14">
<path d="M175.89 107.767H164.701V120.844H175.89V107.767Z" fill="white"/>
</mask>
<g mask="url(#mask0_14719_58392)">
<path d="M170.296 113.665L167.988 116.362L167.329 115.592L170.296 112.125L173.263 115.592L172.603 116.362L170.296 113.665Z" fill="#666666"/>
</g>
<path d="M286.38 149.042H45.8206C44.6619 149.042 43.7227 150.139 43.7227 151.493C43.7227 152.848 44.6619 153.945 45.8206 153.945H286.38C287.539 153.945 288.478 152.848 288.478 151.493C288.478 150.139 287.539 149.042 286.38 149.042Z" fill="#F7F1F1"/>
<path d="M212.953 162.118H45.8206C44.6619 162.118 43.7227 163.216 43.7227 164.57C43.7227 165.925 44.6619 167.022 45.8206 167.022H212.953C214.112 167.022 215.051 165.925 215.051 164.57C215.051 163.216 214.112 162.118 212.953 162.118Z" fill="#F7F1F1"/>
<path d="M349.317 175.196H45.8206C44.6619 175.196 43.7227 176.294 43.7227 177.648C43.7227 179.002 44.6619 180.1 45.8206 180.1H349.317C350.476 180.1 351.415 179.002 351.415 177.648C351.415 176.294 350.476 175.196 349.317 175.196Z" fill="#F7F1F1"/>
<path d="M153.513 188.273H45.8206C44.6619 188.273 43.7227 189.371 43.7227 190.725C43.7227 192.079 44.6619 193.177 45.8206 193.177H153.513C154.672 193.177 155.611 192.079 155.611 190.725C155.611 189.371 154.672 188.273 153.513 188.273Z" fill="#F7F1F1"/>
<path d="M133.233 209.523H47.2192C45.2881 209.523 43.7227 211.353 43.7227 213.61V234.861C43.7227 237.117 45.2881 238.947 47.2192 238.947H133.233C135.164 238.947 136.73 237.117 136.73 234.861V213.61C136.73 211.353 135.164 209.523 133.233 209.523Z" fill="#F6F6F6"/>
<path d="M60.0393 222.569C60.0344 222.518 60.025 222.469 60.0113 222.422V222.372C59.9889 222.316 59.959 222.265 59.9227 222.22L57.1255 218.95C57.087 218.908 57.0429 218.873 56.995 218.847C56.9811 218.844 56.9669 218.844 56.953 218.847C56.9057 218.815 56.8534 218.795 56.7992 218.787H53.9787C53.6078 218.787 53.252 218.959 52.9897 219.266C52.7274 219.572 52.5801 219.988 52.5801 220.422V228.05C52.5801 228.484 52.7274 228.899 52.9897 229.206C53.252 229.513 53.6078 229.684 53.9787 229.684H58.6407C59.0116 229.684 59.3673 229.513 59.6297 229.206C59.8919 228.899 60.0393 228.484 60.0393 228.05V222.601C60.0393 222.601 60.0393 222.601 60.0393 222.569ZM57.2421 220.645L58.4495 222.056H57.7083C57.5846 222.056 57.466 221.999 57.3786 221.897C57.2912 221.795 57.2421 221.656 57.2421 221.511V220.645ZM59.1069 228.05C59.1069 228.194 59.0578 228.333 58.9704 228.435C58.8829 228.538 58.7643 228.595 58.6407 228.595H53.9787C53.855 228.595 53.7364 228.538 53.649 228.435C53.5616 228.333 53.5125 228.194 53.5125 228.05V220.422C53.5125 220.277 53.5616 220.139 53.649 220.037C53.7364 219.934 53.855 219.876 53.9787 219.876H56.3097V221.511C56.3097 221.945 56.457 222.36 56.7193 222.668C56.9816 222.974 57.3374 223.146 57.7083 223.146H59.1069V228.05ZM57.2421 225.325H56.7759V224.78C56.7759 224.636 56.7268 224.498 56.6393 224.395C56.5519 224.293 56.4333 224.236 56.3097 224.236C56.186 224.236 56.0674 224.293 55.98 224.395C55.8926 224.498 55.8435 224.636 55.8435 224.78V225.325H55.3773C55.2536 225.325 55.135 225.383 55.0476 225.485C54.9602 225.587 54.9111 225.726 54.9111 225.871C54.9111 226.014 54.9602 226.153 55.0476 226.256C55.135 226.358 55.2536 226.415 55.3773 226.415H55.8435V226.96C55.8435 227.105 55.8926 227.243 55.98 227.345C56.0674 227.447 56.186 227.505 56.3097 227.505C56.4333 227.505 56.5519 227.447 56.6393 227.345C56.7268 227.243 56.7759 227.105 56.7759 226.96V226.415H57.2421C57.3657 226.415 57.4843 226.358 57.5718 226.256C57.6592 226.153 57.7083 226.014 57.7083 225.871C57.7083 225.726 57.6592 225.587 57.5718 225.485C57.4843 225.383 57.3657 225.325 57.2421 225.325Z" fill="#9B9B9B"/>
<path d="M69.5575 227.593C68.9142 227.593 68.3715 227.452 67.9296 227.171C67.4876 226.884 67.152 226.475 66.9226 225.945C66.6988 225.416 66.5869 224.785 66.5869 224.052C66.5869 223.503 66.6513 223.013 66.7799 222.581C66.9142 222.143 67.1044 221.77 67.3506 221.463C67.6023 221.149 67.9072 220.911 68.2652 220.747C68.6289 220.584 69.0401 220.502 69.4988 220.502C69.8345 220.502 70.1645 220.554 70.489 220.659C70.8135 220.757 71.11 220.92 71.3785 221.149C71.4568 221.215 71.5072 221.29 71.5296 221.375C71.5519 221.46 71.5519 221.548 71.5296 221.64C71.5128 221.725 71.4764 221.8 71.4205 221.865C71.3701 221.931 71.3058 221.97 71.2275 221.983C71.1547 221.996 71.0736 221.97 70.9841 221.904C70.7659 221.728 70.5366 221.6 70.296 221.522C70.0554 221.437 69.7897 221.394 69.4988 221.394C69.0624 221.394 68.6932 221.499 68.3911 221.708C68.0946 221.918 67.8708 222.222 67.7198 222.62C67.5687 223.013 67.4932 223.49 67.4932 224.052C67.4932 224.922 67.6694 225.582 68.0219 226.034C68.3743 226.485 68.8974 226.71 69.5911 226.71C69.8429 226.71 70.089 226.684 70.3296 226.632C70.5757 226.573 70.8107 226.491 71.0345 226.387L70.8582 226.897V224.611H69.7757C69.6638 224.611 69.5743 224.579 69.5072 224.513C69.4457 224.441 69.4149 224.343 69.4149 224.219C69.4149 224.095 69.4457 224.003 69.5072 223.945C69.5743 223.879 69.6638 223.846 69.7757 223.846H71.2275C71.345 223.846 71.4345 223.882 71.496 223.954C71.5575 224.026 71.5883 224.131 71.5883 224.268V226.74C71.5883 226.857 71.5687 226.959 71.5296 227.044C71.496 227.122 71.4373 227.181 71.3533 227.22C71.1128 227.332 70.8303 227.423 70.5058 227.495C70.1813 227.56 69.8652 227.593 69.5575 227.593ZM74.7557 227.593C74.3081 227.593 73.9221 227.495 73.5976 227.299C73.2787 227.096 73.0298 226.812 72.8508 226.446C72.6773 226.073 72.5906 225.631 72.5906 225.121C72.5906 224.625 72.6773 224.19 72.8508 223.817C73.0242 223.444 73.262 223.153 73.564 222.944C73.8661 222.735 74.2102 222.63 74.5962 222.63C74.8815 222.63 75.1361 222.686 75.3599 222.797C75.5836 222.902 75.7738 223.059 75.9305 223.268C76.0927 223.47 76.213 223.719 76.2913 224.013C76.3752 224.307 76.4172 224.638 76.4172 225.004C76.4172 225.115 76.3892 225.2 76.3333 225.259C76.2773 225.311 76.1934 225.337 76.0815 225.337H73.262V224.729H75.8466L75.7039 224.866C75.7039 224.54 75.6619 224.262 75.578 224.033C75.4997 223.804 75.3794 223.631 75.2172 223.513C75.0606 223.389 74.8647 223.327 74.6298 223.327C74.3668 223.327 74.1431 223.399 73.9585 223.542C73.7794 223.686 73.6424 223.886 73.5473 224.141C73.4522 224.396 73.4046 224.693 73.4046 225.033V225.092C73.4046 225.667 73.5193 226.102 73.7487 226.397C73.9836 226.684 74.3221 226.828 74.764 226.828C74.9319 226.828 75.1081 226.802 75.2927 226.75C75.4829 226.697 75.6619 226.609 75.8298 226.485C75.9249 226.419 76.0088 226.39 76.0815 226.397C76.1599 226.403 76.2214 226.432 76.2661 226.485C76.3165 226.537 76.3473 226.602 76.3584 226.681C76.3696 226.759 76.3585 226.841 76.3249 226.926C76.2913 227.005 76.2326 227.077 76.1487 227.142C75.9585 227.292 75.7375 227.407 75.4857 227.485C75.234 227.557 74.9906 227.593 74.7557 227.593ZM77.7608 227.573C77.6266 227.573 77.5231 227.531 77.4503 227.446C77.3776 227.354 77.3412 227.23 77.3412 227.073V223.15C77.3412 222.987 77.3776 222.862 77.4503 222.777C77.5231 222.692 77.6238 222.65 77.7524 222.65C77.8867 222.65 77.9874 222.692 78.0545 222.777C78.1273 222.862 78.1636 222.987 78.1636 223.15V223.915L78.0713 223.739C78.1944 223.372 78.3874 223.098 78.6503 222.915C78.9133 222.725 79.2154 222.63 79.5566 222.63C79.8811 222.63 80.1496 222.702 80.3622 222.846C80.5804 222.983 80.7426 223.196 80.8489 223.484C80.9552 223.765 81.0084 224.121 81.0084 224.553V227.073C81.0084 227.23 80.972 227.354 80.8993 227.446C80.8266 227.531 80.7231 227.573 80.5888 227.573C80.4489 227.573 80.3427 227.531 80.2699 227.446C80.1972 227.354 80.1608 227.23 80.1608 227.073V224.611C80.1608 224.2 80.0909 223.899 79.951 223.709C79.8168 223.52 79.6042 223.425 79.3133 223.425C78.972 223.425 78.6979 223.549 78.4909 223.797C78.2895 224.046 78.1888 224.379 78.1888 224.798V227.073C78.1888 227.407 78.0461 227.573 77.7608 227.573ZM84.0979 227.593C83.6503 227.593 83.2643 227.495 82.9399 227.299C82.621 227.096 82.372 226.812 82.193 226.446C82.0196 226.073 81.9329 225.631 81.9329 225.121C81.9329 224.625 82.0196 224.19 82.193 223.817C82.3664 223.444 82.6042 223.153 82.9063 222.944C83.2084 222.735 83.5524 222.63 83.9384 222.63C84.2238 222.63 84.4783 222.686 84.7021 222.797C84.9259 222.902 85.1161 223.059 85.2727 223.268C85.435 223.47 85.5552 223.719 85.6336 224.013C85.7177 224.307 85.7596 224.638 85.7596 225.004C85.7596 225.115 85.7317 225.2 85.6755 225.259C85.6196 225.311 85.5357 225.337 85.4238 225.337H82.6042V224.729H85.1888L85.0461 224.866C85.0461 224.54 85.0042 224.262 84.9203 224.033C84.8419 223.804 84.7217 223.631 84.5594 223.513C84.4028 223.389 84.207 223.327 83.972 223.327C83.7091 223.327 83.4853 223.399 83.3007 223.542C83.1217 223.686 82.9846 223.886 82.8895 224.141C82.7944 224.396 82.7468 224.693 82.7468 225.033V225.092C82.7468 225.667 82.8615 226.102 83.0909 226.397C83.3259 226.684 83.6643 226.828 84.1063 226.828C84.2741 226.828 84.4503 226.802 84.635 226.75C84.8252 226.697 85.0042 226.609 85.172 226.485C85.2671 226.419 85.351 226.39 85.4238 226.397C85.5021 226.403 85.5636 226.432 85.6084 226.485C85.6587 226.537 85.6897 226.602 85.7009 226.681C85.7121 226.759 85.7009 226.841 85.6671 226.926C85.6336 227.005 85.5748 227.077 85.4909 227.142C85.3007 227.292 85.0797 227.407 84.828 227.485C84.5762 227.557 84.3329 227.593 84.0979 227.593ZM87.1114 227.573C86.9715 227.573 86.8652 227.531 86.7925 227.446C86.7198 227.354 86.6834 227.23 86.6834 227.073V223.15C86.6834 222.987 86.7198 222.862 86.7925 222.777C86.8652 222.692 86.9659 222.65 87.0946 222.65C87.2289 222.65 87.3296 222.692 87.3967 222.777C87.4694 222.862 87.5058 222.987 87.5058 223.15V223.866H87.4219C87.5114 223.474 87.6764 223.176 87.917 222.974C88.1575 222.771 88.4652 222.653 88.8401 222.62C88.9408 222.614 89.0191 222.643 89.075 222.709C89.1366 222.774 89.1701 222.875 89.1757 223.013C89.1869 223.15 89.1617 223.261 89.1002 223.346C89.0387 223.425 88.9436 223.47 88.8149 223.484L88.6554 223.503C88.2918 223.542 88.0149 223.676 87.8247 223.905C87.6345 224.134 87.5394 224.448 87.5394 224.847V227.073C87.5394 227.23 87.503 227.354 87.4303 227.446C87.3631 227.531 87.2568 227.573 87.1114 227.573ZM91.082 227.593C90.7967 227.593 90.5394 227.528 90.31 227.397C90.0862 227.266 89.91 227.09 89.7813 226.867C89.6526 226.645 89.5883 226.393 89.5883 226.112C89.5883 225.759 89.6638 225.481 89.8149 225.278C89.9715 225.069 90.2261 224.922 90.5785 224.837C90.9366 224.745 91.4177 224.7 92.0219 224.7H92.4163V225.308H92.0303C91.6275 225.308 91.3086 225.331 91.0736 225.376C90.8387 225.422 90.6708 225.501 90.5701 225.612C90.475 225.716 90.4275 225.864 90.4275 226.053C90.4275 226.302 90.5002 226.504 90.6457 226.661C90.7911 226.812 90.9925 226.887 91.2498 226.887C91.4568 226.887 91.6387 226.831 91.7953 226.72C91.952 226.602 92.075 226.446 92.1645 226.249C92.2596 226.053 92.3072 225.828 92.3072 225.573V224.445C92.3072 224.072 92.2401 223.804 92.1058 223.64C91.9715 223.477 91.7505 223.395 91.4429 223.395C91.2638 223.395 91.0764 223.421 90.8806 223.474C90.6904 223.526 90.4918 223.614 90.2848 223.739C90.1897 223.791 90.1086 223.807 90.0415 223.788C89.9743 223.768 89.9212 223.725 89.882 223.66C89.8429 223.588 89.8205 223.513 89.8149 223.435C89.8149 223.35 89.8317 223.268 89.8652 223.189C89.9044 223.111 89.9687 223.052 90.0582 223.013C90.3044 222.875 90.5478 222.777 90.7883 222.719C91.0289 222.66 91.2554 222.63 91.468 222.63C91.8429 222.63 92.1505 222.699 92.3911 222.836C92.6373 222.974 92.8191 223.183 92.9366 223.464C93.054 223.745 93.1128 224.108 93.1128 224.553V227.073C93.1128 227.23 93.0792 227.354 93.0121 227.446C92.945 227.531 92.8471 227.573 92.7184 227.573C92.5953 227.573 92.4974 227.531 92.4247 227.446C92.3519 227.354 92.3156 227.23 92.3156 227.073V226.436H92.3911C92.3464 226.678 92.2624 226.887 92.1394 227.063C92.0219 227.233 91.8736 227.364 91.6946 227.456C91.5156 227.547 91.3114 227.593 91.082 227.593ZM96.0254 227.593C95.6897 227.593 95.4072 227.524 95.1778 227.387C94.9485 227.25 94.7778 227.047 94.6659 226.779C94.554 226.511 94.4981 226.184 94.4981 225.798V223.484H93.9946C93.8827 223.484 93.796 223.451 93.7345 223.385C93.6729 223.314 93.6422 223.219 93.6422 223.101C93.6422 222.977 93.6729 222.882 93.7345 222.817C93.796 222.751 93.8827 222.719 93.9946 222.719H94.4981V221.708C94.4981 221.545 94.5345 221.421 94.6072 221.336C94.6855 221.251 94.7918 221.208 94.9261 221.208C95.0603 221.208 95.1638 221.251 95.2366 221.336C95.3093 221.421 95.3457 221.545 95.3457 221.708V222.719H96.3275C96.4394 222.719 96.5261 222.751 96.5876 222.817C96.6492 222.882 96.6799 222.977 96.6799 223.101C96.6799 223.219 96.6492 223.314 96.5876 223.385C96.5261 223.451 96.4394 223.484 96.3275 223.484H95.3457V225.72C95.3457 226.066 95.4072 226.328 95.5303 226.504C95.6589 226.681 95.8659 226.769 96.1512 226.769C96.2519 226.769 96.3387 226.759 96.4114 226.74C96.4897 226.714 96.554 226.697 96.6044 226.691C96.6659 226.691 96.7163 226.717 96.7554 226.769C96.7946 226.815 96.8142 226.907 96.8142 227.044C96.8142 227.142 96.7974 227.233 96.7638 227.318C96.7359 227.403 96.6827 227.459 96.6044 227.485C96.5373 227.511 96.445 227.534 96.3275 227.554C96.2156 227.58 96.1149 227.593 96.0254 227.593ZM99.2261 227.593C98.7785 227.593 98.3925 227.495 98.068 227.299C97.7491 227.096 97.5002 226.812 97.3212 226.446C97.1478 226.073 97.061 225.631 97.061 225.121C97.061 224.625 97.1478 224.19 97.3212 223.817C97.4946 223.444 97.7324 223.153 98.0345 222.944C98.3366 222.735 98.6806 222.63 99.0666 222.63C99.3519 222.63 99.6065 222.686 99.8303 222.797C100.054 222.902 100.244 223.059 100.401 223.268C100.563 223.47 100.683 223.719 100.762 224.013C100.846 224.307 100.888 224.638 100.888 225.004C100.888 225.115 100.86 225.2 100.804 225.259C100.748 225.311 100.664 225.337 100.552 225.337H97.7324V224.729H100.317L100.174 224.866C100.174 224.54 100.132 224.262 100.048 224.033C99.9701 223.804 99.8498 223.631 99.6876 223.513C99.531 223.389 99.3352 223.327 99.1002 223.327C98.8373 223.327 98.6135 223.399 98.4289 223.542C98.2499 223.686 98.1128 223.886 98.0177 224.141C97.9226 224.396 97.875 224.693 97.875 225.033V225.092C97.875 225.667 97.9897 226.102 98.2191 226.397C98.454 226.684 98.7925 226.828 99.2345 226.828C99.4023 226.828 99.5785 226.802 99.7631 226.75C99.9533 226.697 100.132 226.609 100.3 226.485C100.395 226.419 100.479 226.39 100.552 226.397C100.63 226.403 100.692 226.432 100.737 226.485C100.787 226.537 100.818 226.602 100.829 226.681C100.84 226.759 100.829 226.841 100.795 226.926C100.762 227.005 100.703 227.077 100.619 227.142C100.429 227.292 100.208 227.407 99.9561 227.485C99.7044 227.557 99.461 227.593 99.2261 227.593ZM104.553 227.573C104.413 227.573 104.304 227.528 104.225 227.436C104.153 227.345 104.116 227.217 104.116 227.054V221.11C104.116 220.94 104.155 220.813 104.234 220.728C104.312 220.636 104.421 220.59 104.561 220.59H106.567C107.204 220.59 107.697 220.767 108.044 221.12C108.39 221.473 108.564 221.973 108.564 222.62C108.564 223.039 108.486 223.399 108.329 223.699C108.172 224 107.943 224.229 107.641 224.386C107.344 224.543 106.986 224.621 106.567 224.621L106.642 224.484H106.86C107.084 224.484 107.277 224.549 107.439 224.68C107.607 224.811 107.758 225.02 107.893 225.308L108.614 226.877C108.67 226.995 108.695 227.109 108.69 227.22C108.69 227.325 108.656 227.41 108.589 227.475C108.527 227.541 108.438 227.573 108.32 227.573C108.197 227.573 108.097 227.544 108.018 227.485C107.946 227.42 107.879 227.325 107.817 227.201L106.936 225.298C106.818 225.043 106.684 224.873 106.533 224.788C106.382 224.696 106.183 224.651 105.937 224.651H104.989V227.054C104.989 227.217 104.953 227.345 104.88 227.436C104.807 227.528 104.698 227.573 104.553 227.573ZM104.989 223.886H106.424C106.849 223.886 107.171 223.781 107.389 223.572C107.607 223.363 107.716 223.052 107.716 222.64C107.716 222.235 107.607 221.927 107.389 221.718C107.171 221.509 106.849 221.404 106.424 221.404H104.989V223.886ZM111.526 227.593C111.079 227.593 110.693 227.495 110.368 227.299C110.049 227.096 109.8 226.812 109.621 226.446C109.448 226.073 109.361 225.631 109.361 225.121C109.361 224.625 109.448 224.19 109.621 223.817C109.795 223.444 110.032 223.153 110.334 222.944C110.637 222.735 110.981 222.63 111.367 222.63C111.652 222.63 111.906 222.686 112.13 222.797C112.354 222.902 112.544 223.059 112.701 223.268C112.863 223.47 112.983 223.719 113.062 224.013C113.146 224.307 113.188 224.638 113.188 225.004C113.188 225.115 113.16 225.2 113.104 225.259C113.048 225.311 112.964 225.337 112.852 225.337H110.032V224.729H112.617L112.474 224.866C112.474 224.54 112.432 224.262 112.348 224.033C112.27 223.804 112.15 223.631 111.988 223.513C111.831 223.389 111.635 223.327 111.4 223.327C111.137 223.327 110.913 223.399 110.729 223.542C110.55 223.686 110.413 223.886 110.318 224.141C110.223 224.396 110.175 224.693 110.175 225.033V225.092C110.175 225.667 110.29 226.102 110.519 226.397C110.754 226.684 111.093 226.828 111.534 226.828C111.702 226.828 111.879 226.802 112.063 226.75C112.253 226.697 112.432 226.609 112.6 226.485C112.695 226.419 112.779 226.39 112.852 226.397C112.93 226.403 112.992 226.432 113.037 226.485C113.087 226.537 113.118 226.602 113.129 226.681C113.14 226.759 113.129 226.841 113.095 226.926C113.062 227.005 113.003 227.077 112.919 227.142C112.729 227.292 112.508 227.407 112.256 227.485C112.004 227.557 111.761 227.593 111.526 227.593ZM114.532 229.339C114.397 229.339 114.294 229.296 114.221 229.211C114.148 229.126 114.112 229.002 114.112 228.839V223.15C114.112 222.987 114.148 222.862 114.221 222.777C114.294 222.692 114.395 222.65 114.523 222.65C114.658 222.65 114.761 222.692 114.834 222.777C114.906 222.862 114.943 222.987 114.943 223.15V224.003L114.851 223.797C114.94 223.444 115.116 223.163 115.379 222.954C115.642 222.738 115.953 222.63 116.311 222.63C116.674 222.63 116.99 222.732 117.259 222.934C117.533 223.137 117.743 223.421 117.888 223.788C118.039 224.154 118.115 224.595 118.115 225.112C118.115 225.615 118.039 226.056 117.888 226.436C117.743 226.808 117.536 227.096 117.267 227.299C116.999 227.495 116.68 227.593 116.311 227.593C115.958 227.593 115.651 227.488 115.388 227.279C115.125 227.07 114.948 226.792 114.859 226.446H114.96V228.839C114.96 229.002 114.92 229.126 114.842 229.211C114.769 229.296 114.666 229.339 114.532 229.339ZM116.101 226.828C116.336 226.828 116.54 226.763 116.713 226.632C116.887 226.501 117.021 226.308 117.116 226.053C117.211 225.798 117.259 225.484 117.259 225.112C117.259 224.549 117.153 224.124 116.94 223.837C116.733 223.549 116.453 223.405 116.101 223.405C115.872 223.405 115.667 223.47 115.488 223.601C115.315 223.725 115.181 223.915 115.086 224.17C114.99 224.425 114.943 224.739 114.943 225.112C114.943 225.667 115.049 226.092 115.262 226.387C115.474 226.681 115.754 226.828 116.101 226.828ZM120.849 227.593C120.435 227.593 120.077 227.492 119.775 227.289C119.479 227.086 119.246 226.799 119.079 226.426C118.911 226.053 118.827 225.615 118.827 225.112C118.827 224.726 118.874 224.383 118.969 224.082C119.065 223.781 119.199 223.523 119.372 223.307C119.551 223.085 119.764 222.918 120.01 222.807C120.262 222.689 120.541 222.63 120.849 222.63C121.258 222.63 121.61 222.732 121.906 222.934C122.209 223.137 122.444 223.425 122.611 223.797C122.779 224.164 122.863 224.602 122.863 225.112C122.863 225.491 122.816 225.834 122.72 226.141C122.625 226.449 122.488 226.71 122.309 226.926C122.136 227.142 121.923 227.309 121.672 227.426C121.425 227.537 121.151 227.593 120.849 227.593ZM120.849 226.828C121.079 226.828 121.28 226.763 121.453 226.632C121.627 226.501 121.761 226.308 121.856 226.053C121.957 225.798 122.007 225.484 122.007 225.112C122.007 224.549 121.901 224.124 121.688 223.837C121.476 223.549 121.196 223.405 120.849 223.405C120.614 223.405 120.41 223.47 120.237 223.601C120.063 223.725 119.926 223.915 119.825 224.17C119.73 224.425 119.683 224.739 119.683 225.112C119.683 225.667 119.789 226.092 120.002 226.387C120.214 226.681 120.497 226.828 120.849 226.828ZM124.243 227.573C124.103 227.573 123.997 227.531 123.924 227.446C123.851 227.354 123.815 227.23 123.815 227.073V223.15C123.815 222.987 123.851 222.862 123.924 222.777C123.997 222.692 124.097 222.65 124.226 222.65C124.36 222.65 124.461 222.692 124.528 222.777C124.601 222.862 124.637 222.987 124.637 223.15V223.866H124.553C124.643 223.474 124.808 223.176 125.048 222.974C125.289 222.771 125.597 222.653 125.972 222.62C126.072 222.614 126.151 222.643 126.206 222.709C126.268 222.774 126.302 222.875 126.307 223.013C126.318 223.15 126.293 223.261 126.232 223.346C126.17 223.425 126.075 223.47 125.946 223.484L125.787 223.503C125.423 223.542 125.146 223.676 124.956 223.905C124.766 224.134 124.671 224.448 124.671 224.847V227.073C124.671 227.23 124.634 227.354 124.562 227.446C124.495 227.531 124.388 227.573 124.243 227.573ZM128.92 227.593C128.584 227.593 128.302 227.524 128.072 227.387C127.843 227.25 127.672 227.047 127.56 226.779C127.448 226.511 127.393 226.184 127.393 225.798V223.484H126.889C126.777 223.484 126.69 223.451 126.629 223.385C126.567 223.314 126.537 223.219 126.537 223.101C126.537 222.977 126.567 222.882 126.629 222.817C126.69 222.751 126.777 222.719 126.889 222.719H127.393V221.708C127.393 221.545 127.429 221.421 127.502 221.336C127.58 221.251 127.686 221.208 127.82 221.208C127.955 221.208 128.058 221.251 128.131 221.336C128.204 221.421 128.24 221.545 128.24 221.708V222.719H129.222C129.334 222.719 129.42 222.751 129.482 222.817C129.544 222.882 129.574 222.977 129.574 223.101C129.574 223.219 129.544 223.314 129.482 223.385C129.42 223.451 129.334 223.484 129.222 223.484H128.24V225.72C128.24 226.066 128.302 226.328 128.425 226.504C128.553 226.681 128.76 226.769 129.046 226.769C129.146 226.769 129.233 226.759 129.306 226.74C129.384 226.714 129.448 226.697 129.499 226.691C129.56 226.691 129.611 226.717 129.65 226.769C129.689 226.815 129.709 226.907 129.709 227.044C129.709 227.142 129.692 227.233 129.658 227.318C129.63 227.403 129.577 227.459 129.499 227.485C129.432 227.511 129.339 227.534 129.222 227.554C129.11 227.58 129.009 227.593 128.92 227.593Z" fill="#9B9B9B"/>
</g>
</g>
<defs>
<filter id="filter0_d_14719_58392" x="0.75" y="0" width="432" height="288.64" filterUnits="userSpaceOnUse" color-interpolation-filters="sRGB">
<feFlood flood-opacity="0" result="BackgroundImageFix"/>
<feColorMatrix in="SourceAlpha" type="matrix" values="0 0 0 0 0 0 0 0 0 0 0 0 0 0 0 0 0 0 127 0" result="hardAlpha"/>
<feOffset dx="1" dy="1"/>
<feGaussianBlur stdDeviation="8"/>
<feComposite in2="hardAlpha" operator="out"/>
<feColorMatrix type="matrix" values="0 0 0 0 0 0 0 0 0 0 0 0 0 0 0 0 0 0 0.09 0"/>
<feBlend mode="normal" in2="BackgroundImageFix" result="effect1_dropShadow_14719_58392"/>
<feBlend mode="normal" in="SourceGraphic" in2="effect1_dropShadow_14719_58392" result="shape"/>
</filter>
<filter id="filter1_d_14719_58392" x="14.7363" y="16.3464" width="143.287" height="70.0488" filterUnits="userSpaceOnUse" color-interpolation-filters="sRGB">
<feFlood flood-opacity="0" result="BackgroundImageFix"/>
<feColorMatrix in="SourceAlpha" type="matrix" values="0 0 0 0 0 0 0 0 0 0 0 0 0 0 0 0 0 0 127 0" result="hardAlpha"/>
<feOffset/>
<feGaussianBlur stdDeviation="7.5"/>
<feComposite in2="hardAlpha" operator="out"/>
<feColorMatrix type="matrix" values="0 0 0 0 0.976471 0 0 0 0 0.482353 0 0 0 0 0.360784 0 0 0 0.2 0"/>
<feBlend mode="normal" in2="BackgroundImageFix" result="effect1_dropShadow_14719_58392"/>
<feBlend mode="normal" in="SourceGraphic" in2="effect1_dropShadow_14719_58392" result="shape"/>
</filter>
<filter id="filter2_d_14719_58392" x="2.73633" y="57.5688" width="432.028" height="235.725" filterUnits="userSpaceOnUse" color-interpolation-filters="sRGB">
<feFlood flood-opacity="0" result="BackgroundImageFix"/>
<feColorMatrix in="SourceAlpha" type="matrix" values="0 0 0 0 0 0 0 0 0 0 0 0 0 0 0 0 0 0 127 0" result="hardAlpha"/>
<feOffset dx="3" dy="8"/>
<feGaussianBlur stdDeviation="15"/>
<feComposite in2="hardAlpha" operator="out"/>
<feColorMatrix type="matrix" values="0 0 0 0 0 0 0 0 0 0 0 0 0 0 0 0 0 0 0.04 0"/>
<feBlend mode="normal" in2="BackgroundImageFix" result="effect1_dropShadow_14719_58392"/>
<feBlend mode="normal" in="SourceGraphic" in2="effect1_dropShadow_14719_58392" result="shape"/>
</filter>
</defs>
</svg>
