<svg width="401" height="192" viewBox="0 0 401 192" fill="none" xmlns="http://www.w3.org/2000/svg">
<mask id="mask0_13129_59710" style="mask-type:luminance" maskUnits="userSpaceOnUse" x="0" y="0" width="401" height="192">
<path d="M380.5 0H20.5C9.4543 0 0.5 8.9543 0.5 20V172C0.5 183.046 9.4543 192 20.5 192H380.5C391.546 192 400.5 183.046 400.5 172V20C400.5 8.9543 391.546 0 380.5 0Z" fill="white"/>
</mask>
<g mask="url(#mask0_13129_59710)">
<path d="M382.5 0H18.5C8.55887 0 0.5 8.05887 0.5 18V174C0.5 183.941 8.55887 192 18.5 192H382.5C392.441 192 400.5 183.941 400.5 174V18C400.5 8.05887 392.441 0 382.5 0Z" fill="#F6F6F6"/>
<g filter="url(#filter0_d_13129_59710)">
<path d="M403.5 0H5.5C2.73858 0 0.5 2.23858 0.5 5V187C0.5 189.761 2.73858 192 5.5 192H403.5C406.261 192 408.5 189.761 408.5 187V5C408.5 2.23858 406.261 0 403.5 0Z" fill="white"/>
<path d="M45.1719 31.0856C44.9719 31.0856 44.8159 31.0296 44.7039 30.9176C44.5999 30.8056 44.5479 30.6496 44.5479 30.4496V23.5856H42.0039C41.8359 23.5856 41.7039 23.5416 41.6079 23.4536C41.5119 23.3576 41.4639 23.2256 41.4639 23.0576C41.4639 22.8896 41.5119 22.7616 41.6079 22.6736C41.7039 22.5856 41.8359 22.5416 42.0039 22.5416H48.3279C48.5039 22.5416 48.6399 22.5856 48.7359 22.6736C48.8319 22.7616 48.8799 22.8896 48.8799 23.0576C48.8799 23.2256 48.8319 23.3576 48.7359 23.4536C48.6399 23.5416 48.5039 23.5856 48.3279 23.5856H45.7839V30.4496C45.7839 30.6496 45.7319 30.8056 45.6279 30.9176C45.5319 31.0296 45.3799 31.0856 45.1719 31.0856ZM51.3061 31.1096C50.7141 31.1096 50.2021 30.9856 49.7701 30.7376C49.3461 30.4896 49.0141 30.1376 48.7741 29.6816C48.5341 29.2256 48.4141 28.6896 48.4141 28.0736C48.4141 27.6016 48.4821 27.1816 48.6181 26.8136C48.7541 26.4456 48.9461 26.1296 49.1941 25.8656C49.4501 25.5936 49.7541 25.3896 50.1061 25.2536C50.4661 25.1096 50.8661 25.0376 51.3061 25.0376C51.8901 25.0376 52.3941 25.1616 52.8181 25.4096C53.2501 25.6576 53.5861 26.0096 53.8261 26.4656C54.0661 26.9136 54.1861 27.4496 54.1861 28.0736C54.1861 28.5376 54.1181 28.9576 53.9821 29.3336C53.8461 29.7096 53.6501 30.0296 53.3941 30.2936C53.1461 30.5576 52.8421 30.7616 52.4821 30.9056C52.1301 31.0416 51.7381 31.1096 51.3061 31.1096ZM51.3061 30.1736C51.6341 30.1736 51.9221 30.0936 52.1701 29.9336C52.4181 29.7736 52.6101 29.5376 52.7461 29.2256C52.8901 28.9136 52.9621 28.5296 52.9621 28.0736C52.9621 27.3856 52.8101 26.8656 52.5061 26.5136C52.2021 26.1616 51.8021 25.9856 51.3061 25.9856C50.9701 25.9856 50.6781 26.0656 50.4301 26.2256C50.1821 26.3776 49.9861 26.6096 49.8421 26.9216C49.7061 27.2336 49.6381 27.6176 49.6381 28.0736C49.6381 28.7536 49.7901 29.2736 50.0941 29.6336C50.3981 29.9936 50.8021 30.1736 51.3061 30.1736ZM57.7792 31.1096C57.2672 31.1096 56.8152 30.9896 56.4232 30.7496C56.0392 30.5016 55.7392 30.1496 55.5232 29.6936C55.3072 29.2296 55.1992 28.6896 55.1992 28.0736C55.1992 27.4416 55.3072 26.9016 55.5232 26.4536C55.7392 26.0056 56.0392 25.6576 56.4232 25.4096C56.8152 25.1616 57.2672 25.0376 57.7792 25.0376C58.2912 25.0376 58.7312 25.1656 59.0992 25.4216C59.4752 25.6696 59.7272 26.0056 59.8552 26.4296H59.7232V23.0696C59.7232 22.8696 59.7752 22.7176 59.8792 22.6136C59.9832 22.5096 60.1312 22.4576 60.3232 22.4576C60.5152 22.4576 60.6632 22.5096 60.7672 22.6136C60.8792 22.7176 60.9352 22.8696 60.9352 23.0696V30.4736C60.9352 30.6656 60.8832 30.8176 60.7792 30.9296C60.6752 31.0336 60.5272 31.0856 60.3352 31.0856C60.1432 31.0856 59.9952 31.0336 59.8912 30.9296C59.7872 30.8176 59.7352 30.6656 59.7352 30.4736V29.4176L59.8672 29.6816C59.7392 30.1136 59.4872 30.4616 59.1112 30.7256C58.7432 30.9816 58.2992 31.1096 57.7792 31.1096ZM58.0912 30.1736C58.4192 30.1736 58.7072 30.0936 58.9552 29.9336C59.2032 29.7736 59.3952 29.5376 59.5312 29.2256C59.6752 28.9136 59.7472 28.5296 59.7472 28.0736C59.7472 27.3856 59.5952 26.8656 59.2912 26.5136C58.9872 26.1616 58.5872 25.9856 58.0912 25.9856C57.7552 25.9856 57.4632 26.0656 57.2152 26.2256C56.9672 26.3776 56.7712 26.6096 56.6272 26.9216C56.4912 27.2336 56.4232 27.6176 56.4232 28.0736C56.4232 28.7536 56.5752 29.2736 56.8792 29.6336C57.1832 29.9936 57.5872 30.1736 58.0912 30.1736ZM64.5091 31.1096C64.1011 31.1096 63.7331 31.0296 63.4051 30.8696C63.0851 30.7096 62.8331 30.4936 62.6491 30.2216C62.4651 29.9496 62.3731 29.6416 62.3731 29.2976C62.3731 28.8656 62.4811 28.5256 62.6971 28.2776C62.9211 28.0216 63.2851 27.8416 63.7891 27.7376C64.3011 27.6256 64.9891 27.5696 65.8531 27.5696H66.4171V28.3136H65.8651C65.2891 28.3136 64.8331 28.3416 64.4971 28.3976C64.1611 28.4536 63.9211 28.5496 63.7771 28.6856C63.6411 28.8136 63.5731 28.9936 63.5731 29.2256C63.5731 29.5296 63.6771 29.7776 63.8851 29.9696C64.0931 30.1536 64.3811 30.2456 64.7491 30.2456C65.0451 30.2456 65.3051 30.1776 65.5291 30.0416C65.7531 29.8976 65.9291 29.7056 66.0571 29.4656C66.1931 29.2256 66.2611 28.9496 66.2611 28.6376V27.2576C66.2611 26.8016 66.1651 26.4736 65.9731 26.2736C65.7811 26.0736 65.4651 25.9736 65.0251 25.9736C64.7691 25.9736 64.5011 26.0056 64.2211 26.0696C63.9491 26.1336 63.6651 26.2416 63.3691 26.3936C63.2331 26.4576 63.1171 26.4776 63.0211 26.4536C62.9251 26.4296 62.8491 26.3776 62.7931 26.2976C62.7371 26.2096 62.7051 26.1176 62.6971 26.0216C62.6971 25.9176 62.7211 25.8176 62.7691 25.7216C62.8251 25.6256 62.9171 25.5536 63.0451 25.5056C63.3971 25.3376 63.7451 25.2176 64.0891 25.1456C64.4331 25.0736 64.7571 25.0376 65.0611 25.0376C65.5971 25.0376 66.0371 25.1216 66.3811 25.2896C66.7331 25.4576 66.9931 25.7136 67.1611 26.0576C67.3291 26.4016 67.4131 26.8456 67.4131 27.3896V30.4736C67.4131 30.6656 67.3651 30.8176 67.2691 30.9296C67.1731 31.0336 67.0331 31.0856 66.8491 31.0856C66.6731 31.0856 66.5331 31.0336 66.4291 30.9296C66.3251 30.8176 66.2731 30.6656 66.2731 30.4736V29.6936H66.3811C66.3171 29.9896 66.1971 30.2456 66.0211 30.4616C65.8531 30.6696 65.6411 30.8296 65.3851 30.9416C65.1291 31.0536 64.8371 31.1096 64.5091 31.1096ZM70.4038 33.2456C70.2598 33.2456 70.1398 33.2056 70.0438 33.1256C69.9558 33.0536 69.9038 32.9536 69.8878 32.8256C69.8798 32.7056 69.9038 32.5736 69.9598 32.4296L70.7758 30.5936V31.1096L68.5318 25.8896C68.4758 25.7456 68.4558 25.6096 68.4718 25.4816C68.4878 25.3536 68.5478 25.2536 68.6518 25.1816C68.7558 25.1016 68.8958 25.0616 69.0718 25.0616C69.2238 25.0616 69.3438 25.0976 69.4318 25.1696C69.5198 25.2416 69.5998 25.3656 69.6718 25.5416L71.4838 30.0176H71.1478L72.9838 25.5416C73.0558 25.3576 73.1398 25.2336 73.2358 25.1696C73.3318 25.0976 73.4638 25.0616 73.6318 25.0616C73.7758 25.0616 73.8878 25.1016 73.9678 25.1816C74.0558 25.2536 74.1078 25.3536 74.1238 25.4816C74.1478 25.6016 74.1278 25.7336 74.0638 25.8776L71.0638 32.7776C70.9838 32.9616 70.8918 33.0856 70.7878 33.1496C70.6918 33.2136 70.5638 33.2456 70.4038 33.2456ZM75.3922 32.2136C75.3042 32.3256 75.2082 32.3896 75.1042 32.4056C75.0082 32.4216 74.9242 32.4016 74.8522 32.3456C74.7802 32.2896 74.7402 32.2096 74.7322 32.1056C74.7242 32.0096 74.7682 31.9016 74.8642 31.7816C75.0082 31.6056 75.1042 31.4216 75.1522 31.2296C75.2082 31.0456 75.2362 30.8816 75.2362 30.7376L75.2842 31.0496C75.0442 31.0496 74.8482 30.9816 74.6962 30.8456C74.5522 30.7016 74.4802 30.5136 74.4802 30.2816C74.4802 30.0576 74.5482 29.8776 74.6842 29.7416C74.8202 29.5976 75.0042 29.5256 75.2362 29.5256C75.4762 29.5256 75.6642 29.6096 75.8002 29.7776C75.9442 29.9376 76.0162 30.1696 76.0162 30.4736C76.0162 30.6496 75.9962 30.8336 75.9562 31.0256C75.9242 31.2176 75.8642 31.4136 75.7762 31.6136C75.6882 31.8136 75.5602 32.0136 75.3922 32.2136ZM82.8079 31.1096C82.4559 31.1096 82.0879 31.0496 81.7039 30.9296C81.3279 30.8016 80.9839 30.6136 80.6719 30.3656C80.5679 30.2936 80.4999 30.2056 80.4679 30.1016C80.4439 29.9896 80.4439 29.8856 80.4679 29.7896C80.4919 29.6856 80.5399 29.5976 80.6119 29.5256C80.6839 29.4456 80.7719 29.4016 80.8759 29.3936C80.9879 29.3776 81.1039 29.4096 81.2239 29.4896C81.4959 29.6896 81.7639 29.8336 82.0279 29.9216C82.2999 30.0096 82.5679 30.0536 82.8319 30.0536C83.3279 30.0536 83.7479 29.9336 84.0919 29.6936C84.4359 29.4536 84.6959 29.0936 84.8719 28.6136C85.0479 28.1336 85.1359 27.5376 85.1359 26.8256V25.8056H85.2679C85.2119 26.2296 85.0759 26.6016 84.8599 26.9216C84.6519 27.2416 84.3799 27.4856 84.0439 27.6536C83.7079 27.8216 83.3359 27.9056 82.9279 27.9056C82.4399 27.9056 82.0039 27.7896 81.6199 27.5576C81.2359 27.3256 80.9359 27.0056 80.7199 26.5976C80.5039 26.1896 80.3959 25.7296 80.3959 25.2176C80.3959 24.6736 80.5119 24.1936 80.7439 23.7776C80.9759 23.3536 81.2959 23.0256 81.7039 22.7936C82.1199 22.5536 82.5959 22.4336 83.1319 22.4336C83.8199 22.4336 84.3999 22.5976 84.8719 22.9256C85.3439 23.2456 85.7039 23.7176 85.9519 24.3416C86.2079 24.9656 86.3359 25.7136 86.3359 26.5856C86.3359 27.3136 86.2559 27.9576 86.0959 28.5176C85.9359 29.0776 85.7039 29.5496 85.3999 29.9336C85.0959 30.3176 84.7239 30.6096 84.2839 30.8096C83.8519 31.0096 83.3599 31.1096 82.8079 31.1096ZM83.2159 26.8856C83.5359 26.8856 83.8199 26.8136 84.0679 26.6696C84.3159 26.5256 84.5079 26.3216 84.6439 26.0576C84.7879 25.7936 84.8599 25.4936 84.8599 25.1576C84.8599 24.8136 84.7879 24.5136 84.6439 24.2576C84.5079 23.9936 84.3159 23.7896 84.0679 23.6456C83.8199 23.5016 83.5359 23.4296 83.2159 23.4296C82.8879 23.4296 82.5999 23.5016 82.3519 23.6456C82.1119 23.7896 81.9199 23.9936 81.7759 24.2576C81.6399 24.5136 81.5719 24.8136 81.5719 25.1576C81.5719 25.4936 81.6399 25.7936 81.7759 26.0576C81.9199 26.3216 82.1119 26.5256 82.3519 26.6696C82.5999 26.8136 82.8879 26.8856 83.2159 26.8856ZM88.4672 31.0496C88.2352 31.0496 88.0472 30.9776 87.9032 30.8336C87.7592 30.6896 87.6872 30.5056 87.6872 30.2816C87.6872 30.0576 87.7592 29.8776 87.9032 29.7416C88.0472 29.5976 88.2352 29.5256 88.4672 29.5256C88.6992 29.5256 88.8832 29.5976 89.0192 29.7416C89.1552 29.8776 89.2232 30.0576 89.2232 30.2816C89.2232 30.5056 89.1552 30.6896 89.0192 30.8336C88.8832 30.9776 88.6992 31.0496 88.4672 31.0496ZM88.4672 26.6216C88.2352 26.6216 88.0472 26.5496 87.9032 26.4056C87.7592 26.2616 87.6872 26.0816 87.6872 25.8656C87.6872 25.6336 87.7592 25.4496 87.9032 25.3136C88.0472 25.1696 88.2352 25.0976 88.4672 25.0976C88.6992 25.0976 88.8832 25.1696 89.0192 25.3136C89.1552 25.4496 89.2232 25.6336 89.2232 25.8656C89.2232 26.0816 89.1552 26.2616 89.0192 26.4056C88.8832 26.5496 88.6992 26.6216 88.4672 26.6216ZM93.3429 31.1096C92.8949 31.1096 92.4389 31.0496 91.9749 30.9296C91.5109 30.8016 91.1069 30.6136 90.7629 30.3656C90.6349 30.2856 90.5469 30.1896 90.4989 30.0776C90.4589 29.9576 90.4509 29.8496 90.4749 29.7536C90.4989 29.6496 90.5469 29.5616 90.6189 29.4896C90.6989 29.4176 90.7949 29.3776 90.9069 29.3696C91.0189 29.3536 91.1429 29.3856 91.2789 29.4656C91.6229 29.6736 91.9589 29.8256 92.2869 29.9216C92.6149 30.0096 92.9549 30.0536 93.3069 30.0536C93.6909 30.0536 94.0149 29.9976 94.2789 29.8856C94.5429 29.7736 94.7389 29.6096 94.8669 29.3936C95.0029 29.1776 95.0709 28.9176 95.0709 28.6136C95.0709 28.1576 94.9189 27.8176 94.6149 27.5936C94.3189 27.3616 93.8869 27.2456 93.3189 27.2456H92.5029C92.3189 27.2456 92.1789 27.2016 92.0829 27.1136C91.9869 27.0176 91.9389 26.8856 91.9389 26.7176C91.9389 26.5576 91.9869 26.4336 92.0829 26.3456C92.1789 26.2496 92.3189 26.2016 92.5029 26.2016H93.1989C93.5429 26.2016 93.8349 26.1456 94.0749 26.0336C94.3149 25.9136 94.4989 25.7496 94.6269 25.5416C94.7629 25.3256 94.8309 25.0656 94.8309 24.7616C94.8309 24.3536 94.6949 24.0416 94.4229 23.8256C94.1589 23.6016 93.7709 23.4896 93.2589 23.4896C92.9309 23.4896 92.6189 23.5336 92.3229 23.6216C92.0349 23.7096 91.7349 23.8656 91.4229 24.0896C91.3029 24.1696 91.1869 24.2056 91.0749 24.1976C90.9709 24.1816 90.8789 24.1416 90.7989 24.0776C90.7269 24.0056 90.6749 23.9176 90.6429 23.8136C90.6189 23.7096 90.6269 23.6016 90.6669 23.4896C90.7069 23.3776 90.7869 23.2816 90.9069 23.2016C91.2429 22.9536 91.6229 22.7656 92.0469 22.6376C92.4709 22.5016 92.9069 22.4336 93.3549 22.4336C93.9149 22.4336 94.3949 22.5216 94.7949 22.6976C95.2029 22.8736 95.5109 23.1256 95.7189 23.4536C95.9349 23.7816 96.0429 24.1736 96.0429 24.6296C96.0429 24.9736 95.9789 25.2856 95.8509 25.5656C95.7229 25.8456 95.5389 26.0856 95.2989 26.2856C95.0669 26.4776 94.7829 26.6136 94.4469 26.6936V26.5616C95.0309 26.6576 95.4829 26.8976 95.8029 27.2816C96.1229 27.6576 96.2829 28.1296 96.2829 28.6976C96.2829 29.1936 96.1629 29.6256 95.9229 29.9936C95.6909 30.3536 95.3549 30.6296 94.9149 30.8216C94.4749 31.0136 93.9509 31.1096 93.3429 31.1096ZM100.67 31.1096C99.6862 31.1096 98.9342 30.7376 98.4142 29.9936C97.9022 29.2416 97.6462 28.1656 97.6462 26.7656C97.6462 25.8136 97.7622 25.0176 97.9942 24.3776C98.2262 23.7376 98.5662 23.2536 99.0142 22.9256C99.4622 22.5976 100.014 22.4336 100.67 22.4336C101.662 22.4336 102.414 22.8016 102.926 23.5376C103.438 24.2656 103.694 25.3376 103.694 26.7536C103.694 27.6896 103.578 28.4816 103.346 29.1296C103.114 29.7776 102.774 30.2696 102.326 30.6056C101.878 30.9416 101.326 31.1096 100.67 31.1096ZM100.67 30.0776C101.286 30.0776 101.738 29.8096 102.026 29.2736C102.322 28.7296 102.47 27.8896 102.47 26.7536C102.47 25.6096 102.322 24.7776 102.026 24.2576C101.738 23.7296 101.286 23.4656 100.67 23.4656C100.062 23.4656 99.6102 23.7296 99.3142 24.2576C99.0182 24.7776 98.8702 25.6096 98.8702 26.7536C98.8702 27.8896 99.0182 28.7296 99.3142 29.2736C99.6102 29.8096 100.062 30.0776 100.67 30.0776ZM110.154 31.1096C109.746 31.1096 109.378 31.0296 109.05 30.8696C108.73 30.7096 108.478 30.4936 108.294 30.2216C108.11 29.9496 108.018 29.6416 108.018 29.2976C108.018 28.8656 108.126 28.5256 108.342 28.2776C108.566 28.0216 108.93 27.8416 109.434 27.7376C109.946 27.6256 110.634 27.5696 111.498 27.5696H112.062V28.3136H111.51C110.934 28.3136 110.478 28.3416 110.142 28.3976C109.806 28.4536 109.566 28.5496 109.422 28.6856C109.286 28.8136 109.218 28.9936 109.218 29.2256C109.218 29.5296 109.322 29.7776 109.53 29.9696C109.738 30.1536 110.026 30.2456 110.394 30.2456C110.69 30.2456 110.95 30.1776 111.174 30.0416C111.398 29.8976 111.574 29.7056 111.702 29.4656C111.838 29.2256 111.906 28.9496 111.906 28.6376V27.2576C111.906 26.8016 111.81 26.4736 111.618 26.2736C111.426 26.0736 111.11 25.9736 110.67 25.9736C110.414 25.9736 110.146 26.0056 109.866 26.0696C109.594 26.1336 109.31 26.2416 109.014 26.3936C108.878 26.4576 108.762 26.4776 108.666 26.4536C108.57 26.4296 108.494 26.3776 108.438 26.2976C108.382 26.2096 108.35 26.1176 108.342 26.0216C108.342 25.9176 108.366 25.8176 108.414 25.7216C108.47 25.6256 108.562 25.5536 108.69 25.5056C109.042 25.3376 109.39 25.2176 109.734 25.1456C110.078 25.0736 110.402 25.0376 110.706 25.0376C111.242 25.0376 111.682 25.1216 112.026 25.2896C112.378 25.4576 112.638 25.7136 112.806 26.0576C112.974 26.4016 113.058 26.8456 113.058 27.3896V30.4736C113.058 30.6656 113.01 30.8176 112.914 30.9296C112.818 31.0336 112.678 31.0856 112.494 31.0856C112.318 31.0856 112.178 31.0336 112.074 30.9296C111.97 30.8176 111.918 30.6656 111.918 30.4736V29.6936H112.026C111.962 29.9896 111.842 30.2456 111.666 30.4616C111.498 30.6696 111.286 30.8296 111.03 30.9416C110.774 31.0536 110.482 31.1096 110.154 31.1096ZM115.351 31.0856C115.159 31.0856 115.011 31.0336 114.907 30.9296C114.803 30.8176 114.751 30.6656 114.751 30.4736V25.6736C114.751 25.4736 114.803 25.3216 114.907 25.2176C115.011 25.1136 115.155 25.0616 115.339 25.0616C115.531 25.0616 115.675 25.1136 115.771 25.2176C115.875 25.3216 115.927 25.4736 115.927 25.6736V26.6576L115.795 26.3936C115.955 25.9696 116.203 25.6376 116.539 25.3976C116.875 25.1576 117.279 25.0376 117.751 25.0376C118.239 25.0376 118.635 25.1536 118.939 25.3856C119.243 25.6176 119.451 25.9736 119.563 26.4536H119.395C119.547 26.0136 119.807 25.6696 120.175 25.4216C120.543 25.1656 120.971 25.0376 121.459 25.0376C121.907 25.0376 122.275 25.1256 122.563 25.3016C122.851 25.4696 123.067 25.7296 123.211 26.0816C123.355 26.4256 123.427 26.8616 123.427 27.3896V30.4736C123.427 30.6656 123.371 30.8176 123.259 30.9296C123.155 31.0336 123.007 31.0856 122.815 31.0856C122.623 31.0856 122.475 31.0336 122.371 30.9296C122.267 30.8176 122.215 30.6656 122.215 30.4736V27.4496C122.215 26.9536 122.127 26.5896 121.951 26.3576C121.783 26.1256 121.503 26.0096 121.111 26.0096C120.671 26.0096 120.323 26.1616 120.067 26.4656C119.811 26.7696 119.683 27.1896 119.683 27.7256V30.4736C119.683 30.6656 119.631 30.8176 119.527 30.9296C119.423 31.0336 119.275 31.0856 119.083 31.0856C118.891 31.0856 118.739 31.0336 118.627 30.9296C118.523 30.8176 118.471 30.6656 118.471 30.4736V27.4496C118.471 26.9536 118.387 26.5896 118.219 26.3576C118.051 26.1256 117.771 26.0096 117.379 26.0096C116.939 26.0096 116.591 26.1616 116.335 26.4656C116.087 26.7696 115.963 27.1896 115.963 27.7256V30.4736C115.963 30.8816 115.759 31.0856 115.351 31.0856ZM128.694 28.2896C128.55 28.2896 128.43 28.2416 128.334 28.1456C128.238 28.0496 128.19 27.9336 128.19 27.7976C128.19 27.6536 128.238 27.5376 128.334 27.4496C128.43 27.3536 128.55 27.3056 128.694 27.3056H131.334C131.47 27.3056 131.586 27.3536 131.682 27.4496C131.778 27.5376 131.826 27.6536 131.826 27.7976C131.826 27.9336 131.778 28.0496 131.682 28.1456C131.586 28.2416 131.47 28.2896 131.334 28.2896H128.694ZM137.602 31.0016C137.434 31.0016 137.302 30.9536 137.206 30.8576C137.11 30.7616 137.062 30.6336 137.062 30.4736C137.062 30.3056 137.11 30.1776 137.206 30.0896C137.302 30.0016 137.434 29.9576 137.602 29.9576H139.066V23.5736H139.69L137.938 24.6896C137.81 24.7616 137.69 24.7896 137.578 24.7736C137.474 24.7576 137.382 24.7136 137.302 24.6416C137.23 24.5696 137.178 24.4816 137.146 24.3776C137.122 24.2736 137.13 24.1656 137.17 24.0536C137.218 23.9416 137.302 23.8496 137.422 23.7776L139.078 22.7336C139.214 22.6536 139.342 22.5896 139.462 22.5416C139.59 22.4856 139.71 22.4576 139.822 22.4576C139.958 22.4576 140.07 22.4976 140.158 22.5776C140.254 22.6496 140.302 22.7736 140.302 22.9496V29.9576H141.646C141.822 29.9576 141.958 30.0016 142.054 30.0896C142.15 30.1776 142.198 30.3056 142.198 30.4736C142.198 30.6416 142.15 30.7736 142.054 30.8696C141.958 30.9576 141.822 31.0016 141.646 31.0016H137.602ZM146.538 31.1096C145.554 31.1096 144.802 30.7376 144.282 29.9936C143.77 29.2416 143.514 28.1656 143.514 26.7656C143.514 25.8136 143.63 25.0176 143.862 24.3776C144.094 23.7376 144.434 23.2536 144.882 22.9256C145.33 22.5976 145.882 22.4336 146.538 22.4336C147.53 22.4336 148.282 22.8016 148.794 23.5376C149.306 24.2656 149.562 25.3376 149.562 26.7536C149.562 27.6896 149.446 28.4816 149.214 29.1296C148.982 29.7776 148.642 30.2696 148.194 30.6056C147.746 30.9416 147.194 31.1096 146.538 31.1096ZM146.538 30.0776C147.154 30.0776 147.606 29.8096 147.894 29.2736C148.19 28.7296 148.338 27.8896 148.338 26.7536C148.338 25.6096 148.19 24.7776 147.894 24.2576C147.606 23.7296 147.154 23.4656 146.538 23.4656C145.93 23.4656 145.478 23.7296 145.182 24.2576C144.886 24.7776 144.738 25.6096 144.738 26.7536C144.738 27.8896 144.886 28.7296 145.182 29.2736C145.478 29.8096 145.93 30.0776 146.538 30.0776ZM151.573 31.0496C151.341 31.0496 151.153 30.9776 151.009 30.8336C150.865 30.6896 150.793 30.5056 150.793 30.2816C150.793 30.0576 150.865 29.8776 151.009 29.7416C151.153 29.5976 151.341 29.5256 151.573 29.5256C151.805 29.5256 151.989 29.5976 152.125 29.7416C152.261 29.8776 152.329 30.0576 152.329 30.2816C152.329 30.5056 152.261 30.6896 152.125 30.8336C151.989 30.9776 151.805 31.0496 151.573 31.0496ZM151.573 26.6216C151.341 26.6216 151.153 26.5496 151.009 26.4056C150.865 26.2616 150.793 26.0816 150.793 25.8656C150.793 25.6336 150.865 25.4496 151.009 25.3136C151.153 25.1696 151.341 25.0976 151.573 25.0976C151.805 25.0976 151.989 25.1696 152.125 25.3136C152.261 25.4496 152.329 25.6336 152.329 25.8656C152.329 26.0816 152.261 26.2616 152.125 26.4056C151.989 26.5496 151.805 26.6216 151.573 26.6216ZM156.448 31.1096C156 31.1096 155.544 31.0496 155.08 30.9296C154.616 30.8016 154.212 30.6136 153.868 30.3656C153.74 30.2856 153.652 30.1896 153.604 30.0776C153.564 29.9576 153.556 29.8496 153.58 29.7536C153.604 29.6496 153.652 29.5616 153.724 29.4896C153.804 29.4176 153.9 29.3776 154.012 29.3696C154.124 29.3536 154.248 29.3856 154.384 29.4656C154.728 29.6736 155.064 29.8256 155.392 29.9216C155.72 30.0096 156.06 30.0536 156.412 30.0536C156.796 30.0536 157.12 29.9976 157.384 29.8856C157.648 29.7736 157.844 29.6096 157.972 29.3936C158.108 29.1776 158.176 28.9176 158.176 28.6136C158.176 28.1576 158.024 27.8176 157.72 27.5936C157.424 27.3616 156.992 27.2456 156.424 27.2456H155.608C155.424 27.2456 155.284 27.2016 155.188 27.1136C155.092 27.0176 155.044 26.8856 155.044 26.7176C155.044 26.5576 155.092 26.4336 155.188 26.3456C155.284 26.2496 155.424 26.2016 155.608 26.2016H156.304C156.648 26.2016 156.94 26.1456 157.18 26.0336C157.42 25.9136 157.604 25.7496 157.732 25.5416C157.868 25.3256 157.936 25.0656 157.936 24.7616C157.936 24.3536 157.8 24.0416 157.528 23.8256C157.264 23.6016 156.876 23.4896 156.364 23.4896C156.036 23.4896 155.724 23.5336 155.428 23.6216C155.14 23.7096 154.84 23.8656 154.528 24.0896C154.408 24.1696 154.292 24.2056 154.18 24.1976C154.076 24.1816 153.984 24.1416 153.904 24.0776C153.832 24.0056 153.78 23.9176 153.748 23.8136C153.724 23.7096 153.732 23.6016 153.772 23.4896C153.812 23.3776 153.892 23.2816 154.012 23.2016C154.348 22.9536 154.728 22.7656 155.152 22.6376C155.576 22.5016 156.012 22.4336 156.46 22.4336C157.02 22.4336 157.5 22.5216 157.9 22.6976C158.308 22.8736 158.616 23.1256 158.824 23.4536C159.04 23.7816 159.148 24.1736 159.148 24.6296C159.148 24.9736 159.084 25.2856 158.956 25.5656C158.828 25.8456 158.644 26.0856 158.404 26.2856C158.172 26.4776 157.888 26.6136 157.552 26.6936V26.5616C158.136 26.6576 158.588 26.8976 158.908 27.2816C159.228 27.6576 159.388 28.1296 159.388 28.6976C159.388 29.1936 159.268 29.6256 159.028 29.9936C158.796 30.3536 158.46 30.6296 158.02 30.8216C157.58 31.0136 157.056 31.1096 156.448 31.1096ZM163.776 31.1096C162.792 31.1096 162.04 30.7376 161.52 29.9936C161.008 29.2416 160.752 28.1656 160.752 26.7656C160.752 25.8136 160.868 25.0176 161.1 24.3776C161.332 23.7376 161.672 23.2536 162.12 22.9256C162.568 22.5976 163.12 22.4336 163.776 22.4336C164.768 22.4336 165.52 22.8016 166.032 23.5376C166.544 24.2656 166.8 25.3376 166.8 26.7536C166.8 27.6896 166.684 28.4816 166.452 29.1296C166.22 29.7776 165.88 30.2696 165.432 30.6056C164.984 30.9416 164.432 31.1096 163.776 31.1096ZM163.776 30.0776C164.392 30.0776 164.844 29.8096 165.132 29.2736C165.428 28.7296 165.576 27.8896 165.576 26.7536C165.576 25.6096 165.428 24.7776 165.132 24.2576C164.844 23.7296 164.392 23.4656 163.776 23.4656C163.168 23.4656 162.716 23.7296 162.42 24.2576C162.124 24.7776 161.976 25.6096 161.976 26.7536C161.976 27.8896 162.124 28.7296 162.42 29.2736C162.716 29.8096 163.168 30.0776 163.776 30.0776ZM173.259 31.1096C172.851 31.1096 172.483 31.0296 172.155 30.8696C171.835 30.7096 171.583 30.4936 171.399 30.2216C171.215 29.9496 171.123 29.6416 171.123 29.2976C171.123 28.8656 171.231 28.5256 171.447 28.2776C171.671 28.0216 172.035 27.8416 172.539 27.7376C173.051 27.6256 173.739 27.5696 174.603 27.5696H175.167V28.3136H174.615C174.039 28.3136 173.583 28.3416 173.247 28.3976C172.911 28.4536 172.671 28.5496 172.527 28.6856C172.391 28.8136 172.323 28.9936 172.323 29.2256C172.323 29.5296 172.427 29.7776 172.635 29.9696C172.843 30.1536 173.131 30.2456 173.499 30.2456C173.795 30.2456 174.055 30.1776 174.279 30.0416C174.503 29.8976 174.679 29.7056 174.807 29.4656C174.943 29.2256 175.011 28.9496 175.011 28.6376V27.2576C175.011 26.8016 174.915 26.4736 174.723 26.2736C174.531 26.0736 174.215 25.9736 173.775 25.9736C173.519 25.9736 173.251 26.0056 172.971 26.0696C172.699 26.1336 172.415 26.2416 172.119 26.3936C171.983 26.4576 171.867 26.4776 171.771 26.4536C171.675 26.4296 171.599 26.3776 171.543 26.2976C171.487 26.2096 171.455 26.1176 171.447 26.0216C171.447 25.9176 171.471 25.8176 171.519 25.7216C171.575 25.6256 171.667 25.5536 171.795 25.5056C172.147 25.3376 172.495 25.2176 172.839 25.1456C173.183 25.0736 173.507 25.0376 173.811 25.0376C174.347 25.0376 174.787 25.1216 175.131 25.2896C175.483 25.4576 175.743 25.7136 175.911 26.0576C176.079 26.4016 176.163 26.8456 176.163 27.3896V30.4736C176.163 30.6656 176.115 30.8176 176.019 30.9296C175.923 31.0336 175.783 31.0856 175.599 31.0856C175.423 31.0856 175.283 31.0336 175.179 30.9296C175.075 30.8176 175.023 30.6656 175.023 30.4736V29.6936H175.131C175.067 29.9896 174.947 30.2456 174.771 30.4616C174.603 30.6696 174.391 30.8296 174.135 30.9416C173.879 31.0536 173.587 31.1096 173.259 31.1096ZM178.456 31.0856C178.264 31.0856 178.116 31.0336 178.012 30.9296C177.908 30.8176 177.856 30.6656 177.856 30.4736V25.6736C177.856 25.4736 177.908 25.3216 178.012 25.2176C178.116 25.1136 178.26 25.0616 178.444 25.0616C178.636 25.0616 178.78 25.1136 178.876 25.2176C178.98 25.3216 179.032 25.4736 179.032 25.6736V26.6576L178.9 26.3936C179.06 25.9696 179.308 25.6376 179.644 25.3976C179.98 25.1576 180.384 25.0376 180.856 25.0376C181.344 25.0376 181.74 25.1536 182.044 25.3856C182.348 25.6176 182.556 25.9736 182.668 26.4536H182.5C182.652 26.0136 182.912 25.6696 183.28 25.4216C183.648 25.1656 184.076 25.0376 184.564 25.0376C185.012 25.0376 185.38 25.1256 185.668 25.3016C185.956 25.4696 186.172 25.7296 186.316 26.0816C186.46 26.4256 186.532 26.8616 186.532 27.3896V30.4736C186.532 30.6656 186.476 30.8176 186.364 30.9296C186.26 31.0336 186.112 31.0856 185.92 31.0856C185.728 31.0856 185.58 31.0336 185.476 30.9296C185.372 30.8176 185.32 30.6656 185.32 30.4736V27.4496C185.32 26.9536 185.232 26.5896 185.056 26.3576C184.888 26.1256 184.608 26.0096 184.216 26.0096C183.776 26.0096 183.428 26.1616 183.172 26.4656C182.916 26.7696 182.788 27.1896 182.788 27.7256V30.4736C182.788 30.6656 182.736 30.8176 182.632 30.9296C182.528 31.0336 182.38 31.0856 182.188 31.0856C181.996 31.0856 181.844 31.0336 181.732 30.9296C181.628 30.8176 181.576 30.6656 181.576 30.4736V27.4496C181.576 26.9536 181.492 26.5896 181.324 26.3576C181.156 26.1256 180.876 26.0096 180.484 26.0096C180.044 26.0096 179.696 26.1616 179.44 26.4656C179.192 26.7696 179.068 27.1896 179.068 27.7256V30.4736C179.068 30.8816 178.864 31.0856 178.456 31.0856Z" fill="#686868"/>
<path d="M26.9168 21.168C25.7631 21.168 24.6353 21.5101 23.676 22.1511C22.7167 22.792 21.969 23.7031 21.5275 24.769C21.086 25.8349 20.9705 27.0078 21.1956 28.1393C21.4207 29.2709 21.9762 30.3103 22.792 31.1261C23.6078 31.9419 24.6472 32.4975 25.7788 32.7225C26.9104 32.9476 28.0833 32.8321 29.1492 32.3906C30.2151 31.9491 31.1261 31.2014 31.7671 30.2421C32.408 29.2828 32.7502 28.155 32.7502 27.0013C32.7502 26.2353 32.5993 25.4767 32.3061 24.769C32.013 24.0612 31.5833 23.4182 31.0416 22.8765C30.4999 22.3348 29.8569 21.9052 29.1492 21.612C28.4414 21.3189 27.6829 21.168 26.9168 21.168ZM26.9168 31.668C25.9939 31.668 25.0916 31.3943 24.3242 30.8815C23.5567 30.3687 22.9586 29.6399 22.6054 28.7872C22.2522 27.9344 22.1598 26.9961 22.3398 26.0909C22.5199 25.1856 22.9644 24.3541 23.617 23.7015C24.2696 23.0488 25.1012 22.6044 26.0064 22.4243C26.9117 22.2442 27.85 22.3367 28.7027 22.6899C29.5554 23.0431 30.2842 23.6412 30.797 24.4086C31.3098 25.1761 31.5835 26.0783 31.5835 27.0013C31.5835 28.239 31.0918 29.426 30.2167 30.3011C29.3415 31.1763 28.1545 31.668 26.9168 31.668ZM26.9168 23.5013C26.7621 23.5013 26.6137 23.5628 26.5044 23.6722C26.395 23.7816 26.3335 23.9299 26.3335 24.0846V26.9605L25.5343 28.343C25.457 28.4776 25.4363 28.6374 25.4767 28.7873C25.5172 28.9371 25.6156 29.0648 25.7502 29.1421C25.8848 29.2195 26.0446 29.2402 26.1944 29.1997C26.3443 29.1593 26.472 29.0609 26.5493 28.9263L27.4243 27.4096C27.4805 27.3042 27.5029 27.1841 27.4885 27.0655L27.5002 27.0013V24.0846C27.5002 23.9299 27.4387 23.7816 27.3293 23.6722C27.2199 23.5628 27.0715 23.5013 26.9168 23.5013Z" fill="#F97B5C"/>
<path d="M38.5 69.5C42.6421 69.5 46 66.1421 46 62C46 57.8579 42.6421 54.5 38.5 54.5C34.3579 54.5 31 57.8579 31 62C31 66.1421 34.3579 69.5 38.5 69.5Z" fill="white" stroke="#FCB5A3"/>
<path d="M155.5 59H54.5C52.8431 59 51.5 60.3431 51.5 62C51.5 63.6569 52.8431 65 54.5 65H155.5C157.157 65 158.5 63.6569 158.5 62C158.5 60.3431 157.157 59 155.5 59Z" fill="#D5D5D5"/>
<path d="M383.5 44.5H25.5C23.0147 44.5 21 46.5147 21 49V75C21 77.4853 23.0147 79.5 25.5 79.5H383.5C385.985 79.5 388 77.4853 388 75V49C388 46.5147 385.985 44.5 383.5 44.5Z" stroke="#F6F6F6"/>
<path d="M383.5 90.5H25.5C23.0147 90.5 21 92.5147 21 95V121C21 123.485 23.0147 125.5 25.5 125.5H383.5C385.985 125.5 388 123.485 388 121V95C388 92.5147 385.985 90.5 383.5 90.5Z" fill="#F6F6F6"/>
<path d="M38.5 115.5C42.6421 115.5 46 112.142 46 108C46 103.858 42.6421 100.5 38.5 100.5C34.3579 100.5 31 103.858 31 108C31 112.142 34.3579 115.5 38.5 115.5Z" fill="white" stroke="#FCB5A3"/>
<path d="M38.5 112.5C40.9853 112.5 43 110.485 43 108C43 105.515 40.9853 103.5 38.5 103.5C36.0147 103.5 34 105.515 34 108C34 110.485 36.0147 112.5 38.5 112.5Z" fill="#FA8E74" stroke="#FA8E74"/>
<path d="M155.5 105H54.5C52.8431 105 51.5 106.343 51.5 108C51.5 109.657 52.8431 111 54.5 111H155.5C157.157 111 158.5 109.657 158.5 108C158.5 106.343 157.157 105 155.5 105Z" fill="#F6F6F6"/>
<path d="M383.5 90.5H25.5C23.0147 90.5 21 92.5147 21 95V121C21 123.485 23.0147 125.5 25.5 125.5H383.5C385.985 125.5 388 123.485 388 121V95C388 92.5147 385.985 90.5 383.5 90.5Z" stroke="#F6F6F6"/>
<path d="M38.5 161.5C42.6421 161.5 46 158.142 46 154C46 149.858 42.6421 146.5 38.5 146.5C34.3579 146.5 31 149.858 31 154C31 158.142 34.3579 161.5 38.5 161.5Z" fill="white" stroke="#FCB5A3"/>
<path d="M155.5 151H54.5C52.8431 151 51.5 152.343 51.5 154C51.5 155.657 52.8431 157 54.5 157H155.5C157.157 157 158.5 155.657 158.5 154C158.5 152.343 157.157 151 155.5 151Z" fill="#D5D5D5"/>
<path d="M383.5 136.5H25.5C23.0147 136.5 21 138.515 21 141V167C21 169.485 23.0147 171.5 25.5 171.5H383.5C385.985 171.5 388 169.485 388 167V141C388 138.515 385.985 136.5 383.5 136.5Z" stroke="#F6F6F6"/>
</g>
</g>
<defs>
<filter id="filter0_d_13129_59710" x="-26.5" y="-22" width="468" height="252" filterUnits="userSpaceOnUse" color-interpolation-filters="sRGB">
<feFlood flood-opacity="0" result="BackgroundImageFix"/>
<feColorMatrix in="SourceAlpha" type="matrix" values="0 0 0 0 0 0 0 0 0 0 0 0 0 0 0 0 0 0 127 0" result="hardAlpha"/>
<feOffset dx="3" dy="8"/>
<feGaussianBlur stdDeviation="15"/>
<feComposite in2="hardAlpha" operator="out"/>
<feColorMatrix type="matrix" values="0 0 0 0 0 0 0 0 0 0 0 0 0 0 0 0 0 0 0.04 0"/>
<feBlend mode="normal" in2="BackgroundImageFix" result="effect1_dropShadow_13129_59710"/>
<feBlend mode="normal" in="SourceGraphic" in2="effect1_dropShadow_13129_59710" result="shape"/>
</filter>
</defs>
</svg>
