<svg width="433" height="289" viewBox="0 0 433 289" fill="none" xmlns="http://www.w3.org/2000/svg">
<g filter="url(#filter0_d_14676_60825)">
<mask id="mask0_14676_60825" style="mask-type:luminance" maskUnits="userSpaceOnUse" x="15" y="15" width="401" height="257">
<path d="M395.25 15H35.25C24.2043 15 15.25 26.9689 15.25 41.7333V244.907C15.25 259.671 24.2043 271.64 35.25 271.64H395.25C406.296 271.64 415.25 259.671 415.25 244.907V41.7333C415.25 26.9689 406.296 15 395.25 15Z" fill="white"/>
</mask>
<g mask="url(#mask0_14676_60825)">
<path d="M389.76 15H32.8971C23.1509 15 15.25 25.772 15.25 39.06V247.58C15.25 260.868 23.1509 271.64 32.8971 271.64H389.76C399.506 271.64 407.407 260.868 407.407 247.58V39.06C407.407 25.772 399.506 15 389.76 15Z" fill="#F6F6F6"/>
<g filter="url(#filter1_d_14676_60825)">
<path d="M410.348 15H20.152C17.4447 15 15.25 17.9922 15.25 21.6833V264.957C15.25 268.648 17.4447 271.64 20.152 271.64H410.348C413.055 271.64 415.25 268.648 415.25 264.957V21.6833C415.25 17.9922 413.055 15 410.348 15Z" fill="white"/>
<path d="M59.0464 56.549C58.8503 56.549 58.6974 56.4741 58.5876 56.3244C58.4856 56.1747 58.4347 55.9662 58.4347 55.6989V46.524H55.9405C55.7758 46.524 55.6464 46.4652 55.5523 46.3475C55.4582 46.2192 55.4111 46.0428 55.4111 45.8182C55.4111 45.5937 55.4582 45.4226 55.5523 45.3049C55.6464 45.1873 55.7758 45.1285 55.9405 45.1285H62.1405C62.3131 45.1285 62.4464 45.1873 62.5405 45.3049C62.6347 45.4226 62.6817 45.5937 62.6817 45.8182C62.6817 46.0428 62.6347 46.2192 62.5405 46.3475C62.4464 46.4652 62.3131 46.524 62.1405 46.524H59.6464V55.6989C59.6464 55.9662 59.5954 56.1747 59.4935 56.3244C59.3994 56.4741 59.2503 56.549 59.0464 56.549ZM65.0603 56.5811C64.48 56.5811 63.978 56.4153 63.5545 56.0838C63.1388 55.7523 62.8133 55.2818 62.578 54.6723C62.3427 54.0628 62.2251 53.3463 62.2251 52.5229C62.2251 51.892 62.2917 51.3306 62.4251 50.8387C62.5584 50.3468 62.7466 49.9245 62.9898 49.5716C63.2407 49.208 63.5388 48.9353 63.8839 48.7535C64.2368 48.5611 64.629 48.4648 65.0603 48.4648C65.6329 48.4648 66.127 48.6306 66.5427 48.9621C66.9662 49.2935 67.2956 49.7641 67.5309 50.3736C67.7662 50.9724 67.8839 51.6889 67.8839 52.5229C67.8839 53.1431 67.8172 53.7045 67.6839 54.2071C67.5505 54.7097 67.3584 55.1375 67.1074 55.4903C66.8643 55.8432 66.5662 56.1159 66.2133 56.3084C65.8682 56.4902 65.4839 56.5811 65.0603 56.5811ZM65.0603 55.3299C65.3819 55.3299 65.6643 55.223 65.9074 55.0091C66.1505 54.7953 66.3388 54.4798 66.4721 54.0628C66.6133 53.6457 66.6839 53.1325 66.6839 52.5229C66.6839 51.6033 66.5349 50.9082 66.2368 50.4377C65.9388 49.9672 65.5466 49.732 65.0603 49.732C64.7309 49.732 64.4447 49.8389 64.2015 50.0528C63.9584 50.2559 63.7662 50.5661 63.6251 50.9831C63.4917 51.4001 63.4251 51.9134 63.4251 52.5229C63.4251 53.4319 63.5741 54.1269 63.8721 54.6081C64.1702 55.0893 64.5662 55.3299 65.0603 55.3299ZM71.4065 56.5811C70.9046 56.5811 70.4614 56.4207 70.0771 56.0999C69.7006 55.7684 69.4065 55.2979 69.1948 54.6883C68.983 54.0681 68.8771 53.3463 68.8771 52.5229C68.8771 51.6782 68.983 50.9564 69.1948 50.3575C69.4065 49.7587 69.7006 49.2935 70.0771 48.9621C70.4614 48.6306 70.9046 48.4648 71.4065 48.4648C71.9085 48.4648 72.3399 48.6359 72.7006 48.9781C73.0693 49.3096 73.3163 49.7587 73.4418 50.3255H73.3124V45.8343C73.3124 45.5669 73.3634 45.3637 73.4653 45.2247C73.5673 45.0857 73.7124 45.0162 73.9006 45.0162C74.0889 45.0162 74.234 45.0857 74.3359 45.2247C74.4457 45.3637 74.5006 45.5669 74.5006 45.8343V55.7309C74.5006 55.9876 74.4497 56.1907 74.3477 56.3405C74.2457 56.4795 74.1006 56.549 73.9124 56.549C73.7242 56.549 73.5791 56.4795 73.4771 56.3405C73.3752 56.1907 73.3242 55.9876 73.3242 55.7309V54.3194L73.4536 54.6723C73.3281 55.2497 73.081 55.7149 72.7124 56.0678C72.3516 56.41 71.9163 56.5811 71.4065 56.5811ZM71.7124 55.3299C72.034 55.3299 72.3163 55.223 72.5595 55.0091C72.8026 54.7953 72.9908 54.4798 73.1242 54.0628C73.2653 53.6457 73.3359 53.1325 73.3359 52.5229C73.3359 51.6033 73.1869 50.9082 72.8889 50.4377C72.5908 49.9672 72.1987 49.732 71.7124 49.732C71.383 49.732 71.0967 49.8389 70.8536 50.0528C70.6104 50.2559 70.4183 50.5661 70.2771 50.9831C70.1438 51.4001 70.0771 51.9134 70.0771 52.5229C70.0771 53.4319 70.2261 54.1269 70.5242 54.6081C70.8222 55.0893 71.2183 55.3299 71.7124 55.3299ZM78.0045 56.5811C77.6045 56.5811 77.2437 56.4741 76.9221 56.2603C76.6084 56.0464 76.3613 55.7577 76.1809 55.3941C76.0005 55.0305 75.9103 54.6188 75.9103 54.159C75.9103 53.5816 76.0162 53.1271 76.228 52.7956C76.4476 52.4534 76.8045 52.2128 77.2986 52.0738C77.8005 51.9241 78.4751 51.8493 79.3221 51.8493H79.8751V52.8437H79.3339C78.7692 52.8437 78.3221 52.8812 77.9927 52.956C77.6633 53.0309 77.428 53.1592 77.2868 53.341C77.1535 53.5121 77.0868 53.7527 77.0868 54.0628C77.0868 54.4691 77.1888 54.8006 77.3927 55.0573C77.5966 55.3032 77.879 55.4262 78.2398 55.4262C78.53 55.4262 78.7849 55.3353 79.0045 55.1535C79.2241 54.961 79.3966 54.7044 79.5221 54.3836C79.6554 54.0628 79.7221 53.6939 79.7221 53.2768V51.4322C79.7221 50.8227 79.628 50.3843 79.4398 50.1169C79.2515 49.8496 78.9417 49.7159 78.5103 49.7159C78.2594 49.7159 77.9966 49.7587 77.7221 49.8443C77.4554 49.9298 77.177 50.0742 76.8868 50.2773C76.7535 50.3629 76.6398 50.3896 76.5456 50.3575C76.4515 50.3255 76.377 50.2559 76.3221 50.149C76.2672 50.0314 76.2358 49.9084 76.228 49.7801C76.228 49.6411 76.2515 49.5074 76.2986 49.3791C76.3535 49.2508 76.4437 49.1545 76.5692 49.0904C76.9143 48.8658 77.2554 48.7054 77.5927 48.6092C77.93 48.5129 78.2476 48.4648 78.5456 48.4648C79.0711 48.4648 79.5025 48.5771 79.8398 48.8017C80.1849 49.0262 80.4398 49.3684 80.6045 49.8282C80.7692 50.288 80.8515 50.8815 80.8515 51.6087V55.7309C80.8515 55.9876 80.8045 56.1907 80.7104 56.3405C80.6162 56.4795 80.479 56.549 80.2986 56.549C80.126 56.549 79.9888 56.4795 79.8868 56.3405C79.7849 56.1907 79.7339 55.9876 79.7339 55.7309V54.6883H79.8398C79.777 55.084 79.6594 55.4262 79.4868 55.7149C79.3221 55.9929 79.1143 56.2068 78.8633 56.3565C78.6123 56.5062 78.326 56.5811 78.0045 56.5811ZM83.7836 59.4362C83.6424 59.4362 83.5248 59.3827 83.4306 59.2758C83.3444 59.1795 83.2934 59.0459 83.2777 58.8748C83.2699 58.7144 83.2934 58.5379 83.3483 58.3455L84.1483 55.8913V56.5811L81.9483 49.6037C81.8934 49.4112 81.8738 49.2294 81.8895 49.0583C81.9052 48.8872 81.964 48.7535 82.0659 48.6573C82.1679 48.5504 82.3052 48.4969 82.4777 48.4969C82.6267 48.4969 82.7444 48.545 82.8306 48.6413C82.9169 48.7375 82.9953 48.9032 83.0659 49.1385L84.8424 55.1214H84.513L86.313 49.1385C86.3836 48.8925 86.4659 48.7268 86.5601 48.6413C86.6542 48.545 86.7836 48.4969 86.9483 48.4969C87.0895 48.4969 87.1993 48.5504 87.2777 48.6573C87.364 48.7535 87.415 48.8872 87.4306 49.0583C87.4542 49.2187 87.4346 49.3951 87.3718 49.5876L84.4306 58.8106C84.3522 59.0566 84.262 59.2223 84.1601 59.3079C84.0659 59.3934 83.9404 59.4362 83.7836 59.4362ZM88.6742 58.0567C88.5879 58.2064 88.4938 58.292 88.3918 58.3134C88.2977 58.3348 88.2154 58.308 88.1448 58.2332C88.0742 58.1583 88.035 58.0514 88.0271 57.9124C88.0193 57.7841 88.0624 57.6397 88.1565 57.4793C88.2977 57.244 88.3918 56.9981 88.4389 56.7415C88.4938 56.4955 88.5212 56.2763 88.5212 56.0838L88.5683 56.5009C88.333 56.5009 88.1408 56.41 87.9918 56.2282C87.8506 56.0357 87.7801 55.7844 87.7801 55.4743C87.7801 55.1749 87.8467 54.9343 87.9801 54.7525C88.1134 54.56 88.2938 54.4638 88.5212 54.4638C88.7565 54.4638 88.9408 54.5761 89.0742 54.8006C89.2153 55.0145 89.2859 55.3246 89.2859 55.7309C89.2859 55.9662 89.2663 56.2121 89.2271 56.4688C89.1957 56.7254 89.1369 56.9874 89.0506 57.2547C88.9644 57.5221 88.8389 57.7894 88.6742 58.0567ZM95.9445 56.5811C95.5994 56.5811 95.2386 56.5009 94.8621 56.3405C94.4935 56.1694 94.1562 55.9181 93.8503 55.5866C93.7484 55.4903 93.6817 55.3727 93.6503 55.2337C93.6268 55.084 93.6268 54.945 93.6503 54.8167C93.6739 54.6776 93.7209 54.56 93.7915 54.4638C93.8621 54.3568 93.9484 54.298 94.0503 54.2873C94.1602 54.2659 94.2739 54.3087 94.3915 54.4157C94.6582 54.683 94.9209 54.8755 95.1798 54.9931C95.4464 55.1107 95.7092 55.1695 95.968 55.1695C96.4543 55.1695 96.866 55.0091 97.2033 54.6883C97.5405 54.3675 97.7954 53.8863 97.968 53.2447C98.1405 52.6031 98.2268 51.8065 98.2268 50.8548V49.4914H98.3562C98.3013 50.0581 98.168 50.5554 97.9562 50.9831C97.7523 51.4108 97.4856 51.737 97.1562 51.9615C96.8268 52.1861 96.4621 52.2984 96.0621 52.2984C95.5837 52.2984 95.1562 52.1433 94.7798 51.8332C94.4033 51.5231 94.1092 51.0954 93.8974 50.55C93.6856 50.0047 93.5798 49.3898 93.5798 48.7054C93.5798 47.9783 93.6935 47.3367 93.9209 46.7806C94.1484 46.2139 94.4621 45.7754 94.8621 45.4653C95.27 45.1445 95.7366 44.9841 96.2621 44.9841C96.9366 44.9841 97.5053 45.2033 97.968 45.6418C98.4307 46.0695 98.7837 46.7004 99.0268 47.5345C99.2778 48.3686 99.4033 49.3684 99.4033 50.534C99.4033 51.5071 99.3249 52.3679 99.168 53.1164C99.0111 53.8649 98.7837 54.4959 98.4856 55.0091C98.1876 55.5224 97.8229 55.9127 97.3915 56.1801C96.968 56.4474 96.4856 56.5811 95.9445 56.5811ZM96.3445 50.935C96.6582 50.935 96.9366 50.8387 97.1798 50.6463C97.4229 50.4538 97.6111 50.1811 97.7445 49.8282C97.8856 49.4753 97.9562 49.0743 97.9562 48.6252C97.9562 48.1654 97.8856 47.7644 97.7445 47.4222C97.6111 47.0693 97.4229 46.7967 97.1798 46.6042C96.9366 46.4117 96.6582 46.3155 96.3445 46.3155C96.0229 46.3155 95.7405 46.4117 95.4974 46.6042C95.2621 46.7967 95.0739 47.0693 94.9327 47.4222C94.7994 47.7644 94.7327 48.1654 94.7327 48.6252C94.7327 49.0743 94.7994 49.4753 94.9327 49.8282C95.0739 50.1811 95.2621 50.4538 95.4974 50.6463C95.7405 50.8387 96.0229 50.935 96.3445 50.935ZM101.493 56.5009C101.265 56.5009 101.081 56.4046 100.94 56.2121C100.799 56.0197 100.728 55.7737 100.728 55.4743C100.728 55.1749 100.799 54.9343 100.94 54.7525C101.081 54.56 101.265 54.4638 101.493 54.4638C101.72 54.4638 101.901 54.56 102.034 54.7525C102.167 54.9343 102.234 55.1749 102.234 55.4743C102.234 55.7737 102.167 56.0197 102.034 56.2121C101.901 56.4046 101.72 56.5009 101.493 56.5009ZM101.493 50.5821C101.265 50.5821 101.081 50.4859 100.94 50.2934C100.799 50.1009 100.728 49.8603 100.728 49.5716C100.728 49.2615 100.799 49.0155 100.94 48.8337C101.081 48.6413 101.265 48.545 101.493 48.545C101.72 48.545 101.901 48.6413 102.034 48.8337C102.167 49.0155 102.234 49.2615 102.234 49.5716C102.234 49.8603 102.167 50.1009 102.034 50.2934C101.901 50.4859 101.72 50.5821 101.493 50.5821ZM106.273 56.5811C105.834 56.5811 105.387 56.5009 104.932 56.3405C104.477 56.1694 104.081 55.9181 103.743 55.5866C103.618 55.4796 103.532 55.3513 103.485 55.2016C103.445 55.0412 103.438 54.8969 103.461 54.7685C103.485 54.6295 103.532 54.5119 103.602 54.4157C103.681 54.3194 103.775 54.2659 103.885 54.2553C103.994 54.2339 104.116 54.2766 104.249 54.3836C104.587 54.6616 104.916 54.8648 105.238 54.9931C105.559 55.1107 105.893 55.1695 106.238 55.1695C106.614 55.1695 106.932 55.0947 107.191 54.945C107.449 54.7953 107.642 54.5761 107.767 54.2873C107.9 53.9986 107.967 53.6511 107.967 53.2447C107.967 52.6352 107.818 52.1807 107.52 51.8813C107.23 51.5712 106.806 51.4162 106.249 51.4162H105.449C105.269 51.4162 105.132 51.3574 105.038 51.2397C104.943 51.1114 104.896 50.935 104.896 50.7104C104.896 50.4965 104.943 50.3308 105.038 50.2132C105.132 50.0849 105.269 50.0207 105.449 50.0207H106.132C106.469 50.0207 106.755 49.9458 106.991 49.7961C107.226 49.6357 107.406 49.4165 107.532 49.1385C107.665 48.8498 107.732 48.5022 107.732 48.0959C107.732 47.5505 107.598 47.1335 107.332 46.8448C107.073 46.5454 106.693 46.3957 106.191 46.3957C105.869 46.3957 105.563 46.4545 105.273 46.5721C104.991 46.6897 104.696 46.8982 104.391 47.1977C104.273 47.3046 104.159 47.3527 104.049 47.342C103.947 47.3206 103.857 47.2672 103.779 47.1816C103.708 47.0854 103.657 46.9677 103.626 46.8287C103.602 46.6897 103.61 46.5454 103.649 46.3957C103.689 46.2459 103.767 46.1176 103.885 46.0107C104.214 45.6792 104.587 45.4279 105.002 45.2568C105.418 45.075 105.845 44.9841 106.285 44.9841C106.834 44.9841 107.304 45.1018 107.696 45.337C108.096 45.5723 108.398 45.9091 108.602 46.3475C108.814 46.786 108.92 47.3099 108.92 47.9195C108.92 48.3793 108.857 48.7963 108.732 49.1706C108.606 49.5448 108.426 49.8656 108.191 50.133C107.963 50.3896 107.685 50.5714 107.355 50.6783V50.5019C107.928 50.6302 108.371 50.951 108.685 51.4643C108.998 51.9669 109.155 52.5978 109.155 53.357C109.155 54.02 109.038 54.5974 108.802 55.0893C108.575 55.5705 108.245 55.9395 107.814 56.1961C107.383 56.4527 106.869 56.5811 106.273 56.5811ZM113.456 56.5811C112.492 56.5811 111.755 56.0838 111.245 55.0893C110.743 54.0842 110.492 52.6459 110.492 50.7746C110.492 49.5021 110.606 48.4381 110.833 47.5826C111.06 46.7271 111.394 46.0802 111.833 45.6418C112.272 45.2033 112.813 44.9841 113.456 44.9841C114.429 44.9841 115.166 45.476 115.668 46.4598C116.17 47.4329 116.421 48.8658 116.421 50.7585C116.421 52.0097 116.307 53.0683 116.08 53.9345C115.852 54.8006 115.519 55.4583 115.08 55.9074C114.641 56.3565 114.099 56.5811 113.456 56.5811ZM113.456 55.2016C114.06 55.2016 114.503 54.8434 114.786 54.1269C115.076 53.3998 115.221 52.277 115.221 50.7585C115.221 49.2294 115.076 48.1173 114.786 47.4222C114.503 46.7165 114.06 46.3636 113.456 46.3636C112.86 46.3636 112.417 46.7165 112.127 47.4222C111.837 48.1173 111.692 49.2294 111.692 50.7585C111.692 52.277 111.837 53.3998 112.127 54.1269C112.417 54.8434 112.86 55.2016 113.456 55.2016ZM122.754 56.5811C122.354 56.5811 121.993 56.4741 121.672 56.2603C121.358 56.0464 121.111 55.7577 120.931 55.3941C120.75 55.0305 120.66 54.6188 120.66 54.159C120.66 53.5816 120.766 53.1271 120.978 52.7956C121.197 52.4534 121.554 52.2128 122.048 52.0738C122.55 51.9241 123.225 51.8493 124.072 51.8493H124.625V52.8437H124.084C123.519 52.8437 123.072 52.8812 122.743 52.956C122.413 53.0309 122.178 53.1592 122.037 53.341C121.903 53.5121 121.837 53.7527 121.837 54.0628C121.837 54.4691 121.939 54.8006 122.143 55.0573C122.346 55.3032 122.629 55.4262 122.99 55.4262C123.28 55.4262 123.535 55.3353 123.754 55.1535C123.974 54.961 124.146 54.7044 124.272 54.3836C124.405 54.0628 124.472 53.6939 124.472 53.2768V51.4322C124.472 50.8227 124.378 50.3843 124.19 50.1169C124.001 49.8496 123.692 49.7159 123.26 49.7159C123.009 49.7159 122.746 49.7587 122.472 49.8443C122.205 49.9298 121.927 50.0742 121.637 50.2773C121.503 50.3629 121.39 50.3896 121.295 50.3575C121.201 50.3255 121.127 50.2559 121.072 50.149C121.017 50.0314 120.986 49.9084 120.978 49.7801C120.978 49.6411 121.001 49.5074 121.048 49.3791C121.103 49.2508 121.193 49.1545 121.319 49.0904C121.664 48.8658 122.005 48.7054 122.343 48.6092C122.68 48.5129 122.997 48.4648 123.295 48.4648C123.821 48.4648 124.252 48.5771 124.59 48.8017C124.935 49.0262 125.19 49.3684 125.354 49.8282C125.519 50.288 125.601 50.8815 125.601 51.6087V55.7309C125.601 55.9876 125.554 56.1907 125.46 56.3405C125.366 56.4795 125.229 56.549 125.048 56.549C124.876 56.549 124.739 56.4795 124.637 56.3405C124.535 56.1907 124.484 55.9876 124.484 55.7309V54.6883H124.59C124.527 55.084 124.409 55.4262 124.237 55.7149C124.072 55.9929 123.864 56.2068 123.613 56.3565C123.362 56.5062 123.076 56.5811 122.754 56.5811ZM127.849 56.549C127.661 56.549 127.516 56.4795 127.414 56.3405C127.312 56.1907 127.261 55.9876 127.261 55.7309V49.3149C127.261 49.0476 127.312 48.8444 127.414 48.7054C127.516 48.5664 127.657 48.4969 127.838 48.4969C128.026 48.4969 128.167 48.5664 128.261 48.7054C128.363 48.8444 128.414 49.0476 128.414 49.3149V50.6302L128.285 50.2773C128.442 49.7106 128.685 49.2668 129.014 48.946C129.343 48.6252 129.74 48.4648 130.202 48.4648C130.681 48.4648 131.069 48.6199 131.367 48.93C131.665 49.2401 131.869 49.7159 131.979 50.3575H131.814C131.963 49.7694 132.218 49.3096 132.579 48.9781C132.94 48.6359 133.359 48.4648 133.838 48.4648C134.277 48.4648 134.638 48.5824 134.92 48.8177C135.202 49.0423 135.414 49.3898 135.555 49.8603C135.696 50.3201 135.767 50.9029 135.767 51.6087V55.7309C135.767 55.9876 135.712 56.1907 135.602 56.3405C135.5 56.4795 135.355 56.549 135.167 56.549C134.979 56.549 134.834 56.4795 134.732 56.3405C134.63 56.1907 134.579 55.9876 134.579 55.7309V51.6889C134.579 51.0259 134.493 50.5393 134.32 50.2292C134.155 49.9191 133.881 49.7641 133.496 49.7641C133.065 49.7641 132.724 49.9672 132.473 50.3736C132.222 50.7799 132.096 51.3413 132.096 52.0578V55.7309C132.096 55.9876 132.045 56.1907 131.943 56.3405C131.842 56.4795 131.696 56.549 131.508 56.549C131.32 56.549 131.171 56.4795 131.061 56.3405C130.959 56.1907 130.908 55.9876 130.908 55.7309V51.6889C130.908 51.0259 130.826 50.5393 130.661 50.2292C130.496 49.9191 130.222 49.7641 129.838 49.7641C129.406 49.7641 129.065 49.9672 128.814 50.3736C128.571 50.7799 128.449 51.3413 128.449 52.0578V55.7309C128.449 56.2763 128.249 56.549 127.849 56.549ZM140.931 52.8117C140.79 52.8117 140.672 52.7475 140.578 52.6192C140.484 52.4909 140.437 52.3358 140.437 52.154C140.437 51.9615 140.484 51.8065 140.578 51.6889C140.672 51.5605 140.79 51.4964 140.931 51.4964H143.519C143.652 51.4964 143.766 51.5605 143.86 51.6889C143.954 51.8065 144.001 51.9615 144.001 52.154C144.001 52.3358 143.954 52.4909 143.86 52.6192C143.766 52.7475 143.652 52.8117 143.519 52.8117H140.931ZM149.664 56.4367C149.499 56.4367 149.37 56.3725 149.276 56.2442C149.182 56.1159 149.135 55.9448 149.135 55.7309C149.135 55.5064 149.182 55.3353 149.276 55.2177C149.37 55.1 149.499 55.0412 149.664 55.0412H151.099V46.5079H151.711L149.993 47.9997C149.868 48.0959 149.75 48.1333 149.641 48.1119C149.539 48.0905 149.448 48.0317 149.37 47.9355C149.299 47.8393 149.248 47.7216 149.217 47.5826C149.193 47.4436 149.201 47.2992 149.241 47.1495C149.288 46.9998 149.37 46.8769 149.488 46.7806L151.111 45.3851C151.244 45.2782 151.37 45.1927 151.488 45.1285C151.613 45.0536 151.731 45.0162 151.841 45.0162C151.974 45.0162 152.084 45.0697 152.17 45.1766C152.264 45.2729 152.311 45.4386 152.311 45.6739V55.0412H153.629C153.801 55.0412 153.935 55.1 154.029 55.2177C154.123 55.3353 154.17 55.5064 154.17 55.7309C154.17 55.9555 154.123 56.1319 154.029 56.2603C153.935 56.3779 153.801 56.4367 153.629 56.4367H149.664ZM158.425 56.5811C157.46 56.5811 156.723 56.0838 156.213 55.0893C155.711 54.0842 155.46 52.6459 155.46 50.7746C155.46 49.5021 155.574 48.4381 155.801 47.5826C156.029 46.7271 156.362 46.0802 156.801 45.6418C157.241 45.2033 157.782 44.9841 158.425 44.9841C159.397 44.9841 160.135 45.476 160.637 46.4598C161.139 47.4329 161.39 48.8658 161.39 50.7585C161.39 52.0097 161.276 53.0683 161.048 53.9345C160.821 54.8006 160.488 55.4583 160.048 55.9074C159.609 56.3565 159.068 56.5811 158.425 56.5811ZM158.425 55.2016C159.029 55.2016 159.472 54.8434 159.754 54.1269C160.044 53.3998 160.19 52.277 160.19 50.7585C160.19 49.2294 160.044 48.1173 159.754 47.4222C159.472 46.7165 159.029 46.3636 158.425 46.3636C157.829 46.3636 157.386 46.7165 157.095 47.4222C156.805 48.1173 156.66 49.2294 156.66 50.7585C156.66 52.277 156.805 53.3998 157.095 54.1269C157.386 54.8434 157.829 55.2016 158.425 55.2016ZM163.361 56.5009C163.134 56.5009 162.949 56.4046 162.808 56.2121C162.667 56.0197 162.596 55.7737 162.596 55.4743C162.596 55.1749 162.667 54.9343 162.808 54.7525C162.949 54.56 163.134 54.4638 163.361 54.4638C163.589 54.4638 163.769 54.56 163.902 54.7525C164.036 54.9343 164.102 55.1749 164.102 55.4743C164.102 55.7737 164.036 56.0197 163.902 56.2121C163.769 56.4046 163.589 56.5009 163.361 56.5009ZM163.361 50.5821C163.134 50.5821 162.949 50.4859 162.808 50.2934C162.667 50.1009 162.596 49.8603 162.596 49.5716C162.596 49.2615 162.667 49.0155 162.808 48.8337C162.949 48.6413 163.134 48.545 163.361 48.545C163.589 48.545 163.769 48.6413 163.902 48.8337C164.036 49.0155 164.102 49.2615 164.102 49.5716C164.102 49.8603 164.036 50.1009 163.902 50.2934C163.769 50.4859 163.589 50.5821 163.361 50.5821ZM168.141 56.5811C167.701 56.5811 167.254 56.5009 166.799 56.3405C166.344 56.1694 165.948 55.9181 165.611 55.5866C165.486 55.4796 165.399 55.3513 165.352 55.2016C165.313 55.0412 165.305 54.8969 165.329 54.7685C165.352 54.6295 165.399 54.5119 165.47 54.4157C165.548 54.3194 165.642 54.2659 165.752 54.2553C165.862 54.2339 165.984 54.2766 166.117 54.3836C166.454 54.6616 166.784 54.8648 167.105 54.9931C167.427 55.1107 167.76 55.1695 168.105 55.1695C168.482 55.1695 168.799 55.0947 169.058 54.945C169.317 54.7953 169.509 54.5761 169.635 54.2873C169.768 53.9986 169.835 53.6511 169.835 53.2447C169.835 52.6352 169.686 52.1807 169.388 51.8813C169.097 51.5712 168.674 51.4162 168.117 51.4162H167.317C167.137 51.4162 166.999 51.3574 166.905 51.2397C166.811 51.1114 166.764 50.935 166.764 50.7104C166.764 50.4965 166.811 50.3308 166.905 50.2132C166.999 50.0849 167.137 50.0207 167.317 50.0207H167.999C168.337 50.0207 168.623 49.9458 168.858 49.7961C169.093 49.6357 169.274 49.4165 169.399 49.1385C169.533 48.8498 169.599 48.5022 169.599 48.0959C169.599 47.5505 169.466 47.1335 169.199 46.8448C168.941 46.5454 168.56 46.3957 168.058 46.3957C167.737 46.3957 167.431 46.4545 167.141 46.5721C166.858 46.6897 166.564 46.8982 166.258 47.1977C166.141 47.3046 166.027 47.3527 165.917 47.342C165.815 47.3206 165.725 47.2672 165.646 47.1816C165.576 47.0854 165.525 46.9677 165.493 46.8287C165.47 46.6897 165.478 46.5454 165.517 46.3957C165.556 46.2459 165.635 46.1176 165.752 46.0107C166.082 45.6792 166.454 45.4279 166.87 45.2568C167.286 45.075 167.713 44.9841 168.152 44.9841C168.701 44.9841 169.172 45.1018 169.564 45.337C169.964 45.5723 170.266 45.9091 170.47 46.3475C170.682 46.786 170.788 47.3099 170.788 47.9195C170.788 48.3793 170.725 48.7963 170.599 49.1706C170.474 49.5448 170.293 49.8656 170.058 50.133C169.831 50.3896 169.552 50.5714 169.223 50.6783V50.5019C169.795 50.6302 170.239 50.951 170.552 51.4643C170.866 51.9669 171.023 52.5978 171.023 53.357C171.023 54.02 170.905 54.5974 170.67 55.0893C170.442 55.5705 170.113 55.9395 169.682 56.1961C169.25 56.4527 168.737 56.5811 168.141 56.5811ZM175.325 56.5811C174.36 56.5811 173.623 56.0838 173.113 55.0893C172.611 54.0842 172.36 52.6459 172.36 50.7746C172.36 49.5021 172.474 48.4381 172.701 47.5826C172.929 46.7271 173.262 46.0802 173.701 45.6418C174.141 45.2033 174.682 44.9841 175.325 44.9841C176.297 44.9841 177.035 45.476 177.537 46.4598C178.039 47.4329 178.29 48.8658 178.29 50.7585C178.29 52.0097 178.176 53.0683 177.948 53.9345C177.721 54.8006 177.388 55.4583 176.948 55.9074C176.509 56.3565 175.968 56.5811 175.325 56.5811ZM175.325 55.2016C175.929 55.2016 176.372 54.8434 176.654 54.1269C176.944 53.3998 177.09 52.277 177.09 50.7585C177.09 49.2294 176.944 48.1173 176.654 47.4222C176.372 46.7165 175.929 46.3636 175.325 46.3636C174.729 46.3636 174.286 46.7165 173.995 47.4222C173.705 48.1173 173.56 49.2294 173.56 50.7585C173.56 52.277 173.705 53.3998 173.995 54.1269C174.286 54.8434 174.729 55.2016 175.325 55.2016ZM184.622 56.5811C184.222 56.5811 183.861 56.4741 183.54 56.2603C183.226 56.0464 182.979 55.7577 182.798 55.3941C182.618 55.0305 182.528 54.6188 182.528 54.159C182.528 53.5816 182.634 53.1271 182.845 52.7956C183.065 52.4534 183.422 52.2128 183.916 52.0738C184.418 51.9241 185.092 51.8493 185.94 51.8493H186.493V52.8437H185.951C185.387 52.8437 184.94 52.8812 184.61 52.956C184.281 53.0309 184.045 53.1592 183.904 53.341C183.771 53.5121 183.704 53.7527 183.704 54.0628C183.704 54.4691 183.806 54.8006 184.01 55.0573C184.214 55.3032 184.496 55.4262 184.857 55.4262C185.147 55.4262 185.402 55.3353 185.622 55.1535C185.842 54.961 186.014 54.7044 186.14 54.3836C186.273 54.0628 186.34 53.6939 186.34 53.2768V51.4322C186.34 50.8227 186.245 50.3843 186.057 50.1169C185.869 49.8496 185.559 49.7159 185.128 49.7159C184.877 49.7159 184.614 49.7587 184.34 49.8443C184.073 49.9298 183.794 50.0742 183.504 50.2773C183.371 50.3629 183.257 50.3896 183.163 50.3575C183.069 50.3255 182.994 50.2559 182.94 50.149C182.885 50.0314 182.853 49.9084 182.845 49.7801C182.845 49.6411 182.869 49.5074 182.916 49.3791C182.971 49.2508 183.061 49.1545 183.187 49.0904C183.532 48.8658 183.873 48.7054 184.21 48.6092C184.547 48.5129 184.865 48.4648 185.163 48.4648C185.689 48.4648 186.12 48.5771 186.457 48.8017C186.802 49.0262 187.057 49.3684 187.222 49.8282C187.387 50.288 187.469 50.8815 187.469 51.6087V55.7309C187.469 55.9876 187.422 56.1907 187.328 56.3405C187.234 56.4795 187.096 56.549 186.916 56.549C186.743 56.549 186.606 56.4795 186.504 56.3405C186.402 56.1907 186.351 55.9876 186.351 55.7309V54.6883H186.457C186.394 55.084 186.277 55.4262 186.104 55.7149C185.94 55.9929 185.732 56.2068 185.481 56.3565C185.23 56.5062 184.943 56.5811 184.622 56.5811ZM189.717 56.549C189.529 56.549 189.384 56.4795 189.282 56.3405C189.18 56.1907 189.129 55.9876 189.129 55.7309V49.3149C189.129 49.0476 189.18 48.8444 189.282 48.7054C189.384 48.5664 189.525 48.4969 189.705 48.4969C189.893 48.4969 190.035 48.5664 190.129 48.7054C190.231 48.8444 190.282 49.0476 190.282 49.3149V50.6302L190.152 50.2773C190.309 49.7106 190.552 49.2668 190.882 48.946C191.211 48.6252 191.607 48.4648 192.07 48.4648C192.548 48.4648 192.937 48.6199 193.235 48.93C193.533 49.2401 193.737 49.7159 193.846 50.3575H193.682C193.831 49.7694 194.086 49.3096 194.446 48.9781C194.807 48.6359 195.227 48.4648 195.705 48.4648C196.144 48.4648 196.505 48.5824 196.788 48.8177C197.07 49.0423 197.282 49.3898 197.423 49.8603C197.564 50.3201 197.635 50.9029 197.635 51.6087V55.7309C197.635 55.9876 197.58 56.1907 197.47 56.3405C197.368 56.4795 197.223 56.549 197.035 56.549C196.846 56.549 196.701 56.4795 196.599 56.3405C196.497 56.1907 196.446 55.9876 196.446 55.7309V51.6889C196.446 51.0259 196.36 50.5393 196.188 50.2292C196.023 49.9191 195.748 49.7641 195.364 49.7641C194.933 49.7641 194.592 49.9672 194.341 50.3736C194.09 50.7799 193.964 51.3413 193.964 52.0578V55.7309C193.964 55.9876 193.913 56.1907 193.811 56.3405C193.709 56.4795 193.564 56.549 193.376 56.549C193.188 56.549 193.039 56.4795 192.929 56.3405C192.827 56.1907 192.776 55.9876 192.776 55.7309V51.6889C192.776 51.0259 192.693 50.5393 192.529 50.2292C192.364 49.9191 192.09 49.7641 191.705 49.7641C191.274 49.7641 190.933 49.9672 190.682 50.3736C190.439 50.7799 190.317 51.3413 190.317 52.0578V55.7309C190.317 56.2763 190.117 56.549 189.717 56.549Z" fill="#686868"/>
<path d="M41.1486 43.2947C40.0175 43.2947 38.9119 43.752 37.9714 44.6088C37.0309 45.4654 36.2978 46.6833 35.865 48.108C35.4321 49.5328 35.3189 51.1005 35.5396 52.613C35.7603 54.1256 36.3049 55.5149 37.1047 56.6053C37.9045 57.6958 38.9235 58.4384 40.0329 58.7392C41.1423 59.0401 42.2922 58.8857 43.3372 58.2956C44.3822 57.7054 45.2754 56.706 45.9038 55.4237C46.5321 54.1415 46.8676 52.634 46.8676 51.0919C46.8676 50.068 46.7197 49.054 46.4322 48.108C46.1449 47.1619 45.7236 46.3024 45.1925 45.5784C44.6615 44.8543 44.0311 44.2801 43.3372 43.8882C42.6433 43.4964 41.8997 43.2947 41.1486 43.2947ZM41.1486 57.3297C40.2438 57.3297 39.3592 56.9638 38.6069 56.2784C37.8544 55.5929 37.268 54.6188 36.9218 53.479C36.5755 52.3391 36.4849 51.0849 36.6614 49.875C36.8379 48.6649 37.2737 47.5534 37.9135 46.6811C38.5533 45.8087 39.3686 45.2147 40.2561 44.9739C41.1436 44.7332 42.0635 44.8568 42.8995 45.329C43.7355 45.8011 44.45 46.6005 44.9527 47.6263C45.4555 48.6522 45.7238 49.8581 45.7238 51.0919C45.7238 52.7463 45.2418 54.3329 44.3838 55.5026C43.5258 56.6724 42.362 57.3297 41.1486 57.3297ZM41.1486 46.4135C40.9969 46.4135 40.8515 46.4957 40.7443 46.642C40.637 46.7882 40.5768 46.9864 40.5768 47.1932V51.0373L39.7932 52.8853C39.7174 53.0652 39.6971 53.2788 39.7368 53.4791C39.7765 53.6794 39.8729 53.8501 40.0049 53.9534C40.1369 54.0569 40.2935 54.0845 40.4404 54.0304C40.5873 53.9764 40.7125 53.8449 40.7883 53.6649L41.6462 51.6376C41.7013 51.4967 41.7232 51.3362 41.7091 51.1777L41.7206 51.0919V47.1932C41.7206 46.9864 41.6603 46.7882 41.553 46.642C41.4458 46.4957 41.3003 46.4135 41.1486 46.4135Z" fill="#F97B5C"/>
<path d="M52.5053 107.898C56.5662 107.898 59.8582 103.41 59.8582 97.8734C59.8582 92.3367 56.5662 87.8484 52.5053 87.8484C48.4444 87.8484 45.1523 92.3367 45.1523 97.8734C45.1523 103.41 48.4444 107.898 52.5053 107.898Z" fill="white" stroke="#FCB5A3"/>
<path d="M167.211 93.8635H68.1912C66.5668 93.8635 65.25 95.6589 65.25 97.8735C65.25 100.088 66.5668 101.884 68.1912 101.884H167.211C168.835 101.884 170.152 100.088 170.152 97.8735C170.152 95.6589 168.835 93.8635 167.211 93.8635Z" fill="#D5D5D5"/>
<path d="M390.74 74.4817H39.7594C37.3229 74.4817 35.3477 77.1747 35.3477 80.4967V115.25C35.3477 118.572 37.3229 121.265 39.7594 121.265H390.74C393.176 121.265 395.152 118.572 395.152 115.25V80.4967C395.152 77.1747 393.176 74.4817 390.74 74.4817Z" stroke="#F6F6F6"/>
<path d="M390.74 135.969H39.7594C37.3229 135.969 35.3477 138.662 35.3477 141.984V176.737C35.3477 180.059 37.3229 182.752 39.7594 182.752H390.74C393.176 182.752 395.152 180.059 395.152 176.737V141.984C395.152 138.662 393.176 135.969 390.74 135.969Z" fill="#F6F6F6"/>
<path d="M52.5053 169.385C56.5662 169.385 59.8582 164.897 59.8582 159.36C59.8582 153.823 56.5662 149.335 52.5053 149.335C48.4444 149.335 45.1523 153.823 45.1523 159.36C45.1523 164.897 48.4444 169.385 52.5053 169.385Z" fill="white" stroke="#FCB5A3"/>
<path d="M52.5045 165.375C54.9411 165.375 56.9163 162.682 56.9163 159.36C56.9163 156.038 54.9411 153.345 52.5045 153.345C50.068 153.345 48.0928 156.038 48.0928 159.36C48.0928 162.682 50.068 165.375 52.5045 165.375Z" fill="#FA8E74" stroke="#FA8E74"/>
<path d="M167.211 155.35H68.1912C66.5668 155.35 65.25 157.145 65.25 159.36C65.25 161.575 66.5668 163.37 68.1912 163.37H167.211C168.835 163.37 170.152 161.575 170.152 159.36C170.152 157.145 168.835 155.35 167.211 155.35Z" fill="#F6F6F6"/>
<path d="M390.74 135.969H39.7594C37.3229 135.969 35.3477 138.662 35.3477 141.984V176.737C35.3477 180.059 37.3229 182.752 39.7594 182.752H390.74C393.176 182.752 395.152 180.059 395.152 176.737V141.984C395.152 138.662 393.176 135.969 390.74 135.969Z" stroke="#F6F6F6"/>
<path d="M52.5053 230.872C56.5662 230.872 59.8582 226.383 59.8582 220.847C59.8582 215.31 56.5662 210.822 52.5053 210.822C48.4444 210.822 45.1523 215.31 45.1523 220.847C45.1523 226.383 48.4444 230.872 52.5053 230.872Z" fill="white" stroke="#FCB5A3"/>
<path d="M167.211 216.837H68.1912C66.5668 216.837 65.25 218.632 65.25 220.847C65.25 223.061 66.5668 224.857 68.1912 224.857H167.211C168.835 224.857 170.152 223.061 170.152 220.847C170.152 218.632 168.835 216.837 167.211 216.837Z" fill="#D5D5D5"/>
<path d="M390.74 197.455H39.7594C37.3229 197.455 35.3477 200.148 35.3477 203.47V238.223C35.3477 241.545 37.3229 244.238 39.7594 244.238H390.74C393.176 244.238 395.152 241.545 395.152 238.223V203.47C395.152 200.148 393.176 197.455 390.74 197.455Z" stroke="#F6F6F6"/>
</g>
</g>
</g>
<defs>
<filter id="filter0_d_14676_60825" x="0.25" y="0" width="432" height="288.64" filterUnits="userSpaceOnUse" color-interpolation-filters="sRGB">
<feFlood flood-opacity="0" result="BackgroundImageFix"/>
<feColorMatrix in="SourceAlpha" type="matrix" values="0 0 0 0 0 0 0 0 0 0 0 0 0 0 0 0 0 0 127 0" result="hardAlpha"/>
<feOffset dx="1" dy="1"/>
<feGaussianBlur stdDeviation="8"/>
<feComposite in2="hardAlpha" operator="out"/>
<feColorMatrix type="matrix" values="0 0 0 0 0 0 0 0 0 0 0 0 0 0 0 0 0 0 0.09 0"/>
<feBlend mode="normal" in2="BackgroundImageFix" result="effect1_dropShadow_14676_60825"/>
<feBlend mode="normal" in="SourceGraphic" in2="effect1_dropShadow_14676_60825" result="shape"/>
</filter>
<filter id="filter1_d_14676_60825" x="-11.75" y="-7" width="460" height="316.64" filterUnits="userSpaceOnUse" color-interpolation-filters="sRGB">
<feFlood flood-opacity="0" result="BackgroundImageFix"/>
<feColorMatrix in="SourceAlpha" type="matrix" values="0 0 0 0 0 0 0 0 0 0 0 0 0 0 0 0 0 0 127 0" result="hardAlpha"/>
<feOffset dx="3" dy="8"/>
<feGaussianBlur stdDeviation="15"/>
<feComposite in2="hardAlpha" operator="out"/>
<feColorMatrix type="matrix" values="0 0 0 0 0 0 0 0 0 0 0 0 0 0 0 0 0 0 0.04 0"/>
<feBlend mode="normal" in2="BackgroundImageFix" result="effect1_dropShadow_14676_60825"/>
<feBlend mode="normal" in="SourceGraphic" in2="effect1_dropShadow_14676_60825" result="shape"/>
</filter>
</defs>
</svg>
