<svg width="384" height="216" viewBox="0 0 384 216" fill="none" xmlns="http://www.w3.org/2000/svg">
  <mask id="mask0_13129_59604" style="mask-type:luminance" maskUnits="userSpaceOnUse" x="0" y="0" width="384" height="216">
  <path d="M370.824 0H13.1765C5.89931 0 0 5.90359 0 13.186V202.814C0 210.096 5.89931 216 13.1765 216H370.824C378.101 216 384 210.096 384 202.814V13.186C384 5.90359 378.101 0 370.824 0Z" fill="white"/>
  </mask>
  <g mask="url(#mask0_13129_59604)">
  <path d="M370.824 0H13.1765C5.89931 0 0 5.90359 0 13.186V202.814C0 210.096 5.89931 216 13.1765 216H370.824C378.101 216 384 210.096 384 202.814V13.186C384 5.90359 378.101 0 370.824 0Z" fill="white"/>
  <g filter="url(#filter0_d_13129_59604)">
  <path d="M37.647 23.2958C37.647 22.0712 37.647 21.4589 37.7038 20.9437C38.1874 16.5602 41.6457 13.0994 46.026 12.6155C46.5408 12.5586 47.1527 12.5586 48.3764 12.5586H120.408C121.631 12.5586 122.243 12.5586 122.758 12.6155C127.138 13.0994 130.597 16.5602 131.08 20.9437C131.137 21.4589 131.137 22.0712 131.137 23.2958V32.5888C131.137 33.8134 131.137 34.4258 131.08 34.941C130.597 39.3244 127.138 42.7852 122.758 43.2691C122.243 43.326 121.631 43.326 120.408 43.326H48.3764C47.1527 43.326 46.5408 43.326 46.026 43.2691C41.6457 42.7852 38.1874 39.3244 37.7038 34.941C37.647 34.4258 37.647 33.8134 37.647 32.5888V23.2958Z" fill="#F97B5C"/>
  <path d="M60.1308 25.7936C60.1256 25.7479 60.1157 25.7029 60.101 25.6593V25.6146C60.0771 25.5635 60.0453 25.5166 60.0066 25.4754L57.0262 22.4929C56.9852 22.4543 56.9382 22.4224 56.8872 22.3984C56.8723 22.3964 56.8573 22.3964 56.8424 22.3984C56.792 22.3695 56.7363 22.3509 56.6785 22.3438H53.6733C53.2781 22.3438 52.899 22.5009 52.6196 22.7806C52.3401 23.0603 52.1831 23.4395 52.1831 23.835V30.7944C52.1831 31.1899 52.3401 31.5691 52.6196 31.8488C52.899 32.1285 53.2781 32.2857 53.6733 32.2857H58.6406C59.0358 32.2857 59.4149 32.1285 59.6943 31.8488C59.9738 31.5691 60.1308 31.1899 60.1308 30.7944V25.8234C60.1308 25.8234 60.1308 25.8234 60.1308 25.7936ZM57.1504 24.0388L58.437 25.3263H57.6471C57.5154 25.3263 57.3891 25.2739 57.2959 25.1808C57.2028 25.0875 57.1504 24.9611 57.1504 24.8293V24.0388ZM59.1373 30.7944C59.1373 30.9262 59.085 31.0526 58.9919 31.1459C58.8987 31.2391 58.7723 31.2914 58.6406 31.2914H53.6733C53.5415 31.2914 53.4152 31.2391 53.3221 31.1459C53.2289 31.0526 53.1765 30.9262 53.1765 30.7944V23.835C53.1765 23.7032 53.2289 23.5768 53.3221 23.4835C53.4152 23.3903 53.5415 23.338 53.6733 23.338H56.1569V24.8293C56.1569 25.2248 56.3139 25.604 56.5934 25.8837C56.8729 26.1634 57.2519 26.3205 57.6471 26.3205H59.1373V30.7944ZM57.1504 28.3089H56.6537V27.8118C56.6537 27.68 56.6014 27.5535 56.5082 27.4603C56.4151 27.3671 56.2887 27.3147 56.1569 27.3147C56.0252 27.3147 55.8989 27.3671 55.8057 27.4603C55.7126 27.5535 55.6603 27.68 55.6603 27.8118V28.3089H55.1635C55.0317 28.3089 54.9054 28.3612 54.8123 28.4545C54.7191 28.5477 54.6667 28.6741 54.6667 28.806C54.6667 28.9378 54.7191 29.0642 54.8123 29.1575C54.9054 29.2507 55.0317 29.3031 55.1635 29.3031H55.6603V29.8001C55.6603 29.932 55.7126 30.0585 55.8057 30.1516C55.8989 30.2449 56.0252 30.2973 56.1569 30.2973C56.2887 30.2973 56.4151 30.2449 56.5082 30.1516C56.6014 30.0585 56.6537 29.932 56.6537 29.8001V29.3031H57.1504C57.2822 29.3031 57.4085 29.2507 57.5017 29.1575C57.5948 29.0642 57.6471 28.9378 57.6471 28.806C57.6471 28.6741 57.5948 28.5477 57.5017 28.4545C57.4085 28.3612 57.2822 28.3089 57.1504 28.3089Z" fill="white"/>
  <path d="M65.4939 31.4656C65.3596 31.4656 65.2529 31.4355 65.1726 31.3752C65.0923 31.3149 65.0452 31.2346 65.032 31.1341C65.0182 31.0336 65.0383 30.9198 65.0923 30.7925L67.8129 24.6842C67.8794 24.5235 67.9635 24.4097 68.0639 24.3427C68.1706 24.2757 68.2879 24.2422 68.4153 24.2422C68.5357 24.2422 68.6462 24.2757 68.7466 24.3427C68.8532 24.4097 68.9404 24.5235 69.0076 24.6842L71.7282 30.7925C71.7884 30.9198 71.8117 31.037 71.7985 31.1441C71.7847 31.2446 71.7414 31.325 71.668 31.3853C71.5939 31.4388 71.4904 31.4656 71.3568 31.4656C71.2093 31.4656 71.092 31.4288 71.0054 31.3551C70.9182 31.2815 70.841 31.1676 70.7745 31.0135L70.0717 29.386L70.5436 29.6673H66.2669L66.7287 29.386L66.036 31.0135C65.9688 31.1743 65.8954 31.2915 65.8151 31.3652C65.7348 31.4322 65.6275 31.4656 65.4939 31.4656ZM68.3952 25.4679L66.8793 29.0645L66.6283 28.8234H70.1721L69.9412 29.0645L68.4153 25.4679H68.3952ZM74.6339 31.4857C74.2054 31.4857 73.8277 31.3853 73.4995 31.1843C73.1782 30.9767 72.9273 30.682 72.7466 30.3002C72.5659 29.9117 72.4755 29.4597 72.4755 28.944C72.4755 28.4148 72.5659 27.9627 72.7466 27.5877C72.9273 27.2126 73.1782 26.9213 73.4995 26.7136C73.8277 26.506 74.2054 26.4022 74.6339 26.4022C75.0625 26.4022 75.4302 26.5094 75.7382 26.7237C76.0526 26.9313 76.2634 27.2126 76.3707 27.5676H76.2603V24.7546C76.2603 24.5871 76.3036 24.4599 76.3908 24.3728C76.478 24.2857 76.6016 24.2422 76.7622 24.2422C76.9229 24.2422 77.0465 24.2857 77.1337 24.3728C77.2272 24.4599 77.2742 24.5871 77.2742 24.7546V30.9533C77.2742 31.114 77.231 31.2413 77.1437 31.335C77.0565 31.4221 76.9329 31.4656 76.7723 31.4656C76.6117 31.4656 76.4881 31.4221 76.4008 31.335C76.3136 31.2413 76.2703 31.114 76.2703 30.9533V30.0692L76.3808 30.2902C76.2735 30.6519 76.0626 30.9432 75.7483 31.1642C75.4402 31.3785 75.0688 31.4857 74.6339 31.4857ZM74.895 30.7021C75.1691 30.7021 75.4101 30.6351 75.6178 30.5012C75.8255 30.3672 75.9861 30.1696 76.0997 29.9084C76.2201 29.6472 76.2804 29.3257 76.2804 28.944C76.2804 28.368 76.153 27.9326 75.8989 27.6379C75.6448 27.3432 75.3097 27.1959 74.895 27.1959C74.6139 27.1959 74.3698 27.2629 74.1621 27.3968C73.9544 27.5241 73.7906 27.7183 73.6702 27.9795C73.5566 28.2407 73.4995 28.5622 73.4995 28.944C73.4995 29.5133 73.6269 29.9486 73.881 30.25C74.1351 30.5514 74.4733 30.7021 74.895 30.7021ZM80.5652 31.4857C80.1367 31.4857 79.759 31.3853 79.4308 31.1843C79.1095 30.9767 78.8586 30.682 78.6779 30.3002C78.4971 29.9117 78.4068 29.4597 78.4068 28.944C78.4068 28.4148 78.4971 27.9627 78.6779 27.5877C78.8586 27.2126 79.1095 26.9213 79.4308 26.7136C79.759 26.506 80.1367 26.4022 80.5652 26.4022C80.9938 26.4022 81.3615 26.5094 81.6695 26.7237C81.9839 26.9313 82.1947 27.2126 82.302 27.5676H82.1916V24.7546C82.1916 24.5871 82.2349 24.4599 82.3221 24.3728C82.4093 24.2857 82.5329 24.2422 82.6935 24.2422C82.8542 24.2422 82.9778 24.2857 83.065 24.3728C83.1585 24.4599 83.2055 24.5871 83.2055 24.7546V30.9533C83.2055 31.114 83.1622 31.2413 83.075 31.335C82.9878 31.4221 82.8642 31.4656 82.7036 31.4656C82.543 31.4656 82.4193 31.4221 82.3321 31.335C82.2449 31.2413 82.2016 31.114 82.2016 30.9533V30.0692L82.312 30.2902C82.2048 30.6519 81.9939 30.9432 81.6796 31.1642C81.3715 31.3785 81.0001 31.4857 80.5652 31.4857ZM80.8262 30.7021C81.1004 30.7021 81.3414 30.6351 81.5491 30.5012C81.7568 30.3672 81.9174 30.1696 82.031 29.9084C82.1514 29.6472 82.2117 29.3257 82.2117 28.944C82.2117 28.368 82.0843 27.9326 81.8302 27.6379C81.5761 27.3432 81.241 27.1959 80.8262 27.1959C80.5452 27.1959 80.3011 27.2629 80.0934 27.3968C79.8857 27.5241 79.7219 27.7183 79.6015 27.9795C79.4879 28.2407 79.4308 28.5622 79.4308 28.944C79.4308 29.5133 79.5582 29.9486 79.8123 30.25C80.0664 30.5514 80.4046 30.7021 80.8262 30.7021ZM87.9089 31.4656C87.7414 31.4656 87.6109 31.4187 87.5174 31.325C87.4302 31.2312 87.3869 31.1006 87.3869 30.9332V24.845C87.3869 24.6709 87.4339 24.5403 87.5274 24.4532C87.6209 24.3594 87.7514 24.3125 87.919 24.3125H90.3183C91.0813 24.3125 91.6705 24.4933 92.0852 24.855C92.5 25.2167 92.7077 25.7291 92.7077 26.3921C92.7077 26.8208 92.6142 27.1891 92.4266 27.4973C92.239 27.8054 91.9648 28.0398 91.6033 28.2005C91.2488 28.3613 90.8203 28.4416 90.3183 28.4416L90.4087 28.301H90.6697C90.9376 28.301 91.1685 28.368 91.3624 28.5019C91.5632 28.6358 91.7439 28.8502 91.9045 29.1449L92.7679 30.7523C92.835 30.8729 92.8651 30.9901 92.8582 31.104C92.8582 31.2111 92.8181 31.2982 92.7378 31.3652C92.6644 31.4322 92.5571 31.4656 92.4165 31.4656C92.2691 31.4656 92.1486 31.4355 92.0551 31.3752C91.9679 31.3082 91.8876 31.2111 91.8142 31.0839L90.7601 29.1348C90.6195 28.8736 90.4589 28.6995 90.2782 28.6124C90.0975 28.5187 89.8597 28.4718 89.5654 28.4718H88.431V30.9332C88.431 31.1006 88.3877 31.2312 88.3004 31.325C88.2132 31.4187 88.0827 31.4656 87.9089 31.4656ZM88.431 27.6881H90.1477C90.6565 27.6881 91.0412 27.581 91.3022 27.3667C91.5632 27.1523 91.6937 26.8342 91.6937 26.4122C91.6937 25.997 91.5632 25.6822 91.3022 25.4679C91.0412 25.2536 90.6565 25.1464 90.1477 25.1464H88.431V27.6881ZM96.2521 31.4857C95.7163 31.4857 95.2545 31.3853 94.8667 31.1843C94.4852 30.9767 94.1872 30.6853 93.9732 30.3103C93.7655 29.9285 93.662 29.4764 93.662 28.954C93.662 28.445 93.7655 27.9996 93.9732 27.6178C94.1803 27.236 94.4652 26.938 94.8266 26.7237C95.188 26.5094 95.5996 26.4022 96.0614 26.4022C96.4027 26.4022 96.707 26.4591 96.975 26.573C97.2422 26.6802 97.47 26.8409 97.6576 27.0552C97.8515 27.2629 97.9952 27.5173 98.0893 27.8187C98.1897 28.1201 98.2399 28.4584 98.2399 28.8334C98.2399 28.9473 98.206 29.0344 98.1395 29.0947C98.0724 29.1482 97.972 29.175 97.8383 29.175H94.4652V28.5521H97.5572L97.3866 28.6928C97.3866 28.3579 97.3364 28.0732 97.236 27.8388C97.1419 27.6044 96.9982 27.4269 96.8043 27.3064C96.6167 27.1791 96.3826 27.1155 96.1015 27.1155C95.7866 27.1155 95.5193 27.1891 95.2984 27.3365C95.0838 27.4839 94.9201 27.6881 94.8065 27.9493C94.6923 28.2106 94.6358 28.5153 94.6358 28.8636V28.9239C94.6358 29.5133 94.7726 29.9587 95.0474 30.26C95.3285 30.5547 95.7332 30.7021 96.2622 30.7021C96.463 30.7021 96.6738 30.6753 96.8946 30.6217C97.1218 30.5682 97.3364 30.4777 97.5371 30.3505C97.6507 30.2835 97.7511 30.2533 97.8383 30.26C97.9318 30.2668 98.0052 30.2969 98.0592 30.3505C98.1194 30.404 98.1558 30.471 98.1696 30.5514C98.1828 30.6318 98.1696 30.7155 98.1295 30.8026C98.0893 30.8829 98.019 30.9566 97.9186 31.0236C97.6909 31.1776 97.4267 31.2948 97.1255 31.3752C96.8244 31.4489 96.5332 31.4857 96.2521 31.4857ZM101.503 31.4857C101.001 31.4857 100.566 31.3819 100.198 31.1743C99.8368 30.96 99.5557 30.6619 99.3549 30.2801C99.1541 29.8917 99.0537 29.4362 99.0537 28.9138C99.0537 28.5253 99.1108 28.1771 99.2244 27.869C99.3386 27.5542 99.4992 27.2896 99.7062 27.0753C99.9208 26.861 100.178 26.6969 100.479 26.583C100.787 26.4625 101.129 26.4022 101.503 26.4022C101.738 26.4022 101.982 26.439 102.236 26.5127C102.497 26.5797 102.738 26.6935 102.959 26.8543C103.046 26.9078 103.1 26.9748 103.12 27.0552C103.147 27.1289 103.15 27.2059 103.13 27.2863C103.116 27.3667 103.079 27.437 103.019 27.4973C102.966 27.5508 102.899 27.5843 102.818 27.5977C102.738 27.6044 102.652 27.581 102.557 27.5274C102.397 27.4136 102.233 27.3332 102.065 27.2863C101.899 27.2327 101.738 27.2059 101.584 27.2059C101.343 27.2059 101.129 27.2461 100.941 27.3265C100.76 27.4001 100.607 27.5106 100.479 27.658C100.353 27.7987 100.255 27.9762 100.188 28.1905C100.128 28.4048 100.098 28.6493 100.098 28.9239C100.098 29.4731 100.225 29.9051 100.479 30.2199C100.74 30.528 101.109 30.682 101.584 30.682C101.738 30.682 101.899 30.6586 102.065 30.6117C102.233 30.5648 102.397 30.4844 102.557 30.3706C102.652 30.317 102.738 30.2969 102.818 30.3103C102.899 30.3237 102.963 30.3605 103.009 30.4208C103.063 30.4744 103.096 30.5413 103.11 30.6217C103.13 30.6954 103.126 30.7724 103.1 30.8528C103.073 30.9332 103.016 31.0002 102.929 31.0537C102.715 31.2077 102.481 31.3183 102.226 31.3853C101.979 31.4523 101.738 31.4857 101.503 31.4857ZM106.062 31.4857C105.566 31.4857 105.138 31.3819 104.777 31.1743C104.422 30.9666 104.144 30.672 103.943 30.2902C103.743 29.9084 103.642 29.4597 103.642 28.944C103.642 28.5488 103.699 28.1972 103.813 27.8891C103.926 27.581 104.087 27.3164 104.295 27.0954C104.509 26.8677 104.763 26.6969 105.058 26.583C105.359 26.4625 105.693 26.4022 106.062 26.4022C106.55 26.4022 106.972 26.506 107.327 26.7136C107.688 26.9213 107.969 27.216 108.17 27.5977C108.371 27.9728 108.471 28.4215 108.471 28.944C108.471 29.3324 108.414 29.6841 108.3 29.9988C108.186 30.3136 108.022 30.5815 107.809 30.8026C107.601 31.0236 107.347 31.1944 107.046 31.3149C106.751 31.4288 106.423 31.4857 106.062 31.4857ZM106.062 30.7021C106.336 30.7021 106.577 30.6351 106.785 30.5012C106.992 30.3672 107.152 30.1696 107.266 29.9084C107.387 29.6472 107.447 29.3257 107.447 28.944C107.447 28.368 107.32 27.9326 107.066 27.6379C106.811 27.3432 106.476 27.1959 106.062 27.1959C105.781 27.1959 105.536 27.2629 105.329 27.3968C105.121 27.5241 104.957 27.7183 104.837 27.9795C104.723 28.2407 104.666 28.5622 104.666 28.944C104.666 29.5133 104.793 29.9486 105.048 30.25C105.302 30.5514 105.64 30.7021 106.062 30.7021ZM110.122 31.4656C109.954 31.4656 109.827 31.4221 109.74 31.335C109.653 31.2413 109.61 31.114 109.61 30.9533V26.9347C109.61 26.7672 109.653 26.64 109.74 26.5529C109.827 26.4658 109.948 26.4223 110.102 26.4223C110.262 26.4223 110.383 26.4658 110.463 26.5529C110.55 26.64 110.594 26.7672 110.594 26.9347V27.668H110.493C110.6 27.2662 110.798 26.9615 111.086 26.7538C111.373 26.5462 111.741 26.4256 112.19 26.3921C112.31 26.3854 112.404 26.4156 112.471 26.4826C112.545 26.5496 112.585 26.6533 112.592 26.794C112.605 26.9347 112.575 27.0485 112.501 27.1356C112.427 27.216 112.314 27.2629 112.16 27.2762L111.969 27.2963C111.534 27.3365 111.202 27.4738 110.975 27.7082C110.748 27.9426 110.634 28.2641 110.634 28.6727V30.9533C110.634 31.114 110.59 31.2413 110.503 31.335C110.423 31.4221 110.296 31.4656 110.122 31.4656ZM115.153 31.4857C114.725 31.4857 114.347 31.3853 114.019 31.1843C113.698 30.9767 113.447 30.682 113.266 30.3002C113.085 29.9117 112.995 29.4597 112.995 28.944C112.995 28.4148 113.085 27.9627 113.266 27.5877C113.447 27.2126 113.698 26.9213 114.019 26.7136C114.347 26.506 114.725 26.4022 115.153 26.4022C115.582 26.4022 115.95 26.5094 116.258 26.7237C116.572 26.9313 116.783 27.2126 116.89 27.5676H116.78V24.7546C116.78 24.5871 116.823 24.4599 116.91 24.3728C116.998 24.2857 117.121 24.2422 117.282 24.2422C117.442 24.2422 117.566 24.2857 117.653 24.3728C117.747 24.4599 117.794 24.5871 117.794 24.7546V30.9533C117.794 31.114 117.75 31.2413 117.663 31.335C117.576 31.4221 117.452 31.4656 117.292 31.4656C117.131 31.4656 117.008 31.4221 116.92 31.335C116.833 31.2413 116.79 31.114 116.79 30.9533V30.0692L116.9 30.2902C116.793 30.6519 116.582 30.9432 116.268 31.1642C115.96 31.3785 115.588 31.4857 115.153 31.4857ZM115.414 30.7021C115.689 30.7021 115.93 30.6351 116.137 30.5012C116.345 30.3672 116.506 30.1696 116.619 29.9084C116.74 29.6472 116.8 29.3257 116.8 28.944C116.8 28.368 116.673 27.9326 116.418 27.6379C116.164 27.3432 115.829 27.1959 115.414 27.1959C115.133 27.1959 114.889 27.2629 114.682 27.3968C114.474 27.5241 114.31 27.7183 114.19 27.9795C114.076 28.2407 114.019 28.5622 114.019 28.944C114.019 29.5133 114.146 29.9486 114.401 30.25C114.655 30.5514 114.993 30.7021 115.414 30.7021Z" fill="white"/>
  </g>
  <path d="M17.2549 28.5703V74.4075" stroke="#D3D3D3" stroke-linecap="round" stroke-dasharray="4 4"/>
  <path d="M17.2547 32.653C19.8537 32.653 21.9606 30.5446 21.9606 27.9437C21.9606 25.3428 19.8537 23.2344 17.2547 23.2344C14.6557 23.2344 12.5488 25.3428 12.5488 27.9437C12.5488 30.5446 14.6557 32.653 17.2547 32.653Z" fill="#AEAEAE"/>
  <path d="M17.2547 30.1414C18.4675 30.1414 19.4508 29.1575 19.4508 27.9438C19.4508 26.73 18.4675 25.7461 17.2547 25.7461C16.0418 25.7461 15.0586 26.73 15.0586 27.9438C15.0586 29.1575 16.0418 30.1414 17.2547 30.1414Z" fill="white"/>
  <path d="M17.2547 79.1178C19.8537 79.1178 21.9606 77.0094 21.9606 74.4085C21.9606 71.8076 19.8537 69.6992 17.2547 69.6992C14.6557 69.6992 12.5488 71.8076 12.5488 74.4085C12.5488 77.0094 14.6557 79.1178 17.2547 79.1178Z" fill="#938888"/>
  <path d="M17.2547 76.6063C18.4675 76.6063 19.4508 75.6224 19.4508 74.4086C19.4508 73.1949 18.4675 72.2109 17.2547 72.2109C16.0418 72.2109 15.0586 73.1949 15.0586 74.4086C15.0586 75.6224 16.0418 76.6063 17.2547 76.6063Z" fill="white"/>
  <path d="M17.5688 79.4297V192.453" stroke="#938888" stroke-linecap="round" stroke-dasharray="4 4"/>
  <path d="M371.451 61.5352H37.647V203.442H371.451V61.5352Z" fill="#E5E5E5"/>
  <g filter="url(#filter1_d_13129_59604)">
  <path d="M368.314 61.5352H40.7842C39.0516 61.5352 37.647 62.9408 37.647 64.6747V200.303C37.647 202.036 39.0516 203.442 40.7842 203.442H368.314C370.046 203.442 371.451 202.036 371.451 200.303V64.6747C371.451 62.9408 370.046 61.5352 368.314 61.5352Z" fill="white"/>
  <path d="M115.451 74.4062H53.3333C51.7739 74.4062 50.5098 75.6713 50.5098 77.2318V92.3016C50.5098 93.8621 51.7739 95.1272 53.3333 95.1272H115.451C117.01 95.1272 118.274 93.8621 118.274 92.3016V77.2318C118.274 75.6713 117.01 74.4062 115.451 74.4062Z" fill="#FBFFFC"/>
  <path d="M60.223 87.9846C59.5964 87.9846 59.0605 87.8559 58.6155 87.5978C58.1704 87.3397 57.8278 86.9736 57.5877 86.499C57.3535 86.0186 57.2363 85.4529 57.2363 84.8023C57.2363 84.3157 57.3037 83.8793 57.4384 83.4925C57.5731 83.1001 57.7663 82.7661 58.0181 82.4904C58.2758 82.2091 58.5891 81.995 58.9581 81.8487C59.3328 81.7024 59.7545 81.6289 60.223 81.6289C60.5685 81.6289 60.8994 81.676 61.2156 81.7696C61.5377 81.8631 61.8159 81.9981 62.0501 82.1739C62.1497 82.2386 62.2141 82.3177 62.2434 82.4113C62.2785 82.4992 62.2844 82.584 62.261 82.6662C62.2434 82.7485 62.2053 82.8188 62.1468 82.8772C62.0882 82.9299 62.012 82.9594 61.9184 82.9651C61.8305 82.9707 61.7339 82.9387 61.6285 82.8684C61.4352 82.7221 61.2215 82.6135 60.9872 82.5431C60.753 82.4728 60.507 82.4377 60.2493 82.4377C59.8043 82.4377 59.4295 82.5312 59.125 82.719C58.8205 82.9004 58.5891 83.1673 58.431 83.5189C58.2729 83.8705 58.1938 84.2981 58.1938 84.8023C58.1938 85.3066 58.2729 85.7373 58.431 86.0946C58.5891 86.4462 58.8205 86.7156 59.125 86.9033C59.4295 87.0848 59.8043 87.1758 60.2493 87.1758C60.507 87.1758 60.753 87.1407 60.9872 87.0703C61.2274 86.9944 61.4528 86.8826 61.6636 86.7363C61.769 86.6716 61.8627 86.6427 61.9447 86.6484C62.0326 86.654 62.1058 86.6836 62.1643 86.7363C62.2229 86.789 62.261 86.8562 62.2785 86.9385C62.3019 87.0145 62.299 87.0967 62.2697 87.1846C62.2463 87.2669 62.1907 87.3372 62.1028 87.3956C61.8627 87.589 61.5787 87.7353 61.2508 87.8351C60.9228 87.935 60.5802 87.9846 60.223 87.9846ZM64.6658 87.9846C64.2091 87.9846 63.8633 87.8527 63.6293 87.589C63.4009 87.3196 63.2867 86.9328 63.2867 86.4286V82.0948C63.2867 81.9485 63.325 81.8367 63.4009 81.7608C63.4768 81.6848 63.5854 81.6465 63.7259 81.6465C63.8665 81.6465 63.975 81.6848 64.0509 81.7608C64.1331 81.8367 64.1739 81.9485 64.1739 82.0948V86.3759C64.1739 86.6691 64.2323 86.8889 64.3496 87.0352C64.4726 87.1758 64.6483 87.2462 64.8767 87.2462C64.9294 87.2462 64.9764 87.2462 65.0172 87.2462C65.058 87.2405 65.0994 87.2342 65.1402 87.2286C65.2105 87.2229 65.26 87.243 65.2895 87.2901C65.319 87.3309 65.3335 87.4188 65.3335 87.5538C65.3335 87.6769 65.3071 87.7736 65.2544 87.8439C65.2017 87.9086 65.117 87.9494 64.9997 87.967C64.9469 87.9727 64.8911 87.9758 64.8328 87.9758C64.7744 87.9814 64.7186 87.9846 64.6658 87.9846ZM66.4108 87.9582C66.2702 87.9582 66.1623 87.9174 66.0858 87.8351C66.0098 87.7472 65.9716 87.6273 65.9716 87.4747V84.0464C65.9716 83.8938 66.0098 83.777 66.0858 83.6947C66.1623 83.6125 66.2702 83.5717 66.4108 83.5717C66.5513 83.5717 66.6599 83.6125 66.7358 83.6947C66.818 83.777 66.8588 83.8938 66.8588 84.0464V87.4747C66.8588 87.6273 66.8211 87.7472 66.7446 87.8351C66.6687 87.9174 66.5576 87.9582 66.4108 87.9582ZM66.4108 82.6574C66.2351 82.6574 66.0977 82.6135 65.9979 82.5256C65.9044 82.4377 65.8574 82.3146 65.8574 82.1563C65.8574 81.9925 65.9044 81.8694 65.9979 81.7871C66.0977 81.6992 66.2351 81.6553 66.4108 81.6553C66.5865 81.6553 66.7214 81.6992 66.8149 81.7871C66.9146 81.8694 66.9642 81.9925 66.9642 82.1563C66.9642 82.3146 66.9146 82.4377 66.8149 82.5256C66.7214 82.6135 66.5865 82.6574 66.4108 82.6574ZM68.5473 87.967C68.4067 87.967 68.2982 87.9287 68.2222 87.8527C68.1457 87.7705 68.108 87.6593 68.108 87.5187V84.0024C68.108 83.8561 68.1457 83.7443 68.2222 83.6683C68.2982 83.5924 68.4036 83.5541 68.5385 83.5541C68.679 83.5541 68.7844 83.5924 68.8547 83.6683C68.9306 83.7443 68.9689 83.8561 68.9689 84.0024V84.6881L68.8723 84.5298C69.0009 84.2014 69.203 83.9553 69.4784 83.7914C69.7532 83.6213 70.0695 83.5365 70.4271 83.5365C70.7666 83.5365 71.0477 83.6012 71.2704 83.7299C71.4988 83.853 71.6682 84.0432 71.7799 84.3013C71.891 84.5531 71.9468 84.8727 71.9468 85.2595V87.5187C71.9468 87.6593 71.9085 87.7705 71.8326 87.8527C71.756 87.9287 71.6481 87.967 71.5076 87.967C71.3608 87.967 71.2497 87.9287 71.1738 87.8527C71.0972 87.7705 71.0596 87.6593 71.0596 87.5187V85.3122C71.0596 84.943 70.9862 84.6736 70.84 84.5035C70.6994 84.3333 70.4767 84.2485 70.1724 84.2485C69.8147 84.2485 69.528 84.3597 69.3115 84.5826C69.1007 84.8055 68.9953 85.1044 68.9953 85.4792V87.5187C68.9953 87.8176 68.8459 87.967 68.5473 87.967ZM73.6083 87.9582C73.4677 87.9582 73.3592 87.9174 73.2833 87.8351C73.2073 87.7472 73.1691 87.6273 73.1691 87.4747V84.0464C73.1691 83.8938 73.2073 83.777 73.2833 83.6947C73.3592 83.6125 73.4677 83.5717 73.6083 83.5717C73.7488 83.5717 73.8574 83.6125 73.9333 83.6947C74.0155 83.777 74.0563 83.8938 74.0563 84.0464V87.4747C74.0563 87.6273 74.018 87.7472 73.9421 87.8351C73.8662 87.9174 73.7545 87.9582 73.6083 87.9582ZM73.6083 82.6574C73.4326 82.6574 73.2952 82.6135 73.1954 82.5256C73.1019 82.4377 73.0549 82.3146 73.0549 82.1563C73.0549 81.9925 73.1019 81.8694 73.1954 81.7871C73.2952 81.6992 73.4326 81.6553 73.6083 81.6553C73.784 81.6553 73.9189 81.6992 74.0124 81.7871C74.1121 81.8694 74.1617 81.9925 74.1617 82.1563C74.1617 82.3146 74.1121 82.4377 74.0124 82.5256C73.9189 82.6135 73.784 82.6574 73.6083 82.6574ZM77.1935 87.9846C76.7543 87.9846 76.3741 87.8935 76.0516 87.7121C75.7353 87.5243 75.4894 87.2637 75.3137 86.9297C75.138 86.59 75.0502 86.1913 75.0502 85.7342C75.0502 85.3945 75.1004 85.0893 75.1995 84.8199C75.2993 84.5443 75.4398 84.3132 75.6211 84.1255C75.8088 83.9377 76.034 83.7946 76.2975 83.6947C76.5673 83.5892 76.866 83.5365 77.1935 83.5365C77.3987 83.5365 77.6127 83.5685 77.8348 83.6332C78.0632 83.6916 78.274 83.7914 78.4673 83.9321C78.5438 83.9792 78.5902 84.0376 78.6078 84.1079C78.6317 84.1726 78.6342 84.2397 78.6166 84.3101C78.6053 84.3804 78.5727 84.4419 78.52 84.4947C78.4735 84.5418 78.4146 84.5706 78.3443 84.5826C78.274 84.5882 78.1981 84.5681 78.1159 84.521C77.9753 84.4212 77.8323 84.3509 77.6855 84.3101C77.5393 84.263 77.3987 84.2397 77.2638 84.2397C77.053 84.2397 76.866 84.2749 76.7016 84.3452C76.5435 84.4099 76.4092 84.5066 76.2975 84.6353C76.1865 84.7584 76.1018 84.9135 76.0428 85.1012C75.9901 85.289 75.9637 85.5025 75.9637 85.743C75.9637 86.2233 76.0754 86.6013 76.2975 86.877C76.5259 87.1463 76.8484 87.2813 77.2638 87.2813C77.3987 87.2813 77.5393 87.2606 77.6855 87.2198C77.8323 87.179 77.9753 87.1087 78.1159 87.0088C78.1981 86.9617 78.274 86.9441 78.3443 86.9561C78.4146 86.968 78.4704 87 78.5112 87.0528C78.5582 87.0999 78.5877 87.1583 78.599 87.2286C78.6166 87.2933 78.6141 87.3604 78.5902 87.4308C78.567 87.5011 78.5175 87.5595 78.4409 87.6066C78.2539 87.7416 78.0488 87.8383 77.826 87.8967C77.6095 87.9551 77.3987 87.9846 77.1935 87.9846ZM80.7418 87.9846C80.4431 87.9846 80.1739 87.9262 79.9336 87.8088C79.6996 87.6913 79.5151 87.5331 79.3802 87.3341C79.2453 87.135 79.1782 86.909 79.1782 86.6572C79.1782 86.3407 79.2572 86.0914 79.4153 85.91C79.5791 85.7222 79.8458 85.5904 80.2147 85.5144C80.5893 85.4321 81.0931 85.3913 81.7256 85.3913H82.1385V85.9363H81.7344C81.3128 85.9363 80.9789 85.9571 80.733 85.9979C80.487 86.0387 80.3113 86.109 80.2059 86.2089C80.1062 86.3024 80.0566 86.4343 80.0566 86.6044C80.0566 86.8273 80.1325 87.0088 80.285 87.1495C80.4375 87.2845 80.6483 87.3516 80.9175 87.3516C81.1339 87.3516 81.3247 87.3021 81.4884 87.2022C81.6522 87.0967 81.7815 86.9561 81.875 86.7803C81.9747 86.6044 82.0243 86.4023 82.0243 86.1737V85.1628C82.0243 84.8287 81.954 84.5882 81.8135 84.4419C81.6729 84.2956 81.4414 84.2222 81.1195 84.2222C80.9319 84.2222 80.7361 84.2454 80.5309 84.2925C80.332 84.3396 80.1237 84.4187 79.9073 84.5298C79.8075 84.5769 79.7228 84.5914 79.6525 84.5738C79.5822 84.5562 79.5264 84.5179 79.4856 84.4595C79.4448 84.3948 79.421 84.3277 79.4153 84.2573C79.4153 84.1814 79.4329 84.1079 79.468 84.0376C79.5088 83.9672 79.5766 83.9145 79.6701 83.8793C79.928 83.7563 80.1827 83.6683 80.4343 83.6156C80.6859 83.5629 80.9231 83.5365 81.1459 83.5365C81.538 83.5365 81.8605 83.598 82.1121 83.7211C82.37 83.8442 82.5601 84.0319 82.6831 84.2837C82.8061 84.5355 82.8676 84.8607 82.8676 85.2595V87.5187C82.8676 87.6593 82.8324 87.7705 82.7622 87.8527C82.6919 87.9287 82.5896 87.967 82.4547 87.967C82.3261 87.967 82.2232 87.9287 82.1473 87.8527C82.0713 87.7705 82.0331 87.6593 82.0331 87.5187V86.9473H82.1121C82.0651 87.1639 81.9772 87.3516 81.8486 87.5099C81.7256 87.6625 81.5706 87.7793 81.383 87.8615C81.1954 87.9438 80.9821 87.9846 80.7418 87.9846ZM85.4684 87.9846C85.0116 87.9846 84.6665 87.8527 84.4318 87.589C84.2034 87.3196 84.0892 86.9328 84.0892 86.4286V82.0948C84.0892 81.9485 84.1275 81.8367 84.2034 81.7608C84.28 81.6848 84.3879 81.6465 84.5284 81.6465C84.669 81.6465 84.7775 81.6848 84.8535 81.7608C84.9357 81.8367 84.9764 81.9485 84.9764 82.0948V86.3759C84.9764 86.6691 85.0354 86.8889 85.1521 87.0352C85.2751 87.1758 85.4508 87.2462 85.6792 87.2462C85.7319 87.2462 85.7789 87.2462 85.8197 87.2462C85.8611 87.2405 85.9019 87.2342 85.9427 87.2286C86.013 87.2229 86.0632 87.243 86.092 87.2901C86.1215 87.3309 86.136 87.4188 86.136 87.5538C86.136 87.6769 86.1096 87.7736 86.0569 87.8439C86.0042 87.9086 85.9195 87.9494 85.8022 87.967C85.7495 87.9727 85.6942 87.9758 85.6353 87.9758C85.5769 87.9814 85.5211 87.9846 85.4684 87.9846ZM89.6177 87.967C89.4828 87.967 89.3774 87.9287 89.3015 87.8527C89.2255 87.7767 89.1873 87.6681 89.1873 87.5275V82.1036C89.1873 81.9573 89.2224 81.8455 89.2927 81.7696C89.3686 81.6873 89.4684 81.6465 89.5913 81.6465C89.6968 81.6465 89.7758 81.6672 89.8285 81.708C89.8869 81.7432 89.9546 81.8104 90.0306 81.9102L93.6497 86.6836H93.4301V82.0772C93.4301 81.9422 93.4652 81.8367 93.5355 81.7608C93.6114 81.6848 93.7168 81.6465 93.8517 81.6465C93.9923 81.6465 94.0977 81.6848 94.168 81.7608C94.2382 81.8367 94.2734 81.9422 94.2734 82.0772V87.5363C94.2734 87.6713 94.2382 87.7767 94.168 87.8527C94.1033 87.9287 94.0155 87.967 93.9044 87.967C93.799 87.967 93.7112 87.9463 93.6409 87.9055C93.5763 87.8647 93.506 87.7943 93.4301 87.6945L89.8285 82.9299H90.0306V87.5275C90.0306 87.6681 89.9954 87.7767 89.9251 87.8527C89.8549 87.9287 89.7526 87.967 89.6177 87.967ZM97.4809 87.9846C97.048 87.9846 96.6727 87.8935 96.3565 87.7121C96.0466 87.5306 95.8031 87.2725 95.6274 86.9385C95.4517 86.6044 95.3639 86.212 95.3639 85.7605C95.3639 85.4146 95.4141 85.1069 95.5132 84.8375C95.613 84.5681 95.7535 84.3364 95.9349 84.143C96.1225 83.944 96.3452 83.7946 96.6025 83.6947C96.866 83.5892 97.159 83.5365 97.4809 83.5365C97.9088 83.5365 98.2778 83.6275 98.5877 83.809C98.904 83.9905 99.1499 84.2485 99.3256 84.5826C99.5013 84.911 99.5891 85.3034 99.5891 85.7605C99.5891 86.1002 99.5396 86.4079 99.4398 86.6836C99.3407 86.9592 99.197 87.1934 99.0094 87.3868C98.8281 87.5802 98.6053 87.7297 98.3418 87.8351C98.0845 87.935 97.7971 87.9846 97.4809 87.9846ZM97.4809 87.2989C97.7212 87.2989 97.932 87.2405 98.1134 87.1231C98.2953 87.0057 98.4359 86.833 98.535 86.6044C98.6404 86.3759 98.6931 86.0946 98.6931 85.7605C98.6931 85.2563 98.5821 84.8758 98.3593 84.6177C98.1372 84.3597 97.8442 84.231 97.4809 84.231C97.235 84.231 97.0216 84.2893 96.8397 84.4068C96.6583 84.5179 96.5146 84.6881 96.4092 84.9166C96.3101 85.1452 96.2599 85.4265 96.2599 85.7605C96.2599 86.2585 96.3716 86.6396 96.5937 86.9033C96.8164 87.1671 97.112 87.2989 97.4809 87.2989ZM102.37 87.9846C102.019 87.9846 101.723 87.923 101.483 87.8C101.242 87.6769 101.064 87.4954 100.947 87.255C100.83 87.0145 100.771 86.7219 100.771 86.3759V84.3013H100.244C100.127 84.3013 100.037 84.2718 99.9719 84.2134C99.9073 84.1487 99.8753 84.0639 99.8753 83.9584C99.8753 83.8473 99.9073 83.7619 99.9719 83.7035C100.037 83.6451 100.127 83.6156 100.244 83.6156H100.771V82.7102C100.771 82.5639 100.81 82.4521 100.885 82.3761C100.968 82.3001 101.079 82.2618 101.219 82.2618C101.36 82.2618 101.468 82.3001 101.544 82.3761C101.62 82.4521 101.658 82.5639 101.658 82.7102V83.6156H102.686C102.804 83.6156 102.894 83.6451 102.959 83.7035C103.023 83.7619 103.055 83.8473 103.055 83.9584C103.055 84.0639 103.023 84.1487 102.959 84.2134C102.894 84.2718 102.804 84.3013 102.686 84.3013H101.658V86.3056C101.658 86.6164 101.723 86.8506 101.852 87.0088C101.987 87.1671 102.203 87.2462 102.502 87.2462C102.607 87.2462 102.698 87.2374 102.774 87.2198C102.856 87.1966 102.923 87.1815 102.976 87.1758C103.041 87.1758 103.093 87.1991 103.134 87.2462C103.175 87.287 103.196 87.3692 103.196 87.4923C103.196 87.5802 103.178 87.6625 103.143 87.7384C103.114 87.8144 103.058 87.8647 102.976 87.8879C102.906 87.9111 102.809 87.9318 102.686 87.9494C102.569 87.9727 102.463 87.9846 102.37 87.9846ZM105.72 87.9846C105.251 87.9846 104.847 87.8967 104.508 87.7209C104.174 87.5394 103.914 87.2845 103.726 86.9561C103.545 86.622 103.454 86.2264 103.454 85.7693C103.454 85.3241 103.545 84.9342 103.726 84.6002C103.907 84.2661 104.156 84.0055 104.473 83.8178C104.789 83.6301 105.149 83.5365 105.553 83.5365C105.852 83.5365 106.118 83.5861 106.352 83.6859C106.586 83.7795 106.786 83.9201 106.95 84.1079C107.12 84.2893 107.245 84.5123 107.327 84.776C107.415 85.0397 107.459 85.3354 107.459 85.6638C107.459 85.7637 107.43 85.8397 107.371 85.8924C107.313 85.9395 107.225 85.9627 107.108 85.9627H104.156V85.4177H106.862L106.713 85.5408C106.713 85.2475 106.669 84.9989 106.581 84.7936C106.499 84.5882 106.373 84.4331 106.203 84.3277C106.039 84.2165 105.834 84.1606 105.588 84.1606C105.313 84.1606 105.079 84.2253 104.885 84.354C104.698 84.4827 104.555 84.6617 104.455 84.8903C104.355 85.1188 104.306 85.3857 104.306 85.6902V85.743C104.306 86.2585 104.426 86.6484 104.666 86.9121C104.912 87.1702 105.266 87.2989 105.729 87.2989C105.904 87.2989 106.089 87.2757 106.282 87.2286C106.481 87.1815 106.669 87.1024 106.844 86.9912C106.944 86.9328 107.032 86.9065 107.108 86.9121C107.19 86.9178 107.254 86.9441 107.301 86.9912C107.354 87.0383 107.386 87.0967 107.398 87.1671C107.41 87.2374 107.398 87.3108 107.363 87.3868C107.327 87.4571 107.266 87.5218 107.178 87.5802C106.979 87.7152 106.748 87.8176 106.484 87.8879C106.221 87.9526 105.966 87.9846 105.72 87.9846ZM109.929 87.9846C109.671 87.9846 109.404 87.9551 109.13 87.8967C108.86 87.8383 108.611 87.7384 108.383 87.5978C108.306 87.545 108.254 87.4866 108.225 87.422C108.195 87.3573 108.183 87.2933 108.19 87.2286C108.201 87.1583 108.227 87.0999 108.269 87.0528C108.315 87 108.371 86.968 108.436 86.9561C108.506 86.9441 108.579 86.9592 108.655 87C108.884 87.1287 109.103 87.2198 109.314 87.2725C109.525 87.3196 109.733 87.3429 109.938 87.3429C110.248 87.3429 110.482 87.287 110.64 87.1758C110.799 87.0647 110.878 86.9153 110.878 86.7275C110.878 86.5749 110.825 86.4581 110.719 86.3759C110.614 86.288 110.456 86.2208 110.245 86.1737L109.411 86.0067C109.047 85.9307 108.772 85.7957 108.585 85.6023C108.397 85.4089 108.304 85.1628 108.304 84.8639C108.304 84.5945 108.377 84.3597 108.523 84.1606C108.67 83.9616 108.875 83.809 109.138 83.7035C109.402 83.5924 109.706 83.5365 110.052 83.5365C110.309 83.5365 110.553 83.5685 110.781 83.6332C111.009 83.6979 111.22 83.7946 111.413 83.9233C111.489 83.9641 111.539 84.02 111.563 84.0903C111.586 84.155 111.589 84.219 111.572 84.2837C111.56 84.3484 111.53 84.4068 111.484 84.4595C111.437 84.5066 111.378 84.5355 111.308 84.5474C111.243 84.5531 111.17 84.5355 111.088 84.4947C110.913 84.3835 110.737 84.3044 110.561 84.2573C110.391 84.2102 110.221 84.187 110.052 84.187C109.741 84.187 109.507 84.2454 109.349 84.3628C109.197 84.474 109.121 84.6265 109.121 84.8199C109.121 84.9662 109.167 85.0868 109.261 85.1804C109.355 85.2739 109.501 85.3417 109.701 85.3825L110.535 85.5496C110.915 85.6255 111.203 85.7549 111.396 85.9363C111.595 86.1178 111.695 86.3639 111.695 86.6748C111.695 87.0791 111.533 87.3987 111.211 87.633C110.889 87.8672 110.462 87.9846 109.929 87.9846Z" fill="#37B844"/>
  <path d="M115.451 74.4062H53.3333C51.7739 74.4062 50.5098 75.6713 50.5098 77.2318V92.3016C50.5098 93.8621 51.7739 95.1272 53.3333 95.1272H115.451C117.01 95.1272 118.274 93.8621 118.274 92.3016V77.2318C118.274 75.6713 117.01 74.4062 115.451 74.4062Z" stroke="#8EF87B"/>
  <path d="M181.647 84.2445H180.602V82.1516C180.602 82.0129 180.547 81.8798 180.449 81.7812C180.35 81.6832 180.217 81.628 180.079 81.628C179.94 81.628 179.807 81.6832 179.709 81.7812C179.611 81.8798 179.556 82.0129 179.556 82.1516V84.7675C179.556 84.9063 179.611 85.0394 179.709 85.138C179.807 85.2359 179.94 85.2912 180.079 85.2912H181.647C181.786 85.2912 181.919 85.2359 182.017 85.138C182.115 85.0394 182.17 84.9063 182.17 84.7675C182.17 84.6287 182.115 84.4956 182.017 84.3977C181.919 84.2997 181.786 84.2445 181.647 84.2445ZM180.079 79.5352C179.044 79.5352 178.034 79.8422 177.174 80.4167C176.314 80.9919 175.644 81.8094 175.248 82.7651C174.852 83.7214 174.749 84.7738 174.95 85.7885C175.152 86.8038 175.65 87.7356 176.382 88.4678C177.113 89.1993 178.044 89.6978 179.059 89.9C180.073 90.1016 181.124 89.998 182.079 89.6018C183.035 89.2062 183.852 88.5349 184.426 87.6747C185.001 86.8145 185.308 85.8023 185.308 84.7675C185.308 84.0806 185.172 83.3999 184.909 82.7651C184.647 82.1303 184.262 81.5539 183.776 81.0679C183.29 80.5819 182.714 80.1963 182.079 79.9333C181.445 79.6708 180.766 79.5352 180.079 79.5352ZM180.079 88.9538C179.252 88.9538 178.443 88.7083 177.755 88.248C177.067 87.7884 176.531 87.1347 176.214 86.3699C175.898 85.6045 175.815 84.7631 175.976 83.9512C176.137 83.1387 176.536 82.3934 177.121 81.8076C177.706 81.2223 178.452 80.8236 179.263 80.6622C180.074 80.5002 180.915 80.5838 181.68 80.9002C182.444 81.2173 183.097 81.7536 183.556 82.4424C184.016 83.1306 184.262 83.9399 184.262 84.7675C184.262 85.8776 183.821 86.9426 183.036 87.7275C182.252 88.513 181.188 88.9538 180.079 88.9538Z" fill="#FFCA7D"/>
  <path d="M220.235 82.8828H192.627C191.588 82.8828 190.745 83.7262 190.745 84.7665C190.745 85.8069 191.588 86.6503 192.627 86.6503H220.235C221.275 86.6503 222.118 85.8069 222.118 84.7665C222.118 83.7262 221.275 82.8828 220.235 82.8828Z" fill="#D5D5D5"/>
  <path d="M251.712 83.7214C251.503 83.0935 250.876 82.6747 250.248 82.6747C249.359 82.6747 248.68 83.3547 248.68 84.2445C248.68 84.9245 249.098 85.5003 249.725 85.7094V86.5991C249.725 87.907 248.68 88.9538 247.372 88.9538C246.065 88.9538 245.019 87.907 245.019 86.5991V86.2852C246.536 86.0233 247.634 84.7154 247.634 83.1977V80.0582C247.634 79.7442 247.425 79.5352 247.111 79.5352H246.065C245.752 79.5352 245.543 79.7442 245.543 80.0582C245.543 80.3722 245.752 80.5819 246.065 80.5819H246.588V83.1977C246.588 84.3493 245.647 85.2912 244.497 85.2912C243.347 85.2912 242.405 84.3493 242.405 83.1977V80.5819H242.928C243.242 80.5819 243.451 80.3722 243.451 80.0582C243.451 79.7442 243.242 79.5352 242.928 79.5352H241.882C241.568 79.5352 241.359 79.7442 241.359 80.0582V83.1977C241.359 84.7154 242.457 86.0233 243.974 86.2852V86.5991C243.974 88.4828 245.49 90.0005 247.372 90.0005C249.255 90.0005 250.771 88.4828 250.771 86.5991V85.7094C251.608 85.4482 252.026 84.5584 251.712 83.7214Z" fill="#FFCA7D"/>
  <path d="M286.745 82.8828H259.137C258.098 82.8828 257.255 83.7262 257.255 84.7665C257.255 85.8069 258.098 86.6503 259.137 86.6503H286.745C287.785 86.6503 288.627 85.8069 288.627 84.7665C288.627 83.7262 287.785 82.8828 286.745 82.8828Z" fill="#D5D5D5"/>
  <path d="M312.889 82.6747H313.411C313.55 82.6747 313.683 82.6194 313.782 82.5215C313.88 82.4235 313.935 82.2904 313.935 82.1516C313.935 82.0129 313.88 81.8798 313.782 81.7812C313.683 81.6832 313.55 81.628 313.411 81.628H312.889C312.75 81.628 312.617 81.6832 312.519 81.7812C312.421 81.8798 312.366 82.0129 312.366 82.1516C312.366 82.2904 312.421 82.4235 312.519 82.5215C312.617 82.6194 312.75 82.6747 312.889 82.6747ZM312.889 84.7675H313.411C313.55 84.7675 313.683 84.7129 313.782 84.6143C313.88 84.5163 313.935 84.3832 313.935 84.2445C313.935 84.1057 313.88 83.9726 313.782 83.8746C313.683 83.776 313.55 83.7214 313.411 83.7214H312.889C312.75 83.7214 312.617 83.776 312.519 83.8746C312.421 83.9726 312.366 84.1057 312.366 84.2445C312.366 84.3832 312.421 84.5163 312.519 84.6143C312.617 84.7129 312.75 84.7675 312.889 84.7675ZM310.274 82.6747H310.797C310.936 82.6747 311.069 82.6194 311.167 82.5215C311.265 82.4235 311.32 82.2904 311.32 82.1516C311.32 82.0129 311.265 81.8798 311.167 81.7812C311.069 81.6832 310.936 81.628 310.797 81.628H310.274C310.136 81.628 310.003 81.6832 309.905 81.7812C309.807 81.8798 309.752 82.0129 309.752 82.1516C309.752 82.2904 309.807 82.4235 309.905 82.5215C310.003 82.6194 310.136 82.6747 310.274 82.6747ZM310.274 84.7675H310.797C310.936 84.7675 311.069 84.7129 311.167 84.6143C311.265 84.5163 311.32 84.3832 311.32 84.2445C311.32 84.1057 311.265 83.9726 311.167 83.8746C311.069 83.776 310.936 83.7214 310.797 83.7214H310.274C310.136 83.7214 310.003 83.776 309.905 83.8746C309.807 83.9726 309.752 84.1057 309.752 84.2445C309.752 84.3832 309.807 84.5163 309.905 84.6143C310.003 84.7129 310.136 84.7675 310.274 84.7675ZM316.549 88.9538H316.026V80.0582C316.026 79.9194 315.971 79.7863 315.873 79.6884C315.775 79.5904 315.642 79.5352 315.503 79.5352H308.183C308.044 79.5352 307.911 79.5904 307.813 79.6884C307.715 79.7863 307.66 79.9194 307.66 80.0582V88.9538H307.137C306.998 88.9538 306.865 89.009 306.767 89.107C306.669 89.2049 306.614 89.338 306.614 89.4768C306.614 89.6156 306.669 89.7487 306.767 89.8473C306.865 89.9452 306.998 90.0005 307.137 90.0005H316.549C316.687 90.0005 316.82 89.9452 316.919 89.8473C317.017 89.7487 317.072 89.6156 317.072 89.4768C317.072 89.338 317.017 89.2049 316.919 89.107C316.82 89.009 316.687 88.9538 316.549 88.9538ZM312.366 88.9538H311.32V86.861H312.366V88.9538ZM314.98 88.9538H313.411V86.3373C313.411 86.1985 313.357 86.0654 313.258 85.9674C313.16 85.8695 313.027 85.8142 312.889 85.8142H310.797C310.659 85.8142 310.526 85.8695 310.427 85.9674C310.329 86.0654 310.274 86.1985 310.274 86.3373V88.9538H308.706V80.5819H314.98V88.9538Z" fill="#FFCA7D"/>
  <path d="M350.745 82.8828H323.137C322.098 82.8828 321.255 83.7262 321.255 84.7665C321.255 85.8069 322.098 86.6503 323.137 86.6503H350.745C351.785 86.6503 352.627 85.8069 352.627 84.7665C352.627 83.7262 351.785 82.8828 350.745 82.8828Z" fill="#D5D5D5"/>
  <path d="M58.196 116.007C58.0781 116.007 57.9651 116.054 57.8817 116.137C57.7983 116.221 57.7515 116.334 57.7515 116.452C57.7515 116.57 57.7047 116.683 57.6213 116.766C57.538 116.849 57.425 116.896 57.3071 116.896H52.8626C52.7447 116.896 52.6317 116.849 52.5483 116.766C52.465 116.683 52.4182 116.57 52.4182 116.452V110.225C52.4182 110.107 52.465 109.994 52.5483 109.91C52.6317 109.827 52.7447 109.78 52.8626 109.78H55.0849V111.115C55.0849 111.468 55.2253 111.808 55.4754 112.058C55.7254 112.308 56.0646 112.449 56.4182 112.449H57.7515V112.894C57.7515 113.012 57.7983 113.125 57.8817 113.208C57.9651 113.292 58.0781 113.338 58.196 113.338C58.3139 113.338 58.4269 113.292 58.5103 113.208C58.5936 113.125 58.6404 113.012 58.6404 112.894V112.004C58.6404 112.004 58.6404 112.004 58.6404 111.977C58.6358 111.937 58.6268 111.896 58.6137 111.857C58.6156 111.844 58.6156 111.83 58.6137 111.817C58.5924 111.771 58.5638 111.729 58.5293 111.693L55.8626 109.024C55.8259 108.989 55.7839 108.961 55.7382 108.94H55.6938C55.6518 108.917 55.6069 108.901 55.5604 108.891H52.8626C52.509 108.891 52.1699 109.031 51.9198 109.281C51.6698 109.532 51.5293 109.871 51.5293 110.225V116.452C51.5293 116.805 51.6698 117.145 51.9198 117.395C52.1699 117.646 52.509 117.786 52.8626 117.786H57.3071C57.6607 117.786 57.9998 117.646 58.2499 117.395C58.5 117.145 58.6404 116.805 58.6404 116.452C58.6404 116.334 58.5936 116.221 58.5103 116.137C58.4269 116.054 58.3139 116.007 58.196 116.007ZM55.9737 110.407L57.1248 111.559H56.4182C56.3003 111.559 56.1872 111.512 56.1039 111.429C56.0206 111.346 55.9737 111.233 55.9737 111.115V110.407ZM59.0849 114.228H57.9737C57.9152 114.227 57.8573 114.239 57.8031 114.261C57.749 114.283 57.6997 114.316 57.6582 114.357L57.1071 114.913L55.8626 113.489C55.8226 113.444 55.7736 113.407 55.7186 113.38C55.6636 113.354 55.6038 113.339 55.543 113.337C55.4822 113.336 55.4216 113.346 55.3649 113.368C55.3082 113.39 55.2568 113.424 55.2138 113.467L54.4582 114.228H53.7515C53.6336 114.228 53.5206 114.275 53.4373 114.358C53.3539 114.441 53.3071 114.554 53.3071 114.672C53.3071 114.79 53.3539 114.903 53.4373 114.987C53.5206 115.07 53.6336 115.118 53.7515 115.118H54.6404C54.6989 115.118 54.7569 115.106 54.8111 115.084C54.8652 115.062 54.9145 115.03 54.9559 114.988L55.5293 114.433L56.7737 115.856C56.8139 115.901 56.863 115.938 56.918 115.965C56.9731 115.99 57.0329 116.005 57.0937 116.007C57.1523 116.007 57.2102 115.996 57.2644 115.974C57.3185 115.952 57.3678 115.919 57.4093 115.878L58.1559 115.118H59.0849C59.2027 115.118 59.3158 115.07 59.3991 114.987C59.4825 114.903 59.5293 114.79 59.5293 114.672C59.5293 114.554 59.4825 114.441 59.3991 114.358C59.3158 114.275 59.2027 114.228 59.0849 114.228Z" fill="#686868"/>
  <path d="M65.8044 116.853C65.6582 116.853 65.544 116.812 65.4619 116.73C65.3859 116.647 65.3477 116.533 65.3477 116.387V111.06C65.3477 110.907 65.3884 110.793 65.4706 110.717C65.5528 110.635 65.667 110.594 65.8132 110.594H67.9127C68.5803 110.594 69.0954 110.752 69.4587 111.068C69.822 111.385 70.0033 111.833 70.0033 112.413C70.0033 112.788 69.9211 113.111 69.7574 113.38C69.5936 113.65 69.3533 113.855 69.0371 113.996C68.7265 114.136 68.3519 114.207 67.9127 114.207L67.9917 114.084H68.2201C68.4542 114.084 68.6562 114.142 68.8262 114.259C69.0019 114.377 69.16 114.564 69.3006 114.822L70.056 116.229C70.1144 116.334 70.1408 116.436 70.1351 116.536C70.1351 116.63 70.1 116.706 70.0297 116.765C69.9651 116.823 69.8716 116.853 69.7486 116.853C69.62 116.853 69.5146 116.826 69.4324 116.774C69.3564 116.715 69.2862 116.63 69.2215 116.519L68.2992 114.813C68.1762 114.585 68.0357 114.432 67.8775 114.356C67.7194 114.274 67.5117 114.233 67.2538 114.233H66.2612V116.387C66.2612 116.533 66.2229 116.647 66.147 116.73C66.0711 116.812 65.9569 116.853 65.8044 116.853ZM66.2612 113.547H67.7633C68.2082 113.547 68.5451 113.454 68.7735 113.266C69.0019 113.078 69.1161 112.8 69.1161 112.431C69.1161 112.067 69.0019 111.792 68.7735 111.605C68.5451 111.417 68.2082 111.323 67.7633 111.323H66.2612V113.547ZM73.1048 116.87C72.6361 116.87 72.232 116.782 71.8926 116.607C71.5588 116.425 71.2978 116.17 71.1108 115.842C70.9288 115.508 70.8385 115.112 70.8385 114.655C70.8385 114.21 70.9288 113.82 71.1108 113.486C71.2921 113.152 71.5412 112.891 71.8575 112.704C72.1737 112.516 72.5339 112.422 72.9379 112.422C73.2366 112.422 73.5026 112.472 73.7373 112.572C73.9713 112.665 74.1702 112.806 74.3346 112.994C74.504 113.175 74.6302 113.398 74.7124 113.662C74.8002 113.925 74.8441 114.221 74.8441 114.55C74.8441 114.649 74.8146 114.725 74.7563 114.778C74.6973 114.825 74.6095 114.848 74.4928 114.848H71.5412V114.303H74.2468L74.0975 114.426C74.0975 114.133 74.0535 113.885 73.9657 113.679C73.8835 113.474 73.7574 113.319 73.588 113.213C73.4236 113.102 73.219 113.046 72.9731 113.046C72.6976 113.046 72.4636 113.111 72.2703 113.24C72.0827 113.368 71.939 113.547 71.8399 113.776C71.7401 114.005 71.6906 114.271 71.6906 114.576V114.629C71.6906 115.144 71.8104 115.534 72.0507 115.798C72.2967 116.056 72.6506 116.185 73.1136 116.185C73.2893 116.185 73.4738 116.161 73.667 116.114C73.8659 116.067 74.0535 115.988 74.2292 115.877C74.3284 115.819 74.4162 115.792 74.4928 115.798C74.5743 115.803 74.6389 115.83 74.686 115.877C74.7387 115.924 74.7707 115.982 74.7826 116.053C74.7939 116.123 74.7826 116.197 74.7475 116.273C74.7124 116.343 74.6509 116.408 74.563 116.466C74.3635 116.601 74.1326 116.703 73.8691 116.774C73.6055 116.838 73.3508 116.87 73.1048 116.87ZM76.2502 118.435C76.1097 118.435 76.0011 118.397 75.9252 118.321C75.8493 118.245 75.811 118.133 75.811 117.987V112.888C75.811 112.742 75.8493 112.63 75.9252 112.554C76.0011 112.478 76.1066 112.44 76.2415 112.44C76.382 112.44 76.4906 112.478 76.5665 112.554C76.6424 112.63 76.6807 112.742 76.6807 112.888V113.653L76.584 113.468C76.6775 113.152 76.862 112.9 77.1375 112.712C77.4129 112.519 77.7379 112.422 78.1125 112.422C78.4934 112.422 78.824 112.513 79.1051 112.695C79.3919 112.876 79.6115 113.131 79.764 113.46C79.9221 113.788 80.0011 114.183 80.0011 114.646C80.0011 115.098 79.9221 115.493 79.764 115.833C79.6115 116.167 79.395 116.425 79.1139 116.607C78.8328 116.782 78.499 116.87 78.1125 116.87C77.7436 116.87 77.4217 116.777 77.1462 116.589C76.8708 116.401 76.6863 116.153 76.5928 115.842H76.6982V117.987C76.6982 118.133 76.6575 118.245 76.5753 118.321C76.4993 118.397 76.3908 118.435 76.2502 118.435ZM77.8929 116.185C78.1389 116.185 78.3528 116.126 78.5342 116.009C78.7155 115.891 78.856 115.719 78.9558 115.49C79.0556 115.262 79.1051 114.98 79.1051 114.646C79.1051 114.142 78.9941 113.762 78.7713 113.503C78.5549 113.245 78.2619 113.117 77.8929 113.117C77.6526 113.117 77.4393 113.175 77.2517 113.292C77.0703 113.404 76.9298 113.574 76.83 113.802C76.7302 114.031 76.6807 114.312 76.6807 114.646C76.6807 115.144 76.7917 115.525 77.0145 115.789C77.2372 116.053 77.5296 116.185 77.8929 116.185ZM82.8636 116.87C82.43 116.87 82.0554 116.779 81.7392 116.598C81.4286 116.416 81.1858 116.158 81.0101 115.824C80.8344 115.49 80.7466 115.098 80.7466 114.646C80.7466 114.3 80.7961 113.993 80.8959 113.723C80.995 113.454 81.1356 113.222 81.3175 113.029C81.5045 112.83 81.7273 112.68 81.9851 112.58C82.2487 112.475 82.5411 112.422 82.8636 112.422C83.2909 112.422 83.6598 112.513 83.9704 112.695C84.2866 112.876 84.5326 113.134 84.7083 113.468C84.884 113.797 84.9718 114.189 84.9718 114.646C84.9718 114.986 84.9216 115.294 84.8225 115.569C84.7227 115.845 84.579 116.079 84.392 116.273C84.2101 116.466 83.988 116.615 83.7244 116.721C83.4666 116.821 83.1798 116.87 82.8636 116.87ZM82.8636 116.185C83.1033 116.185 83.3141 116.126 83.4961 116.009C83.6774 115.891 83.8179 115.719 83.9177 115.49C84.0231 115.262 84.0758 114.98 84.0758 114.646C84.0758 114.142 83.9641 113.762 83.742 113.503C83.5193 113.245 83.2262 113.117 82.8636 113.117C82.6176 113.117 82.4037 113.175 82.2223 113.292C82.0404 113.404 81.8973 113.574 81.7919 113.802C81.6921 114.031 81.6426 114.312 81.6426 114.646C81.6426 115.144 81.7536 115.525 81.9764 115.789C82.1985 116.053 82.4946 116.185 82.8636 116.185ZM86.4162 116.853C86.2694 116.853 86.1583 116.814 86.0824 116.738C86.0059 116.656 85.9682 116.545 85.9682 116.404V112.888C85.9682 112.742 86.0059 112.63 86.0824 112.554C86.1583 112.478 86.2637 112.44 86.3986 112.44C86.5392 112.44 86.6446 112.478 86.7149 112.554C86.7908 112.63 86.8291 112.742 86.8291 112.888V113.53H86.7412C86.8347 113.178 87.0073 112.911 87.2595 112.73C87.5111 112.548 87.833 112.443 88.2258 112.413C88.3312 112.408 88.4128 112.434 88.4717 112.493C88.5357 112.551 88.5709 112.642 88.5771 112.765C88.5884 112.888 88.5621 112.988 88.4981 113.064C88.4335 113.134 88.3337 113.175 88.1994 113.187L88.0325 113.205C87.6517 113.24 87.3618 113.36 87.1629 113.565C86.9633 113.77 86.8642 114.052 86.8642 114.409V116.404C86.8642 116.545 86.8259 116.656 86.75 116.738C86.6797 116.814 86.568 116.853 86.4162 116.853ZM91.3122 116.87C90.9608 116.87 90.6653 116.809 90.425 116.686C90.1847 116.563 90.0065 116.381 89.8891 116.141C89.7718 115.9 89.7135 115.608 89.7135 115.262V113.187H89.1864C89.0691 113.187 88.9787 113.157 88.9141 113.099C88.8495 113.034 88.8175 112.95 88.8175 112.844C88.8175 112.733 88.8495 112.648 88.9141 112.589C88.9787 112.531 89.0691 112.501 89.1864 112.501H89.7135V111.596C89.7135 111.45 89.7517 111.338 89.8277 111.262C89.9098 111.186 90.0209 111.148 90.1615 111.148C90.302 111.148 90.4106 111.186 90.4865 111.262C90.5624 111.338 90.6007 111.45 90.6007 111.596V112.501H91.6284C91.7458 112.501 91.8361 112.531 91.9008 112.589C91.9654 112.648 91.9974 112.733 91.9974 112.844C91.9974 112.95 91.9654 113.034 91.9008 113.099C91.8361 113.157 91.7458 113.187 91.6284 113.187H90.6007V115.191C90.6007 115.502 90.6653 115.736 90.7939 115.895C90.9288 116.053 91.1453 116.132 91.444 116.132C91.5494 116.132 91.6404 116.123 91.7163 116.106C91.7985 116.082 91.8656 116.067 91.9183 116.062C91.9829 116.062 92.0357 116.085 92.0764 116.132C92.1172 116.173 92.1379 116.255 92.1379 116.378C92.1379 116.466 92.1204 116.548 92.0852 116.624C92.0557 116.7 92.0005 116.75 91.9183 116.774C91.848 116.797 91.7514 116.818 91.6284 116.835C91.5111 116.858 91.4057 116.87 91.3122 116.87Z" fill="#686868"/>
  <path d="M267.921 131.859H52.0782C51.0386 131.859 50.1958 132.703 50.1958 133.743C50.1958 134.783 51.0386 135.627 52.0782 135.627H267.921C268.961 135.627 269.804 134.783 269.804 133.743C269.804 132.703 268.961 131.859 267.921 131.859Z" fill="#D5D5D5"/>
  <path d="M324.392 141.906H52.0782C51.0386 141.906 50.1958 142.75 50.1958 143.79C50.1958 144.83 51.0386 145.674 52.0782 145.674H324.392C325.431 145.674 326.274 144.83 326.274 143.79C326.274 142.75 325.431 141.906 324.392 141.906Z" fill="#D5D5D5"/>
  <path d="M148.706 151.953H52.0782C51.0386 151.953 50.1958 152.796 50.1958 153.837C50.1958 154.877 51.0386 155.721 52.0782 155.721H148.706C149.745 155.721 150.588 154.877 150.588 153.837C150.588 152.796 149.745 151.953 148.706 151.953Z" fill="#D5D5D5"/>
  <path d="M112.313 168.281H53.3331C51.6004 168.281 50.1958 169.687 50.1958 171.421V187.746C50.1958 189.48 51.6004 190.886 53.3331 190.886H112.313C114.046 190.886 115.451 189.48 115.451 187.746V171.421C115.451 169.687 114.046 168.281 112.313 168.281Z" fill="#F6F6F6"/>
  <path d="M65.6394 179.412C64.7949 177.449 63.2049 176.23 61.4901 176.23C59.7751 176.23 58.1855 177.449 57.3406 179.412C57.3175 179.465 57.3057 179.522 57.3057 179.579C57.3057 179.637 57.3175 179.694 57.3406 179.747C58.1855 181.71 59.7751 182.928 61.4901 182.928C63.2049 182.928 64.7949 181.71 65.6394 179.747C65.6626 179.694 65.6745 179.637 65.6745 179.579C65.6745 179.522 65.6626 179.465 65.6394 179.412ZM61.4901 182.091C60.1599 182.091 58.9092 181.133 58.1855 179.579C58.9092 178.026 60.1599 177.067 61.4901 177.067C62.8203 177.067 64.0708 178.026 64.7949 179.579C64.0708 181.133 62.8203 182.091 61.4901 182.091ZM61.4901 177.905C61.1592 177.905 60.8357 178.003 60.5605 178.187C60.2854 178.371 60.0709 178.633 59.9443 178.939C59.8176 179.244 59.7845 179.581 59.849 179.906C59.9136 180.231 60.073 180.529 60.307 180.763C60.541 180.998 60.8391 181.157 61.1637 181.222C61.4883 181.286 61.8247 181.253 62.1304 181.126C62.4361 180.999 62.6975 180.785 62.8811 180.51C63.065 180.234 63.1635 179.911 63.1635 179.579C63.1635 179.135 62.9872 178.709 62.6733 178.396C62.3595 178.082 61.9339 177.905 61.4901 177.905ZM61.4901 180.417C61.3246 180.417 61.1629 180.367 61.0253 180.275C60.8877 180.183 60.7805 180.053 60.7172 179.9C60.6539 179.747 60.6373 179.578 60.6696 179.416C60.7019 179.254 60.7816 179.104 60.8985 178.988C61.0155 178.87 61.1646 178.79 61.3269 178.758C61.4892 178.726 61.6574 178.743 61.8103 178.806C61.9631 178.869 62.0938 178.976 62.1857 179.114C62.2777 179.252 62.3267 179.414 62.3267 179.579C62.3267 179.801 62.2386 180.014 62.0817 180.171C61.9248 180.328 61.712 180.417 61.4901 180.417Z" fill="#686868"/>
  <path d="M72.6611 182.163C72.4302 182.163 72.2044 182.145 71.9835 182.11C71.7626 182.075 71.5543 182.022 71.3586 181.952C71.1628 181.876 70.9871 181.786 70.8315 181.68C70.7562 181.625 70.7035 181.562 70.6734 181.492C70.6483 181.422 70.6407 181.354 70.6508 181.289C70.6658 181.218 70.696 181.158 70.7411 181.108C70.7863 181.057 70.8415 181.027 70.9068 181.017C70.972 181.002 71.0448 181.022 71.1251 181.078C71.351 181.223 71.5895 181.331 71.8404 181.402C72.0914 181.467 72.365 181.499 72.6611 181.499C73.0878 181.499 73.4015 181.424 73.6023 181.273C73.8081 181.118 73.911 180.917 73.911 180.671C73.911 180.47 73.8382 180.311 73.6927 180.196C73.5471 180.075 73.3036 179.98 72.9623 179.91L72.1567 179.744C71.6798 179.643 71.3234 179.478 71.0875 179.247C70.8566 179.015 70.7411 178.704 70.7411 178.312C70.7411 178.076 70.7888 177.86 70.8842 177.664C70.9846 177.468 71.1226 177.3 71.2983 177.159C71.474 177.014 71.6848 176.903 71.9308 176.828C72.1767 176.753 72.4453 176.715 72.7364 176.715C73.0477 176.715 73.3388 176.755 73.6098 176.835C73.8859 176.916 74.1319 177.039 74.3477 177.205C74.413 177.25 74.4556 177.308 74.4757 177.378C74.5008 177.443 74.5058 177.509 74.4908 177.574C74.4807 177.639 74.4531 177.694 74.408 177.74C74.3628 177.785 74.3051 177.812 74.2348 177.822C74.1645 177.827 74.0867 177.802 74.0014 177.747C73.8056 177.617 73.6048 177.524 73.399 177.468C73.1982 177.408 72.9749 177.378 72.7289 177.378C72.4829 177.378 72.2671 177.416 72.0814 177.491C71.9007 177.566 71.7601 177.672 71.6597 177.807C71.5644 177.943 71.5167 178.104 71.5167 178.29C71.5167 178.501 71.5844 178.669 71.72 178.794C71.8555 178.92 72.0814 179.015 72.3976 179.081L73.1957 179.247C73.6977 179.352 74.0717 179.515 74.3176 179.736C74.5636 179.957 74.6866 180.251 74.6866 180.618C74.6866 180.854 74.6389 181.067 74.5435 181.258C74.4481 181.444 74.3126 181.605 74.1369 181.741C73.9612 181.876 73.7479 181.982 73.4969 182.057C73.2509 182.127 72.9724 182.163 72.6611 182.163ZM77.2171 182.163C76.8155 182.163 76.4691 182.087 76.178 181.937C75.8919 181.781 75.6685 181.562 75.5079 181.281C75.3523 180.995 75.2745 180.656 75.2745 180.264C75.2745 179.882 75.3523 179.548 75.5079 179.262C75.6635 178.975 75.8768 178.752 76.1479 178.591C76.4189 178.43 76.7276 178.35 77.074 178.35C77.33 178.35 77.5584 178.393 77.7592 178.478C77.96 178.558 78.1306 178.679 78.2712 178.84C78.4168 178.995 78.5247 179.186 78.5949 179.412C78.6702 179.638 78.7079 179.892 78.7079 180.173C78.7079 180.259 78.6828 180.324 78.6326 180.369C78.5824 180.409 78.5071 180.43 78.4067 180.43H75.8768V179.962H78.1959L78.0679 180.068C78.0679 179.817 78.0302 179.603 77.9549 179.427C77.8847 179.252 77.7767 179.118 77.6312 179.028C77.4906 178.933 77.3149 178.885 77.1041 178.885C76.8682 178.885 76.6674 178.94 76.5018 179.051C76.3411 179.161 76.2182 179.314 76.1328 179.51C76.0475 179.706 76.0048 179.935 76.0048 180.196V180.241C76.0048 180.683 76.1077 181.017 76.3135 181.243C76.5244 181.464 76.828 181.575 77.2246 181.575C77.3752 181.575 77.5333 181.555 77.6989 181.515C77.8696 181.474 78.0302 181.407 78.1808 181.311C78.2662 181.261 78.3415 181.238 78.4067 181.243C78.477 181.248 78.5322 181.271 78.5724 181.311C78.6175 181.351 78.6451 181.402 78.6552 181.462C78.6652 181.522 78.6552 181.585 78.6251 181.65C78.5949 181.71 78.5422 181.766 78.4669 181.816C78.2963 181.931 78.098 182.019 77.8721 182.08C77.6462 182.135 77.4279 182.163 77.2171 182.163ZM81.261 182.163C80.8594 182.163 80.5131 182.087 80.2219 181.937C79.9358 181.781 79.7124 181.562 79.5518 181.281C79.3962 180.995 79.3184 180.656 79.3184 180.264C79.3184 179.882 79.3962 179.548 79.5518 179.262C79.7074 178.975 79.9207 178.752 80.1918 178.591C80.4629 178.43 80.7716 178.35 81.1179 178.35C81.3739 178.35 81.6023 178.393 81.8031 178.478C82.0039 178.558 82.1746 178.679 82.3151 178.84C82.4607 178.995 82.5686 179.186 82.6389 179.412C82.7142 179.638 82.7518 179.892 82.7518 180.173C82.7518 180.259 82.7267 180.324 82.6765 180.369C82.6263 180.409 82.551 180.43 82.4506 180.43H79.9207V179.962H82.2398L82.1118 180.068C82.1118 179.817 82.0742 179.603 81.9989 179.427C81.9286 179.252 81.8207 179.118 81.6751 179.028C81.5346 178.933 81.3589 178.885 81.148 178.885C80.9121 178.885 80.7113 178.94 80.5457 179.051C80.3851 179.161 80.2621 179.314 80.1767 179.51C80.0914 179.706 80.0488 179.935 80.0488 180.196V180.241C80.0488 180.683 80.1517 181.017 80.3575 181.243C80.5683 181.464 80.872 181.575 81.2685 181.575C81.4191 181.575 81.5772 181.555 81.7429 181.515C81.9135 181.474 82.0742 181.407 82.2248 181.311C82.3101 181.261 82.3854 181.238 82.4506 181.243C82.5209 181.248 82.5761 181.271 82.6163 181.311C82.6615 181.351 82.6891 181.402 82.6991 181.462C82.7091 181.522 82.6991 181.585 82.669 181.65C82.6389 181.71 82.5862 181.766 82.5109 181.816C82.3402 181.931 82.1419 182.019 81.916 182.08C81.6902 182.135 81.4718 182.163 81.261 182.163ZM86.0409 182.148C85.9154 182.148 85.8175 182.112 85.7473 182.042C85.682 181.972 85.6494 181.874 85.6494 181.748V177.182C85.6494 177.051 85.6845 176.953 85.7548 176.888C85.8251 176.818 85.9229 176.783 86.0484 176.783H87.848C88.4202 176.783 88.8619 176.918 89.1731 177.19C89.4844 177.461 89.64 177.845 89.64 178.342C89.64 178.664 89.5697 178.94 89.4291 179.171C89.2886 179.402 89.0828 179.578 88.8117 179.699C88.5457 179.819 88.2244 179.879 87.848 179.879L87.9157 179.774H88.1115C88.3123 179.774 88.4855 179.824 88.631 179.925C88.7816 180.025 88.9171 180.186 89.0376 180.407L89.6851 181.613C89.7353 181.703 89.7579 181.791 89.7529 181.876C89.7529 181.957 89.7228 182.022 89.6625 182.072C89.6073 182.122 89.527 182.148 89.4216 182.148C89.3112 182.148 89.2208 182.125 89.1506 182.08C89.0853 182.029 89.0251 181.957 88.9699 181.861L88.1793 180.399C88.0738 180.203 87.9534 180.073 87.8179 180.008C87.6823 179.937 87.5041 179.902 87.2833 179.902H86.4324V181.748C86.4324 181.874 86.3998 181.972 86.3345 182.042C86.2693 182.112 86.1714 182.148 86.0409 182.148ZM86.4324 179.314H87.72C88.1015 179.314 88.3901 179.234 88.5859 179.073C88.7816 178.913 88.8795 178.674 88.8795 178.357C88.8795 178.046 88.7816 177.81 88.5859 177.649C88.3901 177.488 88.1015 177.408 87.72 177.408H86.4324V179.314ZM92.2978 182.163C91.8963 182.163 91.5499 182.087 91.2588 181.937C90.9727 181.781 90.7493 181.562 90.5887 181.281C90.4331 180.995 90.3553 180.656 90.3553 180.264C90.3553 179.882 90.4331 179.548 90.5887 179.262C90.7443 178.975 90.9576 178.752 91.2287 178.591C91.4997 178.43 91.8084 178.35 92.1548 178.35C92.4108 178.35 92.6392 178.393 92.84 178.478C93.0408 178.558 93.2114 178.679 93.352 178.84C93.4975 178.995 93.6055 179.186 93.6757 179.412C93.751 179.638 93.7887 179.892 93.7887 180.173C93.7887 180.259 93.7636 180.324 93.7134 180.369C93.6632 180.409 93.5879 180.43 93.4875 180.43H90.9576V179.962H93.2767L93.1487 180.068C93.1487 179.817 93.111 179.603 93.0357 179.427C92.9655 179.252 92.8575 179.118 92.712 179.028C92.5714 178.933 92.3957 178.885 92.1849 178.885C91.949 178.885 91.7482 178.94 91.5826 179.051C91.4219 179.161 91.2989 179.314 91.2136 179.51C91.1283 179.706 91.0856 179.935 91.0856 180.196V180.241C91.0856 180.683 91.1885 181.017 91.3943 181.243C91.6051 181.464 91.9088 181.575 92.3054 181.575C92.456 181.575 92.6141 181.555 92.7797 181.515C92.9504 181.474 93.111 181.407 93.2616 181.311C93.3469 181.261 93.4222 181.238 93.4875 181.243C93.5578 181.248 93.613 181.271 93.6531 181.311C93.6983 181.351 93.7259 181.402 93.736 181.462C93.746 181.522 93.736 181.585 93.7058 181.65C93.6757 181.71 93.623 181.766 93.5477 181.816C93.3771 181.931 93.1788 182.019 92.9529 182.08C92.727 182.135 92.5087 182.163 92.2978 182.163ZM96.2364 182.163C95.8599 182.163 95.5336 182.085 95.2575 181.929C94.9865 181.768 94.7757 181.545 94.6251 181.258C94.4745 180.967 94.3992 180.625 94.3992 180.234C94.3992 179.942 94.4418 179.681 94.5272 179.45C94.6125 179.214 94.733 179.015 94.8886 178.855C95.0492 178.694 95.2425 178.571 95.4684 178.486C95.6993 178.395 95.9553 178.35 96.2364 178.35C96.412 178.35 96.5953 178.378 96.786 178.433C96.9818 178.483 97.1625 178.568 97.3281 178.689C97.3934 178.729 97.4335 178.779 97.4486 178.84C97.4687 178.895 97.4712 178.953 97.4561 179.013C97.4461 179.073 97.4185 179.126 97.3733 179.171C97.3331 179.211 97.2829 179.237 97.2227 179.247C97.1625 179.252 97.0972 179.234 97.0269 179.194C96.9065 179.108 96.7835 179.048 96.658 179.013C96.5325 178.973 96.412 178.953 96.2966 178.953C96.1159 178.953 95.9553 178.983 95.8147 179.043C95.6792 179.098 95.5637 179.181 95.4684 179.292C95.373 179.397 95.3002 179.53 95.25 179.691C95.2048 179.852 95.1822 180.035 95.1822 180.241C95.1822 180.653 95.2776 180.977 95.4684 181.213C95.6641 181.444 95.9402 181.56 96.2966 181.56C96.412 181.56 96.5325 181.542 96.658 181.507C96.7835 181.472 96.9065 181.412 97.0269 181.326C97.0972 181.286 97.1625 181.271 97.2227 181.281C97.2829 181.291 97.3306 181.319 97.3658 181.364C97.4059 181.404 97.431 181.454 97.4411 181.515C97.4561 181.57 97.4536 181.628 97.4335 181.688C97.4135 181.748 97.3708 181.798 97.3055 181.839C97.1449 181.954 96.9692 182.037 96.7785 182.087C96.5927 182.137 96.412 182.163 96.2364 182.163ZM99.6553 182.163C99.2839 182.163 98.9626 182.085 98.6916 181.929C98.4255 181.773 98.2172 181.552 98.0666 181.266C97.916 180.98 97.8408 180.643 97.8408 180.256C97.8408 179.96 97.8834 179.696 97.9687 179.465C98.0541 179.234 98.1746 179.036 98.3302 178.87C98.4908 178.699 98.6815 178.571 98.9024 178.486C99.1283 178.395 99.3793 178.35 99.6553 178.35C100.022 178.35 100.338 178.428 100.604 178.583C100.875 178.739 101.086 178.96 101.237 179.247C101.387 179.528 101.462 179.864 101.462 180.256C101.462 180.548 101.42 180.811 101.334 181.047C101.249 181.283 101.126 181.484 100.965 181.65C100.81 181.816 100.619 181.944 100.393 182.034C100.172 182.12 99.9264 182.163 99.6553 182.163ZM99.6553 181.575C99.8611 181.575 100.042 181.525 100.197 181.424C100.353 181.324 100.474 181.175 100.559 180.98C100.649 180.784 100.694 180.543 100.694 180.256C100.694 179.824 100.599 179.498 100.408 179.277C100.218 179.056 99.9666 178.945 99.6553 178.945C99.4445 178.945 99.2613 178.995 99.1057 179.096C98.9501 179.191 98.8271 179.337 98.7367 179.533C98.6514 179.729 98.6088 179.97 98.6088 180.256C98.6088 180.683 98.7041 181.01 98.8949 181.236C99.0856 181.462 99.3391 181.575 99.6553 181.575ZM102.7 182.148C102.575 182.148 102.479 182.115 102.414 182.05C102.349 181.979 102.316 181.884 102.316 181.763V178.749C102.316 178.624 102.349 178.528 102.414 178.463C102.479 178.398 102.57 178.365 102.685 178.365C102.806 178.365 102.896 178.398 102.956 178.463C103.022 178.528 103.054 178.624 103.054 178.749V179.299H102.979C103.059 178.998 103.207 178.769 103.423 178.614C103.639 178.458 103.915 178.367 104.251 178.342C104.342 178.337 104.412 178.36 104.462 178.41C104.517 178.46 104.548 178.538 104.553 178.644C104.563 178.749 104.54 178.835 104.485 178.9C104.43 178.96 104.344 178.995 104.229 179.005L104.086 179.021C103.759 179.051 103.511 179.154 103.34 179.329C103.17 179.505 103.084 179.746 103.084 180.053V181.763C103.084 181.884 103.052 181.979 102.986 182.05C102.926 182.115 102.831 182.148 102.7 182.148ZM106.474 182.163C106.153 182.163 105.869 182.087 105.623 181.937C105.382 181.781 105.194 181.56 105.058 181.273C104.923 180.982 104.855 180.643 104.855 180.256C104.855 179.859 104.923 179.52 105.058 179.239C105.194 178.958 105.382 178.739 105.623 178.583C105.869 178.428 106.153 178.35 106.474 178.35C106.795 178.35 107.071 178.43 107.302 178.591C107.538 178.747 107.696 178.958 107.776 179.224H107.694V177.114C107.694 176.989 107.726 176.893 107.791 176.828C107.857 176.763 107.95 176.73 108.07 176.73C108.191 176.73 108.283 176.763 108.349 176.828C108.419 176.893 108.454 176.989 108.454 177.114V181.763C108.454 181.884 108.421 181.979 108.356 182.05C108.291 182.115 108.198 182.148 108.078 182.148C107.957 182.148 107.864 182.115 107.799 182.05C107.734 181.979 107.701 181.884 107.701 181.763V181.1L107.784 181.266C107.704 181.537 107.546 181.756 107.31 181.921C107.079 182.082 106.8 182.163 106.474 182.163ZM106.67 181.575C106.875 181.575 107.056 181.525 107.212 181.424C107.367 181.324 107.488 181.175 107.573 180.98C107.663 180.784 107.709 180.543 107.709 180.256C107.709 179.824 107.613 179.498 107.423 179.277C107.232 179.056 106.981 178.945 106.67 178.945C106.459 178.945 106.276 178.995 106.12 179.096C105.964 179.191 105.841 179.337 105.751 179.533C105.666 179.729 105.623 179.97 105.623 180.256C105.623 180.683 105.718 181.01 105.909 181.236C106.1 181.462 106.353 181.575 106.67 181.575Z" fill="#686868"/>
  </g>
  </g>
  <defs>
  <filter id="filter0_d_13129_59604" x="22.647" y="-2.44141" width="123.49" height="60.7656" filterUnits="userSpaceOnUse" color-interpolation-filters="sRGB">
  <feFlood flood-opacity="0" result="BackgroundImageFix"/>
  <feColorMatrix in="SourceAlpha" type="matrix" values="0 0 0 0 0 0 0 0 0 0 0 0 0 0 0 0 0 0 127 0" result="hardAlpha"/>
  <feOffset/>
  <feGaussianBlur stdDeviation="7.5"/>
  <feComposite in2="hardAlpha" operator="out"/>
  <feColorMatrix type="matrix" values="0 0 0 0 0.976471 0 0 0 0 0.482353 0 0 0 0 0.360784 0 0 0 0.2 0"/>
  <feBlend mode="normal" in2="BackgroundImageFix" result="effect1_dropShadow_13129_59604"/>
  <feBlend mode="normal" in="SourceGraphic" in2="effect1_dropShadow_13129_59604" result="shape"/>
  </filter>
  <filter id="filter1_d_13129_59604" x="10.647" y="39.5352" width="393.804" height="201.906" filterUnits="userSpaceOnUse" color-interpolation-filters="sRGB">
  <feFlood flood-opacity="0" result="BackgroundImageFix"/>
  <feColorMatrix in="SourceAlpha" type="matrix" values="0 0 0 0 0 0 0 0 0 0 0 0 0 0 0 0 0 0 127 0" result="hardAlpha"/>
  <feOffset dx="3" dy="8"/>
  <feGaussianBlur stdDeviation="15"/>
  <feComposite in2="hardAlpha" operator="out"/>
  <feColorMatrix type="matrix" values="0 0 0 0 0 0 0 0 0 0 0 0 0 0 0 0 0 0 0.04 0"/>
  <feBlend mode="normal" in2="BackgroundImageFix" result="effect1_dropShadow_13129_59604"/>
  <feBlend mode="normal" in="SourceGraphic" in2="effect1_dropShadow_13129_59604" result="shape"/>
  </filter>
  </defs>
</svg>