<svg width="427" height="234" viewBox="0 0 427 234" fill="none" xmlns="http://www.w3.org/2000/svg">
<mask id="mask0_13129_59800" style="mask-type:luminance" maskUnits="userSpaceOnUse" x="0" y="0" width="427" height="234">
<path d="M411.323 0H15.6766C7.01864 0 0 7.0066 0 15.6497V218.35C0 226.993 7.01864 234 15.6766 234H411.323C419.981 234 427 226.993 427 218.35V15.6497C427 7.0066 419.981 0 411.323 0Z" fill="white"/>
</mask>
<g mask="url(#mask0_13129_59800)">
<path d="M411.323 0H15.6766C7.01864 0 0 7.0066 0 15.6497V218.35C0 226.993 7.01864 234 15.6766 234H411.323C419.981 234 427 226.993 427 218.35V15.6497C427 7.0066 419.981 0 411.323 0Z" fill="white"/>
<path d="M124.293 15.2773H258.962C260.428 15.2773 261.131 15.2779 261.718 15.3426C266.756 15.8978 270.732 19.8683 271.288 24.8974C271.353 25.4832 271.354 26.1846 271.354 27.648V38.6773C271.354 40.1407 271.353 40.8421 271.288 41.428C270.732 46.4571 266.756 50.4276 261.718 50.9828C261.131 51.0475 260.428 51.048 258.962 51.048H124.293V15.2773Z" fill="#FFEEEA"/>
<path d="M151.03 37.263C150.815 37.263 150.648 37.2073 150.529 37.0961C150.417 36.9769 150.361 36.8099 150.361 36.5953V29.5246C150.361 29.31 150.417 29.147 150.529 29.0358C150.648 28.9165 150.815 28.8569 151.03 28.8569H153.335C154.721 28.8569 155.788 29.2186 156.536 29.9419C157.293 30.6574 157.671 31.6947 157.671 33.054C157.671 33.7297 157.576 34.3298 157.384 34.8545C157.193 35.3791 156.911 35.8203 156.536 36.178C156.171 36.5277 155.72 36.798 155.187 36.9888C154.654 37.1716 154.036 37.263 153.335 37.263H151.03ZM151.604 36.2257H153.264C153.789 36.2257 154.243 36.1621 154.625 36.0349C155.016 35.8998 155.342 35.701 155.605 35.4387C155.868 35.1764 156.063 34.8465 156.19 34.4491C156.318 34.0516 156.381 33.5866 156.381 33.054C156.381 31.9967 156.118 31.2058 155.593 30.6812C155.075 30.1566 154.299 29.8943 153.264 29.8943H151.604V36.2257ZM161.732 37.3703C161.143 37.3703 160.633 37.2471 160.203 37.0007C159.781 36.7543 159.451 36.4045 159.212 35.9514C158.973 35.4983 158.854 34.9657 158.854 34.3537C158.854 33.8847 158.921 33.4674 159.057 33.1017C159.192 32.736 159.383 32.422 159.63 32.1597C159.884 31.8894 160.188 31.6867 160.538 31.5516C160.896 31.4085 161.294 31.337 161.732 31.337C162.314 31.337 162.815 31.4602 163.237 31.7066C163.667 31.9531 164.001 32.3028 164.24 32.7559C164.479 33.201 164.599 33.7336 164.599 34.3537C164.599 34.8147 164.531 35.2321 164.396 35.6056C164.26 35.9792 164.065 36.2972 163.81 36.5595C163.563 36.8218 163.261 37.0245 162.903 37.1676C162.552 37.3027 162.162 37.3703 161.732 37.3703ZM161.732 36.4403C162.058 36.4403 162.345 36.3608 162.592 36.2018C162.839 36.0429 163.03 35.8083 163.165 35.4983C163.309 35.1883 163.38 34.8068 163.38 34.3537C163.38 33.6701 163.229 33.1533 162.926 32.8036C162.624 32.4539 162.226 32.279 161.732 32.279C161.398 32.279 161.107 32.3585 160.86 32.5174C160.613 32.6685 160.418 32.899 160.275 33.209C160.14 33.519 160.072 33.9006 160.072 34.3537C160.072 35.0294 160.223 35.546 160.526 35.9037C160.828 36.2614 161.23 36.4403 161.732 36.4403ZM167.974 37.3465C167.807 37.3465 167.66 37.3068 167.532 37.2272C167.413 37.1398 167.317 37.0046 167.246 36.8218L165.49 32.1836C165.427 32.0246 165.406 31.8855 165.43 31.7663C165.454 31.639 165.514 31.5397 165.609 31.4682C165.713 31.3966 165.845 31.3609 166.004 31.3609C166.147 31.3609 166.263 31.3966 166.35 31.4682C166.445 31.5317 166.525 31.6589 166.589 31.8497L168.153 36.2495H167.867L169.491 31.802C169.547 31.651 169.623 31.5397 169.718 31.4682C169.814 31.3966 169.938 31.3609 170.088 31.3609C170.24 31.3609 170.363 31.3966 170.459 31.4682C170.562 31.5397 170.638 31.651 170.686 31.802L172.274 36.2495H172.011L173.6 31.8259C173.664 31.6431 173.743 31.5198 173.839 31.4562C173.943 31.3927 174.058 31.3609 174.185 31.3609C174.345 31.3609 174.464 31.4006 174.544 31.4801C174.632 31.5596 174.679 31.6629 174.687 31.7901C174.703 31.9093 174.683 32.0405 174.627 32.1836L172.871 36.8218C172.8 36.9967 172.7 37.1279 172.573 37.2153C172.453 37.3027 172.315 37.3465 172.155 37.3465C171.988 37.3465 171.84 37.3027 171.713 37.2153C171.593 37.1279 171.498 36.9967 171.426 36.8218L169.754 32.3028H170.351L168.691 36.8218C168.628 36.9967 168.532 37.1279 168.404 37.2153C168.285 37.3027 168.142 37.3465 167.974 37.3465ZM176.547 37.3465C176.356 37.3465 176.208 37.2948 176.105 37.1915C176.001 37.0802 175.95 36.9292 175.95 36.7384V31.969C175.95 31.7702 176.001 31.6192 176.105 31.5159C176.208 31.4125 176.352 31.3609 176.535 31.3609C176.726 31.3609 176.87 31.4125 176.965 31.5159C177.068 31.6192 177.12 31.7702 177.12 31.969V32.899L176.989 32.6844C177.164 32.2392 177.439 31.9054 177.813 31.6828C178.187 31.4523 178.617 31.337 179.103 31.337C179.565 31.337 179.947 31.4244 180.25 31.5993C180.56 31.7663 180.791 32.0246 180.943 32.3744C181.093 32.7162 181.17 33.1494 181.17 33.674V36.7384C181.17 36.9292 181.117 37.0802 181.014 37.1915C180.91 37.2948 180.763 37.3465 180.572 37.3465C180.373 37.3465 180.221 37.2948 180.118 37.1915C180.015 37.0802 179.963 36.9292 179.963 36.7384V33.7456C179.963 33.2448 179.863 32.8791 179.665 32.6486C179.473 32.4181 179.17 32.3028 178.757 32.3028C178.271 32.3028 177.88 32.4539 177.586 32.7559C177.3 33.0579 177.156 33.4633 177.156 33.9721V36.7384C177.156 37.1438 176.953 37.3465 176.547 37.3465ZM184.706 37.3703C184.085 37.3703 183.616 37.1915 183.297 36.8338C182.987 36.4681 182.831 35.9434 182.831 35.2599V29.3815C182.831 29.1828 182.883 29.0318 182.987 28.9284C183.09 28.8251 183.237 28.7734 183.428 28.7734C183.62 28.7734 183.767 28.8251 183.87 28.9284C183.982 29.0318 184.038 29.1828 184.038 29.3815V35.1883C184.038 35.5857 184.117 35.8838 184.276 36.0826C184.444 36.2734 184.683 36.3687 184.993 36.3687C185.065 36.3687 185.129 36.3687 185.184 36.3687C185.24 36.3608 185.296 36.3529 185.351 36.3449C185.447 36.3369 185.515 36.3648 185.554 36.4284C185.595 36.484 185.614 36.6033 185.614 36.7861C185.614 36.953 185.578 37.0842 185.507 37.1796C185.435 37.267 185.32 37.3226 185.16 37.3465C185.089 37.3545 185.013 37.3584 184.933 37.3584C184.854 37.3664 184.778 37.3703 184.706 37.3703ZM188.956 37.3703C188.367 37.3703 187.857 37.2471 187.427 37.0007C187.005 36.7543 186.675 36.4045 186.436 35.9514C186.197 35.4983 186.078 34.9657 186.078 34.3537C186.078 33.8847 186.145 33.4674 186.281 33.1017C186.416 32.736 186.607 32.422 186.854 32.1597C187.109 31.8894 187.411 31.6867 187.762 31.5516C188.12 31.4085 188.518 31.337 188.956 31.337C189.537 31.337 190.039 31.4602 190.461 31.7066C190.891 31.9531 191.226 32.3028 191.465 32.7559C191.703 33.201 191.823 33.7336 191.823 34.3537C191.823 34.8147 191.755 35.2321 191.62 35.6056C191.484 35.9792 191.289 36.2972 191.035 36.5595C190.787 36.8218 190.485 37.0245 190.127 37.1676C189.776 37.3027 189.386 37.3703 188.956 37.3703ZM188.956 36.4403C189.283 36.4403 189.569 36.3608 189.816 36.2018C190.063 36.0429 190.254 35.8083 190.39 35.4983C190.533 35.1883 190.605 34.8068 190.605 34.3537C190.605 33.6701 190.453 33.1533 190.151 32.8036C189.848 32.4539 189.45 32.279 188.956 32.279C188.622 32.279 188.331 32.3585 188.084 32.5174C187.837 32.6685 187.642 32.899 187.499 33.209C187.363 33.519 187.296 33.9006 187.296 34.3537C187.296 35.0294 187.447 35.546 187.75 35.9037C188.052 36.2614 188.455 36.4403 188.956 36.4403ZM195.041 37.3703C194.635 37.3703 194.268 37.2908 193.942 37.1319C193.623 36.9729 193.373 36.7583 193.19 36.488C193.006 36.2177 192.915 35.9117 192.915 35.5699C192.915 35.1406 193.023 34.8028 193.237 34.5564C193.46 34.302 193.823 34.1232 194.324 34.0198C194.834 33.9085 195.519 33.8529 196.379 33.8529H196.94V34.5921H196.391C195.817 34.5921 195.364 34.6199 195.029 34.6756C194.695 34.7313 194.456 34.8267 194.312 34.9618C194.177 35.089 194.109 35.2678 194.109 35.4983C194.109 35.8004 194.212 36.0468 194.42 36.2376C194.627 36.4204 194.913 36.5118 195.28 36.5118C195.574 36.5118 195.833 36.4442 196.056 36.3091C196.279 36.166 196.454 35.9753 196.582 35.7368C196.717 35.4983 196.785 35.2241 196.785 34.9141V33.5429C196.785 33.0898 196.689 32.7639 196.498 32.5651C196.307 32.3664 195.992 32.267 195.555 32.267C195.299 32.267 195.033 32.2989 194.754 32.3624C194.483 32.426 194.2 32.5333 193.906 32.6844C193.77 32.7479 193.656 32.7678 193.56 32.744C193.464 32.7201 193.388 32.6685 193.333 32.589C193.277 32.5016 193.245 32.4101 193.237 32.3147C193.237 32.2114 193.261 32.112 193.309 32.0166C193.364 31.9213 193.456 31.8497 193.584 31.802C193.934 31.6351 194.28 31.5159 194.623 31.4443C194.965 31.3728 195.287 31.337 195.59 31.337C196.123 31.337 196.562 31.4205 196.904 31.5874C197.254 31.7543 197.513 32.0087 197.681 32.3505C197.848 32.6923 197.932 33.1335 197.932 33.674V36.7384C197.932 36.9292 197.884 37.0802 197.788 37.1915C197.693 37.2948 197.553 37.3465 197.37 37.3465C197.195 37.3465 197.055 37.2948 196.952 37.1915C196.848 37.0802 196.797 36.9292 196.797 36.7384V35.9633H196.904C196.84 36.2575 196.721 36.5118 196.546 36.7265C196.379 36.9331 196.168 37.0921 195.913 37.2034C195.658 37.3147 195.367 37.3703 195.041 37.3703ZM201.814 37.3703C201.305 37.3703 200.855 37.2511 200.464 37.0126C200.082 36.7662 199.784 36.4164 199.569 35.9633C199.354 35.5023 199.246 34.9657 199.246 34.3537C199.246 33.7257 199.354 33.1891 199.569 32.744C199.784 32.2989 200.082 31.9531 200.464 31.7066C200.855 31.4602 201.305 31.337 201.814 31.337C202.324 31.337 202.762 31.4642 203.128 31.7186C203.503 31.965 203.754 32.2989 203.88 32.7201H203.749V29.3815C203.749 29.1828 203.801 29.0318 203.904 28.9284C204.008 28.8251 204.155 28.7734 204.346 28.7734C204.537 28.7734 204.685 28.8251 204.788 28.9284C204.9 29.0318 204.955 29.1828 204.955 29.3815V36.7384C204.955 36.9292 204.904 37.0802 204.8 37.1915C204.697 37.2948 204.549 37.3465 204.358 37.3465C204.167 37.3465 204.02 37.2948 203.916 37.1915C203.813 37.0802 203.761 36.9292 203.761 36.7384V35.6891L203.892 35.9514C203.765 36.3807 203.515 36.7265 203.14 36.9888C202.774 37.2431 202.332 37.3703 201.814 37.3703ZM202.125 36.4403C202.452 36.4403 202.738 36.3608 202.985 36.2018C203.232 36.0429 203.423 35.8083 203.558 35.4983C203.701 35.1883 203.773 34.8068 203.773 34.3537C203.773 33.6701 203.622 33.1533 203.319 32.8036C203.017 32.4539 202.619 32.279 202.125 32.279C201.79 32.279 201.5 32.3585 201.253 32.5174C201.006 32.6685 200.811 32.899 200.667 33.209C200.532 33.519 200.464 33.9006 200.464 34.3537C200.464 35.0294 200.616 35.546 200.918 35.9037C201.221 36.2614 201.623 36.4403 202.125 36.4403ZM210.551 37.3465C210.353 37.3465 210.197 37.2908 210.085 37.1796C209.982 37.0683 209.93 36.9133 209.93 36.7145V29.4889C209.93 29.2822 209.986 29.1272 210.097 29.0238C210.209 28.9126 210.365 28.8569 210.563 28.8569H213.418C214.325 28.8569 215.026 29.0715 215.52 29.5008C216.014 29.93 216.26 30.5381 216.26 31.3251C216.26 31.8338 216.149 32.271 215.926 32.6367C215.704 33.0024 215.377 33.2805 214.947 33.4713C214.525 33.6621 214.015 33.7575 213.418 33.7575L213.525 33.5906H213.836C214.155 33.5906 214.429 33.6701 214.66 33.829C214.899 33.988 215.114 34.2424 215.305 34.5921L216.332 36.4999C216.412 36.643 216.448 36.7821 216.44 36.9172C216.44 37.0444 216.392 37.1477 216.296 37.2272C216.209 37.3068 216.081 37.3465 215.914 37.3465C215.739 37.3465 215.596 37.3107 215.484 37.2392C215.381 37.1597 215.285 37.0444 215.197 36.8934L213.943 34.5802C213.776 34.2702 213.585 34.0636 213.37 33.9602C213.155 33.8489 212.873 33.7933 212.522 33.7933H211.172V36.7145C211.172 36.9133 211.121 37.0683 211.017 37.1796C210.914 37.2908 210.759 37.3465 210.551 37.3465ZM211.172 32.8632H213.215C213.82 32.8632 214.278 32.736 214.588 32.4817C214.899 32.2273 215.054 31.8497 215.054 31.3489C215.054 30.8561 214.899 30.4825 214.588 30.2281C214.278 29.9738 213.82 29.8466 213.215 29.8466H211.172V32.8632ZM220.477 37.3703C219.841 37.3703 219.291 37.2511 218.829 37.0126C218.375 36.7662 218.021 36.4204 217.766 35.9753C217.519 35.5222 217.396 34.9856 217.396 34.3656C217.396 33.7614 217.519 33.2329 217.766 32.7798C218.013 32.3267 218.351 31.9729 218.781 31.7186C219.211 31.4642 219.701 31.337 220.25 31.337C220.657 31.337 221.019 31.4046 221.337 31.5397C221.656 31.6669 221.926 31.8577 222.15 32.112C222.38 32.3585 222.552 32.6605 222.663 33.0182C222.783 33.3759 222.842 33.7774 222.842 34.2225C222.842 34.3576 222.803 34.461 222.723 34.5325C222.643 34.5961 222.524 34.6279 222.365 34.6279H218.351V33.8886H222.03L221.827 34.0556C221.827 33.6581 221.767 33.3203 221.648 33.0421C221.537 32.7639 221.365 32.5532 221.134 32.4101C220.911 32.2591 220.633 32.1836 220.298 32.1836C219.924 32.1836 219.605 32.271 219.343 32.4459C219.088 32.6208 218.893 32.8632 218.757 33.1732C218.622 33.4832 218.554 33.8449 218.554 34.2583V34.3298C218.554 35.0294 218.718 35.5579 219.044 35.9157C219.379 36.2654 219.86 36.4403 220.489 36.4403C220.728 36.4403 220.979 36.4085 221.242 36.3449C221.513 36.2813 221.767 36.174 222.006 36.023C222.141 35.9434 222.261 35.9077 222.365 35.9157C222.476 35.9236 222.564 35.9594 222.627 36.023C222.699 36.0865 222.743 36.166 222.759 36.2614C222.774 36.3568 222.759 36.4562 222.711 36.5595C222.663 36.6549 222.58 36.7423 222.46 36.8218C222.189 37.0046 221.875 37.1438 221.517 37.2392C221.158 37.3266 220.812 37.3703 220.477 37.3703ZM224.755 39.4927C224.564 39.4927 224.416 39.4411 224.313 39.3377C224.209 39.2344 224.158 39.0834 224.158 38.8846V31.969C224.158 31.7702 224.209 31.6192 224.313 31.5159C224.416 31.4125 224.559 31.3609 224.743 31.3609C224.934 31.3609 225.081 31.4125 225.185 31.5159C225.288 31.6192 225.34 31.7702 225.34 31.969V33.0063L225.209 32.7559C225.336 32.3267 225.586 31.9848 225.961 31.7305C226.335 31.4682 226.777 31.337 227.287 31.337C227.804 31.337 228.254 31.4602 228.637 31.7066C229.026 31.9531 229.325 32.2989 229.532 32.744C229.747 33.1891 229.855 33.7257 229.855 34.3537C229.855 34.9657 229.747 35.5023 229.532 35.9633C229.325 36.4164 229.031 36.7662 228.649 37.0126C228.266 37.2511 227.813 37.3703 227.287 37.3703C226.785 37.3703 226.347 37.2431 225.973 36.9888C225.598 36.7344 225.348 36.3965 225.221 35.9753H225.364V38.8846C225.364 39.0834 225.308 39.2344 225.197 39.3377C225.093 39.4411 224.946 39.4927 224.755 39.4927ZM226.988 36.4403C227.323 36.4403 227.613 36.3608 227.86 36.2018C228.107 36.0429 228.298 35.8083 228.434 35.4983C228.569 35.1883 228.637 34.8068 228.637 34.3537C228.637 33.6701 228.485 33.1533 228.183 32.8036C227.888 32.4539 227.49 32.279 226.988 32.279C226.661 32.279 226.371 32.3585 226.117 32.5174C225.869 32.6685 225.678 32.899 225.543 33.209C225.407 33.519 225.34 33.9006 225.34 34.3537C225.34 35.0294 225.491 35.546 225.794 35.9037C226.096 36.2614 226.494 36.4403 226.988 36.4403ZM233.747 37.3703C233.157 37.3703 232.648 37.2471 232.218 37.0007C231.795 36.7543 231.465 36.4045 231.226 35.9514C230.987 35.4983 230.868 34.9657 230.868 34.3537C230.868 33.8847 230.935 33.4674 231.071 33.1017C231.206 32.736 231.397 32.422 231.644 32.1597C231.899 31.8894 232.201 31.6867 232.552 31.5516C232.91 31.4085 233.308 31.337 233.747 31.337C234.327 31.337 234.829 31.4602 235.251 31.7066C235.681 31.9531 236.016 32.3028 236.255 32.7559C236.494 33.201 236.613 33.7336 236.613 34.3537C236.613 34.8147 236.545 35.2321 236.41 35.6056C236.274 35.9792 236.079 36.2972 235.825 36.5595C235.578 36.8218 235.275 37.0245 234.917 37.1676C234.566 37.3027 234.177 37.3703 233.747 37.3703ZM233.747 36.4403C234.073 36.4403 234.359 36.3608 234.606 36.2018C234.853 36.0429 235.044 35.8083 235.18 35.4983C235.323 35.1883 235.395 34.8068 235.395 34.3537C235.395 33.6701 235.243 33.1533 234.941 32.8036C234.638 32.4539 234.24 32.279 233.747 32.279C233.412 32.279 233.121 32.3585 232.875 32.5174C232.628 32.6685 232.433 32.899 232.289 33.209C232.153 33.519 232.086 33.9006 232.086 34.3537C232.086 35.0294 232.237 35.546 232.54 35.9037C232.843 36.2614 233.245 36.4403 233.747 36.4403ZM238.577 37.3465C238.378 37.3465 238.226 37.2948 238.123 37.1915C238.019 37.0802 237.968 36.9292 237.968 36.7384V31.969C237.968 31.7702 238.019 31.6192 238.123 31.5159C238.226 31.4125 238.37 31.3609 238.553 31.3609C238.744 31.3609 238.888 31.4125 238.983 31.5159C239.086 31.6192 239.139 31.7702 239.139 31.969V32.8394H239.019C239.146 32.3624 239.381 32.0008 239.724 31.7543C240.066 31.5079 240.504 31.3648 241.038 31.3251C241.181 31.3171 241.292 31.3529 241.372 31.4324C241.459 31.5119 241.507 31.6351 241.515 31.802C241.531 31.969 241.495 32.1041 241.408 32.2074C241.32 32.3028 241.185 32.3585 241.002 32.3744L240.775 32.3982C240.257 32.4459 239.863 32.6089 239.592 32.8871C239.321 33.1653 239.186 33.5468 239.186 34.0317V36.7384C239.186 36.9292 239.134 37.0802 239.031 37.1915C238.935 37.2948 238.784 37.3465 238.577 37.3465ZM245.234 37.3703C244.757 37.3703 244.354 37.2869 244.028 37.1199C243.702 36.953 243.459 36.7066 243.3 36.3807C243.141 36.0548 243.061 35.6573 243.061 35.1883V32.3744H242.344C242.185 32.3744 242.061 32.3346 241.974 32.2551C241.886 32.1677 241.842 32.0524 241.842 31.9093C241.842 31.7583 241.886 31.6431 241.974 31.5636C242.061 31.484 242.185 31.4443 242.344 31.4443H243.061V30.2162C243.061 30.0174 243.112 29.8665 243.216 29.7631C243.327 29.6597 243.479 29.6081 243.67 29.6081C243.861 29.6081 244.008 29.6597 244.112 29.7631C244.215 29.8665 244.267 30.0174 244.267 30.2162V31.4443H245.664C245.823 31.4443 245.947 31.484 246.035 31.5636C246.122 31.6431 246.166 31.7583 246.166 31.9093C246.166 32.0524 246.122 32.1677 246.035 32.2551C245.947 32.3346 245.823 32.3744 245.664 32.3744H244.267V35.0929C244.267 35.5142 244.354 35.8322 244.53 36.0468C244.713 36.2614 245.008 36.3687 245.414 36.3687C245.557 36.3687 245.68 36.3568 245.784 36.333C245.895 36.3012 245.987 36.2813 246.059 36.2734C246.146 36.2734 246.218 36.3052 246.274 36.3687C246.33 36.4244 246.357 36.5357 246.357 36.7026C246.357 36.8218 246.333 36.9331 246.286 37.0365C246.246 37.1398 246.17 37.2073 246.059 37.2392C245.963 37.271 245.832 37.2988 245.664 37.3226C245.505 37.3545 245.362 37.3703 245.234 37.3703Z" fill="#171717"/>
<path d="M124.293 15.2773H258.962C260.428 15.2773 261.131 15.2779 261.718 15.3426C266.756 15.8978 270.732 19.8683 271.288 24.8974C271.353 25.4832 271.354 26.1846 271.354 27.648V38.6773C271.354 40.1407 271.353 40.8421 271.288 41.428C270.732 46.4571 266.756 50.4276 261.718 50.9828C261.131 51.0475 260.428 51.048 258.962 51.048H124.293V15.2773Z" stroke="#FEDBD2"/>
<g filter="url(#filter0_d_13129_59800)">
<path d="M14.9302 27.6496C14.9302 26.1962 14.9302 25.4694 14.9978 24.858C15.5731 19.6555 19.6876 15.5481 24.899 14.9738C25.5115 14.9062 26.2395 14.9062 27.6954 14.9062H123.099C124.554 14.9062 125.282 14.9062 125.895 14.9738C131.106 15.5481 135.221 19.6555 135.796 24.858C135.864 25.4694 135.864 26.1962 135.864 27.6496V38.6789C135.864 40.1323 135.864 40.859 135.796 41.4705C135.221 46.6729 131.106 50.7803 125.895 51.3547C125.282 51.4222 124.554 51.4222 123.099 51.4222H27.6954C26.2395 51.4222 25.5115 51.4222 24.899 51.3547C19.6876 50.7803 15.5731 46.6729 14.9978 41.4705C14.9302 40.859 14.9302 40.1323 14.9302 38.6789V27.6496Z" fill="#F97B5C"/>
<path d="M35.0964 37.3707C34.1806 37.3707 33.4082 37.1999 32.7792 36.858C32.1501 36.5083 31.6724 36.0115 31.3459 35.3676C31.0274 34.7237 30.8682 33.9566 30.8682 33.0663C30.8682 32.3986 30.9597 31.8024 31.1429 31.2778C31.334 30.7452 31.6047 30.2921 31.9551 29.9185C32.3134 29.537 32.7473 29.2468 33.257 29.0481C33.7745 28.8493 34.3598 28.75 35.0128 28.75C35.4905 28.75 35.9603 28.8136 36.4222 28.9408C36.8839 29.06 37.306 29.2588 37.6882 29.537C37.7997 29.6165 37.8713 29.7078 37.9032 29.8112C37.935 29.9146 37.935 30.0219 37.9032 30.1331C37.8793 30.2365 37.8275 30.3279 37.7479 30.4074C37.6763 30.4869 37.5847 30.5346 37.4732 30.5505C37.3697 30.5663 37.2542 30.5346 37.1268 30.4551C36.8163 30.2404 36.4898 30.0854 36.1474 29.9901C35.805 29.8867 35.4268 29.835 35.0128 29.835C34.3917 29.835 33.8661 29.9623 33.4361 30.2166C33.0141 30.4709 32.6956 30.8406 32.4806 31.3255C32.2656 31.8024 32.1581 32.3827 32.1581 33.0663C32.1581 34.1236 32.4089 34.9264 32.9106 35.4749C33.4122 36.0234 34.1567 36.2976 35.1441 36.2976C35.5025 36.2976 35.8528 36.2658 36.1952 36.2022C36.5455 36.1307 36.88 36.0313 37.1985 35.9041L36.9477 36.5242V33.746H35.4069C35.2476 33.746 35.1202 33.7063 35.0247 33.6267C34.9371 33.5393 34.8933 33.4201 34.8933 33.269C34.8933 33.118 34.9371 33.0067 35.0247 32.9352C35.1202 32.8557 35.2476 32.8159 35.4069 32.8159H37.4732C37.6404 32.8159 37.7678 32.8597 37.8554 32.9471C37.943 33.0345 37.9868 33.1617 37.9868 33.3287V36.3334C37.9868 36.4765 37.9589 36.5997 37.9032 36.703C37.8554 36.7984 37.7718 36.8699 37.6524 36.9176C37.31 37.0528 36.9078 37.1641 36.446 37.2515C35.9842 37.331 35.5343 37.3707 35.0964 37.3707ZM42.495 37.3707C41.858 37.3707 41.3086 37.2515 40.8467 37.013C40.3929 36.7666 40.0385 36.4208 39.7837 35.9757C39.5369 35.5226 39.4135 34.986 39.4135 34.366C39.4135 33.7618 39.5369 33.2333 39.7837 32.7802C40.0306 32.3271 40.369 31.9733 40.799 31.719C41.229 31.4646 41.7187 31.3374 42.2681 31.3374C42.6742 31.3374 43.0365 31.405 43.355 31.5401C43.6735 31.6673 43.9442 31.8581 44.1672 32.1124C44.3981 32.3589 44.5693 32.6609 44.6808 33.0186C44.8002 33.3763 44.86 33.7778 44.86 34.2229C44.86 34.358 44.8202 34.4614 44.7405 34.5329C44.6609 34.5965 44.5414 34.6283 44.3822 34.6283H40.369V33.8891H44.0478L43.8447 34.056C43.8447 33.6586 43.785 33.3207 43.6655 33.0425C43.5541 32.7643 43.3828 32.5536 43.152 32.4105C42.929 32.2595 42.6503 32.184 42.3159 32.184C41.9416 32.184 41.6231 32.2714 41.3603 32.4463C41.1056 32.6212 40.9104 32.8636 40.7751 33.1736C40.6397 33.4837 40.572 33.8453 40.572 34.2587V34.3302C40.572 35.0298 40.7353 35.5584 41.0617 35.9161C41.3962 36.2658 41.8779 36.4407 42.507 36.4407C42.7459 36.4407 42.9967 36.4089 43.2594 36.3453C43.5302 36.2817 43.785 36.1744 44.0239 36.0234C44.1592 35.9439 44.2787 35.9081 44.3822 35.9161C44.4936 35.924 44.5813 35.9598 44.645 36.0234C44.7166 36.0869 44.7604 36.1665 44.7763 36.2618C44.7922 36.3572 44.7763 36.4566 44.7286 36.5599C44.6808 36.6553 44.5972 36.7427 44.4777 36.8223C44.207 37.0051 43.8925 37.1442 43.5342 37.2396C43.1758 37.327 42.8295 37.3707 42.495 37.3707ZM46.7723 37.3469C46.5812 37.3469 46.4339 37.2952 46.3304 37.1919C46.2269 37.0806 46.1751 36.9296 46.1751 36.7388V31.9694C46.1751 31.7706 46.2269 31.6196 46.3304 31.5163C46.4339 31.4129 46.5772 31.3613 46.7604 31.3613C46.9515 31.3613 47.0948 31.4129 47.1904 31.5163C47.2939 31.6196 47.3457 31.7706 47.3457 31.9694V32.8994L47.2143 32.6848C47.3894 32.2397 47.6641 31.9058 48.0384 31.6832C48.4126 31.4527 48.8426 31.3374 49.3284 31.3374C49.7902 31.3374 50.1724 31.4248 50.475 31.5997C50.7855 31.7667 51.0164 32.025 51.1678 32.3748C51.319 32.7166 51.3947 33.1498 51.3947 33.6744V36.7388C51.3947 36.9296 51.3429 37.0806 51.2394 37.1919C51.1359 37.2952 50.9886 37.3469 50.7975 37.3469C50.5984 37.3469 50.4471 37.2952 50.3436 37.1919C50.2401 37.0806 50.1883 36.9296 50.1883 36.7388V33.746C50.1883 33.2452 50.0888 32.8795 49.8897 32.649C49.6986 32.4185 49.396 32.3032 48.982 32.3032C48.4962 32.3032 48.106 32.4543 47.8115 32.7563C47.5248 33.0584 47.3815 33.4638 47.3815 33.9725V36.7388C47.3815 37.1442 47.1784 37.3469 46.7723 37.3469ZM55.7921 37.3707C55.1551 37.3707 54.6057 37.2515 54.1438 37.013C53.69 36.7666 53.3356 36.4208 53.0808 35.9757C52.834 35.5226 52.7106 34.986 52.7106 34.366C52.7106 33.7618 52.834 33.2333 53.0808 32.7802C53.3277 32.3271 53.6661 31.9733 54.0961 31.719C54.5261 31.4646 55.0158 31.3374 55.5652 31.3374C55.9713 31.3374 56.3336 31.405 56.6521 31.5401C56.9706 31.6673 57.2413 31.8581 57.4643 32.1124C57.6952 32.3589 57.8664 32.6609 57.9779 33.0186C58.0973 33.3763 58.157 33.7778 58.157 34.2229C58.157 34.358 58.1173 34.4614 58.0376 34.5329C57.958 34.5965 57.8385 34.6283 57.6793 34.6283H53.6661V33.8891H57.3448L57.1418 34.056C57.1418 33.6586 57.0821 33.3207 56.9626 33.0425C56.8512 32.7643 56.6799 32.5536 56.449 32.4105C56.2261 32.2595 55.9474 32.184 55.613 32.184C55.2387 32.184 54.9202 32.2714 54.6574 32.4463C54.4027 32.6212 54.2075 32.8636 54.0722 33.1736C53.9368 33.4837 53.8691 33.8453 53.8691 34.2587V34.3302C53.8691 35.0298 54.0324 35.5584 54.3588 35.9161C54.6933 36.2658 55.175 36.4407 55.8041 36.4407C56.0429 36.4407 56.2938 36.4089 56.5565 36.3453C56.8273 36.2817 57.0821 36.1744 57.321 36.0234C57.4563 35.9439 57.5757 35.9081 57.6793 35.9161C57.7907 35.924 57.8784 35.9598 57.9421 36.0234C58.0137 36.0869 58.0575 36.1665 58.0734 36.2618C58.0893 36.3572 58.0734 36.4566 58.0257 36.5599C57.9779 36.6553 57.8943 36.7427 57.7748 36.8223C57.5041 37.0051 57.1896 37.1442 56.8313 37.2396C56.4729 37.327 56.1266 37.3707 55.7921 37.3707ZM60.0814 37.3469C59.8823 37.3469 59.731 37.2952 59.6275 37.1919C59.524 37.0806 59.4722 36.9296 59.4722 36.7388V31.9694C59.4722 31.7706 59.524 31.6196 59.6275 31.5163C59.731 31.4129 59.8743 31.3613 60.0575 31.3613C60.2486 31.3613 60.3919 31.4129 60.4875 31.5163C60.5909 31.6196 60.6427 31.7706 60.6427 31.9694V32.8398H60.5233C60.6507 32.3628 60.8856 32.0012 61.228 31.7547C61.5704 31.5083 62.0083 31.3652 62.5419 31.3255C62.6852 31.3175 62.7966 31.3533 62.8763 31.4328C62.9639 31.5123 63.0116 31.6355 63.0196 31.8024C63.0355 31.9694 62.9997 32.1045 62.9121 32.2078C62.8245 32.3032 62.6891 32.3589 62.506 32.3748L62.2791 32.3986C61.7615 32.4463 61.3673 32.6093 61.0966 32.8875C60.8259 33.1657 60.6905 33.5472 60.6905 34.0321V36.7388C60.6905 36.9296 60.6387 37.0806 60.5353 37.1919C60.4397 37.2952 60.2884 37.3469 60.0814 37.3469ZM65.7329 37.3707C65.3268 37.3707 64.9605 37.2912 64.634 37.1323C64.3155 36.9733 64.0646 36.7587 63.8815 36.4884C63.6983 36.2181 63.6068 35.9121 63.6068 35.5703C63.6068 35.141 63.7143 34.8032 63.9293 34.5568C64.1522 34.3024 64.5146 34.1236 65.0162 34.0202C65.5258 33.909 66.2106 33.8533 67.0706 33.8533H67.632V34.5925H67.0825C66.5092 34.5925 66.0554 34.6203 65.7209 34.676C65.3865 34.7317 65.1476 34.8271 65.0043 34.9622C64.8689 35.0894 64.8012 35.2682 64.8012 35.4987C64.8012 35.8008 64.9047 36.0472 65.1118 36.238C65.3188 36.4208 65.6054 36.5122 65.9717 36.5122C66.2663 36.5122 66.5251 36.4447 66.7481 36.3095C66.971 36.1665 67.1462 35.9757 67.2736 35.7372C67.409 35.4987 67.4767 35.2245 67.4767 34.9145V33.5433C67.4767 33.0902 67.3811 32.7643 67.19 32.5655C66.9989 32.3668 66.6844 32.2675 66.2465 32.2675C65.9916 32.2675 65.7249 32.2993 65.4462 32.3628C65.1754 32.4264 64.8927 32.5337 64.5982 32.6848C64.4628 32.7483 64.3474 32.7682 64.2518 32.7444C64.1562 32.7205 64.0805 32.6689 64.0249 32.5894C63.9691 32.502 63.9372 32.4105 63.9293 32.3151C63.9293 32.2118 63.9532 32.1124 64.001 32.0171C64.0567 31.9217 64.1483 31.8501 64.2757 31.8024C64.626 31.6355 64.9724 31.5163 65.3148 31.4447C65.6572 31.3732 65.9797 31.3374 66.2823 31.3374C66.8157 31.3374 67.2537 31.4209 67.5961 31.5878C67.9465 31.7547 68.2053 32.0091 68.3725 32.3509C68.5397 32.6928 68.6233 33.1339 68.6233 33.6744V36.7388C68.6233 36.9296 68.5755 37.0806 68.48 37.1919C68.3844 37.2952 68.2451 37.3469 68.0619 37.3469C67.8867 37.3469 67.7474 37.2952 67.6439 37.1919C67.5404 37.0806 67.4886 36.9296 67.4886 36.7388V35.9638H67.5961C67.5324 36.2579 67.4129 36.5122 67.2378 36.7269C67.0706 36.9335 66.8596 37.0925 66.6048 37.2038C66.3499 37.3151 66.0593 37.3707 65.7329 37.3707ZM72.7692 37.3707C72.2914 37.3707 71.8894 37.2873 71.5628 37.1203C71.2364 36.9534 70.9935 36.707 70.8342 36.3811C70.675 36.0552 70.5954 35.6577 70.5954 35.1887V32.3748H69.8787C69.7195 32.3748 69.5961 32.335 69.5085 32.2555C69.4209 32.1681 69.3771 32.0528 69.3771 31.9097C69.3771 31.7587 69.4209 31.6435 69.5085 31.564C69.5961 31.4844 69.7195 31.4447 69.8787 31.4447H70.5954V30.2166C70.5954 30.0178 70.6472 29.8669 70.7506 29.7635C70.8622 29.6601 71.0134 29.6085 71.2045 29.6085C71.3956 29.6085 71.543 29.6601 71.6464 29.7635C71.75 29.8669 71.8017 30.0178 71.8017 30.2166V31.4447H73.1992C73.3585 31.4447 73.4819 31.4844 73.5694 31.564C73.6571 31.6435 73.7008 31.7587 73.7008 31.9097C73.7008 32.0528 73.6571 32.1681 73.5694 32.2555C73.4819 32.335 73.3585 32.3748 73.1992 32.3748H71.8017V35.0933C71.8017 35.5146 71.8893 35.8326 72.0645 36.0472C72.2477 36.2618 72.5422 36.3692 72.9483 36.3692C73.0917 36.3692 73.2151 36.3572 73.3186 36.3334C73.4301 36.3016 73.5217 36.2817 73.5933 36.2738C73.681 36.2738 73.7526 36.3056 73.8083 36.3692C73.8641 36.4248 73.8919 36.5361 73.8919 36.703C73.8919 36.8223 73.868 36.9335 73.8203 37.0369C73.7805 37.1402 73.7048 37.2078 73.5933 37.2396C73.4978 37.2714 73.3664 37.2992 73.1992 37.323C73.0399 37.3549 72.8966 37.3707 72.7692 37.3707ZM77.3239 37.3707C76.6871 37.3707 76.1377 37.2515 75.6756 37.013C75.2217 36.7666 74.8679 36.4208 74.6128 35.9757C74.366 35.5226 74.2425 34.986 74.2425 34.366C74.2425 33.7618 74.366 33.2333 74.6128 32.7802C74.8597 32.3271 75.1978 31.9733 75.6278 31.719C76.0578 31.4646 76.5475 31.3374 77.097 31.3374C77.5031 31.3374 77.8659 31.405 78.1839 31.5401C78.5026 31.6673 78.7736 31.8581 78.9961 32.1124C79.2275 32.3589 79.3984 32.6609 79.5097 33.0186C79.6291 33.3763 79.6888 33.7778 79.6888 34.2229C79.6888 34.358 79.6493 34.4614 79.5694 34.5329C79.4902 34.5965 79.3708 34.6283 79.2111 34.6283H75.1979V33.8891H78.8766L78.6736 34.056C78.6736 33.6586 78.6139 33.3207 78.4944 33.0425C78.3832 32.7643 78.2122 32.5536 77.9808 32.4105C77.7584 32.2595 77.4792 32.184 77.1447 32.184C76.7707 32.184 76.452 32.2714 76.1892 32.4463C75.9346 32.6212 75.7398 32.8636 75.604 33.1736C75.4688 33.4837 75.4009 33.8453 75.4009 34.2587V34.3302C75.4009 35.0298 75.5644 35.5584 75.8906 35.9161C76.225 36.2658 76.7073 36.4407 77.3358 36.4407C77.5747 36.4407 77.8255 36.4089 78.0883 36.3453C78.3593 36.2817 78.6138 36.1744 78.8527 36.0234C78.9886 35.9439 79.108 35.9081 79.2111 35.9161C79.323 35.924 79.4104 35.9598 79.4738 36.0234C79.5455 36.0869 79.5895 36.1665 79.6052 36.2618C79.6216 36.3572 79.6052 36.4566 79.5574 36.5599C79.5097 36.6553 79.426 36.7427 79.3066 36.8223C79.0364 37.0051 78.7213 37.1442 78.363 37.2396C78.0047 37.327 77.6583 37.3707 77.3239 37.3707ZM84.9061 37.3469C84.7068 37.3469 84.5515 37.2912 84.4403 37.18C84.3365 37.0687 84.285 36.9137 84.285 36.7149V29.4893C84.285 29.2826 84.3403 29.1276 84.4523 29.0242C84.5635 28.913 84.7188 28.8573 84.9181 28.8573H87.7727C88.6805 28.8573 89.3807 29.0719 89.8749 29.5012C90.3683 29.9304 90.6154 30.5385 90.6154 31.3255C90.6154 31.8343 90.5034 32.2714 90.281 32.6371C90.0578 33.0028 89.7315 33.281 89.3015 33.4717C88.879 33.6625 88.3699 33.7579 87.7727 33.7579L87.8802 33.591H88.1907C88.5088 33.591 88.7835 33.6705 89.0149 33.8294C89.2538 33.9884 89.4688 34.2428 89.6599 34.5925L90.6871 36.5003C90.7662 36.6434 90.802 36.7825 90.7945 36.9176C90.7945 37.0449 90.7468 37.1481 90.6512 37.2277C90.5631 37.3072 90.4362 37.3469 90.269 37.3469C90.0936 37.3469 89.9503 37.3111 89.839 37.2396C89.7353 37.1601 89.6397 37.0449 89.5524 36.8938L88.2982 34.5806C88.131 34.2706 87.9399 34.064 87.7249 33.9606C87.5099 33.8493 87.227 33.7937 86.8769 33.7937H85.5272V36.7149C85.5272 36.9137 85.475 37.0687 85.3719 37.18C85.2682 37.2912 85.1129 37.3469 84.9061 37.3469ZM85.5272 32.8636H87.5697C88.1743 32.8636 88.6327 32.7364 88.9432 32.4821C89.2538 32.2277 89.409 31.8501 89.409 31.3493C89.409 30.8565 89.2538 30.4829 88.9432 30.2285C88.6327 29.9742 88.1743 29.847 87.5697 29.847H85.5272V32.8636ZM94.8316 37.3707C94.1949 37.3707 93.6454 37.2515 93.1834 37.013C92.7295 36.7666 92.3756 36.4208 92.1203 35.9757C91.874 35.5226 91.7501 34.986 91.7501 34.366C91.7501 33.7618 91.874 33.2333 92.1203 32.7802C92.3674 32.3271 92.7056 31.9733 93.1356 31.719C93.5656 31.4646 94.0553 31.3374 94.6047 31.3374C95.0108 31.3374 95.3736 31.405 95.6916 31.5401C96.0104 31.6673 96.2813 31.8581 96.5038 32.1124C96.7352 32.3589 96.9062 32.6609 97.0174 33.0186C97.1368 33.3763 97.1966 33.7778 97.1966 34.2229C97.1966 34.358 97.157 34.4614 97.0771 34.5329C96.998 34.5965 96.8785 34.6283 96.7188 34.6283H92.7056V33.8891H96.3844L96.1813 34.056C96.1813 33.6586 96.1216 33.3207 96.0022 33.0425C95.8909 32.7643 95.72 32.5536 95.4886 32.4105C95.2661 32.2595 94.9869 32.184 94.6525 32.184C94.2785 32.184 93.9597 32.2714 93.697 32.4463C93.4424 32.6212 93.2476 32.8636 93.1117 33.1736C92.9766 33.4837 92.9086 33.8453 92.9086 34.2587V34.3302C92.9086 35.0298 93.0721 35.5584 93.3983 35.9161C93.7328 36.2658 94.215 36.4407 94.8436 36.4407C95.0825 36.4407 95.3333 36.4089 95.5961 36.3453C95.867 36.2817 96.1216 36.1744 96.3605 36.0234C96.4963 35.9439 96.6158 35.9081 96.7188 35.9161C96.8308 35.924 96.9181 35.9598 96.9816 36.0234C97.0532 36.0869 97.0973 36.1665 97.1129 36.2618C97.1294 36.3572 97.113 36.4566 97.0652 36.5599C97.0174 36.6553 96.9338 36.7427 96.8144 36.8223C96.5441 37.0051 96.2291 37.1442 95.8708 37.2396C95.5124 37.327 95.1661 37.3707 94.8316 37.3707ZM99.1091 39.4931C98.918 39.4931 98.7709 39.4415 98.6672 39.3381C98.5634 39.2348 98.5119 39.0838 98.5119 38.885V31.9694C98.5119 31.7706 98.5634 31.6196 98.6672 31.5163C98.7709 31.4129 98.9143 31.3613 99.0972 31.3613C99.2883 31.3613 99.4353 31.4129 99.5391 31.5163C99.6429 31.6196 99.6944 31.7706 99.6944 31.9694V33.0067L99.563 32.7563C99.6906 32.3271 99.9415 31.9852 100.315 31.7309C100.689 31.4686 101.131 31.3374 101.641 31.3374C102.159 31.3374 102.609 31.4606 102.991 31.707C103.381 31.9535 103.68 32.2993 103.887 32.7444C104.102 33.1895 104.209 33.7261 104.209 34.3541C104.209 34.9661 104.102 35.5027 103.887 35.9638C103.68 36.4169 103.385 36.7666 103.003 37.013C102.621 37.2515 102.167 37.3707 101.641 37.3707C101.14 37.3707 100.701 37.2435 100.327 36.9892C99.9534 36.7348 99.7026 36.397 99.5749 35.9757H99.7183V38.885C99.7183 39.0838 99.6623 39.2348 99.551 39.3381C99.4473 39.4415 99.3002 39.4931 99.1091 39.4931ZM101.343 36.4407C101.677 36.4407 101.967 36.3612 102.215 36.2022C102.462 36.0433 102.653 35.8088 102.788 35.4987C102.923 35.1887 102.991 34.8072 102.991 34.3541C102.991 33.6705 102.839 33.1537 102.537 32.804C102.242 32.4543 101.844 32.2794 101.343 32.2794C101.016 32.2794 100.725 32.3589 100.471 32.5178C100.224 32.6689 100.033 32.8994 99.8974 33.2094C99.7623 33.5194 99.6944 33.901 99.6944 34.3541C99.6944 35.0298 99.8459 35.5464 100.148 35.9041C100.451 36.2618 100.849 36.4407 101.343 36.4407ZM108.101 37.3707C107.512 37.3707 107.002 37.2476 106.572 37.0011C106.15 36.7547 105.819 36.4049 105.581 35.9518C105.342 35.4987 105.222 34.9661 105.222 34.3541C105.222 33.8851 105.29 33.4678 105.425 33.1021C105.561 32.7364 105.752 32.4225 105.999 32.1601C106.254 31.8898 106.556 31.6871 106.906 31.552C107.265 31.409 107.663 31.3374 108.101 31.3374C108.682 31.3374 109.184 31.4606 109.606 31.707C110.036 31.9535 110.37 32.3032 110.609 32.7563C110.848 33.2014 110.967 33.7341 110.967 34.3541C110.967 34.8151 110.9 35.2325 110.764 35.6061C110.629 35.9796 110.434 36.2976 110.179 36.5599C109.933 36.8223 109.63 37.025 109.271 37.168C108.921 37.3031 108.531 37.3707 108.101 37.3707ZM108.101 36.4407C108.428 36.4407 108.714 36.3612 108.961 36.2022C109.208 36.0433 109.399 35.8088 109.534 35.4987C109.677 35.1887 109.749 34.8072 109.749 34.3541C109.749 33.6705 109.598 33.1537 109.295 32.804C108.993 32.4543 108.595 32.2794 108.101 32.2794C107.766 32.2794 107.476 32.3589 107.229 32.5178C106.982 32.6689 106.787 32.8994 106.644 33.2094C106.508 33.5194 106.441 33.901 106.441 34.3541C106.441 35.0298 106.592 35.5464 106.894 35.9041C107.197 36.2618 107.599 36.4407 108.101 36.4407ZM112.931 37.3469C112.732 37.3469 112.581 37.2952 112.477 37.1919C112.374 37.0806 112.322 36.9296 112.322 36.7388V31.9694C112.322 31.7706 112.374 31.6196 112.477 31.5163C112.581 31.4129 112.725 31.3613 112.907 31.3613C113.099 31.3613 113.242 31.4129 113.337 31.5163C113.441 31.6196 113.493 31.7706 113.493 31.9694V32.8398H113.373C113.501 32.3628 113.735 32.0012 114.078 31.7547C114.421 31.5083 114.858 31.3652 115.392 31.3255C115.535 31.3175 115.646 31.3533 115.726 31.4328C115.814 31.5123 115.861 31.6355 115.87 31.8024C115.885 31.9694 115.849 32.1045 115.762 32.2078C115.675 32.3032 115.539 32.3589 115.356 32.3748L115.129 32.3986C114.612 32.4463 114.218 32.6093 113.947 32.8875C113.676 33.1657 113.541 33.5472 113.541 34.0321V36.7388C113.541 36.9296 113.489 37.0806 113.385 37.1919C113.29 37.2952 113.138 37.3469 112.931 37.3469ZM119.589 37.3707C119.111 37.3707 118.709 37.2873 118.382 37.1203C118.056 36.9534 117.813 36.707 117.654 36.3811C117.495 36.0552 117.415 35.6577 117.415 35.1887V32.3748H116.698C116.539 32.3748 116.416 32.335 116.328 32.2555C116.241 32.1681 116.197 32.0528 116.197 31.9097C116.197 31.7587 116.241 31.6435 116.328 31.564C116.416 31.4844 116.539 31.4447 116.698 31.4447H117.415V30.2166C117.415 30.0178 117.467 29.8669 117.57 29.7635C117.682 29.6601 117.833 29.6085 118.024 29.6085C118.215 29.6085 118.363 29.6601 118.466 29.7635C118.57 29.8669 118.621 30.0178 118.621 30.2166V31.4447H120.019C120.178 31.4447 120.302 31.4844 120.389 31.564C120.477 31.6435 120.52 31.7587 120.52 31.9097C120.52 32.0528 120.477 32.1681 120.389 32.2555C120.302 32.335 120.178 32.3748 120.019 32.3748H118.621V35.0933C118.621 35.5146 118.709 35.8326 118.884 36.0472C119.068 36.2618 119.362 36.3692 119.768 36.3692C119.911 36.3692 120.035 36.3572 120.138 36.3334C120.25 36.3016 120.341 36.2817 120.413 36.2738C120.501 36.2738 120.573 36.3056 120.628 36.3692C120.684 36.4248 120.711 36.5361 120.711 36.703C120.711 36.8223 120.688 36.9335 120.64 37.0369C120.6 37.1402 120.525 37.2078 120.413 37.2396C120.317 37.2714 120.186 37.2992 120.019 37.323C119.86 37.3549 119.716 37.3707 119.589 37.3707Z" fill="white"/>
</g>
<path d="M412.07 58.8711H14.9302V219.094H412.07V58.8711Z" fill="#E5E5E5"/>
<g filter="url(#filter1_d_13129_59800)">
<path d="M408.337 58.8711H18.6627C16.6013 58.8711 14.9302 60.5393 14.9302 62.5972V215.368C14.9302 217.426 16.6013 219.094 18.6627 219.094H408.337C410.399 219.094 412.07 217.426 412.07 215.368V62.5972C412.07 60.5393 410.399 58.8711 408.337 58.8711Z" fill="white"/>
<path d="M173.936 73.7773H37.3254C33.2026 73.7773 29.8604 77.1138 29.8604 81.2296V99.8601C29.8604 103.976 33.2026 107.312 37.3254 107.312H173.936C178.058 107.312 181.401 103.976 181.401 99.8601V81.2296C181.401 77.1138 178.058 73.7773 173.936 73.7773Z" fill="#F9F9F9"/>
<path d="M41.6492 93.9702C41.5098 93.9702 41.4019 93.9322 41.3252 93.8554C41.2556 93.7719 41.2207 93.6609 41.2207 93.5215V86.98C41.2207 86.8339 41.259 86.7259 41.3357 86.6565C41.4123 86.5798 41.5203 86.5418 41.6596 86.5418H44.1365C44.9239 86.5418 45.53 86.7363 45.955 87.126C46.38 87.5083 46.5925 88.0509 46.5925 88.7536C46.5925 89.4489 46.38 89.9914 45.955 90.3812C45.53 90.7709 44.9239 90.9654 44.1365 90.9654H42.0777V93.5215C42.0777 93.6609 42.0428 93.7719 41.9732 93.8554C41.9035 93.9322 41.7955 93.9702 41.6492 93.9702ZM42.0777 90.2455H44.032C44.5964 90.2455 45.0214 90.1203 45.3071 89.8699C45.5997 89.6128 45.746 89.2402 45.746 88.7536C45.746 88.2595 45.5997 87.8877 45.3071 87.6373C45.0214 87.3802 44.5964 87.2512 44.032 87.2512H42.0777V90.2455ZM49.0632 93.991C48.7148 93.991 48.4012 93.9247 48.1226 93.7928C47.8508 93.6534 47.6348 93.4656 47.4746 93.2294C47.3143 92.9932 47.2342 92.7286 47.2342 92.4365C47.2342 92.0609 47.3283 91.765 47.5164 91.5497C47.7115 91.3343 48.0285 91.1808 48.4675 91.0906C48.9133 91.0005 49.5195 90.955 50.2859 90.955H50.7562V91.5079H50.2964C49.732 91.5079 49.2861 91.5355 48.9587 91.5914C48.6381 91.6399 48.4117 91.727 48.2793 91.8522C48.1539 91.9774 48.0912 92.1548 48.0912 92.3843C48.0912 92.6698 48.1887 92.9023 48.3839 93.0833C48.5859 93.2644 48.8576 93.3546 49.199 93.3546C49.4777 93.3546 49.7216 93.2883 49.9306 93.1564C50.1466 93.0245 50.3138 92.8434 50.4323 92.6139C50.5577 92.3843 50.6204 92.1198 50.6204 91.8209V90.6316C50.6204 90.2001 50.5333 89.8908 50.3591 89.703C50.1849 89.5085 49.8993 89.4109 49.5021 89.4109C49.2582 89.4109 49.0143 89.4422 48.7705 89.5048C48.5267 89.5674 48.2689 89.668 47.9972 89.8074C47.8996 89.8558 47.816 89.8737 47.7463 89.8595C47.6766 89.8387 47.6209 89.8006 47.5791 89.7448C47.5373 89.6889 47.5129 89.6263 47.506 89.557C47.4989 89.4802 47.5129 89.4072 47.5478 89.3379C47.5896 89.2686 47.6523 89.2127 47.7359 89.1709C48.0424 89.0182 48.3455 88.9064 48.6451 88.8371C48.9447 88.7678 49.2304 88.7327 49.5021 88.7327C49.9411 88.7327 50.3033 88.8058 50.589 88.9518C50.8746 89.0912 51.0872 89.3066 51.2265 89.5987C51.3658 89.8841 51.4356 90.2523 51.4356 90.7046V93.532C51.4356 93.6713 51.4007 93.7786 51.331 93.8554C51.2683 93.9322 51.1743 93.9702 51.0489 93.9702C50.9164 93.9702 50.8154 93.9322 50.7458 93.8554C50.6761 93.7786 50.6413 93.6713 50.6413 93.532V92.7182H50.7353C50.6796 92.9827 50.5716 93.2085 50.4114 93.3963C50.258 93.5841 50.0665 93.7302 49.8365 93.8345C49.6066 93.9389 49.3488 93.991 49.0632 93.991ZM55.044 93.991C54.6469 93.991 54.3124 93.9217 54.0407 93.7824C53.7759 93.6363 53.5774 93.4276 53.445 93.1564C53.3126 92.8784 53.2464 92.5408 53.2464 92.1444V89.4839H52.5462C52.4277 89.4839 52.3372 89.4564 52.2745 89.4005C52.2118 89.3379 52.1804 89.2544 52.1804 89.1501C52.1804 89.0457 52.2118 88.966 52.2745 88.9101C52.3372 88.8542 52.4277 88.8266 52.5462 88.8266H53.2464V87.6268C53.2464 87.4875 53.2847 87.3831 53.3614 87.3138C53.4381 87.2371 53.5426 87.1991 53.6749 87.1991C53.8073 87.1991 53.9084 87.2371 53.978 87.3138C54.0547 87.3831 54.093 87.4875 54.093 87.6268V88.8266H55.4098C55.5283 88.8266 55.6188 88.8542 55.6815 88.9101C55.7442 88.966 55.7756 89.0457 55.7756 89.1501C55.7756 89.2544 55.7442 89.3379 55.6815 89.4005C55.6188 89.4564 55.5283 89.4839 55.4098 89.4839H54.093V92.0609C54.093 92.4574 54.1766 92.7599 54.3438 92.9686C54.511 93.1705 54.7827 93.2711 55.159 93.2711C55.2913 93.2711 55.4029 93.257 55.4934 93.2294C55.591 93.2018 55.6711 93.1877 55.7338 93.1877C55.7965 93.181 55.8487 93.2018 55.8905 93.2503C55.9323 93.2987 55.9532 93.3822 55.9532 93.5007C55.9532 93.5841 55.9359 93.6609 55.901 93.7302C55.8731 93.7995 55.8209 93.8487 55.7442 93.8763C55.6606 93.9038 55.5492 93.9284 55.4098 93.9493C55.2774 93.9769 55.1555 93.991 55.044 93.991ZM57.1391 93.9493C56.9998 93.9493 56.8953 93.9113 56.8256 93.8345C56.7559 93.7511 56.7211 93.6363 56.7211 93.4902V89.2231C56.7211 89.077 56.7559 88.966 56.8256 88.8892C56.8953 88.8125 56.9998 88.7745 57.1391 88.7745C57.2715 88.7745 57.376 88.8125 57.4527 88.8892C57.5293 88.966 57.5676 89.077 57.5676 89.2231V93.4902C57.5676 93.6363 57.5293 93.7511 57.4527 93.8345C57.383 93.9113 57.2784 93.9493 57.1391 93.9493ZM57.1391 87.606C56.9649 87.606 56.829 87.5605 56.7316 87.4703C56.634 87.3727 56.5852 87.2445 56.5852 87.0843C56.5852 86.9174 56.634 86.7922 56.7316 86.7087C56.829 86.6185 56.9649 86.5731 57.1391 86.5731C57.3202 86.5731 57.4561 86.6185 57.5467 86.7087C57.6442 86.7922 57.693 86.9174 57.693 87.0843C57.693 87.2445 57.6442 87.3727 57.5467 87.4703C57.4561 87.5605 57.3202 87.606 57.1391 87.606ZM61.4389 93.991C60.9024 93.991 60.4391 93.8867 60.0489 93.678C59.6657 93.4627 59.3661 93.1601 59.1502 92.7704C58.9411 92.3806 58.8366 91.9148 58.8366 91.3723C58.8366 90.844 58.9411 90.3849 59.1502 89.9951C59.3592 89.5987 59.6448 89.2894 60.0071 89.0666C60.3764 88.8438 60.8014 88.7327 61.2822 88.7327C61.6235 88.7327 61.9301 88.7916 62.2019 88.9101C62.4736 89.0211 62.7035 89.1851 62.8916 89.4005C63.0867 89.6158 63.233 89.8767 63.3306 90.1829C63.4351 90.4892 63.4873 90.8335 63.4873 91.2158C63.4873 91.3269 63.456 91.4103 63.3933 91.4662C63.3306 91.5147 63.2399 91.5392 63.1215 91.5392H59.4846V90.9863H62.923L62.7558 91.1219C62.7558 90.7463 62.7 90.4296 62.5885 90.1725C62.477 89.908 62.3133 89.7067 62.0973 89.5674C61.8883 89.428 61.6235 89.3587 61.3031 89.3587C60.9477 89.3587 60.6447 89.4422 60.3938 89.6091C60.1499 89.7693 59.9653 89.9951 59.8399 90.2873C59.7145 90.5727 59.6518 90.9066 59.6518 91.2889V91.3515C59.6518 91.9916 59.8051 92.4782 60.1116 92.8121C60.4252 93.1459 60.8676 93.3129 61.4389 93.3129C61.6758 93.3129 61.9092 93.2816 62.1391 93.219C62.376 93.1564 62.6059 93.052 62.8289 92.906C62.9264 92.8434 63.0135 92.8158 63.0902 92.8225C63.1738 92.8225 63.2399 92.8471 63.2888 92.8956C63.3375 92.9373 63.3689 92.9932 63.3828 93.0625C63.4037 93.1251 63.3967 93.1944 63.3619 93.2711C63.334 93.3479 63.2748 93.4135 63.1843 93.4694C62.9543 93.6363 62.6826 93.7652 62.3691 93.8554C62.0555 93.9456 61.7454 93.991 61.4389 93.991ZM65.1305 93.9702C64.9912 93.9702 64.8867 93.9322 64.8169 93.8554C64.7473 93.7786 64.7124 93.6713 64.7124 93.532V89.1814C64.7124 89.042 64.7473 88.9377 64.8169 88.8684C64.8867 88.7916 64.9877 88.7536 65.12 88.7536C65.2524 88.7536 65.3534 88.7916 65.4231 88.8684C65.4998 88.9377 65.5381 89.042 65.5381 89.1814V90.0786L65.4231 89.9534C65.5694 89.5502 65.8064 89.2477 66.1338 89.0457C66.4682 88.8371 66.8514 88.7327 67.2834 88.7327C67.6875 88.7327 68.022 88.8058 68.2867 88.9518C68.5584 89.0979 68.7605 89.3207 68.8928 89.6196C69.0253 89.9117 69.0914 90.2836 69.0914 90.7359V93.532C69.0914 93.6713 69.0531 93.7786 68.9765 93.8554C68.9068 93.9322 68.8058 93.9702 68.6734 93.9702C68.5341 93.9702 68.4261 93.9322 68.3494 93.8554C68.2797 93.7786 68.2449 93.6713 68.2449 93.532V90.7881C68.2449 90.3148 68.1508 89.9706 67.9627 89.7552C67.7816 89.5324 67.489 89.4213 67.0848 89.4213C66.618 89.4213 66.2453 89.5674 65.9665 89.8595C65.6948 90.1449 65.559 90.5272 65.559 91.0072V93.532C65.559 93.8241 65.4162 93.9702 65.1305 93.9702ZM72.6904 93.991C72.2932 93.991 71.9588 93.9217 71.6871 93.7824C71.4223 93.6363 71.2237 93.4276 71.0914 93.1564C70.9589 92.8784 70.8928 92.5408 70.8928 92.1444V89.4839H70.1926C70.0741 89.4839 69.9836 89.4564 69.9209 89.4005C69.8581 89.3379 69.8268 89.2544 69.8268 89.1501C69.8268 89.0457 69.8581 88.966 69.9209 88.9101C69.9836 88.8542 70.0741 88.8266 70.1926 88.8266H70.8928V87.6268C70.8928 87.4875 70.9311 87.3831 71.0078 87.3138C71.0844 87.2371 71.1889 87.1991 71.3213 87.1991C71.4536 87.1991 71.5546 87.2371 71.6244 87.3138C71.701 87.3831 71.7393 87.4875 71.7393 87.6268V88.8266H73.0562C73.1746 88.8266 73.2652 88.8542 73.3279 88.9101C73.3906 88.966 73.422 89.0457 73.422 89.1501C73.422 89.2544 73.3906 89.3379 73.3279 89.4005C73.2652 89.4564 73.1746 89.4839 73.0562 89.4839H71.7393V92.0609C71.7393 92.4574 71.8229 92.7599 71.9902 92.9686C72.1574 93.1705 72.4291 93.2711 72.8053 93.2711C72.9377 93.2711 73.0491 93.257 73.1398 93.2294C73.2373 93.2018 73.3174 93.1877 73.3801 93.1877C73.4429 93.181 73.4951 93.2018 73.5369 93.2503C73.5787 93.2987 73.5996 93.3822 73.5996 93.5007C73.5996 93.5841 73.5822 93.6609 73.5474 93.7302C73.5194 93.7995 73.4672 93.8487 73.3906 93.8763C73.307 93.9038 73.1955 93.9284 73.0562 93.9493C72.9237 93.9769 72.8018 93.991 72.6904 93.991ZM79.812 93.9702C79.6798 93.9702 79.5716 93.9389 79.488 93.8763C79.4044 93.8137 79.3379 93.7198 79.2894 93.5946L76.4154 87.0321C76.3668 86.9137 76.3526 86.8168 76.3736 86.74C76.3945 86.6566 76.44 86.5902 76.5094 86.5418C76.5863 86.4933 76.6729 86.4688 76.7707 86.4688C76.9028 86.4688 77.0006 86.5 77.0633 86.5626C77.1327 86.6185 77.1887 86.702 77.2305 86.813L79.9896 93.2085H79.6552L82.4038 86.8026C82.4523 86.6983 82.5121 86.6185 82.5815 86.5626C82.6509 86.5 82.7487 86.4688 82.8741 86.4688C82.9719 86.4688 83.0518 86.4933 83.1145 86.5418C83.1839 86.5902 83.2257 86.6566 83.2399 86.74C83.2608 86.8235 83.2466 86.9211 83.1981 87.0321L80.324 93.5946C80.2755 93.7198 80.2091 93.8137 80.1255 93.8763C80.0486 93.9389 79.9441 93.9702 79.812 93.9702ZM84.8688 93.9493C84.7299 93.9493 84.6254 93.9113 84.5552 93.8345C84.4858 93.7511 84.4507 93.6363 84.4507 93.4902V89.2231C84.4507 89.077 84.4858 88.966 84.5552 88.8892C84.6254 88.8125 84.7299 88.7745 84.8688 88.7745C85.0016 88.7745 85.1062 88.8125 85.1823 88.8892C85.2592 88.966 85.2973 89.077 85.2973 89.2231V93.4902C85.2973 93.6363 85.2592 93.7511 85.1823 93.8345C85.1129 93.9113 85.0084 93.9493 84.8688 93.9493ZM84.8688 87.606C84.6948 87.606 84.559 87.5605 84.4612 87.4703C84.3641 87.3727 84.3149 87.2445 84.3149 87.0843C84.3149 86.9174 84.3641 86.7922 84.4612 86.7087C84.559 86.6185 84.6948 86.5731 84.8688 86.5731C85.0502 86.5731 85.186 86.6185 85.2764 86.7087C85.3741 86.7922 85.4227 86.9174 85.4227 87.0843C85.4227 87.2445 85.3741 87.3727 85.2764 87.4703C85.186 87.5605 85.0502 87.606 84.8688 87.606ZM88.5938 93.991C88.2803 93.991 87.9638 93.953 87.6428 93.8763C87.3292 93.7995 87.0366 93.6676 86.7649 93.4798C86.6955 93.4314 86.6469 93.3755 86.6186 93.3129C86.5909 93.2436 86.5805 93.1772 86.5872 93.1146C86.6014 93.0453 86.629 92.9857 86.6708 92.9373C86.7201 92.8888 86.7753 92.8605 86.838 92.8538C86.9082 92.8397 86.9844 92.8538 87.068 92.8956C87.3397 93.0625 87.601 93.181 87.8518 93.2503C88.1101 93.3129 88.3639 93.3442 88.6147 93.3442C89.0119 93.3442 89.312 93.2711 89.5135 93.1251C89.7158 92.979 89.8166 92.7808 89.8166 92.5304C89.8166 92.3359 89.7509 92.1824 89.618 92.0713C89.4859 91.9528 89.2769 91.8627 88.991 91.8001L88.0399 91.5914C87.601 91.5012 87.274 91.3447 87.0575 91.1219C86.8485 90.8991 86.744 90.6107 86.744 90.256C86.744 89.943 86.8246 89.6754 86.9844 89.4526C87.1516 89.2231 87.3852 89.0457 87.6846 88.9205C87.9847 88.7953 88.3325 88.7327 88.7297 88.7327C89.0365 88.7327 89.3254 88.7745 89.5971 88.8579C89.8763 88.9347 90.1271 89.0599 90.3496 89.2335C90.4198 89.282 90.4646 89.3416 90.4855 89.4109C90.5138 89.4735 90.5168 89.5398 90.4959 89.6091C90.4825 89.6717 90.4511 89.7276 90.4018 89.7761C90.3533 89.8178 90.2943 89.8424 90.2242 89.8491C90.1548 89.8558 90.0816 89.8349 90.0047 89.7865C89.7957 89.6471 89.5837 89.5465 89.3672 89.4839C89.1515 89.4146 88.9387 89.3796 88.7297 89.3796C88.34 89.3796 88.0436 89.4564 87.8413 89.6091C87.6398 89.7619 87.5383 89.9638 87.5383 90.2142C87.5383 90.4087 87.601 90.569 87.7264 90.6942C87.8518 90.8194 88.0474 90.9095 88.3116 90.9654L89.2627 91.1637C89.7158 91.2613 90.054 91.4178 90.2764 91.6331C90.5064 91.8418 90.6213 92.1272 90.6213 92.4887C90.6213 92.9477 90.4369 93.3129 90.0674 93.5841C89.6986 93.8554 89.2074 93.991 88.5938 93.991ZM92.3301 93.9493C92.1905 93.9493 92.086 93.9113 92.0165 93.8345C91.9464 93.7511 91.912 93.6363 91.912 93.4902V89.2231C91.912 89.077 91.9464 88.966 92.0165 88.8892C92.086 88.8125 92.1905 88.7745 92.3301 88.7745C92.4622 88.7745 92.5667 88.8125 92.6436 88.8892C92.7197 88.966 92.7586 89.077 92.7586 89.2231V93.4902C92.7586 93.6363 92.7197 93.7511 92.6436 93.8345C92.5734 93.9113 92.4689 93.9493 92.3301 93.9493ZM92.3301 87.606C92.1554 87.606 92.0195 87.5605 91.9225 87.4703C91.8247 87.3727 91.7762 87.2445 91.7762 87.0843C91.7762 86.9174 91.8247 86.7922 91.9225 86.7087C92.0195 86.6185 92.1554 86.5731 92.3301 86.5731C92.5107 86.5731 92.6466 86.6185 92.7377 86.7087C92.8347 86.7922 92.884 86.9174 92.884 87.0843C92.884 87.2445 92.8347 87.3727 92.7377 87.4703C92.6466 87.5605 92.5107 87.606 92.3301 87.606ZM96.3791 93.991C95.982 93.991 95.6475 93.9217 95.3758 93.7824C95.1108 93.6363 94.9122 93.4276 94.7801 93.1564C94.6472 92.8784 94.5815 92.5408 94.5815 92.1444V89.4839H93.8813C93.7626 89.4839 93.6723 89.4564 93.6096 89.4005C93.5461 89.3379 93.5148 89.2544 93.5148 89.1501C93.5148 89.0457 93.5461 88.966 93.6096 88.9101C93.6723 88.8542 93.7626 88.8266 93.8813 88.8266H94.5815V87.6268C94.5815 87.4875 94.6196 87.3831 94.6965 87.3138C94.7726 87.2371 94.8771 87.1991 95.01 87.1991C95.1421 87.1991 95.2429 87.2371 95.3131 87.3138C95.3892 87.3831 95.4281 87.4875 95.4281 87.6268V88.8266H96.7449C96.8628 88.8266 96.9539 88.8542 97.0166 88.9101C97.0793 88.966 97.1107 89.0457 97.1107 89.1501C97.1107 89.2544 97.0793 89.3379 97.0166 89.4005C96.9539 89.4564 96.8628 89.4839 96.7449 89.4839H95.4281V92.0609C95.4281 92.4574 95.5117 92.7599 95.6789 92.9686C95.8461 93.1705 96.1178 93.2711 96.4941 93.2711C96.6262 93.2711 96.7374 93.257 96.8285 93.2294C96.9255 93.2018 97.0062 93.1877 97.0689 93.1877C97.1316 93.181 97.1838 93.2018 97.2256 93.2503C97.2674 93.2987 97.2883 93.3822 97.2883 93.5007C97.2883 93.5841 97.2704 93.6609 97.2361 93.7302C97.2077 93.7995 97.1555 93.8487 97.0793 93.8763C96.9957 93.9038 96.8837 93.9284 96.7449 93.9493C96.612 93.9769 96.4903 93.991 96.3791 93.991ZM101.117 93.9702C100.978 93.9702 100.87 93.9322 100.793 93.8554C100.724 93.7786 100.689 93.6713 100.689 93.532V89.1814C100.689 89.042 100.724 88.9377 100.793 88.8684C100.863 88.7916 100.964 88.7536 101.096 88.7536C101.229 88.7536 101.33 88.7916 101.399 88.8684C101.476 88.9377 101.514 89.042 101.514 89.1814V90.0264H101.41C101.522 89.6158 101.734 89.2999 102.047 89.077C102.361 88.8542 102.748 88.7365 103.207 88.7223C103.312 88.7156 103.395 88.7394 103.458 88.7953C103.521 88.8438 103.556 88.931 103.563 89.0562C103.57 89.1747 103.542 89.2686 103.479 89.3379C103.416 89.4072 103.319 89.4489 103.186 89.4631L103.019 89.4839C102.546 89.5257 102.18 89.6784 101.922 89.943C101.671 90.2001 101.546 90.5548 101.546 91.0072V93.532C101.546 93.6713 101.508 93.7786 101.431 93.8554C101.361 93.9322 101.257 93.9702 101.117 93.9702ZM106.662 93.991C106.125 93.991 105.663 93.8867 105.272 93.678C104.889 93.4627 104.589 93.1601 104.373 92.7704C104.164 92.3806 104.06 91.9148 104.06 91.3723C104.06 90.844 104.164 90.3849 104.373 89.9951C104.582 89.5987 104.868 89.2894 105.23 89.0666C105.6 88.8438 106.025 88.7327 106.505 88.7327C106.847 88.7327 107.153 88.7916 107.425 88.9101C107.697 89.0211 107.927 89.1851 108.115 89.4005C108.31 89.6158 108.456 89.8767 108.554 90.1829C108.658 90.4892 108.711 90.8335 108.711 91.2158C108.711 91.3269 108.679 91.4103 108.617 91.4662C108.554 91.5147 108.463 91.5392 108.345 91.5392H104.708V90.9863H108.146L107.979 91.1219C107.979 90.7463 107.923 90.4296 107.812 90.1725C107.701 89.908 107.536 89.7067 107.321 89.5674C107.112 89.428 106.847 89.3587 106.526 89.3587C106.171 89.3587 105.868 89.4422 105.617 89.6091C105.373 89.7693 105.189 89.9951 105.063 90.2873C104.938 90.5727 104.875 90.9066 104.875 91.2889V91.3515C104.875 91.9916 105.028 92.4782 105.335 92.8121C105.648 93.1459 106.091 93.3129 106.662 93.3129C106.899 93.3129 107.132 93.2816 107.362 93.219C107.599 93.1564 107.829 93.052 108.052 92.906C108.15 92.8434 108.237 92.8158 108.313 92.8225C108.397 92.8225 108.463 92.8471 108.512 92.8956C108.561 92.9373 108.592 92.9932 108.606 93.0625C108.627 93.1251 108.62 93.1944 108.585 93.2711C108.558 93.3479 108.498 93.4135 108.408 93.4694C108.178 93.6363 107.906 93.7652 107.592 93.8554C107.279 93.9456 106.969 93.991 106.662 93.991ZM110.354 95.8481C110.214 95.8481 110.11 95.8101 110.04 95.7334C109.971 95.6641 109.936 95.5597 109.936 95.4204V89.1814C109.936 89.042 109.971 88.9377 110.04 88.8684C110.11 88.7916 110.211 88.7536 110.343 88.7536C110.483 88.7536 110.587 88.7916 110.657 88.8684C110.734 88.9377 110.772 89.042 110.772 89.1814V90.1725L110.657 90.0264C110.768 89.63 110.987 89.317 111.315 89.0875C111.65 88.8512 112.047 88.7327 112.507 88.7327C112.96 88.7327 113.353 88.8408 113.688 89.0562C114.029 89.2648 114.29 89.5674 114.471 89.9638C114.659 90.3536 114.754 90.8194 114.754 91.3619C114.754 91.8977 114.659 92.3635 114.471 92.7599C114.29 93.1497 114.032 93.4522 113.698 93.6676C113.364 93.883 112.966 93.991 112.507 93.991C112.047 93.991 111.653 93.8763 111.326 93.6467C110.998 93.4105 110.775 93.0975 110.657 92.7078H110.782V95.4204C110.782 95.5597 110.744 95.6641 110.667 95.7334C110.59 95.8101 110.486 95.8481 110.354 95.8481ZM112.329 93.3129C112.649 93.3129 112.925 93.2361 113.155 93.0833C113.391 92.9306 113.573 92.7078 113.698 92.4156C113.83 92.1235 113.897 91.7725 113.897 91.3619C113.897 90.7292 113.754 90.2455 113.468 89.9117C113.19 89.5778 112.81 89.4109 112.329 89.4109C112.015 89.4109 111.74 89.4877 111.503 89.6404C111.267 89.7865 111.081 90.0056 110.949 90.2977C110.824 90.5831 110.761 90.9379 110.761 91.3619C110.761 91.9879 110.904 92.4715 111.19 92.8121C111.476 93.1459 111.855 93.3129 112.329 93.3129ZM118.14 93.991C117.645 93.991 117.217 93.883 116.854 93.6676C116.492 93.4522 116.21 93.1497 116.008 92.7599C115.813 92.3635 115.715 91.8977 115.715 91.3619C115.715 90.9587 115.771 90.5965 115.882 90.2768C115.994 89.9497 116.158 89.6717 116.373 89.4422C116.59 89.2127 116.844 89.039 117.136 88.9205C117.436 88.7953 117.771 88.7327 118.14 88.7327C118.635 88.7327 119.063 88.8408 119.425 89.0562C119.788 89.2715 120.066 89.5778 120.261 89.9743C120.464 90.364 120.564 90.8261 120.564 91.3619C120.564 91.7651 120.509 92.1272 120.397 92.4469C120.286 92.7666 120.122 93.0453 119.906 93.2816C119.69 93.5111 119.433 93.6885 119.133 93.8137C118.84 93.9322 118.509 93.991 118.14 93.991ZM118.14 93.3129C118.453 93.3129 118.729 93.2361 118.965 93.0833C119.203 92.9306 119.383 92.7078 119.509 92.4156C119.642 92.1235 119.707 91.7725 119.707 91.3619C119.707 90.7292 119.565 90.2455 119.279 89.9117C119 89.5778 118.62 89.4109 118.14 89.4109C117.819 89.4109 117.541 89.4877 117.304 89.6404C117.074 89.7865 116.893 90.0056 116.76 90.2977C116.635 90.5831 116.572 90.9379 116.572 91.3619C116.572 91.9879 116.715 92.4715 117.001 92.8121C117.286 93.1459 117.666 93.3129 118.14 93.3129ZM122.265 93.9702C122.125 93.9702 122.017 93.9322 121.941 93.8554C121.871 93.7786 121.836 93.6713 121.836 93.532V89.1814C121.836 89.042 121.871 88.9377 121.941 88.8684C122.01 88.7916 122.111 88.7536 122.244 88.7536C122.376 88.7536 122.477 88.7916 122.547 88.8684C122.623 88.9377 122.662 89.042 122.662 89.1814V90.0264H122.557C122.669 89.6158 122.881 89.2999 123.195 89.077C123.509 88.8542 123.895 88.7365 124.355 88.7223C124.46 88.7156 124.543 88.7394 124.606 88.7953C124.669 88.8438 124.703 88.931 124.71 89.0562C124.717 89.1747 124.689 89.2686 124.627 89.3379C124.564 89.4072 124.466 89.4489 124.334 89.4631L124.167 89.4839C123.693 89.5257 123.327 89.6784 123.07 89.943C122.819 90.2001 122.693 90.5548 122.693 91.0072V93.532C122.693 93.6713 122.655 93.7786 122.578 93.8554C122.508 93.9322 122.404 93.9702 122.265 93.9702ZM127.895 93.991C127.498 93.991 127.163 93.9217 126.892 93.7824C126.627 93.6363 126.429 93.4276 126.296 93.1564C126.164 92.8784 126.097 92.5408 126.097 92.1444V89.4839H125.397C125.279 89.4839 125.188 89.4564 125.125 89.4005C125.063 89.3379 125.031 89.2544 125.031 89.1501C125.031 89.0457 125.063 88.966 125.125 88.9101C125.188 88.8542 125.279 88.8266 125.397 88.8266H126.097V87.6268C126.097 87.4875 126.136 87.3831 126.212 87.3138C126.289 87.2371 126.394 87.1991 126.526 87.1991C126.659 87.1991 126.76 87.2371 126.829 87.3138C126.906 87.3831 126.944 87.4875 126.944 87.6268V88.8266H128.261C128.379 88.8266 128.47 88.8542 128.532 88.9101C128.595 88.966 128.627 89.0457 128.627 89.1501C128.627 89.2544 128.595 89.3379 128.532 89.4005C128.47 89.4564 128.379 89.4839 128.261 89.4839H126.944V92.0609C126.944 92.4574 127.028 92.7599 127.195 92.9686C127.362 93.1705 127.634 93.2711 128.01 93.2711C128.143 93.2711 128.254 93.257 128.344 93.2294C128.442 93.2018 128.522 93.1877 128.585 93.1877C128.647 93.181 128.7 93.2018 128.742 93.2503C128.783 93.2987 128.804 93.3822 128.804 93.5007C128.804 93.5841 128.787 93.6609 128.752 93.7302C128.724 93.7995 128.672 93.8487 128.595 93.8763C128.512 93.9038 128.4 93.9284 128.261 93.9493C128.129 93.9769 128.007 93.991 127.895 93.991Z" fill="#171717"/>
<mask id="mask1_13129_59800" style="mask-type:luminance" maskUnits="userSpaceOnUse" x="159" y="84" width="12" height="13">
<path d="M170.949 84.582H159.005V96.5056H170.949V84.582Z" fill="white"/>
</mask>
<g mask="url(#mask1_13129_59800)">
<path d="M164.977 89.9594L162.514 92.4187L161.811 91.7167L164.977 88.5547L168.145 91.7167L167.441 92.4187L164.977 89.9594Z" fill="#666666"/>
</g>
<path d="M288.897 122.215H32.0999C30.863 122.215 29.8604 123.216 29.8604 124.451C29.8604 125.685 30.863 126.686 32.0999 126.686H288.897C290.134 126.686 291.137 125.685 291.137 124.451C291.137 123.216 290.134 122.215 288.897 122.215Z" fill="#F7F1F1"/>
<path d="M210.514 134.137H32.0999C30.863 134.137 29.8604 135.138 29.8604 136.372C29.8604 137.607 30.863 138.608 32.0999 138.608H210.514C211.751 138.608 212.754 137.607 212.754 136.372C212.754 135.138 211.751 134.137 210.514 134.137Z" fill="#F7F1F1"/>
<path d="M356.082 146.062H32.0999C30.863 146.062 29.8604 147.063 29.8604 148.298C29.8604 149.533 30.863 150.534 32.0999 150.534H356.082C357.319 150.534 358.322 149.533 358.322 148.298C358.322 147.063 357.319 146.062 356.082 146.062Z" fill="#F7F1F1"/>
<path d="M147.061 157.984H32.0999C30.863 157.984 29.8604 158.985 29.8604 160.22C29.8604 161.455 30.863 162.456 32.0999 162.456H147.061C148.298 162.456 149.301 161.455 149.301 160.22C149.301 158.985 148.298 157.984 147.061 157.984Z" fill="#F7F1F1"/>
<path d="M125.413 177.363H33.5929C31.5315 177.363 29.8604 179.032 29.8604 181.089V200.465C29.8604 202.523 31.5315 204.191 33.5929 204.191H125.413C127.474 204.191 129.145 202.523 129.145 200.465V181.089C129.145 179.032 127.474 177.363 125.413 177.363Z" fill="#F6F6F6"/>
<path d="M47.2791 189.257C47.2739 189.211 47.2639 189.166 47.2493 189.123V189.078C47.2253 189.026 47.1934 188.98 47.1547 188.939L44.1687 185.958C44.1275 185.919 44.0805 185.887 44.0293 185.863C44.0145 185.861 43.9994 185.861 43.9845 185.863C43.934 185.834 43.8781 185.816 43.8203 185.809H40.8094C40.4135 185.809 40.0337 185.966 39.7537 186.245C39.4737 186.525 39.3164 186.904 39.3164 187.299V194.254C39.3164 194.65 39.4737 195.028 39.7537 195.309C40.0337 195.588 40.4135 195.745 40.8094 195.745H45.7861C46.1821 195.745 46.5618 195.588 46.8418 195.309C47.1218 195.028 47.2791 194.65 47.2791 194.254V189.287C47.2791 189.287 47.2791 189.287 47.2791 189.257ZM44.2931 187.502L45.582 188.789H44.7907C44.6588 188.789 44.5322 188.737 44.4388 188.644C44.3455 188.551 44.2931 188.424 44.2931 188.292V187.502ZM46.2837 194.254C46.2837 194.386 46.2313 194.513 46.138 194.606C46.0446 194.699 45.9181 194.751 45.7861 194.751H40.8094C40.6774 194.751 40.5508 194.699 40.4575 194.606C40.3642 194.513 40.3117 194.386 40.3117 194.254V187.299C40.3117 187.167 40.3642 187.041 40.4575 186.948C40.5508 186.855 40.6774 186.802 40.8094 186.802H43.2977V188.292C43.2977 188.688 43.455 189.067 43.735 189.347C44.015 189.626 44.3948 189.783 44.7907 189.783H46.2837V194.254ZM44.2931 191.77H43.7954V191.273C43.7954 191.142 43.743 191.015 43.6496 190.922C43.5563 190.829 43.4297 190.777 43.2977 190.777C43.1658 190.777 43.0391 190.829 42.9458 190.922C42.8525 191.015 42.8001 191.142 42.8001 191.273V191.77H42.3024C42.1704 191.77 42.0438 191.823 41.9505 191.916C41.8572 192.009 41.8047 192.136 41.8047 192.267C41.8047 192.399 41.8572 192.525 41.9505 192.618C42.0438 192.712 42.1704 192.764 42.3024 192.764H42.8001V193.261C42.8001 193.393 42.8525 193.519 42.9458 193.612C43.0391 193.705 43.1658 193.758 43.2977 193.758C43.4297 193.758 43.5563 193.705 43.6496 193.612C43.743 193.519 43.7954 193.393 43.7954 193.261V192.764H44.2931C44.4251 192.764 44.5516 192.712 44.645 192.618C44.7383 192.525 44.7907 192.399 44.7907 192.267C44.7907 192.136 44.7383 192.009 44.645 191.916C44.5516 191.823 44.4251 191.77 44.2931 191.77Z" fill="#9B9B9B"/>
<path d="M57.4392 193.837C56.7524 193.837 56.1731 193.708 55.7014 193.452C55.2296 193.19 54.8712 192.817 54.6264 192.334C54.3875 191.851 54.2681 191.276 54.2681 190.608C54.2681 190.108 54.3367 189.66 54.4741 189.267C54.6174 188.867 54.8205 188.528 55.0833 188.247C55.352 187.961 55.6775 187.744 56.0597 187.595C56.4479 187.446 56.8868 187.371 57.3765 187.371C57.7348 187.371 58.0872 187.419 58.4336 187.514C58.7799 187.604 59.0964 187.753 59.3831 187.961C59.4667 188.021 59.5205 188.089 59.5444 188.167C59.5682 188.244 59.5682 188.325 59.5444 188.408C59.5264 188.486 59.4876 188.555 59.4279 188.614C59.3742 188.674 59.3055 188.71 59.2219 188.721C59.1442 188.733 59.0576 188.71 58.9621 188.65C58.7292 188.489 58.4843 188.373 58.2275 188.301C57.9707 188.224 57.6871 188.185 57.3765 188.185C56.9107 188.185 56.5165 188.28 56.194 188.471C55.8775 188.662 55.6386 188.939 55.4774 189.303C55.3162 189.66 55.2355 190.096 55.2355 190.608C55.2355 191.401 55.4237 192.003 55.7999 192.415C56.1761 192.826 56.7345 193.032 57.475 193.032C57.7438 193.032 58.0066 193.008 58.2634 192.96C58.5261 192.907 58.7769 192.832 59.0158 192.737L58.8277 193.202V191.118H57.6721C57.5527 191.118 57.4571 191.088 57.3855 191.029C57.3198 190.963 57.2869 190.874 57.2869 190.76C57.2869 190.647 57.3198 190.564 57.3855 190.51C57.4571 190.45 57.5527 190.421 57.6721 190.421H59.2219C59.3473 190.421 59.4428 190.453 59.5085 190.519C59.5742 190.584 59.6071 190.68 59.6071 190.805V193.059C59.6071 193.166 59.5862 193.258 59.5444 193.336C59.5085 193.407 59.4458 193.461 59.3562 193.497C59.0994 193.598 58.7979 193.682 58.4515 193.747C58.1051 193.807 57.7677 193.837 57.4392 193.837ZM62.9882 193.837C62.5104 193.837 62.0984 193.747 61.752 193.568C61.4116 193.384 61.1458 193.124 60.9547 192.79C60.7696 192.451 60.677 192.048 60.677 191.583C60.677 191.13 60.7696 190.734 60.9547 190.394C61.1399 190.054 61.3937 189.789 61.7162 189.598C62.0386 189.407 62.4059 189.312 62.818 189.312C63.1226 189.312 63.3943 189.362 63.6332 189.464C63.8721 189.559 64.0751 189.702 64.2423 189.893C64.4155 190.078 64.5439 190.304 64.6275 190.573C64.7171 190.841 64.7619 191.142 64.7619 191.476C64.7619 191.577 64.732 191.655 64.6723 191.708C64.6126 191.756 64.523 191.78 64.4036 191.78H61.3937V191.225H64.1527L64.0005 191.351C64.0005 191.052 63.9557 190.799 63.8661 190.59C63.7825 190.382 63.6541 190.224 63.4809 190.116C63.3137 190.003 63.1047 189.947 62.8538 189.947C62.5731 189.947 62.3343 190.012 62.1372 190.143C61.9461 190.274 61.7998 190.456 61.6982 190.689C61.5967 190.921 61.546 191.193 61.546 191.503V191.556C61.546 192.081 61.6684 192.477 61.9132 192.746C62.1641 193.008 62.5254 193.139 62.9972 193.139C63.1763 193.139 63.3644 193.115 63.5615 193.068C63.7646 193.02 63.9557 192.939 64.1348 192.826C64.2364 192.767 64.3259 192.74 64.4036 192.746C64.4872 192.752 64.5529 192.778 64.6006 192.826C64.6544 192.874 64.6872 192.933 64.6992 193.005C64.7111 193.077 64.6992 193.151 64.6634 193.229C64.6275 193.3 64.5648 193.366 64.4752 193.425C64.2722 193.562 64.0363 193.667 63.7675 193.738C63.4988 193.804 63.239 193.837 62.9882 193.837ZM66.1962 193.819C66.0529 193.819 65.9424 193.78 65.8648 193.703C65.7871 193.619 65.7483 193.506 65.7483 193.363V189.786C65.7483 189.637 65.7871 189.523 65.8648 189.446C65.9424 189.368 66.0499 189.33 66.1873 189.33C66.3306 189.33 66.4381 189.368 66.5098 189.446C66.5874 189.523 66.6262 189.637 66.6262 189.786V190.483L66.5277 190.322C66.6591 189.988 66.8651 189.738 67.1458 189.571C67.4265 189.398 67.7489 189.312 68.1132 189.312C68.4596 189.312 68.7463 189.377 68.9732 189.508C69.2061 189.634 69.3793 189.827 69.4928 190.09C69.6062 190.346 69.663 190.671 69.663 191.064V193.363C69.663 193.506 69.6242 193.619 69.5465 193.703C69.4689 193.78 69.3584 193.819 69.2151 193.819C69.0658 193.819 68.9523 193.78 68.8747 193.703C68.797 193.619 68.7582 193.506 68.7582 193.363V191.118C68.7582 190.742 68.6836 190.468 68.5343 190.295C68.3909 190.122 68.164 190.036 67.8535 190.036C67.4892 190.036 67.1965 190.149 66.9756 190.376C66.7606 190.602 66.6531 190.906 66.6531 191.288V193.363C66.6531 193.667 66.5008 193.819 66.1962 193.819ZM72.961 193.837C72.4833 193.837 72.0712 193.747 71.7248 193.568C71.3844 193.384 71.1187 193.124 70.9276 192.79C70.7424 192.451 70.6499 192.048 70.6499 191.583C70.6499 191.13 70.7424 190.734 70.9276 190.394C71.1127 190.054 71.3665 189.789 71.689 189.598C72.0115 189.407 72.3788 189.312 72.7908 189.312C73.0954 189.312 73.3671 189.362 73.606 189.464C73.8449 189.559 74.0479 189.702 74.2152 189.893C74.3884 190.078 74.5168 190.304 74.6004 190.573C74.6902 190.841 74.735 191.142 74.735 191.476C74.735 191.577 74.7051 191.655 74.6451 191.708C74.5854 191.756 74.4958 191.78 74.3764 191.78H71.3665V191.225H74.1256L73.9733 191.351C73.9733 191.052 73.9285 190.799 73.8389 190.59C73.7553 190.382 73.6269 190.224 73.4537 190.116C73.2865 190.003 73.0775 189.947 72.8267 189.947C72.546 189.947 72.3071 190.012 72.11 190.143C71.9189 190.274 71.7726 190.456 71.6711 190.689C71.5696 190.921 71.5188 191.193 71.5188 191.503V191.556C71.5188 192.081 71.6412 192.477 71.8861 192.746C72.1369 193.008 72.4982 193.139 72.97 193.139C73.1492 193.139 73.3373 193.115 73.5344 193.068C73.7374 193.02 73.9285 192.939 74.1077 192.826C74.2092 192.767 74.2988 192.74 74.3764 192.746C74.46 192.752 74.5257 192.778 74.5735 192.826C74.6272 192.874 74.6603 192.933 74.6722 193.005C74.6842 193.077 74.6722 193.151 74.6362 193.229C74.6004 193.3 74.5377 193.366 74.4481 193.425C74.245 193.562 74.0091 193.667 73.7404 193.738C73.4716 193.804 73.2119 193.837 72.961 193.837ZM76.1779 193.819C76.0286 193.819 75.9152 193.78 75.8375 193.703C75.7599 193.619 75.7211 193.506 75.7211 193.363V189.786C75.7211 189.637 75.7599 189.523 75.8375 189.446C75.9152 189.368 76.0227 189.33 76.16 189.33C76.3034 189.33 76.4109 189.368 76.4825 189.446C76.5602 189.523 76.599 189.637 76.599 189.786V190.438H76.5094C76.6049 190.081 76.7811 189.809 77.0379 189.625C77.2947 189.44 77.6232 189.333 78.0233 189.303C78.1308 189.297 78.2144 189.324 78.2741 189.383C78.3398 189.443 78.3757 189.535 78.3816 189.66C78.3936 189.786 78.3667 189.887 78.301 189.964C78.2353 190.036 78.1338 190.078 77.9964 190.09L77.8262 190.108C77.438 190.143 77.1424 190.266 76.9394 190.474C76.7363 190.683 76.6348 190.969 76.6348 191.333V193.363C76.6348 193.506 76.596 193.619 76.5183 193.703C76.4467 193.78 76.3332 193.819 76.1779 193.819ZM80.4166 193.837C80.112 193.837 79.8373 193.777 79.5925 193.658C79.3536 193.539 79.1654 193.378 79.0281 193.175C78.8907 192.972 78.8221 192.743 78.8221 192.486C78.8221 192.164 78.9027 191.911 79.0639 191.726C79.2311 191.535 79.5029 191.401 79.8791 191.324C80.2613 191.24 80.7749 191.199 81.4199 191.199H81.8409V191.753H81.4289C80.9989 191.753 80.6585 191.774 80.4076 191.816C80.1568 191.857 79.9776 191.929 79.8701 192.03C79.7686 192.126 79.7179 192.26 79.7179 192.433C79.7179 192.659 79.7955 192.844 79.9508 192.987C80.106 193.124 80.321 193.193 80.5957 193.193C80.8167 193.193 81.0108 193.142 81.178 193.041C81.3452 192.933 81.4766 192.79 81.5722 192.611C81.6737 192.433 81.7245 192.227 81.7245 191.994V190.966C81.7245 190.626 81.6528 190.382 81.5095 190.233C81.3661 190.084 81.1302 190.009 80.8018 190.009C80.6107 190.009 80.4106 190.033 80.2016 190.081C79.9985 190.128 79.7865 190.209 79.5656 190.322C79.4641 190.37 79.3775 190.385 79.3058 190.367C79.2341 190.349 79.1774 190.31 79.1356 190.251C79.0938 190.185 79.0699 190.116 79.0639 190.045C79.0639 189.967 79.0818 189.893 79.1177 189.821C79.1595 189.75 79.2282 189.696 79.3237 189.66C79.5865 189.535 79.8463 189.446 80.1031 189.392C80.3599 189.338 80.6017 189.312 80.8287 189.312C81.2288 189.312 81.5572 189.374 81.814 189.499C82.0768 189.625 82.2709 189.815 82.3963 190.072C82.5217 190.328 82.5844 190.659 82.5844 191.064V193.363C82.5844 193.506 82.5486 193.619 82.4769 193.703C82.4053 193.78 82.3008 193.819 82.1634 193.819C82.032 193.819 81.9275 193.78 81.8499 193.703C81.7722 193.619 81.7334 193.506 81.7334 193.363V192.781H81.814C81.7663 193.002 81.6767 193.193 81.5453 193.354C81.4199 193.509 81.2616 193.628 81.0705 193.711C80.8794 193.795 80.6614 193.837 80.4166 193.837ZM85.6936 193.837C85.3353 193.837 85.0337 193.774 84.7889 193.649C84.544 193.524 84.3619 193.339 84.2424 193.094C84.123 192.85 84.0633 192.552 84.0633 192.2V190.09H83.5258C83.4063 190.09 83.3138 190.06 83.2481 190C83.1824 189.935 83.1495 189.848 83.1495 189.741C83.1495 189.628 83.1824 189.541 83.2481 189.482C83.3138 189.422 83.4063 189.392 83.5258 189.392H84.0633V188.471C84.0633 188.322 84.1021 188.209 84.1797 188.131C84.2633 188.054 84.3768 188.015 84.5201 188.015C84.6635 188.015 84.7739 188.054 84.8516 188.131C84.9292 188.209 84.968 188.322 84.968 188.471V189.392H86.0161C86.1356 189.392 86.2281 189.422 86.2938 189.482C86.3595 189.541 86.3923 189.628 86.3923 189.741C86.3923 189.848 86.3595 189.935 86.2938 190C86.2281 190.06 86.1356 190.09 86.0161 190.09H84.968V192.129C84.968 192.445 85.0337 192.683 85.1651 192.844C85.3025 193.005 85.5234 193.085 85.828 193.085C85.9355 193.085 86.0281 193.077 86.1057 193.059C86.1893 193.035 86.258 193.02 86.3117 193.014C86.3774 193.014 86.4312 193.038 86.473 193.085C86.5148 193.127 86.5357 193.211 86.5357 193.336C86.5357 193.425 86.5178 193.509 86.4819 193.586C86.4521 193.664 86.3953 193.714 86.3117 193.738C86.2401 193.762 86.1415 193.783 86.0161 193.801C85.8967 193.825 85.7892 193.837 85.6936 193.837ZM89.1104 193.837C88.6326 193.837 88.2205 193.747 87.8742 193.568C87.5338 193.384 87.268 193.124 87.0769 192.79C86.8918 192.451 86.7992 192.048 86.7992 191.583C86.7992 191.13 86.8918 190.734 87.0769 190.394C87.262 190.054 87.5158 189.789 87.8383 189.598C88.1608 189.407 88.5281 189.312 88.9402 189.312C89.2447 189.312 89.5165 189.362 89.7553 189.464C89.9942 189.559 90.1973 189.702 90.3645 189.893C90.5377 190.078 90.6661 190.304 90.7497 190.573C90.8393 190.841 90.8841 191.142 90.8841 191.476C90.8841 191.577 90.8542 191.655 90.7945 191.708C90.7348 191.756 90.6452 191.78 90.5257 191.78H87.5158V191.225H90.2749L90.1226 191.351C90.1226 191.052 90.0778 190.799 89.9883 190.59C89.9046 190.382 89.7762 190.224 89.6031 190.116C89.4358 190.003 89.2268 189.947 88.976 189.947C88.6953 189.947 88.4564 190.012 88.2594 190.143C88.0683 190.274 87.9219 190.456 87.8204 190.689C87.7189 190.921 87.6681 191.193 87.6681 191.503V191.556C87.6681 192.081 87.7906 192.477 88.0354 192.746C88.2862 193.008 88.6475 193.139 89.1193 193.139C89.2985 193.139 89.4866 193.115 89.6837 193.068C89.8867 193.02 90.0778 192.939 90.257 192.826C90.3585 192.767 90.4481 192.74 90.5257 192.746C90.6093 192.752 90.675 192.778 90.7228 192.826C90.7766 192.874 90.8094 192.933 90.8214 193.005C90.8333 193.077 90.8214 193.151 90.7855 193.229C90.7497 193.3 90.687 193.366 90.5974 193.425C90.3944 193.562 90.1585 193.667 89.8897 193.738C89.621 193.804 89.3612 193.837 89.1104 193.837ZM94.7965 193.819C94.6472 193.819 94.5307 193.777 94.4471 193.694C94.3695 193.61 94.3307 193.494 94.3307 193.345V187.926C94.3307 187.771 94.3725 187.654 94.4561 187.577C94.5397 187.493 94.6561 187.452 94.8054 187.452H96.9464C97.6272 187.452 98.1528 187.613 98.523 187.934C98.8933 188.256 99.0784 188.712 99.0784 189.303C99.0784 189.684 98.9948 190.012 98.8276 190.286C98.6604 190.561 98.4155 190.769 98.093 190.912C97.7765 191.055 97.3943 191.127 96.9464 191.127L97.027 191.002H97.2599C97.4988 191.002 97.7049 191.061 97.8781 191.181C98.0572 191.3 98.2185 191.491 98.3618 191.753L99.1322 193.184C99.1919 193.291 99.2188 193.395 99.2128 193.497C99.2128 193.592 99.177 193.67 99.1053 193.729C99.0396 193.789 98.9441 193.819 98.8186 193.819C98.6873 193.819 98.5798 193.792 98.4962 193.738C98.4185 193.679 98.3469 193.592 98.2812 193.479L97.3406 191.744C97.2152 191.512 97.0718 191.357 96.9106 191.279C96.7493 191.196 96.5373 191.154 96.2746 191.154H95.2623V193.345C95.2623 193.494 95.2235 193.61 95.1459 193.694C95.0682 193.777 94.9518 193.819 94.7965 193.819ZM95.2623 190.456H96.7941C97.248 190.456 97.5914 190.361 97.8243 190.17C98.0572 189.979 98.1737 189.696 98.1737 189.321C98.1737 188.951 98.0572 188.671 97.8243 188.48C97.5914 188.289 97.248 188.194 96.7941 188.194H95.2623V190.456ZM102.241 193.837C101.763 193.837 101.351 193.747 101.004 193.568C100.664 193.384 100.398 193.124 100.207 192.79C100.022 192.451 99.9295 192.048 99.9295 191.583C99.9295 191.13 100.022 190.734 100.207 190.394C100.392 190.054 100.646 189.789 100.969 189.598C101.291 189.407 101.658 189.312 102.07 189.312C102.375 189.312 102.647 189.362 102.886 189.464C103.124 189.559 103.328 189.702 103.495 189.893C103.668 190.078 103.796 190.304 103.88 190.573C103.97 190.841 104.014 191.142 104.014 191.476C104.014 191.577 103.984 191.655 103.925 191.708C103.865 191.756 103.775 191.78 103.656 191.78H100.646V191.225H103.405L103.253 191.351C103.253 191.052 103.208 190.799 103.119 190.59C103.035 190.382 102.907 190.224 102.733 190.116C102.566 190.003 102.357 189.947 102.106 189.947C101.826 189.947 101.587 190.012 101.39 190.143C101.199 190.274 101.052 190.456 100.951 190.689C100.849 190.921 100.798 191.193 100.798 191.503V191.556C100.798 192.081 100.921 192.477 101.166 192.746C101.416 193.008 101.778 193.139 102.25 193.139C102.429 193.139 102.617 193.115 102.814 193.068C103.017 193.02 103.208 192.939 103.387 192.826C103.489 192.767 103.578 192.74 103.656 192.746C103.74 192.752 103.805 192.778 103.853 192.826C103.907 192.874 103.94 192.933 103.952 193.005C103.964 193.077 103.952 193.151 103.916 193.229C103.88 193.3 103.817 193.366 103.728 193.425C103.525 193.562 103.289 193.667 103.02 193.738C102.751 193.804 102.491 193.837 102.241 193.837ZM105.449 195.428C105.306 195.428 105.195 195.39 105.118 195.312C105.04 195.235 105.001 195.121 105.001 194.972V189.786C105.001 189.637 105.04 189.523 105.118 189.446C105.195 189.368 105.303 189.33 105.44 189.33C105.583 189.33 105.694 189.368 105.772 189.446C105.849 189.523 105.888 189.637 105.888 189.786V190.564L105.789 190.376C105.885 190.054 106.073 189.798 106.354 189.607C106.635 189.41 106.966 189.312 107.348 189.312C107.736 189.312 108.074 189.404 108.36 189.589C108.653 189.774 108.877 190.033 109.032 190.367C109.194 190.701 109.274 191.103 109.274 191.574C109.274 192.033 109.194 192.436 109.032 192.781C108.877 193.121 108.656 193.384 108.369 193.568C108.083 193.747 107.742 193.837 107.348 193.837C106.972 193.837 106.643 193.741 106.363 193.55C106.082 193.36 105.894 193.106 105.798 192.79H105.906V194.972C105.906 195.121 105.864 195.235 105.781 195.312C105.703 195.39 105.592 195.428 105.449 195.428ZM107.124 193.139C107.375 193.139 107.593 193.08 107.778 192.96C107.963 192.841 108.107 192.665 108.208 192.433C108.31 192.2 108.36 191.914 108.36 191.574C108.36 191.061 108.247 190.674 108.02 190.412C107.799 190.149 107.5 190.018 107.124 190.018C106.879 190.018 106.661 190.078 106.47 190.197C106.285 190.31 106.142 190.483 106.04 190.716C105.939 190.948 105.888 191.234 105.888 191.574C105.888 192.081 106.001 192.468 106.228 192.737C106.455 193.005 106.754 193.139 107.124 193.139ZM112.193 193.837C111.751 193.837 111.369 193.744 111.046 193.559C110.73 193.375 110.482 193.112 110.303 192.772C110.124 192.433 110.034 192.033 110.034 191.574C110.034 191.222 110.085 190.909 110.186 190.635C110.288 190.361 110.431 190.125 110.616 189.929C110.807 189.726 111.034 189.574 111.297 189.473C111.566 189.365 111.865 189.312 112.193 189.312C112.629 189.312 113.005 189.404 113.322 189.589C113.644 189.774 113.895 190.036 114.074 190.376C114.253 190.71 114.343 191.109 114.343 191.574C114.343 191.92 114.292 192.233 114.191 192.513C114.089 192.793 113.943 193.032 113.752 193.229C113.567 193.425 113.34 193.577 113.071 193.685C112.808 193.786 112.515 193.837 112.193 193.837ZM112.193 193.139C112.438 193.139 112.653 193.08 112.838 192.96C113.023 192.841 113.166 192.665 113.268 192.433C113.375 192.2 113.429 191.914 113.429 191.574C113.429 191.061 113.316 190.674 113.089 190.412C112.862 190.149 112.563 190.018 112.193 190.018C111.942 190.018 111.724 190.078 111.539 190.197C111.354 190.31 111.208 190.483 111.1 190.716C110.999 190.948 110.948 191.234 110.948 191.574C110.948 192.081 111.061 192.468 111.288 192.737C111.515 193.005 111.817 193.139 112.193 193.139ZM115.816 193.819C115.666 193.819 115.553 193.78 115.475 193.703C115.398 193.619 115.359 193.506 115.359 193.363V189.786C115.359 189.637 115.398 189.523 115.475 189.446C115.553 189.368 115.661 189.33 115.798 189.33C115.941 189.33 116.049 189.368 116.12 189.446C116.198 189.523 116.237 189.637 116.237 189.786V190.438H116.147C116.243 190.081 116.419 189.809 116.676 189.625C116.933 189.44 117.261 189.333 117.661 189.303C117.769 189.297 117.852 189.324 117.912 189.383C117.978 189.443 118.013 189.535 118.019 189.66C118.031 189.786 118.005 189.887 117.939 189.964C117.873 190.036 117.772 190.078 117.634 190.09L117.464 190.108C117.076 190.143 116.78 190.266 116.577 190.474C116.374 190.683 116.273 190.969 116.273 191.333V193.363C116.273 193.506 116.234 193.619 116.156 193.703C116.085 193.78 115.971 193.819 115.816 193.819ZM120.808 193.837C120.45 193.837 120.148 193.774 119.904 193.649C119.659 193.524 119.477 193.339 119.357 193.094C119.238 192.85 119.178 192.552 119.178 192.2V190.09H118.641C118.521 190.09 118.429 190.06 118.363 190C118.297 189.935 118.264 189.848 118.264 189.741C118.264 189.628 118.297 189.541 118.363 189.482C118.429 189.422 118.521 189.392 118.641 189.392H119.178V188.471C119.178 188.322 119.217 188.209 119.294 188.131C119.378 188.054 119.492 188.015 119.635 188.015C119.778 188.015 119.889 188.054 119.966 188.131C120.044 188.209 120.083 188.322 120.083 188.471V189.392H121.131C121.25 189.392 121.343 189.422 121.409 189.482C121.474 189.541 121.507 189.628 121.507 189.741C121.507 189.848 121.474 189.935 121.409 190C121.343 190.06 121.25 190.09 121.131 190.09H120.083V192.129C120.083 192.445 120.148 192.683 120.28 192.844C120.417 193.005 120.638 193.085 120.943 193.085C121.05 193.085 121.143 193.077 121.22 193.059C121.304 193.035 121.373 193.02 121.427 193.014C121.492 193.014 121.546 193.038 121.588 193.085C121.63 193.127 121.65 193.211 121.65 193.336C121.65 193.425 121.633 193.509 121.597 193.586C121.567 193.664 121.51 193.714 121.427 193.738C121.355 193.762 121.256 193.783 121.131 193.801C121.011 193.825 120.904 193.837 120.808 193.837Z" fill="#9B9B9B"/>
</g>
</g>
<defs>
<filter id="filter0_d_13129_59800" x="-0.0698242" y="-0.09375" width="150.934" height="66.5156" filterUnits="userSpaceOnUse" color-interpolation-filters="sRGB">
<feFlood flood-opacity="0" result="BackgroundImageFix"/>
<feColorMatrix in="SourceAlpha" type="matrix" values="0 0 0 0 0 0 0 0 0 0 0 0 0 0 0 0 0 0 127 0" result="hardAlpha"/>
<feOffset/>
<feGaussianBlur stdDeviation="7.5"/>
<feComposite in2="hardAlpha" operator="out"/>
<feColorMatrix type="matrix" values="0 0 0 0 0.976471 0 0 0 0 0.482353 0 0 0 0 0.360784 0 0 0 0.2 0"/>
<feBlend mode="normal" in2="BackgroundImageFix" result="effect1_dropShadow_13129_59800"/>
<feBlend mode="normal" in="SourceGraphic" in2="effect1_dropShadow_13129_59800" result="shape"/>
</filter>
<filter id="filter1_d_13129_59800" x="-12.0698" y="36.8711" width="457.14" height="220.223" filterUnits="userSpaceOnUse" color-interpolation-filters="sRGB">
<feFlood flood-opacity="0" result="BackgroundImageFix"/>
<feColorMatrix in="SourceAlpha" type="matrix" values="0 0 0 0 0 0 0 0 0 0 0 0 0 0 0 0 0 0 127 0" result="hardAlpha"/>
<feOffset dx="3" dy="8"/>
<feGaussianBlur stdDeviation="15"/>
<feComposite in2="hardAlpha" operator="out"/>
<feColorMatrix type="matrix" values="0 0 0 0 0 0 0 0 0 0 0 0 0 0 0 0 0 0 0.04 0"/>
<feBlend mode="normal" in2="BackgroundImageFix" result="effect1_dropShadow_13129_59800"/>
<feBlend mode="normal" in="SourceGraphic" in2="effect1_dropShadow_13129_59800" result="shape"/>
</filter>
</defs>
</svg>
